#N canvas 0 47 1920 1153 10;
#X obj 34 337 r midiClock;
#X obj 34 385 int;
#X obj 33 440 !=;
#X obj 33 465 select 1;
#X obj 34 408 t f f f;
#X obj 33 492 f;
#X obj 33 560 s patternCounter;
#X obj 1262 31 r PatternStep1;
#X obj 1270 56 r PatternStep2;
#X obj 1386 29 r PatternStep3;
#X obj 1409 53 r PatternStep4;
#X obj 1262 125 +;
#X obj 1271 90 t b f;
#X floatatom 619 45 5 0 4 0 - - -, f 5;
#X floatatom 705 45 5 0 4 0 - - -, f 5;
#X obj 608 79 s PatternStep1;
#X obj 608 159 s PatternRepeat1;
#X obj 608 230 s PatternOn1;
#X obj 738 159 s PatternRepeat2;
#X obj 738 79 s PatternStep2;
#X obj 868 80 s PatternStep3;
#X obj 868 160 s PatternRepeat3;
#X obj 868 230 s PatternOn3;
#X obj 998 79 s PatternStep4;
#X obj 998 159 s PatternRepeat4;
#X obj 998 229 s PatternOn4;
#X obj 1001 201 tgl 15 0 empty empty empty 17 7 0 10 -262144 -1 -1
1 1;
#X obj 1001 122 tgl 15 0 empty empty empty 17 7 0 10 -262144 -1 -1
1 1;
#X obj 869 125 tgl 15 0 empty empty empty 17 7 0 10 -262144 -1 -1 1
1;
#X obj 749 120 tgl 15 0 empty empty empty 17 7 0 10 -262144 -1 -1 1
1;
#X obj 603 128 tgl 15 0 empty empty empty 17 7 0 10 -262144 -1 -1 1
1;
#X obj 738 202 tgl 15 0 empty empty empty 17 7 0 10 -262144 -1 -1 1
1;
#X obj 879 200 tgl 15 0 empty empty empty 17 7 0 10 -262144 -1 -1 1
1;
#X floatatom 883 37 5 0 4 0 - - -, f 5;
#X floatatom 969 37 5 0 4 0 - - -, f 5;
#X obj 1381 121 +;
#X obj 1390 87 t b f;
#X obj 1316 187 +;
#X obj 1381 150 t b f;
#X obj 1315 227 s patternLength;
#X obj 33 532 %;
#X obj 71 494 r patternLength;
#X floatatom 71 516 5 0 0 0 - - -, f 5;
#X obj 1265 263 r patternCounter;
#X obj 1265 325 moses;
#X obj 1413 289 r PatternStep1;
#X obj 1395 358 -;
#X obj 1395 381 moses;
#X obj 1517 403 -;
#X obj 1535 347 r PatternStep2;
#X obj 1517 428 moses;
#X obj 1665 392 r PatternStep3;
#X obj 1647 454 -;
#X obj 236 364 r PatternRepeat1;
#X obj 236 390 * 4;
#X obj 236 414 + 1;
#X obj 204 439 moses;
#X obj 1647 601 select 0;
#X obj 608 202 tgl 15 0 empty empty empty 17 7 0 10 -262144 -1 -1 1
1;
#X obj 1647 579 spigot;
#X obj 1647 623 s arpNextNote;
#X obj 204 338 r arpStep1;
#X obj 1657 527 s arpStep4;
#X obj 1517 601 select 0;
#X obj 1517 579 spigot;
#X obj 1517 623 s arpNextNote;
#X obj 1527 527 s arpStep3;
#X obj 1395 601 select 0;
#X obj 1395 579 spigot;
#X obj 1395 623 s arpNextNote;
#X obj 1405 527 s arpStep2;
#X obj 1265 601 select 0;
#X obj 1265 579 spigot;
#X obj 1265 623 s arpNextNote;
#X obj 1263 530 s arpStep1;
#X obj 257 115 r tickTime;
#X obj 212 165 *;
#X obj 211 28 / 255;
#X obj 212 115 t b f;
#X obj 212 231 s arpNoteDecay;
#X floatatom 1139 39 5 0 254 0 - - -, f 5;
#X obj 1138 72 s arpDecay;
#X obj 1162 7 loadbang;
#X obj 204 779 s arpNoteOn;
#X obj 245 826 s arpNoteOff;
#X obj 204 653 bang;
#X obj 456 390 * 4;
#X obj 456 414 + 1;
#X obj 424 439 moses;
#X obj 424 653 bang;
#X obj 424 338 r arpStep2;
#X obj 456 364 r PatternRepeat2;
#X obj 666 390 * 4;
#X obj 666 414 + 1;
#X obj 634 439 moses;
#X obj 634 653 bang;
#X obj 886 390 * 4;
#X obj 886 414 + 1;
#X obj 854 439 moses;
#X obj 854 653 bang;
#X obj 634 338 r arpStep3;
#X obj 666 364 r PatternRepeat3;
#X obj 854 338 r arpStep4;
#X obj 886 364 r PatternRepeat4;
#X obj 214 679 s editLed1On;
#X obj 434 679 s editLed2On;
#X obj 644 679 s editLed3On;
#X obj 255 655 s editLed1Off;
#X obj 476 655 s editLed2Off;
#X obj 686 655 s editLed3Off;
#X obj 284 731 r PatternOn1;
#X obj 245 805 spigot;
#X obj 204 755 spigot;
#X obj 424 779 s arpNoteOn;
#X obj 465 826 s arpNoteOff;
#X obj 465 805 spigot;
#X obj 424 755 spigot;
#X obj 635 779 s arpNoteOn;
#X obj 676 826 s arpNoteOff;
#X obj 676 805 spigot;
#X obj 635 755 spigot;
#X obj 715 731 r PatternOn3;
#X obj 504 731 r PatternOn2;
#X obj 854 779 s arpNoteOn;
#X obj 895 826 s arpNoteOff;
#X obj 895 805 spigot;
#X obj 854 755 spigot;
#X obj 934 731 r PatternOn4;
#X obj 255 915 r editLed1Off;
#X obj 214 939 r editLed1On;
#X msg 214 983 1;
#X msg 255 984 0;
#X obj 243 1015 tgl 15 0 empty empty empty 17 7 0 10 -262144 -1 -1
0 1;
#X msg 334 983 1;
#X msg 375 984 0;
#X obj 351 1015 tgl 15 0 empty empty empty 17 7 0 10 -262144 -1 -1
0 1;
#X obj 375 915 r editLed2Off;
#X obj 334 939 r editLed2On;
#X msg 444 983 1;
#X msg 485 984 0;
#X obj 461 1015 tgl 15 0 empty empty empty 17 7 0 10 -262144 -1 -1
0 1;
#X obj 485 915 r editLed3Off;
#X obj 444 939 r editLed3On;
#X msg 584 983 1;
#X msg 625 984 0;
#X obj 601 1015 tgl 15 0 empty empty empty 17 7 0 10 -262144 -1 -1
0 1;
#X obj 625 915 r editLed4Off;
#X obj 584 939 r editLed4On;
#X obj 864 679 s editLed4On;
#X obj 906 655 s editLed4Off;
#X obj 738 229 s PatternOn2;
#X obj 279 569 r arpNoteDecay;
#X obj 279 595 *;
#X obj 319 518 r PatternStep1;
#X obj 264 622 delay;
#X obj 214 622 delay;
#X obj 319 540 t b f;
#X obj 253 471 r PatternRepeat1;
#X obj 214 540 spigot;
#X obj 264 540 spigot;
#X obj 279 497 * -1;
#X obj 279 517 + 1;
#X obj 35 363 / 6;
#X msg 1186 38 128;
#X obj 499 569 r arpNoteDecay;
#X obj 499 595 *;
#X obj 484 622 delay;
#X obj 434 622 delay;
#X obj 539 540 t b f;
#X obj 434 540 spigot;
#X obj 484 540 spigot;
#X obj 499 497 * -1;
#X obj 499 517 + 1;
#X obj 473 471 r PatternRepeat2;
#X obj 539 518 r PatternStep2;
#X obj 719 569 r arpNoteDecay;
#X obj 719 595 *;
#X obj 704 622 delay;
#X obj 654 622 delay;
#X obj 759 540 t b f;
#X obj 654 540 spigot;
#X obj 704 540 spigot;
#X obj 719 497 * -1;
#X obj 719 517 + 1;
#X obj 654 471 bang;
#X obj 939 569 r arpNoteDecay;
#X obj 939 595 *;
#X obj 924 622 delay;
#X obj 874 622 delay;
#X obj 979 540 t b f;
#X obj 874 540 spigot;
#X obj 924 540 spigot;
#X obj 939 497 * -1;
#X obj 939 517 + 1;
#X obj 874 471 bang;
#X obj 214 471 bang;
#X obj 434 471 bang;
#X obj 693 471 r PatternRepeat3;
#X obj 759 518 r PatternStep3;
#X obj 979 518 r PatternStep4;
#X obj 915 471 r PatternRepeat4;
#X obj 842 -1 loadbang;
#X obj 68 1096 send editLeds;
#X obj 169 884 r ArpMode;
#X obj 68 1060 spigot;
#X msg 27 995 1;
#X msg 65 995 2;
#X msg 107 995 3;
#X msg 145 995 4;
#X msg 795 -7 1;
#X obj 1107 757 r NotesPoly;
#X obj 1107 912 s noteCount;
#X obj 1145 840 f;
#X obj 1173 840 f;
#X obj 1202 840 f;
#X obj 1230 840 f;
#X obj 1144 732 r arpStep;
#X obj 1260 840 f;
#X obj 1288 840 f;
#X obj 1317 840 f;
#X obj 1345 840 f;
#X obj 1375 840 f;
#X obj 1403 840 f;
#X obj 1432 840 f;
#X obj 1460 840 f;
#X obj 1490 840 f;
#X obj 1518 840 f;
#X obj 1547 840 f;
#X obj 1575 840 f;
#X obj 1145 805 select 0 1 2 3 4 5 6 7 8 9 10 11 12 13 14 15, f 66
;
#X obj 1107 780 unpack 0 0 0 0 0 0 0 0 0 0 0 0 0 0 0 0 0 0, f 70;
#X obj 1135 884 s noteMono;
#X obj 1651 704 r arpNextNote;
#X obj 1651 730 f;
#X obj 1637 753 + 1;
#X floatatom 1667 835 5 0 0 0 - - -, f 5;
#X obj 1683 749 r noteCount;
#X obj 1651 777 moses;
#X msg 1683 807 0;
#X msg 1072 873 4;
#X obj 1758 703 r midiclock;
#X obj 1758 728 select 0;
#X obj 1660 861 s arpStep;
#X obj 1285 896 s arpPitch;
#X obj 1673 554 r PatternOn4;
#X obj 1543 553 r PatternOn3;
#X obj 1421 554 r PatternOn2;
#X obj 1292 554 r PatternOn1;
#X obj 1264 484 t f f;
#X obj 1393 484 t f f;
#X obj 1523 484 t f f;
#X obj 1643 484 t f f;
#X obj 213 53 * 5;
#X obj 233 87 + 0.25;
#X obj 211 3 r Decay;
#X obj 117 115 r tickTime;
#X obj 72 165 *;
#X obj 71 28 / 255;
#X obj 72 115 t b f;
#X obj 73 53 * 5;
#X obj 93 87 + 0.25;
#X obj 71 3 r Attack;
#X obj 72 231 s arpNoteAttack;
#X connect 0 0 162 0;
#X connect 1 0 4 0;
#X connect 2 0 3 0;
#X connect 3 0 5 0;
#X connect 4 0 2 1;
#X connect 4 1 2 0;
#X connect 4 2 5 1;
#X connect 5 0 40 0;
#X connect 7 0 11 0;
#X connect 8 0 12 0;
#X connect 9 0 35 0;
#X connect 10 0 36 0;
#X connect 11 0 37 0;
#X connect 12 0 11 0;
#X connect 12 1 11 1;
#X connect 13 0 15 0;
#X connect 14 0 19 0;
#X connect 26 0 25 0;
#X connect 27 0 24 0;
#X connect 28 0 21 0;
#X connect 29 0 18 0;
#X connect 30 0 16 0;
#X connect 31 0 150 0;
#X connect 32 0 22 0;
#X connect 33 0 20 0;
#X connect 34 0 23 0;
#X connect 35 0 38 0;
#X connect 36 0 35 0;
#X connect 36 1 35 1;
#X connect 37 0 39 0;
#X connect 38 0 37 0;
#X connect 38 1 37 1;
#X connect 40 0 6 0;
#X connect 41 0 40 1;
#X connect 41 0 42 0;
#X connect 43 0 44 0;
#X connect 44 0 248 0;
#X connect 44 1 46 0;
#X connect 45 0 44 1;
#X connect 45 0 46 1;
#X connect 46 0 47 0;
#X connect 47 0 249 0;
#X connect 47 1 48 0;
#X connect 48 0 50 0;
#X connect 49 0 47 1;
#X connect 49 0 48 1;
#X connect 50 0 250 0;
#X connect 50 1 52 0;
#X connect 51 0 50 1;
#X connect 51 0 52 1;
#X connect 52 0 251 0;
#X connect 53 0 54 0;
#X connect 54 0 55 0;
#X connect 55 0 56 1;
#X connect 56 0 85 0;
#X connect 56 0 195 0;
#X connect 57 0 60 0;
#X connect 58 0 17 0;
#X connect 59 0 57 0;
#X connect 61 0 56 0;
#X connect 63 0 65 0;
#X connect 64 0 63 0;
#X connect 67 0 69 0;
#X connect 68 0 67 0;
#X connect 71 0 73 0;
#X connect 72 0 71 0;
#X connect 75 0 76 0;
#X connect 76 0 79 0;
#X connect 77 0 252 0;
#X connect 78 0 76 0;
#X connect 78 1 76 1;
#X connect 80 0 81 0;
#X connect 82 0 163 0;
#X connect 85 0 104 0;
#X connect 85 0 112 0;
#X connect 86 0 87 0;
#X connect 87 0 88 1;
#X connect 88 0 89 0;
#X connect 88 0 196 0;
#X connect 89 0 105 0;
#X connect 89 0 116 0;
#X connect 90 0 88 0;
#X connect 91 0 86 0;
#X connect 92 0 93 0;
#X connect 93 0 94 1;
#X connect 94 0 95 0;
#X connect 94 0 184 0;
#X connect 95 0 106 0;
#X connect 95 0 120 0;
#X connect 96 0 97 0;
#X connect 97 0 98 1;
#X connect 98 0 99 0;
#X connect 98 0 194 0;
#X connect 99 0 126 0;
#X connect 99 0 148 0;
#X connect 100 0 94 0;
#X connect 101 0 92 0;
#X connect 102 0 98 0;
#X connect 103 0 96 0;
#X connect 110 0 111 1;
#X connect 110 0 112 1;
#X connect 111 0 84 0;
#X connect 112 0 83 0;
#X connect 115 0 114 0;
#X connect 116 0 113 0;
#X connect 119 0 118 0;
#X connect 120 0 117 0;
#X connect 121 0 119 1;
#X connect 121 0 120 1;
#X connect 122 0 115 1;
#X connect 122 0 116 1;
#X connect 125 0 124 0;
#X connect 126 0 123 0;
#X connect 127 0 125 1;
#X connect 127 0 126 1;
#X connect 128 0 131 0;
#X connect 129 0 130 0;
#X connect 129 0 205 0;
#X connect 130 0 132 0;
#X connect 131 0 132 0;
#X connect 131 0 204 0;
#X connect 133 0 135 0;
#X connect 134 0 135 0;
#X connect 134 0 204 0;
#X connect 136 0 134 0;
#X connect 137 0 133 0;
#X connect 137 0 206 0;
#X connect 138 0 140 0;
#X connect 139 0 140 0;
#X connect 139 0 204 0;
#X connect 141 0 139 0;
#X connect 142 0 138 0;
#X connect 142 0 207 0;
#X connect 143 0 145 0;
#X connect 144 0 145 0;
#X connect 144 0 204 0;
#X connect 146 0 144 0;
#X connect 147 0 143 0;
#X connect 147 0 208 0;
#X connect 151 0 152 0;
#X connect 151 0 155 1;
#X connect 152 0 154 1;
#X connect 153 0 156 0;
#X connect 154 0 107 0;
#X connect 154 0 111 0;
#X connect 155 0 107 0;
#X connect 155 0 111 0;
#X connect 156 0 152 0;
#X connect 156 1 152 1;
#X connect 157 0 158 1;
#X connect 157 0 160 0;
#X connect 158 0 155 0;
#X connect 159 0 154 0;
#X connect 160 0 161 0;
#X connect 161 0 159 1;
#X connect 162 0 1 0;
#X connect 163 0 81 0;
#X connect 164 0 165 0;
#X connect 164 0 167 1;
#X connect 165 0 166 1;
#X connect 166 0 108 0;
#X connect 166 0 115 0;
#X connect 167 0 108 0;
#X connect 167 0 115 0;
#X connect 168 0 165 0;
#X connect 168 1 165 1;
#X connect 169 0 167 0;
#X connect 170 0 166 0;
#X connect 171 0 172 0;
#X connect 172 0 170 1;
#X connect 173 0 169 1;
#X connect 173 0 171 0;
#X connect 174 0 168 0;
#X connect 175 0 176 0;
#X connect 175 0 178 1;
#X connect 176 0 177 1;
#X connect 177 0 109 0;
#X connect 177 0 119 0;
#X connect 178 0 109 0;
#X connect 178 0 119 0;
#X connect 179 0 176 0;
#X connect 179 1 176 1;
#X connect 180 0 178 0;
#X connect 181 0 177 0;
#X connect 182 0 183 0;
#X connect 183 0 181 1;
#X connect 184 0 180 0;
#X connect 184 0 181 0;
#X connect 185 0 186 0;
#X connect 185 0 188 1;
#X connect 186 0 187 1;
#X connect 187 0 149 0;
#X connect 187 0 125 0;
#X connect 188 0 149 0;
#X connect 188 0 125 0;
#X connect 189 0 186 0;
#X connect 189 1 186 1;
#X connect 190 0 188 0;
#X connect 191 0 187 0;
#X connect 192 0 193 0;
#X connect 193 0 191 1;
#X connect 194 0 190 0;
#X connect 194 0 191 0;
#X connect 195 0 159 0;
#X connect 195 0 158 0;
#X connect 196 0 169 0;
#X connect 196 0 170 0;
#X connect 197 0 180 1;
#X connect 197 0 182 0;
#X connect 198 0 179 0;
#X connect 199 0 189 0;
#X connect 200 0 190 1;
#X connect 200 0 192 0;
#X connect 201 0 209 0;
#X connect 203 0 204 1;
#X connect 204 0 202 0;
#X connect 205 0 204 0;
#X connect 206 0 204 0;
#X connect 207 0 204 0;
#X connect 208 0 204 0;
#X connect 209 0 27 0;
#X connect 209 0 28 0;
#X connect 209 0 29 0;
#X connect 209 0 30 0;
#X connect 209 0 26 0;
#X connect 209 0 32 0;
#X connect 209 0 31 0;
#X connect 209 0 58 0;
#X connect 209 0 34 0;
#X connect 209 0 33 0;
#X connect 209 0 14 0;
#X connect 209 0 13 0;
#X connect 210 0 230 0;
#X connect 212 0 243 0;
#X connect 213 0 243 0;
#X connect 214 0 243 0;
#X connect 215 0 243 0;
#X connect 216 0 229 0;
#X connect 217 0 243 0;
#X connect 218 0 243 0;
#X connect 219 0 243 0;
#X connect 220 0 243 0;
#X connect 221 0 243 0;
#X connect 222 0 243 0;
#X connect 223 0 243 0;
#X connect 224 0 243 0;
#X connect 225 0 243 0;
#X connect 226 0 243 0;
#X connect 227 0 243 0;
#X connect 228 0 243 0;
#X connect 229 0 212 0;
#X connect 229 1 213 0;
#X connect 229 2 214 0;
#X connect 229 3 215 0;
#X connect 229 4 217 0;
#X connect 229 5 218 0;
#X connect 229 6 219 0;
#X connect 229 7 220 0;
#X connect 229 8 221 0;
#X connect 229 9 222 0;
#X connect 229 10 223 0;
#X connect 229 11 224 0;
#X connect 229 12 225 0;
#X connect 229 13 226 0;
#X connect 229 14 227 0;
#X connect 229 15 228 0;
#X connect 230 0 211 0;
#X connect 230 1 231 0;
#X connect 230 2 212 1;
#X connect 230 3 213 1;
#X connect 230 4 214 1;
#X connect 230 5 215 1;
#X connect 230 6 217 1;
#X connect 230 7 218 1;
#X connect 230 8 219 1;
#X connect 230 9 220 1;
#X connect 230 10 221 1;
#X connect 230 11 222 1;
#X connect 230 12 223 1;
#X connect 230 13 224 1;
#X connect 230 14 225 1;
#X connect 230 15 226 1;
#X connect 230 16 227 1;
#X connect 230 17 228 1;
#X connect 232 0 233 0;
#X connect 233 0 234 0;
#X connect 234 0 237 0;
#X connect 235 0 233 1;
#X connect 235 0 242 0;
#X connect 236 0 237 1;
#X connect 237 0 235 0;
#X connect 237 1 238 0;
#X connect 238 0 235 0;
#X connect 239 0 211 0;
#X connect 240 0 241 0;
#X connect 241 0 238 0;
#X connect 244 0 59 1;
#X connect 245 0 64 1;
#X connect 246 0 68 1;
#X connect 247 0 72 1;
#X connect 248 0 74 0;
#X connect 248 1 72 0;
#X connect 249 0 70 0;
#X connect 249 1 68 0;
#X connect 250 0 66 0;
#X connect 250 1 64 0;
#X connect 251 0 62 0;
#X connect 251 1 59 0;
#X connect 252 0 253 0;
#X connect 253 0 78 0;
#X connect 254 0 77 0;
#X connect 255 0 256 0;
#X connect 256 0 262 0;
#X connect 257 0 259 0;
#X connect 258 0 256 0;
#X connect 258 1 256 1;
#X connect 259 0 260 0;
#X connect 260 0 258 0;
#X connect 261 0 257 0;
