#N canvas 0 47 1920 1153 10;
#X obj 182 -43 r drum-in;
#X obj 298 99 +;
#X obj 340 13 r octave;
#X obj 313 72 * 16;
#X obj 250 36 spigot;
#X msg 300 12 0;
#X msg 260 9 1;
#X obj 264 -16 select 1;
#X obj 264 -43 r source;
#X obj 133 -42 inlet;
#N canvas 0 50 1056 1153 (subpatch) 0;
#X array bb0 105970 float 0;
#X coords 0 -1 105969 1 100 40 1 0 0;
#X restore 672 501 graph;
#X obj 330 44 - 3;
#X msg 173 1026 set bb\$1;
#X obj 173 1005 r \$0-bbselect;
#X floatatom 140 299 5 0 0 0 - - -, f 5;
#X obj 139 340 moses 0;
#X obj 140 366 moses 32;
#X obj 172 540 s \$0-bbselect;
#X obj 172 447 / 4;
#X obj 172 472 int;
#X obj 288 495 select 0 1 2 3 4 5 6 7, f 35;
#X obj 288 541 f;
#X obj 318 541 f;
#X obj 348 541 f;
#X obj 378 541 f;
#X obj 409 541 f;
#X obj 439 541 f;
#X obj 469 541 f;
#X obj 499 541 f;
#X obj 318 596 s \$0-bblen;
#X obj 230 621 r \$0-bblen;
#X obj 140 937 vline~;
#X obj 139 582 % 4;
#X obj 167 698 *;
#X msg 140 909 \$1 \, \$2 \$3;
#X obj 140 870 pack 0 0 0;
#X obj 254 726 r tickTime;
#X obj 254 749 * 24;
#X obj 141 1056 tabread4~ bb0;
#X obj 140 415 t f f;
#N canvas 0 50 1056 1153 (subpatch) 0;
#X array bb1 105118 float 0;
#X coords 0 -1 105117 1 100 40 1 0 0;
#X restore 672 561 graph;
#N canvas 0 50 1056 1153 (subpatch) 0;
#X array bb2 87540 float 0;
#X coords 0 -1 87539 1 100 40 1 0 0;
#X restore 672 621 graph;
#N canvas 0 50 1056 1153 (subpatch) 0;
#X array bb3 91200 float 0;
#X coords 0 -1 91199 1 100 40 1 0 0;
#X restore 672 681 graph;
#N canvas 0 50 1056 1153 (subpatch) 0;
#X array bb4 102973 float 0;
#X coords 0 -1 102972 1 100 40 1 0 0;
#X restore 672 741 graph;
#N canvas 0 50 1056 1153 (subpatch) 0;
#X array bb5 101724 float 0;
#X coords 0 -1 101723 1 100 40 1 0 0;
#X restore 672 801 graph;
#N canvas 0 50 1056 1153 (subpatch) 0;
#X array bb6 114865 float 0;
#X coords 0 -1 114864 1 100 40 1 0 0;
#X restore 672 861 graph;
#N canvas 0 50 1056 1153 (subpatch) 0;
#X array bb7 100800 float 0;
#X coords 0 -1 100799 1 100 40 1 0 0;
#X restore 672 921 graph;
#X obj 362 109 soundfiler;
#X obj 34 1007 vline~;
#X obj 123 1097 *~;
#X msg 102 244 0;
#X msg 147 248 1;
#X msg 191 249 2;
#X msg 233 251 3;
#X obj 204 665 / 4;
#X obj 213 727 * -1;
#X obj 214 750 + 4;
#X obj 225 811 *;
#X obj 402 155 soundfiler;
#X obj 35 881 - 10;
#X msg 31 976 0 3 \, 1 3 \, 0 3 \$1;
#X obj 135 753 f;
#X obj 82 697 delay 3;
#X obj 146 635 t b f;
#X obj 492 185 soundfiler;
#X obj 532 235 soundfiler;
#X obj 549 1 loadbang;
#X obj 125 1133 s~ bb-out;
#X obj 572 295 soundfiler;
#X obj 612 345 soundfiler;
#X obj 702 375 soundfiler;
#X obj 742 425 soundfiler;
#X msg 363 79 read -resize /home/robber/samples/breakbeats/1.wav bb0
;
#X msg 402 130 read -resize /home/robber/samples/breakbeats/2.wav bb1
;
#X msg 491 159 read -resize /home/robber/samples/breakbeats/3.wav bb2
;
#X msg 532 209 read -resize /home/robber/samples/breakbeats/4.wav bb3
;
#X msg 572 270 read -resize /home/robber/samples/breakbeats/5.wav bb4
;
#X msg 612 320 read -resize /home/robber/samples/breakbeats/6.wav bb5
;
#X msg 701 350 read -resize /home/robber/samples/breakbeats/7.wav bb6
;
#X msg 742 400 read -resize /home/robber/samples/breakbeats/8.wav bb7
;
#X connect 0 0 4 0;
#X connect 1 0 15 0;
#X connect 2 0 11 0;
#X connect 3 0 1 1;
#X connect 4 0 1 0;
#X connect 5 0 4 1;
#X connect 6 0 4 1;
#X connect 7 0 6 0;
#X connect 7 1 5 0;
#X connect 8 0 7 0;
#X connect 9 0 4 0;
#X connect 11 0 3 0;
#X connect 12 0 38 0;
#X connect 13 0 12 0;
#X connect 14 0 15 0;
#X connect 15 1 16 0;
#X connect 16 0 39 0;
#X connect 18 0 19 0;
#X connect 19 0 17 0;
#X connect 19 0 20 0;
#X connect 20 0 21 0;
#X connect 20 1 22 0;
#X connect 20 2 23 0;
#X connect 20 3 24 0;
#X connect 20 4 25 0;
#X connect 20 5 26 0;
#X connect 20 6 27 0;
#X connect 20 7 28 0;
#X connect 21 0 29 0;
#X connect 22 0 29 0;
#X connect 23 0 29 0;
#X connect 24 0 29 0;
#X connect 25 0 29 0;
#X connect 26 0 29 0;
#X connect 27 0 29 0;
#X connect 28 0 29 0;
#X connect 30 0 54 0;
#X connect 30 0 35 1;
#X connect 31 0 38 0;
#X connect 32 0 63 0;
#X connect 33 0 61 1;
#X connect 34 0 31 0;
#X connect 35 0 34 0;
#X connect 36 0 37 0;
#X connect 37 0 57 1;
#X connect 38 0 49 1;
#X connect 39 0 32 0;
#X connect 39 1 18 0;
#X connect 47 0 21 1;
#X connect 48 0 49 0;
#X connect 49 0 67 0;
#X connect 50 0 14 0;
#X connect 51 0 14 0;
#X connect 52 0 14 0;
#X connect 53 0 14 0;
#X connect 54 0 33 1;
#X connect 55 0 56 0;
#X connect 56 0 57 0;
#X connect 57 0 35 2;
#X connect 57 0 59 0;
#X connect 58 0 22 1;
#X connect 59 0 60 0;
#X connect 60 0 48 0;
#X connect 61 0 35 0;
#X connect 62 0 61 0;
#X connect 63 0 62 0;
#X connect 63 1 33 0;
#X connect 63 1 55 0;
#X connect 64 0 23 1;
#X connect 65 0 24 1;
#X connect 66 0 72 0;
#X connect 66 0 73 0;
#X connect 66 0 74 0;
#X connect 66 0 75 0;
#X connect 66 0 76 0;
#X connect 66 0 77 0;
#X connect 66 0 78 0;
#X connect 66 0 79 0;
#X connect 68 0 25 1;
#X connect 69 0 26 1;
#X connect 70 0 27 1;
#X connect 71 0 28 1;
#X connect 72 0 47 0;
#X connect 73 0 58 0;
#X connect 74 0 64 0;
#X connect 75 0 65 0;
#X connect 76 0 68 0;
#X connect 77 0 69 0;
#X connect 78 0 70 0;
#X connect 79 0 71 0;
