#N canvas 0 47 1056 1153 10;
#X obj 204 79 inlet;
#X obj 320 1138 outlet~;
#X obj 204 133 pack 0 0;
#X obj 354 206 t b f;
#X obj 251 56 loadbang;
#X obj 386 239 select 1 2 3 4, f 70;
#X obj 386 269 symbol \$1;
#X obj 507 271 symbol \$1;
#X obj 628 270 symbol \$1;
#X obj 750 269 symbol \$1;
#X msg 251 79 1;
#X obj 204 103 poly 4 1;
#X obj 204 157 route 1 2 3 4, f 29;
#X obj 354 359 vline~;
#X obj 354 389 tabread4~ b0;
#X obj 433 648 +~;
#X msg 510 334 set \$1;
#X obj 386 292 makefilename %s0;
#X obj 507 292 makefilename %s1;
#X obj 628 292 makefilename %s2;
#X obj 750 292 makefilename %s3;
#X msg 354 335 0 \, 44100 1000;
#X obj 304 436 t b f;
#X obj 336 469 select 1 2 3 4, f 70;
#X obj 336 499 symbol \$1;
#X obj 457 501 symbol \$1;
#X obj 304 589 vline~;
#X obj 304 619 tabread4~ b0;
#X msg 460 564 set \$1;
#X obj 336 522 makefilename %s0;
#X obj 457 522 makefilename %s1;
#X msg 304 565 0 \, 44100 1000;
#X obj 254 652 t b f;
#X obj 286 685 select 1 2 3 4, f 70;
#X obj 286 715 symbol \$1;
#X obj 407 717 symbol \$1;
#X obj 528 716 symbol \$1;
#X obj 650 715 symbol \$1;
#X obj 254 805 vline~;
#X obj 254 835 tabread4~ b0;
#X obj 321 1108 +~;
#X msg 410 780 set \$1;
#X obj 286 738 makefilename %s0;
#X obj 407 738 makefilename %s1;
#X obj 528 738 makefilename %s2;
#X obj 650 738 makefilename %s3;
#X msg 254 781 0 \, 44100 1000;
#X obj 204 882 t b f;
#X obj 236 915 select 1 2 3 4, f 70;
#X obj 236 945 symbol \$1;
#X obj 357 947 symbol \$1;
#X obj 204 1035 vline~;
#X obj 204 1065 tabread4~ b0;
#X msg 360 1010 set \$1;
#X obj 236 968 makefilename %s0;
#X obj 357 968 makefilename %s1;
#X msg 204 1011 0 \, 44100 1000;
#X obj 387 882 +~;
#X obj 586 499 symbol \$1;
#X obj 707 501 symbol \$1;
#X obj 586 522 makefilename %s2;
#X obj 707 522 makefilename %s3;
#X obj 486 946 symbol \$1;
#X obj 607 948 symbol \$1;
#X obj 486 969 makefilename %s2;
#X obj 607 969 makefilename %s3;
#X connect 0 0 11 0;
#X connect 2 0 12 0;
#X connect 3 0 21 0;
#X connect 3 1 5 0;
#X connect 4 0 10 0;
#X connect 5 0 6 0;
#X connect 5 1 7 0;
#X connect 5 2 8 0;
#X connect 5 3 9 0;
#X connect 6 0 17 0;
#X connect 7 0 18 0;
#X connect 8 0 19 0;
#X connect 9 0 20 0;
#X connect 10 0 11 1;
#X connect 11 0 2 0;
#X connect 11 1 2 1;
#X connect 12 0 47 0;
#X connect 12 1 32 0;
#X connect 12 2 22 0;
#X connect 12 3 3 0;
#X connect 13 0 14 0;
#X connect 14 0 15 1;
#X connect 15 0 57 1;
#X connect 16 0 14 0;
#X connect 17 0 16 0;
#X connect 18 0 16 0;
#X connect 19 0 16 0;
#X connect 20 0 16 0;
#X connect 21 0 13 0;
#X connect 22 0 31 0;
#X connect 22 1 23 0;
#X connect 23 0 24 0;
#X connect 23 1 25 0;
#X connect 23 2 58 0;
#X connect 23 3 59 0;
#X connect 24 0 29 0;
#X connect 25 0 30 0;
#X connect 26 0 27 0;
#X connect 27 0 15 0;
#X connect 28 0 27 0;
#X connect 29 0 28 0;
#X connect 30 0 28 0;
#X connect 31 0 26 0;
#X connect 32 0 46 0;
#X connect 32 1 33 0;
#X connect 33 0 34 0;
#X connect 33 1 35 0;
#X connect 33 2 36 0;
#X connect 33 3 37 0;
#X connect 34 0 42 0;
#X connect 35 0 43 0;
#X connect 36 0 44 0;
#X connect 37 0 45 0;
#X connect 38 0 39 0;
#X connect 39 0 57 0;
#X connect 40 0 1 0;
#X connect 41 0 39 0;
#X connect 42 0 41 0;
#X connect 43 0 41 0;
#X connect 44 0 41 0;
#X connect 45 0 41 0;
#X connect 46 0 38 0;
#X connect 47 0 56 0;
#X connect 47 1 48 0;
#X connect 48 0 49 0;
#X connect 48 1 50 0;
#X connect 48 2 62 0;
#X connect 48 3 63 0;
#X connect 49 0 54 0;
#X connect 50 0 55 0;
#X connect 51 0 52 0;
#X connect 52 0 40 0;
#X connect 53 0 52 0;
#X connect 54 0 53 0;
#X connect 55 0 53 0;
#X connect 56 0 51 0;
#X connect 57 0 40 1;
#X connect 58 0 60 0;
#X connect 59 0 61 0;
#X connect 60 0 28 0;
#X connect 61 0 28 0;
#X connect 62 0 64 0;
#X connect 63 0 65 0;
#X connect 64 0 53 0;
#X connect 65 0 53 0;
