#N canvas 0 47 1056 1153 10;
#X obj 637 101 max 0;
#X obj 637 124 min 1;
#X obj 388 255 wrap~;
#X obj 371 274 -~;
#X obj 367 235 *~ 65536;
#X obj 368 296 /~ 65536;
#N canvas 0 50 466 316 rh_scalelog 0;
#X obj 20 155 exp;
#X obj 20 107 *;
#X obj 20 130 +;
#X obj 98 87 log;
#X obj 194 84 log;
#X obj 123 123 t b f;
#X obj 123 145 -;
#X obj 20 183 outlet;
#X obj 20 19 inlet;
#X obj 98 23 inlet;
#X obj 194 24 inlet;
#X connect 0 0 7 0;
#X connect 1 0 2 0;
#X connect 2 0 0 0;
#X connect 3 0 2 1;
#X connect 3 0 5 0;
#X connect 4 0 6 0;
#X connect 5 0 6 0;
#X connect 5 1 6 1;
#X connect 6 0 1 1;
#X connect 8 0 1 0;
#X connect 9 0 3 0;
#X connect 10 0 4 0;
#X restore 435 271 pd rh_scalelog;
#X msg 504 249 65536;
#X msg 474 248 1;
#X obj 429 341 samphold~;
#X obj 540 313 phasor~ 4400;
#N canvas 0 50 466 316 rh_scalelog 0;
#X obj 20 155 exp;
#X obj 20 107 *;
#X obj 20 130 +;
#X obj 98 87 log;
#X obj 194 84 log;
#X obj 123 123 t b f;
#X obj 123 145 -;
#X obj 20 183 outlet;
#X obj 20 19 inlet;
#X obj 98 23 inlet;
#X obj 194 24 inlet;
#X connect 0 0 7 0;
#X connect 1 0 2 0;
#X connect 2 0 0 0;
#X connect 3 0 2 1;
#X connect 3 0 5 0;
#X connect 4 0 6 0;
#X connect 5 0 6 0;
#X connect 5 1 6 1;
#X connect 6 0 1 1;
#X connect 8 0 1 0;
#X connect 9 0 3 0;
#X connect 10 0 4 0;
#X restore 538 287 pd rh_scalelog;
#X msg 596 265 44009;
#X msg 557 265 512;
#X obj 439 208 expr pow($f1 \, 4);
#X obj 582 239 loadbang;
#X obj 483 228 loadbang;
#X obj 567 374 line~;
#X obj 564 348 pack 0 5;
#X floatatom 636 363 5 0 0 0 - - -, f 5;
#X obj 437 375 *~;
#N canvas 0 50 466 316 rh_scalelog 0;
#X obj 20 155 exp;
#X obj 20 107 *;
#X obj 20 130 +;
#X obj 98 87 log;
#X obj 194 84 log;
#X obj 123 123 t b f;
#X obj 123 145 -;
#X obj 20 183 outlet;
#X obj 20 19 inlet;
#X obj 98 23 inlet;
#X obj 194 24 inlet;
#X connect 0 0 7 0;
#X connect 1 0 2 0;
#X connect 2 0 0 0;
#X connect 3 0 2 1;
#X connect 3 0 5 0;
#X connect 4 0 6 0;
#X connect 5 0 6 0;
#X connect 5 1 6 1;
#X connect 6 0 1 1;
#X connect 8 0 1 0;
#X connect 9 0 3 0;
#X connect 10 0 4 0;
#X restore 638 287 pd rh_scalelog;
#X obj 670 241 loadbang;
#X obj 694 324 min 1;
#X msg 658 264 0.6;
#X msg 697 264 1.6;
#X obj 478 152 * 0.4;
#X msg 550 241 1;
#X obj 476 179 + 0.5;
#X obj 475 80 * -1;
#X obj 478 105 + 1;
#X obj 639 147 * -1;
#X obj 638 171 + 1;
#X obj 545 203 delay 20;
#X obj 349 104 inlet~;
#X obj 370 522 outlet~;
#X obj 478 27 inlet;
#X obj 636 48 inlet;
#X floatatom 533 32 5 0 0 0 - - -, f 5;
#X floatatom 549 85 5 0 0 0 - - -, f 5;
#X obj 472 55 * 0.5;
#X connect 0 0 1 0;
#X connect 1 0 31 0;
#X connect 2 0 3 1;
#X connect 3 0 5 0;
#X connect 4 0 2 0;
#X connect 4 0 3 0;
#X connect 5 0 9 0;
#X connect 6 0 4 1;
#X connect 6 0 5 1;
#X connect 7 0 6 2;
#X connect 8 0 6 1;
#X connect 9 0 20 0;
#X connect 10 0 9 1;
#X connect 11 0 10 0;
#X connect 12 0 11 2;
#X connect 13 0 11 1;
#X connect 14 0 6 0;
#X connect 15 0 13 0;
#X connect 15 0 12 0;
#X connect 15 0 33 0;
#X connect 16 0 8 0;
#X connect 16 0 7 0;
#X connect 17 0 20 1;
#X connect 18 0 17 0;
#X connect 19 0 18 0;
#X connect 20 0 35 0;
#X connect 21 0 19 0;
#X connect 21 0 23 0;
#X connect 22 0 24 0;
#X connect 22 0 25 0;
#X connect 23 0 19 0;
#X connect 24 0 21 1;
#X connect 25 0 21 2;
#X connect 26 0 28 0;
#X connect 27 0 26 0;
#X connect 27 0 11 0;
#X connect 27 0 21 0;
#X connect 28 0 14 0;
#X connect 29 0 30 0;
#X connect 30 0 26 0;
#X connect 30 0 21 0;
#X connect 31 0 32 0;
#X connect 32 0 11 0;
#X connect 33 0 27 0;
#X connect 34 0 4 0;
#X connect 36 0 40 0;
#X connect 37 0 0 0;
#X connect 38 0 40 0;
#X connect 40 0 29 0;
#X connect 40 0 39 0;
