#N canvas 0 47 1056 1153 10;
#X obj 98 137 r bpm;
#X obj 142 766 f;
#X obj 181 777 + 1;
#X msg 188 839 0;
#X obj 98 181 / 60;
#X obj 98 159 * 24;
#X obj 98 247 /;
#X msg 98 226 1000;
#X obj 98 202 t b f;
#X obj 142 742 metro 20;
#X obj 142 717 t b f b;
#X obj 142 839 f;
#X obj 431 162 bang;
#X msg 431 193 250;
#X obj 431 131 delay 1;
#X obj 469 194 bng 15 250 50 0 empty empty empty 17 7 0 10 -262144
-1 -1;
#X obj 386 131 bang;
#X msg 386 193 248;
#X obj 414 217 midiout;
#X floatatom 129 249 5 0 0 0 - - -, f 5;
#X obj 99 110 s bpm;
#X obj 1490 760 s midiClock;
#X obj 98 293 s tickTime;
#X obj 142 689 r tickTime;
#X text -2 80 repeatDecay;
#X obj 97 47 loadbang;
#X floatatom 49 58 5 0 0 0 - - -, f 5;
#X text 145 183 < also in c++;
#X obj 801 135 s breaktime;
#X obj 745 79 * 96;
#X floatatom 813 104 5 0 0 0 - - -, f 5;
#X obj 745 173 s looptime;
#X obj 745 136 / 1000;
#X obj 716 30 r tickTime;
#X obj 961 103 s clock;
#X obj 931 130 s clock8;
#X obj 961 78 % 96;
#X obj 940 46 r midiClock;
#X obj 1313 612 s dubsync;
#X obj 633 233 s dublength;
#X obj 625 187 * 44.1;
#X obj 653 81 * 768;
#X floatatom 693 115 5 0 0 0 - - -, f 5;
#X obj 634 271 r midiClock;
#X obj 634 300 select 0;
#X obj 634 329 bng 15 250 50 0 empty empty empty 17 7 0 10 -262144
-1 -1;
#X obj 657 137 samplerate~;
#X obj 657 159 / 1000;
#X obj 625 113 t f b;
#X floatatom 152 914 5 0 0 0 - - -, f 5;
#X obj 175 50 delay 20;
#X floatatom 161 84 5 0 0 0 - - -, f 5;
#X obj 522 343 s dubsync;
#X obj 499 344 bng 15 250 50 0 empty empty empty 0 -6 0 10 -262144
-1 -1;
#X obj 522 276 metro 32000;
#X obj 558 251 t b f;
#X obj 431 82 select 0 195 383 575;
#X obj 386 46 r midiClock;
#X msg 210 741 0;
#X obj 289 410 * 44100;
#X obj 289 433 / 1000;
#X obj 963 736 s smppertick;
#X obj 292 326 r tickTime;
#X obj 296 349 t f b;
#X obj 331 379 samplerate~;
#X floatatom 391 427 5 0 0 0 - - -, f 5;
#X obj 142 817 moses 768;
#X msg 337 729 1000;
#X obj 352 690 t b f;
#X obj 354 760 /;
#X obj 349 797 phasor~;
#X floatatom 421 792 5 0 0 0 - - -, f 5;
#X obj 335 619 r tickTime;
#X msg 99 78 125;
#X msg 102 382 20;
#X floatatom 97 462 5 0 0 0 - - -, f 5;
#X obj 101 416 * 24;
#X obj 101 490 t b f;
#X obj 84 526 60000;
#X obj 102 566 /;
#X floatatom 98 599 5 0 0 0 - - -, f 5;
#X obj 339 835 expr~ $v1 < 0.5;
#X obj 339 866 snapshot~;
#X obj 429 871 threshold~ 0.9 0 0.1 0;
#X msg 434 623 20;
#X obj 433 906 f;
#X obj 472 917 + 1;
#X msg 479 979 0;
#X obj 433 979 f;
#X floatatom 443 1054 5 0 0 0 - - -, f 5;
#X obj 433 957 moses 768;
#X msg 441 725 0;
#X obj 441 675 t f f;
#X floatatom 686 558 0 0 0 0 - - -;
#X obj 686 532 *;
#X floatatom 686 365 5 0 0 0 - - -, f 5;
#X obj 534 923 f;
#X obj 584 922 + 1;
#X floatatom 534 1002 5 0 0 0 - - -, f 5;
#X msg 619 954 0;
#X obj 534 956 moses 767;
#X obj 605 1034 select 0;
#X obj 545 1084 select 0;
#X obj 571 1107 bng 15 250 50 0 empty empty empty 17 7 0 10 -262144
-1 -1;
#X obj 651 1073 bng 15 250 50 0 empty empty empty 17 7 0 10 -262144
-1 -1;
#X text 741 559 8bar lentgth ms;
#X obj 1314 378 t b f;
#X obj 1314 422 /, f 5;
#X floatatom 1326 453 0 0 0 0 - - -;
#X text 1471 497 freq of 8 bars;
#X obj 1314 488 phasor~;
#X obj 1313 587 threshold~ 0.9 0 0.1 0;
#X msg 1443 355 0;
#X obj 1313 560 expr~ $v1 < 0.5;
#X obj 1490 640 threshold~ 0.9 0 0.1 0;
#X obj 1490 613 expr~ $v1 < 0.5;
#X obj 1490 665 f;
#X obj 1524 666 + 1;
#X msg 1536 710 0;
#X obj 1490 710 f;
#X obj 1490 688 moses 768;
#X obj 1492 559 *~ 1536;
#X obj 1491 587 expr~ $v1 % 2;
#X msg 709 448 1000;
#X obj 732 478 samplerate~;
#X obj 709 504 /;
#X obj 686 391 * 256;
#X obj 686 416 t f b b;
#X floatatom 733 222 0 0 0 0 - - -;
#X floatatom 837 174 5 0 0 0 - - -, f 5;
#X obj 862 908 s 8barLength;
#X obj 828 360 r 8barLength;
#X obj 911 429 / 768;
#X obj 911 453 s tickTime;
#X obj 828 428 s looptime;
#X text 1042 405 32 beats;
#X obj 1005 403 / 32;
#X obj 1020 485 /;
#X obj 1005 428 t b f;
#X floatatom 1020 508 0 0 0 0 - - -;
#X text 982 510 BPM;
#X obj 879 795 s dublength;
#X obj 1005 360 r 8barLength;
#X obj 1314 354 r 8barLength;
#X text 1481 359 reset;
#X obj 1184 563 s~ audioClock;
#X floatatom 397 485 5 0 0 0 - - -, f 5;
#X obj 862 699 * 64;
#X text 898 700 samples per tick;
#X floatatom 862 666 5 0 0 0 - - -, f 5;
#X obj 862 738 * 768;
#X floatatom 896 772 0 0 0 0 - - -;
#X text 967 796 total samples for 8 bars;
#X floatatom 913 738 5 0 0 0 - - -, f 5;
#X obj 862 825 t f b;
#X obj 894 853 samplerate~;
#X obj 862 876 /, f 5;
#X floatatom 958 909 5 0 0 0 - - -, f 5;
#X text 880 934 8bar lentgth s;
#X obj 828 403 / 8;
#X obj 911 406 * 1000;
#X msg 1005 456 60;
#X msg 1314 401 1;
#X msg 874 621 14;
#X floatatom 1497 806 5 0 0 0 - - -, f 5;
#X obj 878 566 loadbang;
#X connect 0 0 5 0;
#X connect 1 0 66 0;
#X connect 2 0 1 1;
#X connect 3 0 49 0;
#X connect 3 0 2 0;
#X connect 4 0 8 0;
#X connect 5 0 4 0;
#X connect 6 0 19 0;
#X connect 7 0 6 0;
#X connect 8 0 7 0;
#X connect 8 1 6 1;
#X connect 9 0 1 0;
#X connect 10 0 9 0;
#X connect 10 1 9 1;
#X connect 10 2 58 0;
#X connect 11 0 49 0;
#X connect 11 0 2 0;
#X connect 12 0 13 0;
#X connect 12 0 15 0;
#X connect 13 0 18 0;
#X connect 14 0 12 0;
#X connect 16 0 17 0;
#X connect 17 0 18 0;
#X connect 23 0 10 0;
#X connect 25 0 50 0;
#X connect 26 0 20 0;
#X connect 29 0 30 0;
#X connect 29 0 32 0;
#X connect 32 0 129 0;
#X connect 33 0 29 0;
#X connect 33 0 41 0;
#X connect 36 0 34 0;
#X connect 37 0 36 0;
#X connect 37 0 35 0;
#X connect 40 0 128 0;
#X connect 41 0 42 0;
#X connect 41 0 48 0;
#X connect 43 0 44 0;
#X connect 44 0 45 0;
#X connect 46 0 47 0;
#X connect 47 0 40 1;
#X connect 48 0 40 0;
#X connect 48 0 55 0;
#X connect 48 1 46 0;
#X connect 51 0 20 0;
#X connect 54 0 53 0;
#X connect 55 0 54 0;
#X connect 55 1 54 1;
#X connect 56 0 14 0;
#X connect 56 1 14 0;
#X connect 56 2 14 0;
#X connect 56 3 14 0;
#X connect 57 0 16 0;
#X connect 57 0 56 0;
#X connect 58 0 1 1;
#X connect 59 0 60 0;
#X connect 60 0 146 0;
#X connect 62 0 63 0;
#X connect 63 0 59 0;
#X connect 63 1 64 0;
#X connect 64 0 65 0;
#X connect 64 0 59 1;
#X connect 66 0 11 0;
#X connect 66 1 3 0;
#X connect 67 0 69 0;
#X connect 68 0 67 0;
#X connect 68 1 69 1;
#X connect 69 0 70 0;
#X connect 69 0 71 0;
#X connect 70 0 81 0;
#X connect 72 0 68 0;
#X connect 72 0 92 0;
#X connect 73 0 20 0;
#X connect 74 0 76 0;
#X connect 75 0 77 0;
#X connect 76 0 75 0;
#X connect 77 0 78 0;
#X connect 77 1 79 1;
#X connect 78 0 79 0;
#X connect 79 0 80 0;
#X connect 81 0 82 0;
#X connect 81 0 83 0;
#X connect 83 0 85 0;
#X connect 83 0 96 0;
#X connect 84 0 10 0;
#X connect 84 0 92 0;
#X connect 85 0 90 0;
#X connect 86 0 85 1;
#X connect 87 0 89 0;
#X connect 87 0 86 0;
#X connect 88 0 89 0;
#X connect 88 0 86 0;
#X connect 89 0 102 0;
#X connect 90 0 88 0;
#X connect 90 1 87 0;
#X connect 91 0 70 1;
#X connect 91 0 85 1;
#X connect 92 0 91 0;
#X connect 92 1 68 0;
#X connect 94 0 93 0;
#X connect 95 0 126 0;
#X connect 96 0 100 0;
#X connect 97 0 96 1;
#X connect 98 0 101 0;
#X connect 99 0 96 1;
#X connect 100 0 98 0;
#X connect 100 0 97 0;
#X connect 100 1 98 0;
#X connect 100 1 99 0;
#X connect 101 0 104 0;
#X connect 102 0 103 0;
#X connect 106 0 162 0;
#X connect 106 1 107 1;
#X connect 107 0 108 0;
#X connect 107 0 110 0;
#X connect 110 0 113 0;
#X connect 110 0 121 0;
#X connect 110 0 145 0;
#X connect 111 0 38 0;
#X connect 112 0 110 1;
#X connect 113 0 111 0;
#X connect 114 0 116 0;
#X connect 115 0 114 0;
#X connect 116 0 120 0;
#X connect 117 0 116 1;
#X connect 118 0 117 0;
#X connect 118 0 21 0;
#X connect 118 0 164 0;
#X connect 119 0 117 0;
#X connect 119 0 21 0;
#X connect 119 0 164 0;
#X connect 120 0 119 0;
#X connect 120 1 118 0;
#X connect 121 0 122 0;
#X connect 122 0 115 0;
#X connect 123 0 125 0;
#X connect 124 0 125 1;
#X connect 125 0 94 1;
#X connect 126 0 127 0;
#X connect 127 0 94 0;
#X connect 127 1 123 0;
#X connect 127 2 124 0;
#X connect 131 0 159 0;
#X connect 131 0 160 0;
#X connect 132 0 133 0;
#X connect 136 0 138 0;
#X connect 137 0 139 0;
#X connect 138 0 161 0;
#X connect 138 1 137 1;
#X connect 142 0 136 0;
#X connect 143 0 106 0;
#X connect 147 0 150 0;
#X connect 147 0 153 0;
#X connect 147 0 61 0;
#X connect 149 0 147 0;
#X connect 150 0 151 0;
#X connect 150 0 141 0;
#X connect 150 0 154 0;
#X connect 154 0 156 0;
#X connect 154 1 155 0;
#X connect 155 0 156 1;
#X connect 156 0 157 0;
#X connect 156 0 130 0;
#X connect 159 0 134 0;
#X connect 160 0 132 0;
#X connect 161 0 137 0;
#X connect 162 0 107 0;
#X connect 163 0 149 0;
#X connect 165 0 163 0;
