#N canvas 0 47 1009 540 10;
#X obj 98 137 r bpm;
#X obj 98 181 / 60;
#X obj 98 159 * 24;
#X obj 98 247 /;
#X msg 98 226 1000;
#X obj 98 202 t b f;
#X obj 99 110 s bpm;
#X text -2 80 repeatDecay;
#X obj 97 47 loadbang;
#X floatatom 49 58 5 0 0 0 - - -, f 5;
#X obj 175 50 delay 20;
#X floatatom 161 84 5 0 0 0 - - -, f 5;
#X obj 156 364 s 8loopTime;
#X obj 99 430 t b f;
#X obj 100 484 /;
#X msg 101 457 1;
#X text 133 499 phasorfreq;
#X obj 109 585 phasor~;
#X obj 233 905 s midiClock;
#X obj 57 754 s dubsync;
#X obj 57 729 threshold~ 0.9 0 0.1 0;
#X obj 57 702 expr~ $v1 < 0.5;
#X obj 233 785 threshold~ 0.9 0 0.1 0;
#X obj 233 758 expr~ $v1 < 0.5;
#X obj 233 810 f;
#X obj 267 811 + 1;
#X msg 279 855 0;
#X obj 233 855 f;
#X obj 233 833 moses 768;
#X obj 234 732 expr~ $v1 % 2;
#X floatatom 245 950 5 0 0 0 - - -, f 5;
#X floatatom 206 239 5 0 0 0 - - -, f 5;
#X obj 171 617 s~ audioClock;
#X obj 77 797 bng 15 250 50 0 empty empty empty 17 7 0 10 -262144 -1
-1;
#X obj 98 397 * 0.001;
#X obj 98 343 * 768;
#X obj 235 704 *~ 1536;
#X obj 362 274 bang;
#X msg 362 305 250;
#X obj 400 306 bng 15 250 50 0 empty empty empty 17 7 0 10 -262144
-1 -1;
#X obj 293 118 bang;
#X msg 296 289 248;
#X obj 345 329 midiout;
#X obj 314 49 r midiClock;
#X msg 853 380 2048;
#X obj 744 425 s dublength;
#X obj 855 426 s smppertick;
#X obj 770 330 loadbang;
#X msg 99 77 120;
#X obj 569 207 ftom, f 7;
#X obj 569 159 / 120;
#X obj 569 182 * 440;
#X obj 569 231 int;
#X obj 569 256 mtof;
#X obj 569 307 * 120;
#X obj 569 281 / 440;
#X msg 744 387 1.57286e+06;
#X text 715 459 samples per tick 2048 2048 * 768 = 1.57286e+06 is 786432
* 2 = 1.57286e+06;
#X obj 558 3 r Main-BPM;
#X obj 569 381 s bpm;
#X obj 568 108 * 180;
#X obj 569 135 + 60;
#X obj 569 85 pow 2;
#X obj 569 357 line;
#X obj 100 554 line~;
#X obj 100 520 pack 0 50;
#X obj 744 635 s dublength;
#X obj 855 636 s smppertick;
#X obj 770 540 loadbang;
#X text 715 669 samples per tick 2048 2048 * 768 = 1.57286e+06 is 786432
* 2 = 1.57286e+06;
#X text 877 351 44100 : samples per tick 2048;
#X text 877 561 88200: samples per tick 2048;
#X floatatom 746 608 0 0 0 0 - - -;
#X obj 750 582 * 768;
#X msg 853 590 4096;
#X obj 195 553 s phasorFreq;
#X floatatom 642 7 5 0 0 0 - - -, f 5;
#X obj 569 56 / 250;
#X obj 619 57 - 2;
#X obj 484 361 - 57;
#X floatatom 625 385 5 0 0 0 - - -, f 5;
#X obj 487 385 s root;
#X obj 569 334 pack 0 100;
#X obj 112 278 s tickTime, f 11;
#X obj 359 85 select 191 383 575 767;
#X obj 286 150 delay 5;
#X obj 360 134 delay 6;
#X obj 289 179 delay 5;
#X obj 289 209 delay 5;
#X obj 289 239 delay 5;
#X obj 369 179 delay 5;
#X obj 369 209 delay 5;
#X obj 370 240 delay 5;
#X connect 0 0 2 0;
#X connect 1 0 5 0;
#X connect 2 0 1 0;
#X connect 3 0 31 0;
#X connect 3 0 35 0;
#X connect 3 0 83 0;
#X connect 4 0 3 0;
#X connect 5 0 4 0;
#X connect 5 1 3 1;
#X connect 8 0 10 0;
#X connect 8 0 48 0;
#X connect 9 0 6 0;
#X connect 11 0 6 0;
#X connect 13 0 15 0;
#X connect 13 1 14 1;
#X connect 14 0 65 0;
#X connect 15 0 14 0;
#X connect 17 0 21 0;
#X connect 17 0 36 0;
#X connect 17 0 32 0;
#X connect 20 0 19 0;
#X connect 20 0 33 0;
#X connect 21 0 20 0;
#X connect 22 0 24 0;
#X connect 23 0 22 0;
#X connect 24 0 28 0;
#X connect 25 0 24 1;
#X connect 26 0 25 0;
#X connect 26 0 18 0;
#X connect 26 0 30 0;
#X connect 27 0 25 0;
#X connect 27 0 18 0;
#X connect 27 0 30 0;
#X connect 28 0 27 0;
#X connect 28 1 26 0;
#X connect 29 0 23 0;
#X connect 34 0 13 0;
#X connect 35 0 12 0;
#X connect 35 0 34 0;
#X connect 36 0 29 0;
#X connect 37 0 38 0;
#X connect 37 0 39 0;
#X connect 38 0 42 0;
#X connect 40 0 85 0;
#X connect 41 0 42 0;
#X connect 43 0 40 0;
#X connect 43 0 84 0;
#X connect 44 0 46 0;
#X connect 48 0 6 0;
#X connect 49 0 52 0;
#X connect 50 0 51 0;
#X connect 51 0 49 0;
#X connect 52 0 53 0;
#X connect 52 0 79 0;
#X connect 53 0 55 0;
#X connect 54 0 82 0;
#X connect 55 0 54 0;
#X connect 56 0 45 0;
#X connect 58 0 78 0;
#X connect 60 0 61 0;
#X connect 61 0 50 0;
#X connect 62 0 60 0;
#X connect 63 0 59 0;
#X connect 64 0 17 0;
#X connect 65 0 64 0;
#X connect 65 0 75 0;
#X connect 68 0 74 0;
#X connect 73 0 72 0;
#X connect 73 0 66 0;
#X connect 74 0 67 0;
#X connect 74 0 73 0;
#X connect 76 0 78 0;
#X connect 77 0 62 0;
#X connect 78 0 77 0;
#X connect 79 0 81 0;
#X connect 82 0 63 0;
#X connect 82 0 80 0;
#X connect 84 0 86 0;
#X connect 84 1 86 0;
#X connect 84 2 86 0;
#X connect 84 3 86 0;
#X connect 85 0 87 0;
#X connect 86 0 90 0;
#X connect 87 0 88 0;
#X connect 88 0 89 0;
#X connect 89 0 41 0;
#X connect 90 0 91 0;
#X connect 91 0 92 0;
#X connect 92 0 37 0;
