#N canvas 0 47 1920 1153 10;
#X obj 98 137 r bpm;
#X obj 98 181 / 60;
#X obj 98 159 * 24;
#X obj 98 247 /;
#X msg 98 226 1000;
#X obj 98 202 t b f;
#X obj 431 162 bang;
#X msg 431 193 250;
#X obj 431 131 delay 1;
#X obj 469 194 bng 15 250 50 0 empty empty empty 17 7 0 10 -262144
-1 -1;
#X obj 386 131 bang;
#X msg 386 193 248;
#X obj 414 217 midiout;
#X floatatom 129 249 5 0 0 0 - - -, f 5;
#X obj 99 110 s bpm;
#X obj 856 870 s midiClock;
#X text -2 80 repeatDecay;
#X obj 97 47 loadbang;
#X floatatom 49 58 5 0 0 0 - - -, f 5;
#X text 145 183 < also in c++;
#X obj 679 722 s dubsync;
#X obj 175 50 delay 20;
#X floatatom 161 84 5 0 0 0 - - -, f 5;
#X obj 431 82 select 0 195 383 575;
#X obj 386 46 r midiClock;
#X obj 154 594 s smppertick;
#X msg 99 78 125;
#X obj 680 488 t b f;
#X obj 680 532 /, f 5;
#X floatatom 692 563 0 0 0 0 - - -;
#X text 837 607 freq of 8 bars;
#X obj 680 598 phasor~;
#X obj 679 697 threshold~ 0.9 0 0.1 0;
#X msg 809 465 0;
#X obj 679 670 expr~ $v1 < 0.5;
#X obj 856 750 threshold~ 0.9 0 0.1 0;
#X obj 856 723 expr~ $v1 < 0.5;
#X obj 856 775 f;
#X obj 890 776 + 1;
#X msg 902 820 0;
#X obj 856 820 f;
#X obj 856 798 moses 768;
#X obj 858 669 *~ 1536;
#X obj 857 697 expr~ $v1 % 2;
#X obj 140 919 s 8barLength;
#X obj 292 470 r 8barLength;
#X obj 375 539 / 768;
#X obj 375 563 s tickTime;
#X obj 292 538 s looptime;
#X text 506 515 32 beats;
#X obj 469 513 / 32;
#X obj 484 595 /;
#X obj 469 538 t b f;
#X floatatom 484 618 0 0 0 0 - - -;
#X text 446 620 BPM;
#X obj 70 653 s dublength;
#X obj 469 470 r 8barLength;
#X obj 680 464 r 8barLength;
#X text 847 469 reset;
#X obj 550 673 s~ audioClock;
#X text 97 558 samples per tick;
#X floatatom 53 524 5 0 0 0 - - -, f 5;
#X obj 53 596 * 768;
#X floatatom 87 630 0 0 0 0 - - -;
#X text 158 654 total samples for 8 bars;
#X floatatom 104 596 5 0 0 0 - - -, f 5;
#X obj 53 683 t f b;
#X obj 85 711 samplerate~;
#X obj 53 734 /, f 5;
#X floatatom 149 767 5 0 0 0 - - -, f 5;
#X text 71 792 8bar lentgth s;
#X obj 292 513 / 8;
#X obj 375 516 * 1000;
#X msg 469 566 60;
#X msg 680 511 1;
#X floatatom 863 916 5 0 0 0 - - -, f 5;
#X obj 54 473 loadbang;
#X obj 239 692 / 44100;
#X floatatom 239 732 5 0 0 0 - - -, f 5;
#X obj 378 783 t b f;
#X obj 379 818 samplerate~;
#X obj 384 862 /;
#X obj 385 896 int;
#X obj 378 933 t b f;
#X obj 379 968 samplerate~;
#X obj 384 1012 /;
#X floatatom 384 1054 0 0 0 0 - - -;
#X obj 53 557 * 64;
#X floatatom 470 902 0 0 0 0 - - -;
#X msg 54 498 16;
#X obj 700 831 * 44100;
#X floatatom 658 798 5 0 0 0 - - -, f 5;
#X floatatom 676 899 5 0 0 0 - - -, f 5;
#X floatatom 141 895 5 0 0 0 - - -, f 5;
#X obj 155 826 bng 15 250 50 0 empty empty empty 17 7 0 10 -262144
-1 -1;
#X obj 194 829 loadbang;
#X msg 140 853 15;
#X obj 146 953 * 44100;
#X obj 169 981 s dublength;
#X obj 147 1009 / 768;
#X obj 154 1044 s smppertick;
#X floatatom 109 1058 5 0 0 0 - - -, f 5;
#X connect 0 0 2 0;
#X connect 1 0 5 0;
#X connect 2 0 1 0;
#X connect 3 0 13 0;
#X connect 4 0 3 0;
#X connect 5 0 4 0;
#X connect 5 1 3 1;
#X connect 6 0 7 0;
#X connect 6 0 9 0;
#X connect 7 0 12 0;
#X connect 8 0 6 0;
#X connect 10 0 11 0;
#X connect 11 0 12 0;
#X connect 17 0 21 0;
#X connect 18 0 14 0;
#X connect 22 0 14 0;
#X connect 23 0 8 0;
#X connect 23 1 8 0;
#X connect 23 2 8 0;
#X connect 23 3 8 0;
#X connect 24 0 10 0;
#X connect 24 0 23 0;
#X connect 26 0 14 0;
#X connect 27 0 74 0;
#X connect 27 1 28 1;
#X connect 28 0 29 0;
#X connect 28 0 31 0;
#X connect 29 0 79 0;
#X connect 29 0 90 0;
#X connect 31 0 34 0;
#X connect 31 0 42 0;
#X connect 31 0 59 0;
#X connect 32 0 20 0;
#X connect 33 0 31 1;
#X connect 34 0 32 0;
#X connect 35 0 37 0;
#X connect 36 0 35 0;
#X connect 37 0 41 0;
#X connect 38 0 37 1;
#X connect 39 0 38 0;
#X connect 39 0 15 0;
#X connect 39 0 75 0;
#X connect 40 0 38 0;
#X connect 40 0 15 0;
#X connect 40 0 75 0;
#X connect 41 0 40 0;
#X connect 41 1 39 0;
#X connect 42 0 43 0;
#X connect 43 0 36 0;
#X connect 45 0 71 0;
#X connect 45 0 72 0;
#X connect 46 0 47 0;
#X connect 50 0 52 0;
#X connect 51 0 53 0;
#X connect 52 0 73 0;
#X connect 52 1 51 1;
#X connect 56 0 50 0;
#X connect 57 0 27 0;
#X connect 62 0 63 0;
#X connect 62 0 55 0;
#X connect 62 0 66 0;
#X connect 62 0 77 0;
#X connect 66 0 68 0;
#X connect 66 1 67 0;
#X connect 67 0 68 1;
#X connect 68 0 69 0;
#X connect 71 0 48 0;
#X connect 72 0 46 0;
#X connect 73 0 51 0;
#X connect 74 0 28 0;
#X connect 76 0 89 0;
#X connect 77 0 78 0;
#X connect 79 0 80 0;
#X connect 79 1 81 1;
#X connect 80 0 81 0;
#X connect 81 0 82 0;
#X connect 81 0 88 0;
#X connect 82 0 83 0;
#X connect 83 0 84 0;
#X connect 83 1 85 1;
#X connect 84 0 85 0;
#X connect 85 0 86 0;
#X connect 87 0 62 0;
#X connect 87 0 65 0;
#X connect 87 0 25 0;
#X connect 89 0 61 0;
#X connect 90 0 92 0;
#X connect 91 0 90 0;
#X connect 93 0 44 0;
#X connect 93 0 97 0;
#X connect 94 0 96 0;
#X connect 95 0 96 0;
#X connect 96 0 93 0;
#X connect 97 0 98 0;
#X connect 97 0 99 0;
#X connect 99 0 100 0;
#X connect 99 0 101 0;
