#N canvas 0 47 1056 1153 10;
#N canvas 0 50 462 312 (subpatch) 0;
#X array b1 27227 float 2;
#X coords 0 0 27227 1 100 40 0;
#X restore 12 343 graph;
#X obj 10 633 soundfiler;
#N canvas 0 50 462 312 (subpatch) 0;
#X array b2 19626 float 2;
#X coords 0 0 19626 1 100 40 0;
#X restore 13 368 graph;
#N canvas 0 50 462 312 (subpatch) 0;
#X array b3 33585 float 2;
#X coords 0 0 33585 1 100 40 0;
#X restore 13 393 graph;
#N canvas 0 50 745 715 (subpatch) 0;
#X array b0 5418 float 2;
#X coords 0 0 5418 1 100 40 0;
#X restore 12 311 graph;
#X msg 10 612 read -resize \$1 \$2 \;;
#N canvas 0 50 462 312 (subpatch) 0;
#X array c1 64537 float 2;
#X coords 0 0 64537 1 100 40 0;
#X restore 63 338 graph;
#N canvas 0 50 462 312 (subpatch) 0;
#X array c2 26622 float 2;
#X coords 0 0 26622 1 100 40 0;
#X restore 63 368 graph;
#N canvas 0 50 1056 1153 (subpatch) 0;
#X array c3 22284 float 2;
#X coords 0 0 22284 1 100 40 0;
#X restore 63 393 graph;
#N canvas 143 51 535 402 (subpatch) 0;
#X array c0 44053 float 2;
#X coords 0 0 44053 1 100 40 0;
#X restore 63 311 graph;
#N canvas 0 50 462 312 (subpatch) 0;
#X array d1 17828 float 2;
#X coords 0 0 17828 1 100 40 0;
#X restore 113 338 graph;
#N canvas 0 50 462 312 (subpatch) 0;
#X array d2 6311 float 2;
#X coords 0 0 6311 1 100 40 0;
#X restore 113 368 graph;
#N canvas 0 50 462 312 (subpatch) 0;
#X array d3 5833 float 2;
#X coords 0 0 5833 1 100 40 0;
#X restore 113 393 graph;
#N canvas 0 50 462 312 (subpatch) 0;
#X array d0 43962 float 2;
#X coords 0 0 43962 1 100 40 0;
#X restore 113 311 graph;
#N canvas 0 50 462 312 (subpatch) 0;
#X array e1 33496 float 2;
#X coords 0 0 33496 1 100 40 0;
#X restore 163 338 graph;
#N canvas 0 50 462 312 (subpatch) 0;
#X array e2 26276 float 2;
#X coords 0 0 26276 1 100 40 0;
#X restore 163 368 graph;
#N canvas 0 50 462 312 (subpatch) 0;
#X array e3 22297 float 2;
#X coords 0 0 22297 1 100 40 0;
#X restore 163 393 graph;
#N canvas 0 50 745 715 (subpatch) 0;
#X array e0 44012 float 2;
#X coords 0 0 44012 1 100 40 0;
#X restore 164 312 graph;
#X obj 17 443 loadbang;
#X msg 430 140 1;
#X msg 462 139 2;
#X msg 499 139 3;
#X msg 538 140 4;
#X msg 590 140 1;
#X msg 622 139 2;
#X msg 659 139 3;
#X msg 696 140 4;
#X msg 742 140 1;
#X msg 772 139 2;
#X msg 811 139 3;
#X msg 848 140 4;
#X msg 902 140 1;
#X msg 934 139 2;
#X msg 971 139 3;
#X msg 1007 140 4;
#N canvas 0 50 462 312 (subpatch) 0;
#X array f1 44086 float 2;
#X coords 0 0 44086 1 100 40 0;
#X restore 213 341 graph;
#N canvas 0 50 462 312 (subpatch) 0;
#X array f2 66100 float 2;
#X coords 0 0 66100 1 100 40 0;
#X restore 213 370 graph;
#N canvas 0 50 462 312 (subpatch) 0;
#X array f3 7325 float 2;
#X coords 0 0 7325 1 100 40 0;
#X restore 213 396 graph;
#N canvas 0 50 462 312 (subpatch) 0;
#X array f0 32683 float 2;
#X coords 0 0 32683 1 100 40 0;
#X restore 213 311 graph;
#N canvas 0 50 745 715 (subpatch) 0;
#X array g1 50516 float 2;
#X coords 0 0 50516 1 100 40 0;
#X restore 263 341 graph;
#N canvas 0 50 462 312 (subpatch) 0;
#X array g2 29912 float 2;
#X coords 0 0 29912 1 100 40 0;
#X restore 263 371 graph;
#N canvas 0 50 462 312 (subpatch) 0;
#X array g3 44081 float 2;
#X coords 0 0 44081 1 100 40 0;
#X restore 263 396 graph;
#N canvas 0 50 462 312 (subpatch) 0;
#X array g0 22050 float 2;
#X coords 0 0 22050 1 100 40 0;
#X restore 263 311 graph;
#N canvas 0 50 462 312 (subpatch) 0;
#X array h1 11019 float 2;
#X coords 0 0 11019 1 100 40 0;
#X restore 313 341 graph;
#N canvas 0 50 462 312 (subpatch) 0;
#X array h2 12577 float 2;
#X coords 0 0 12577 1 100 40 0;
#X restore 313 371 graph;
#N canvas 0 50 462 312 (subpatch) 0;
#X array h3 5389 float 2;
#X coords 0 0 5389 1 100 40 0;
#X restore 313 396 graph;
#N canvas 0 50 462 312 (subpatch) 0;
#X array h0 26601 float 2;
#X coords 0 0 26601 1 100 40 0;
#X restore 313 311 graph;
#N canvas 0 50 462 312 (subpatch) 0;
#X array i1 22587 float 2;
#X coords 0 0 22587 1 100 40 0;
#X restore 363 341 graph;
#N canvas 0 50 462 312 (subpatch) 0;
#X array i2 67991 float 2;
#X coords 0 0 67991 1 100 40 0;
#X restore 363 371 graph;
#N canvas 0 50 462 312 (subpatch) 0;
#X array i3 8269 float 2;
#X coords 0 0 8269 1 100 40 0;
#X restore 363 396 graph;
#N canvas 0 50 470 320 (subpatch) 0;
#X array i0 16121 float 2;
#X coords 0 320 16121 319 100 40 0;
#X restore 363 311 graph;
#X msg 430 39 1;
#X msg 462 38 2;
#X msg 499 39 3;
#X msg 533 40 4;
#X msg 590 39 1;
#X msg 622 38 2;
#X msg 659 38 3;
#X msg 696 39 4;
#X msg 740 39 1;
#X msg 772 38 2;
#X msg 809 38 3;
#X msg 846 39 4;
#X msg 900 39 1;
#X msg 932 38 2;
#X msg 969 38 3;
#X msg 1006 39 4;
#X obj 457 204 +~;
#X obj 616 206 +~;
#X obj 765 211 +~;
#X obj 928 211 +~;
#X msg 70 558 s \$1/g/\$2.wav b2;
#X msg 69 586 s \$1/h/\$2.wav b3;
#X obj 290 633 soundfiler;
#X msg 290 612 read -resize \$1 \$2 \;;
#X msg 350 558 s \$1/g/\$2.wav c2;
#X msg 349 586 s \$1/h/\$2.wav c3;
#X obj 560 633 soundfiler;
#X msg 560 612 read -resize \$1 \$2 \;;
#X msg 620 558 s \$1/g/\$2.wav d2;
#X msg 619 586 s \$1/h/\$2.wav d3;
#X obj 830 633 soundfiler;
#X msg 830 611 read -resize \$1 \$2 \;;
#X msg 889 586 s \$1/h/\$2.wav e3;
#X msg 890 558 s \$1/g/\$2.wav e2;
#X obj 836 440 delay 500;
#X obj 566 440 delay 500;
#X obj 296 442 delay 500;
#X obj 77 443 delay 500;
#X obj 152 445 bng 15 250 50 0 empty empty empty 17 7 0 10 -262144
-1 -1;
#X obj 10 853 soundfiler;
#X msg 10 832 read -resize \$1 \$2 \;;
#X obj 19 662 delay 2500;
#X obj 290 853 soundfiler;
#X msg 290 832 read -resize \$1 \$2 \;;
#X obj 299 662 delay 500;
#X obj 560 853 soundfiler;
#X msg 560 832 read -resize \$1 \$2 \;;
#X obj 569 662 delay 500;
#X obj 840 853 soundfiler;
#X msg 840 832 read -resize \$1 \$2 \;;
#X obj 849 662 delay 500;
#X msg 70 718 s \$1/a/\$2.wav f0;
#X msg 70 748 s \$1/b/\$2.wav f1;
#X msg 70 778 s \$1/c/\$2.wav f2;
#X msg 71 808 s \$1/d/\$2.wav f3;
#X msg 350 748 s \$1/b/\$2.wav g1;
#X msg 350 778 s \$1/c/\$2.wav g2;
#X msg 350 806 s \$1/d/\$2.wav g3;
#X msg 620 748 s \$1/b/\$2.wav h1;
#X msg 621 780 s \$1/c/\$2.wav h2;
#X msg 620 806 s \$1/d/\$2.wav h3;
#X msg 899 716 s \$1/a/\$2.wav i0;
#X msg 900 748 s \$1/b/\$2.wav i1;
#X msg 901 779 s \$1/c/\$2.wav i2;
#X msg 900 806 s \$1/d/\$2.wav i3;
#X msg 71 498 s \$1/e/\$2.wav b0;
#X msg 69 528 s \$1/f/\$2.wav b1;
#X msg 349 527 s \$1/f/\$2.wav c1;
#X msg 620 528 s \$1/f/\$2.wav d1;
#X msg 890 497 s \$1/e/\$2.wav e0;
#X msg 890 528 s \$1/f/\$2.wav e1;
#X obj 655 371 s~ drum-out;
#X obj 209 -66 r drum-in;
#X obj 537 241 +~;
#X obj 850 240 +~;
#X obj 657 260 +~;
#X obj 2 -79 cnv 15 129 65 empty empty empty 7 -10 0 16 -45076 -252505
1.04858e+06;
#X obj 124 -75 cnv 2 2 2 empty empty empty 20 12 0 14 -99865 -66577
0;
#X obj 16 -61 cnv 15 20 20 empty empty Dr.BE/|T 13 12 1 18 -45076 -99865
0;
#X obj 124 -21 cnv 2 2 2 empty empty empty 20 12 0 14 -99865 -66577
0;
#X obj 8 -21 cnv 2 2 2 empty empty empty 20 12 0 14 -99865 -66577 0
;
#X obj 13 -53 tgl 8 0 ldsflkjdsflhfds\$0 \$0-gui1 empty 35 15 0 16
-90133 -90133 -90133 0 1;
#X obj 20 90 cnv 10 10 10 empty \$0-kit K:01 13 6 0 17 -13330 -128992
0;
#X obj 325 76 +;
#X obj 367 -10 r octave;
#X obj 340 49 * 16;
#X obj 438 108 select 12 8 4 0;
#X obj 597 108 select 13 9 5 1;
#X obj 748 110 select 14 10 6 2;
#X obj 910 108 select 15 11 7 3;
#X obj 438 7 select 28 24 20 16;
#X obj 600 7 select 29 25 21 17;
#X obj 748 8 select 30 26 22 18;
#X obj 908 7 select 31 27 23 19;
#X obj 83 -46 cnv 1 6 1 empty empty empty 20 12 0 14 -99865 -66577
0;
#X obj 26 -34 cnv 1 82 1 empty empty empty 20 12 0 14 -99865 -66577
0;
#X obj 26 -64 cnv 1 82 1 empty empty empty 20 12 0 14 -99865 -66577
0;
#X obj 8 -74 cnv 2 2 2 empty empty empty 20 12 0 14 -99865 -66577 0
;
#X obj 112 -53 tgl 8 0 ldsflkjdsflhfds\$0 \$0-gui1 empty 35 15 0 16
-90133 -90133 -90133 0 1;
#X obj 277 13 spigot;
#X msg 327 -11 0;
#X msg 287 -14 1;
#X obj 291 -39 select 1;
#X msg 620 717 s \$1/a/\$2.wav g0;
#X msg 350 718 s \$1/a/\$2.wav h0;
#X msg 351 498 s \$1/e/\$2.wav d0;
#X msg 619 497 s \$1/e/\$2.wav c0;
#X msg 16 465 s /home/robber/samples/DrBeat/ 1;
#X msg 15 684 s /home/robber/samples/DrBeat/ 1;
#X msg 297 684 s /home/robber/samples/DrBeat/ 2;
#X msg 296 464 s /home/robber/samples/DrBeat/ 2;
#X msg 566 464 s /home/robber/samples/DrBeat/ 3;
#X msg 566 685 s /home/robber/samples/DrBeat/ 3;
#X msg 844 685 s /home/robber/samples/DrBeat/ 4;
#X msg 836 464 s /home/robber/samples/DrBeat/ 4;
#X obj 291 -66 r source;
#X obj 160 -65 inlet;
#X obj 315 204 vline~;
#X msg 312 172 1 2 \, 0 100 1000;
#X obj 647 317 *~;
#X obj 306 118 bang;
#X obj 470 174 drBeatTabPlay e;
#X obj 455 76 drBeatTabPlay i;
#X obj 632 175 drBeatTabPlay c;
#X obj 781 174 drBeatTabPlay d;
#X obj 944 173 drBeatTabPlay b;
#X obj 929 75 drBeatTabPlay f;
#X obj 764 73 drBeatTabPlay h;
#X obj 615 73 drBeatTabPlay g;
#X obj 357 18 - 1;
#X connect 5 0 1 0;
#X connect 18 0 88 0;
#X connect 19 0 172 0;
#X connect 20 0 172 0;
#X connect 21 0 172 0;
#X connect 22 0 172 0;
#X connect 23 0 174 0;
#X connect 24 0 174 0;
#X connect 25 0 174 0;
#X connect 26 0 174 0;
#X connect 27 0 175 0;
#X connect 28 0 175 0;
#X connect 29 0 175 0;
#X connect 30 0 175 0;
#X connect 31 0 176 0;
#X connect 32 0 176 0;
#X connect 33 0 176 0;
#X connect 34 0 176 0;
#X connect 51 0 173 0;
#X connect 52 0 173 0;
#X connect 53 0 173 0;
#X connect 54 0 173 0;
#X connect 55 0 179 0;
#X connect 56 0 179 0;
#X connect 57 0 179 0;
#X connect 58 0 179 0;
#X connect 59 0 178 0;
#X connect 60 0 178 0;
#X connect 61 0 178 0;
#X connect 62 0 178 0;
#X connect 63 0 177 0;
#X connect 64 0 177 0;
#X connect 65 0 177 0;
#X connect 66 0 177 0;
#X connect 67 0 124 0;
#X connect 68 0 124 1;
#X connect 69 0 125 0;
#X connect 70 0 125 1;
#X connect 71 0 5 0;
#X connect 72 0 5 0;
#X connect 74 0 73 0;
#X connect 75 0 74 0;
#X connect 76 0 74 0;
#X connect 78 0 77 0;
#X connect 79 0 78 0;
#X connect 80 0 78 0;
#X connect 82 0 81 0;
#X connect 83 0 82 0;
#X connect 84 0 82 0;
#X connect 85 0 165 0;
#X connect 86 0 85 0;
#X connect 86 0 162 0;
#X connect 87 0 86 0;
#X connect 87 0 161 0;
#X connect 88 0 87 0;
#X connect 88 0 158 0;
#X connect 88 0 92 0;
#X connect 89 0 88 0;
#X connect 91 0 90 0;
#X connect 92 0 159 0;
#X connect 92 0 95 0;
#X connect 94 0 93 0;
#X connect 95 0 160 0;
#X connect 95 0 98 0;
#X connect 97 0 96 0;
#X connect 98 0 163 0;
#X connect 98 0 101 0;
#X connect 100 0 99 0;
#X connect 101 0 164 0;
#X connect 102 0 91 0;
#X connect 103 0 91 0;
#X connect 104 0 91 0;
#X connect 105 0 91 0;
#X connect 106 0 94 0;
#X connect 107 0 94 0;
#X connect 108 0 94 0;
#X connect 109 0 97 0;
#X connect 110 0 97 0;
#X connect 111 0 97 0;
#X connect 112 0 100 0;
#X connect 113 0 100 0;
#X connect 114 0 100 0;
#X connect 115 0 100 0;
#X connect 116 0 5 0;
#X connect 117 0 5 0;
#X connect 118 0 74 0;
#X connect 119 0 78 0;
#X connect 120 0 82 0;
#X connect 121 0 82 0;
#X connect 123 0 150 0;
#X connect 124 0 126 0;
#X connect 125 0 126 1;
#X connect 126 0 170 0;
#X connect 134 0 137 0;
#X connect 134 0 141 0;
#X connect 135 0 180 0;
#X connect 136 0 134 1;
#X connect 137 0 19 0;
#X connect 137 1 20 0;
#X connect 137 2 21 0;
#X connect 137 3 22 0;
#X connect 137 4 138 0;
#X connect 138 0 23 0;
#X connect 138 1 24 0;
#X connect 138 2 25 0;
#X connect 138 3 26 0;
#X connect 138 4 139 0;
#X connect 139 0 27 0;
#X connect 139 1 28 0;
#X connect 139 2 29 0;
#X connect 139 3 30 0;
#X connect 139 4 140 0;
#X connect 140 0 31 0;
#X connect 140 1 32 0;
#X connect 140 2 33 0;
#X connect 140 3 34 0;
#X connect 141 0 51 0;
#X connect 141 1 52 0;
#X connect 141 2 53 0;
#X connect 141 3 54 0;
#X connect 141 4 142 0;
#X connect 142 0 55 0;
#X connect 142 1 56 0;
#X connect 142 2 57 0;
#X connect 142 3 58 0;
#X connect 142 4 143 0;
#X connect 143 0 59 0;
#X connect 143 1 60 0;
#X connect 143 2 61 0;
#X connect 143 3 62 0;
#X connect 143 4 144 0;
#X connect 144 0 63 0;
#X connect 144 1 64 0;
#X connect 144 2 65 0;
#X connect 144 3 66 0;
#X connect 150 0 134 0;
#X connect 150 0 171 0;
#X connect 151 0 150 1;
#X connect 152 0 150 1;
#X connect 153 0 152 0;
#X connect 153 1 151 0;
#X connect 154 0 97 0;
#X connect 155 0 94 0;
#X connect 156 0 74 0;
#X connect 157 0 78 0;
#X connect 158 0 117 0;
#X connect 158 0 116 0;
#X connect 158 0 71 0;
#X connect 158 0 72 0;
#X connect 159 0 103 0;
#X connect 159 0 102 0;
#X connect 159 0 104 0;
#X connect 159 0 105 0;
#X connect 160 0 106 0;
#X connect 160 0 155 0;
#X connect 160 0 107 0;
#X connect 160 0 108 0;
#X connect 161 0 118 0;
#X connect 161 0 156 0;
#X connect 161 0 75 0;
#X connect 161 0 76 0;
#X connect 162 0 119 0;
#X connect 162 0 157 0;
#X connect 162 0 79 0;
#X connect 162 0 80 0;
#X connect 163 0 109 0;
#X connect 163 0 154 0;
#X connect 163 0 111 0;
#X connect 163 0 110 0;
#X connect 164 0 113 0;
#X connect 164 0 112 0;
#X connect 164 0 114 0;
#X connect 164 0 115 0;
#X connect 165 0 121 0;
#X connect 165 0 120 0;
#X connect 165 0 84 0;
#X connect 165 0 83 0;
#X connect 166 0 153 0;
#X connect 167 0 150 0;
#X connect 168 0 170 1;
#X connect 169 0 168 0;
#X connect 170 0 122 0;
#X connect 171 0 169 0;
#X connect 172 0 67 1;
#X connect 173 0 67 0;
#X connect 174 0 68 1;
#X connect 175 0 69 1;
#X connect 176 0 70 1;
#X connect 177 0 70 0;
#X connect 178 0 69 0;
#X connect 179 0 68 0;
#X connect 180 0 136 0;
#X coords 0 1153 1 1152 129 65 0;
