#N canvas 0 47 1056 1153 10;
#X obj 200 72 inlet~;
#X obj 176 2545 outlet~;
#X obj 234 196 *~;
#X obj 233 222 throw~ sideout;
#X obj 253 101 r L1-sideOut;
#X obj 253 124 / 254;
#X obj 253 172 line~;
#X obj 253 148 pack 0 3;
#X obj 201 321 vcf_lp4~;
#X obj 37 172 catch~ sideout;
#X obj 37 396 s sidefilter;
#X obj 36 281 moses 0;
#X msg 37 303 0;
#X obj 37 376 * 1;
#X obj 36 207 env~ 512;
#X obj 36 231 - 50;
#X obj 82 303 moses 254;
#X msg 142 326 254;
#X obj -561 364 line~;
#X obj -561 341 pack 0 10;
#X msg -561 223 0;
#X obj -561 198 loadbang;
#X msg 288 73 0;
#X obj 288 48 loadbang;
#X obj -552 247 r L1-reso;
#X obj -561 275 + 2;
#X obj -561 298 / 260;
#X obj -560 389 s~ L1-Q;
#X obj 265 292 r~ L1-Q;
#X obj -564 766 line~;
#X obj -565 716 mtof;
#X obj -551 605 r sidefilter;
#X obj -549 631 *;
#X obj -565 690 +;
#X obj -549 657 t b f;
#X obj -564 791 lop~ 8;
#X obj -530 556 r L1-sideIn;
#X obj -530 579 / 255;
#X msg -483 579 0;
#X obj -515 533 loadbang;
#X obj -565 476 r L1-freq;
#X obj -492 476 loadbang;
#X obj 75 257 loadbang;
#X obj -565 813 s~ L1-F;
#X obj 250 264 r~ L1-F;
#X obj -565 532 * 0.64;
#X msg -492 499 254;
#X obj -561 320 * 6;
#X obj 232 458 expr~ tanh($v1);
#X obj 528 229 *~;
#X obj 527 255 throw~ sideout;
#X obj 547 157 / 254;
#X obj 547 205 line~;
#X obj 547 181 pack 0 3;
#X obj 490 338 vcf_lp4~;
#X msg 582 106 0;
#X obj 582 81 loadbang;
#X obj 547 134 r L2-sideOut;
#X obj 533 281 r~ L2-F;
#X obj 559 309 r~ L2-Q;
#X obj 808 187 *~;
#X obj 807 213 throw~ sideout;
#X obj 827 115 / 254;
#X obj 827 163 line~;
#X obj 827 139 pack 0 3;
#X obj 784 300 vcf_lp4~;
#X msg 862 64 0;
#X obj 862 39 loadbang;
#X obj 1127 171 *~;
#X obj 1126 197 throw~ sideout;
#X obj 1146 99 / 254;
#X obj 1146 147 line~;
#X obj 1146 123 pack 0 3;
#X obj 1067 303 vcf_lp4~;
#X msg 1181 48 0;
#X obj 1181 23 loadbang;
#X obj 1146 76 r L4-sideOut;
#X obj 827 92 r L3-sideOut;
#X obj 828 237 r~ L3-F;
#X obj 854 265 r~ L3-Q;
#X obj 1116 237 r~ L4-F;
#X obj 1146 265 r~ L4-Q;
#X obj -471 364 line~;
#X obj -471 341 pack 0 10;
#X msg -471 223 0;
#X obj -471 198 loadbang;
#X obj -471 275 + 2;
#X obj -471 298 / 260;
#X obj -471 320 * 6;
#X obj -462 247 r L2-reso;
#X obj -470 389 s~ L2-Q;
#X obj -381 364 line~;
#X obj -381 341 pack 0 10;
#X msg -381 223 0;
#X obj -381 198 loadbang;
#X obj -381 275 + 2;
#X obj -381 298 / 260;
#X obj -381 320 * 6;
#X obj -291 364 line~;
#X obj -291 341 pack 0 10;
#X msg -291 223 0;
#X obj -291 198 loadbang;
#X obj -291 275 + 2;
#X obj -291 298 / 260;
#X obj -291 320 * 6;
#X obj -373 247 r L3-reso;
#X obj -282 247 r L4-reso;
#X obj -290 389 s~ L4-Q;
#X obj -380 389 s~ L3-Q;
#X obj -414 766 line~;
#X obj -415 716 mtof;
#X obj -401 605 r sidefilter;
#X obj -399 631 *;
#X obj -415 690 +;
#X obj -399 657 t b f;
#X obj -415 742 pack 0 10;
#X obj -414 790 lop~ 8;
#X obj -380 579 / 255;
#X msg -333 579 0;
#X obj -365 533 loadbang;
#X obj -342 476 loadbang;
#X obj -415 532 * 0.64;
#X msg -342 499 254;
#X obj -415 476 r L2-freq;
#X obj -381 556 r L2-sideIn;
#X obj -415 814 s~ L2-F;
#X obj -264 766 line~;
#X obj -265 716 mtof;
#X obj -251 605 r sidefilter;
#X obj -249 631 *;
#X obj -265 690 +;
#X obj -249 657 t b f;
#X obj -265 742 pack 0 10;
#X obj -264 790 lop~ 8;
#X obj -230 579 / 255;
#X msg -183 579 0;
#X obj -215 533 loadbang;
#X obj -192 476 loadbang;
#X obj -265 532 * 0.64;
#X msg -192 499 254;
#X obj -114 766 line~;
#X obj -115 716 mtof;
#X obj -101 605 r sidefilter;
#X obj -99 631 *;
#X obj -115 690 +;
#X obj -99 657 t b f;
#X obj -115 742 pack 0 10;
#X obj -114 790 lop~ 8;
#X obj -80 579 / 255;
#X msg -33 579 0;
#X obj -65 533 loadbang;
#X obj -42 476 loadbang;
#X obj -115 532 * 0.64;
#X msg -42 499 254;
#X obj -265 476 r L3-freq;
#X obj -115 476 r L4-freq;
#X obj -81 556 r L4-sideIn;
#X obj -230 555 r L3-sideIn;
#X obj -115 814 s~ L4-F;
#X obj -265 813 s~ L3-F;
#X obj 254 416 vcf_hp4~;
#X obj 320 391 sig~;
#X obj 298 343 loadbang;
#X obj 518 471 expr~ tanh($v1);
#X obj 507 437 vcf_hp4~;
#X obj 533 412 sig~;
#X obj 573 412 sig~;
#X obj 551 364 loadbang;
#X obj 801 431 expr~ tanh($v1);
#X obj 802 393 vcf_hp4~;
#X obj 828 368 sig~;
#X obj 868 368 sig~;
#X obj 846 320 loadbang;
#X obj 1091 439 expr~ tanh($v1);
#X obj 1084 404 vcf_hp4~;
#X obj 1118 376 sig~;
#X obj 1158 376 sig~;
#X obj 1140 319 loadbang;
#X obj -201 364 line~;
#X obj -201 341 pack 0 10;
#X msg -201 223 0;
#X obj -201 198 loadbang;
#X obj -201 275 + 2;
#X obj -201 298 / 260;
#X obj -201 320 * 6;
#X obj -192 247 r Main-reso;
#X obj -200 389 s~ M-Q;
#X obj 36 766 line~;
#X obj 35 716 mtof;
#X obj 35 742 pack 0 10;
#X obj 36 790 lop~ 8;
#X obj 74 618 loadbang;
#X msg 74 641 254;
#X obj 35 476 r Main-freq;
#X obj 35 814 s~ M-F;
#X obj 35 682 * 0.64;
#X msg 1119 354 40;
#X msg 829 346 40;
#X msg 534 390 40;
#X msg 321 369 0.7;
#X msg 574 390 0.7;
#X msg 869 346 0.7;
#X msg 1159 354 0.7;
#X obj 288 709 logscale;
#X obj 268 934 *~;
#X obj 200 696 logscale;
#X obj 229 922 *~;
#X obj 289 734 * 1;
#X obj 281 659 / 254;
#X obj 281 634 r L1-EQgain;
#X obj 289 759 pack 0 5;
#X obj 288 782 line~;
#X obj 200 773 pack 0 5;
#X obj 199 796 line~;
#X obj 249 984 +~;
#X obj 302 847 r L1-EQfreq;
#X obj 346 901 loadbang;
#X msg 334 659 0;
#X obj 279 607 loadbang;
#X obj 200 724 * 0.3;
#X obj 200 749 + 0.7;
#X obj 269 901 robopeak;
#X obj 302 871 * 0.5;
#X msg 355 872 70;
#X obj 549 709 logscale;
#X obj 529 934 *~;
#X obj 461 696 logscale;
#X obj 490 922 *~;
#X obj 550 734 * 1;
#X obj 542 659 / 254;
#X obj 550 759 pack 0 5;
#X obj 549 782 line~;
#X obj 461 773 pack 0 5;
#X obj 461 796 line~;
#X obj 510 980 +~;
#X obj 607 901 loadbang;
#X msg 595 659 0;
#X obj 540 607 loadbang;
#X obj 461 724 * 0.3;
#X obj 461 749 + 0.7;
#X obj 530 901 robopeak;
#X obj 563 871 * 0.5;
#X msg 616 872 70;
#X obj 839 709 logscale;
#X obj 819 934 *~;
#X obj 751 696 logscale;
#X obj 780 922 *~;
#X obj 840 734 * 1;
#X obj 832 659 / 254;
#X obj 840 759 pack 0 5;
#X obj 839 782 line~;
#X obj 751 773 pack 0 5;
#X obj 751 796 line~;
#X obj 800 980 +~;
#X obj 897 901 loadbang;
#X msg 885 659 0;
#X obj 830 607 loadbang;
#X obj 751 724 * 0.3;
#X obj 751 749 + 0.7;
#X obj 820 901 robopeak;
#X obj 853 871 * 0.5;
#X msg 906 872 70;
#X obj 1139 709 logscale;
#X obj 1119 934 *~;
#X obj 1051 696 logscale;
#X obj 1080 922 *~;
#X obj 1140 734 * 1;
#X obj 1132 659 / 254;
#X obj 1140 759 pack 0 5;
#X obj 1139 782 line~;
#X obj 1051 773 pack 0 5;
#X obj 1051 796 line~;
#X obj 1100 980 +~;
#X obj 1197 901 loadbang;
#X msg 1185 659 0;
#X obj 1130 607 loadbang;
#X obj 1051 724 * 0.3;
#X obj 1051 749 + 0.7;
#X obj 1120 901 robopeak;
#X obj 1153 871 * 0.5;
#X msg 1206 872 70;
#X obj 197 1205 logscale;
#X obj 270 1205 logscale;
#X obj 250 1304 *~;
#X obj 210 1271 *~;
#X obj 274 1151 moses 1;
#X msg 301 1175 1;
#X obj 273 1125 * 1.5;
#X msg 309 1068 0;
#X msg 337 1193 0;
#X obj 249 1273 robocombidist;
#X obj 297 1048 r L1-dist;
#X obj 542 634 r L2-EQgain;
#X obj 563 847 r L2-EQfreq;
#X obj 853 847 r L3-EQfreq;
#X obj 832 634 r L3-EQgain;
#X obj 1132 634 r L4-EQgain;
#X obj 1153 847 r L4-EQfreq;
#X obj 346 1216 r L1-distCol, f 13;
#X obj 297 1094 / 254;
#X obj 337 1160 loadbang;
#X obj 337 1248 / 254;
#X obj 197 1361 +~, f 6;
#X obj 312 1022 loadbang;
#X obj 457 1205 logscale;
#X obj 530 1205 logscale;
#X obj 510 1304 *~;
#X obj 470 1271 *~;
#X obj 534 1151 moses 1;
#X msg 561 1175 1;
#X obj 533 1125 * 1.5;
#X msg 569 1068 0;
#X msg 597 1193 0;
#X obj 557 1094 / 254;
#X obj 597 1160 loadbang;
#X obj 597 1248 / 254;
#X obj 459 1354 +~, f 6;
#X obj 572 1022 loadbang;
#X obj 557 1048 r L2-dist;
#X obj 606 1216 r L2-distCol, f 13;
#X obj 737 1205 logscale;
#X obj 810 1205 logscale;
#X obj 790 1304 *~;
#X obj 750 1271 *~;
#X obj 814 1151 moses 1;
#X msg 841 1175 1;
#X obj 813 1125 * 1.5;
#X msg 849 1068 0;
#X msg 877 1193 0;
#X obj 837 1094 / 254;
#X obj 877 1160 loadbang;
#X obj 877 1248 / 254;
#X obj 739 1354 +~, f 6;
#X obj 852 1022 loadbang;
#X obj 1017 1205 logscale;
#X obj 1090 1205 logscale;
#X obj 1070 1304 *~;
#X obj 1030 1271 *~;
#X obj 1094 1151 moses 1;
#X msg 1121 1175 1;
#X obj 1093 1125 * 1.5;
#X msg 1129 1068 0;
#X msg 1157 1193 0;
#X obj 1117 1094 / 254;
#X obj 1157 1160 loadbang;
#X obj 1157 1248 / 254;
#X obj 1029 1354 +~, f 6;
#X obj 1132 1022 loadbang;
#X obj 1166 1216 r L4-distCol, f 13;
#X obj 1117 1048 r L4-dist;
#X obj 886 1216 r L3-distCol, f 13;
#X obj 837 1048 r L3-dist;
#X obj 483 2541 outlet~;
#X obj 782 2544 outlet~;
#X obj 1061 2533 outlet~;
#X obj 199 603 pump~;
#X obj 226 507 r L1-gain;
#X obj 229 555 max 0;
#X obj 231 578 / 127;
#X obj 228 531 - 127;
#X obj 510 72 inlet~;
#X obj 510 549 max 0;
#X obj 512 572 / 127;
#X obj 509 525 - 127;
#X obj 507 501 r L2-gain;
#X obj 780 72 inlet~;
#X obj 828 522 max 0;
#X obj 830 545 / 127;
#X obj 827 498 - 127;
#X obj 825 474 r L3-gain;
#X obj 1070 72 inlet~;
#X obj 1125 519 max 0;
#X obj 1127 542 / 127;
#X obj 1124 495 - 127;
#X obj 1122 471 r L4-gain;
#X obj 480 597 pump~;
#X obj 798 570 pump~;
#X obj 1095 567 pump~;
#X msg 338 1385 0;
#X msg 291 1382 0;
#X obj 248 2075 *~;
#X obj 210 2074 *~;
#X obj 333 1963 logscale;
#X obj 265 1963 logscale;
#X obj 333 1986 * 1;
#X msg 299 1914 0;
#X obj 265 1985 * 1;
#X obj 299 1892 loadbang;
#X obj 282 1702 loadbang;
#X msg 243 1743 0;
#X msg 249 1778 18;
#X obj 334 2034 line~;
#X obj 268 2032 line~;
#X obj 334 2008 pack 0 5;
#X obj 265 2006 pack 0 5;
#X obj 210 2117 +~;
#X obj 210 2343 *~;
#X obj 339 2175 logscale;
#X obj 255 2175 logscale;
#X obj 339 2198 * 1;
#X msg 289 2122 0;
#X obj 289 2100 loadbang;
#X obj 340 2246 line~;
#X obj 255 2268 line~;
#X obj 340 2220 pack 0 5;
#X obj 255 2244 pack 0 5;
#X obj 208 2426 lop~ 3000;
#X obj 255 2197 * 0.25;
#X obj 255 2220 + 0.75;
#X obj 162 2341 *~;
#X obj 157 2504 +~;
#X obj 218 1470 bitcrush;
#X obj 329 1406 r L1-bitSampl;
#X obj 328 1438 / 254;
#X obj 227 1406 r L1-bitCrush;
#X obj 293 1352 loadbang;
#X obj 249 1844 robodelay;
#X obj 280 1735 r L1-delay;
#X obj 280 1774 / 260;
#X obj 330 1912 r L1-delay;
#X obj 330 1936 / 254;
#X obj 353 2101 r L1-verb;
#X obj 320 2144 / 254;
#X obj 241 2356 r L1-verb;
#X obj 209 2401 roboverb;
#X obj 319 2380 / 254;
#X obj 249 2380 / 254;
#X msg 312 2323 0;
#X obj 309 2300 loadbang;
#X obj 324 2351 r L1-verbBright;
#X obj 224 1442 / 254;
#X obj 309 1801 r L1-dsync;
#X obj 509 1273 robocombidist;
#X obj 789 1273 robocombidist;
#X obj 1069 1273 robocombidist;
#X msg 618 1385 0;
#X msg 571 1382 0;
#X obj 528 2075 *~;
#X obj 490 2074 *~;
#X obj 613 1963 logscale;
#X obj 545 1963 logscale;
#X obj 613 1986 * 1;
#X msg 579 1914 0;
#X obj 545 1985 * 1;
#X obj 579 1892 loadbang;
#X obj 562 1702 loadbang;
#X msg 523 1743 0;
#X msg 529 1778 18;
#X obj 614 2034 line~;
#X obj 548 2032 line~;
#X obj 614 2008 pack 0 5;
#X obj 545 2006 pack 0 5;
#X obj 490 2117 +~;
#X obj 490 2343 *~;
#X obj 619 2175 logscale;
#X obj 535 2175 logscale;
#X obj 619 2198 * 1;
#X msg 569 2122 0;
#X obj 569 2100 loadbang;
#X obj 620 2246 line~;
#X obj 535 2268 line~;
#X obj 620 2220 pack 0 5;
#X obj 535 2244 pack 0 5;
#X obj 488 2426 lop~ 3000;
#X obj 535 2197 * 0.25;
#X obj 535 2220 + 0.75;
#X obj 442 2341 *~;
#X obj 437 2504 +~;
#X obj 498 1470 bitcrush;
#X obj 608 1438 / 254;
#X obj 573 1352 loadbang;
#X obj 529 1844 robodelay;
#X obj 560 1774 / 260;
#X obj 610 1936 / 254;
#X obj 600 2144 / 254;
#X obj 489 2401 roboverb;
#X obj 599 2380 / 254;
#X obj 529 2380 / 254;
#X msg 592 2323 0;
#X obj 589 2300 loadbang;
#X obj 528 1438 / 254;
#X obj 609 1406 r L2-bitSampl;
#X obj 507 1406 r L2-bitCrush;
#X obj 560 1735 r L2-delay;
#X obj 589 1801 r L2-dsync;
#X obj 610 1912 r L2-delay;
#X obj 633 2101 r L2-verb;
#X obj 604 2351 r L2-verbBright;
#X obj 521 2356 r L2-verb;
#X msg 908 1385 0;
#X msg 861 1382 0;
#X obj 818 2075 *~;
#X obj 780 2074 *~;
#X obj 903 1963 logscale;
#X obj 835 1963 logscale;
#X obj 903 1986 * 1;
#X msg 869 1914 0;
#X obj 835 1985 * 1;
#X obj 869 1892 loadbang;
#X obj 852 1702 loadbang;
#X msg 813 1743 0;
#X msg 819 1778 18;
#X obj 904 2034 line~;
#X obj 838 2032 line~;
#X obj 904 2008 pack 0 5;
#X obj 835 2006 pack 0 5;
#X obj 780 2117 +~;
#X obj 780 2343 *~;
#X obj 909 2175 logscale;
#X obj 825 2175 logscale;
#X obj 909 2198 * 1;
#X msg 859 2122 0;
#X obj 859 2100 loadbang;
#X obj 910 2246 line~;
#X obj 825 2268 line~;
#X obj 910 2220 pack 0 5;
#X obj 825 2244 pack 0 5;
#X obj 778 2426 lop~ 3000;
#X obj 825 2197 * 0.25;
#X obj 825 2220 + 0.75;
#X obj 732 2341 *~;
#X obj 727 2504 +~;
#X obj 788 1470 bitcrush;
#X obj 898 1438 / 254;
#X obj 863 1352 loadbang;
#X obj 819 1844 robodelay;
#X obj 850 1774 / 260;
#X obj 900 1936 / 254;
#X obj 890 2144 / 254;
#X obj 779 2401 roboverb;
#X obj 889 2380 / 254;
#X obj 819 2380 / 254;
#X msg 882 2323 0;
#X obj 879 2300 loadbang;
#X obj 818 1438 / 254;
#X obj 797 1406 r L3-bitCrush;
#X obj 899 1406 r L3-bitSampl;
#X obj 850 1735 r L3-delay;
#X obj 879 1801 r L3-dsync;
#X obj 900 1912 r L3-delay;
#X obj 923 2102 r L3-verb;
#X obj 894 2351 r L3-verbBright;
#X obj 811 2356 r L3-verb;
#X msg 1188 1385 0;
#X msg 1141 1382 0;
#X obj 1098 2075 *~;
#X obj 1060 2074 *~;
#X obj 1183 1963 logscale;
#X obj 1115 1963 logscale;
#X obj 1183 1986 * 1;
#X msg 1149 1914 0;
#X obj 1115 1985 * 1;
#X obj 1149 1892 loadbang;
#X obj 1132 1702 loadbang;
#X msg 1093 1743 0;
#X msg 1099 1778 18;
#X obj 1184 2034 line~;
#X obj 1118 2032 line~;
#X obj 1184 2008 pack 0 5;
#X obj 1115 2006 pack 0 5;
#X obj 1060 2117 +~;
#X obj 1060 2343 *~;
#X obj 1189 2175 logscale;
#X obj 1105 2175 logscale;
#X obj 1189 2198 * 1;
#X msg 1139 2122 0;
#X obj 1139 2100 loadbang;
#X obj 1190 2246 line~;
#X obj 1105 2268 line~;
#X obj 1190 2220 pack 0 5;
#X obj 1105 2244 pack 0 5;
#X obj 1058 2426 lop~ 3000;
#X obj 1105 2197 * 0.25;
#X obj 1105 2220 + 0.75;
#X obj 1012 2341 *~;
#X obj 1007 2504 +~;
#X obj 1066 1476 bitcrush;
#X obj 1178 1438 / 254;
#X obj 1143 1352 loadbang;
#X obj 1099 1844 robodelay;
#X obj 1130 1774 / 260;
#X obj 1180 1936 / 254;
#X obj 1170 2144 / 254;
#X obj 1059 2401 roboverb;
#X obj 1169 2380 / 254;
#X obj 1099 2380 / 254;
#X msg 1162 2323 0;
#X obj 1159 2300 loadbang;
#X obj 1098 1438 / 254;
#X obj 1174 2351 r L4-verbBright;
#X obj 1091 2356 r L4-verb;
#X obj 1203 2102 r L4-verb;
#X obj 1180 1912 r L4-delay;
#X obj 1159 1801 r L4-dsync;
#X obj 1131 1735 r L4-delay;
#X obj 1179 1406 r L4-bitSampl;
#X obj 1077 1406 r L4-bitCrush;
#X obj 248 1655 *~;
#X obj 210 1654 *~;
#X obj 333 1543 logscale;
#X obj 265 1543 logscale;
#X obj 333 1566 * 1;
#X msg 299 1494 0;
#X obj 266 1565 * 1, f 4;
#X obj 299 1472 loadbang;
#X obj 334 1614 line~;
#X obj 268 1612 line~;
#X obj 334 1588 pack 0 5;
#X obj 265 1586 pack 0 5;
#X obj 330 1516 / 254;
#X obj 528 1655 *~;
#X obj 490 1654 *~;
#X obj 613 1543 logscale;
#X obj 545 1543 logscale;
#X obj 613 1566 * 1;
#X msg 579 1494 0;
#X obj 545 1565 * 1;
#X obj 579 1472 loadbang;
#X obj 614 1614 line~;
#X obj 548 1612 line~;
#X obj 614 1588 pack 0 5;
#X obj 545 1586 pack 0 5;
#X obj 610 1516 / 254;
#X obj 818 1655 *~;
#X obj 780 1654 *~;
#X obj 903 1543 logscale;
#X obj 835 1543 logscale;
#X obj 903 1566 * 1;
#X msg 869 1494 0;
#X obj 835 1565 * 1;
#X obj 869 1472 loadbang;
#X obj 904 1614 line~;
#X obj 838 1612 line~;
#X obj 904 1588 pack 0 5;
#X obj 835 1586 pack 0 5;
#X obj 900 1516 / 254;
#X obj 1098 1655 *~;
#X obj 1060 1654 *~;
#X obj 1183 1543 logscale;
#X obj 1115 1543 logscale;
#X obj 1183 1566 * 1;
#X msg 1149 1494 0;
#X obj 1115 1565 * 1;
#X obj 1149 1472 loadbang;
#X obj 1184 1614 line~;
#X obj 1118 1612 line~;
#X obj 1184 1588 pack 0 5;
#X obj 1115 1586 pack 0 5;
#X obj 1180 1516 / 254;
#X obj 212 1693 +~;
#X obj 486 1693 +~;
#X obj 776 1693 +~;
#X obj 1054 1704 +~;
#X obj 330 1492 r L1-bitCrush;
#X obj 610 1492 r L2-bitCrush;
#X obj 900 1492 r L3-bitCrush;
#X obj 1180 1492 r L4-bitCrush;
#X obj -565 742 pack 0 10;
#X obj 329 291 *~ 0.5;
#X obj 275 391 sig~;
#X msg 276 369 40;
#X obj 37 257 * 4;
#X connect 0 0 2 0;
#X connect 0 0 8 0;
#X connect 2 0 3 0;
#X connect 4 0 5 0;
#X connect 5 0 7 0;
#X connect 6 0 2 1;
#X connect 7 0 6 0;
#X connect 8 0 160 0;
#X connect 9 0 14 0;
#X connect 11 0 12 0;
#X connect 11 1 16 0;
#X connect 12 0 13 0;
#X connect 13 0 10 0;
#X connect 14 0 15 0;
#X connect 15 0 661 0;
#X connect 16 0 13 0;
#X connect 16 1 17 0;
#X connect 17 0 13 0;
#X connect 18 0 27 0;
#X connect 19 0 18 0;
#X connect 20 0 25 0;
#X connect 21 0 20 0;
#X connect 22 0 7 0;
#X connect 23 0 22 0;
#X connect 24 0 25 0;
#X connect 25 0 26 0;
#X connect 26 0 47 0;
#X connect 28 0 8 2;
#X connect 29 0 35 0;
#X connect 30 0 657 0;
#X connect 31 0 32 0;
#X connect 32 0 34 0;
#X connect 33 0 30 0;
#X connect 34 0 33 0;
#X connect 34 1 33 1;
#X connect 35 0 43 0;
#X connect 36 0 37 0;
#X connect 37 0 32 1;
#X connect 38 0 37 0;
#X connect 39 0 38 0;
#X connect 40 0 45 0;
#X connect 41 0 46 0;
#X connect 42 0 12 0;
#X connect 44 0 8 1;
#X connect 44 0 658 0;
#X connect 45 0 33 0;
#X connect 46 0 45 0;
#X connect 47 0 19 0;
#X connect 48 0 355 0;
#X connect 49 0 50 0;
#X connect 51 0 53 0;
#X connect 52 0 49 1;
#X connect 53 0 52 0;
#X connect 54 0 164 0;
#X connect 55 0 53 0;
#X connect 56 0 55 0;
#X connect 57 0 51 0;
#X connect 58 0 54 1;
#X connect 59 0 54 2;
#X connect 60 0 61 0;
#X connect 62 0 64 0;
#X connect 63 0 60 1;
#X connect 64 0 63 0;
#X connect 65 0 169 0;
#X connect 66 0 64 0;
#X connect 67 0 66 0;
#X connect 68 0 69 0;
#X connect 70 0 72 0;
#X connect 71 0 68 1;
#X connect 72 0 71 0;
#X connect 73 0 174 0;
#X connect 74 0 72 0;
#X connect 75 0 74 0;
#X connect 76 0 70 0;
#X connect 77 0 62 0;
#X connect 78 0 65 1;
#X connect 79 0 65 2;
#X connect 80 0 73 1;
#X connect 81 0 73 2;
#X connect 82 0 90 0;
#X connect 83 0 82 0;
#X connect 84 0 86 0;
#X connect 85 0 84 0;
#X connect 86 0 87 0;
#X connect 87 0 88 0;
#X connect 88 0 83 0;
#X connect 89 0 86 0;
#X connect 91 0 108 0;
#X connect 92 0 91 0;
#X connect 93 0 95 0;
#X connect 94 0 93 0;
#X connect 95 0 96 0;
#X connect 96 0 97 0;
#X connect 97 0 92 0;
#X connect 98 0 107 0;
#X connect 99 0 98 0;
#X connect 100 0 102 0;
#X connect 101 0 100 0;
#X connect 102 0 103 0;
#X connect 103 0 104 0;
#X connect 104 0 99 0;
#X connect 105 0 95 0;
#X connect 106 0 102 0;
#X connect 109 0 116 0;
#X connect 110 0 115 0;
#X connect 111 0 112 0;
#X connect 112 0 114 0;
#X connect 113 0 110 0;
#X connect 114 0 113 0;
#X connect 114 1 113 1;
#X connect 115 0 109 0;
#X connect 116 0 125 0;
#X connect 117 0 112 1;
#X connect 118 0 117 0;
#X connect 119 0 118 0;
#X connect 120 0 122 0;
#X connect 121 0 113 0;
#X connect 122 0 121 0;
#X connect 123 0 121 0;
#X connect 124 0 117 0;
#X connect 126 0 133 0;
#X connect 127 0 132 0;
#X connect 128 0 129 0;
#X connect 129 0 131 0;
#X connect 130 0 127 0;
#X connect 131 0 130 0;
#X connect 131 1 130 1;
#X connect 132 0 126 0;
#X connect 133 0 159 0;
#X connect 134 0 129 1;
#X connect 135 0 134 0;
#X connect 136 0 135 0;
#X connect 137 0 139 0;
#X connect 138 0 130 0;
#X connect 139 0 138 0;
#X connect 140 0 147 0;
#X connect 141 0 146 0;
#X connect 142 0 143 0;
#X connect 143 0 145 0;
#X connect 144 0 141 0;
#X connect 145 0 144 0;
#X connect 145 1 144 1;
#X connect 146 0 140 0;
#X connect 147 0 158 0;
#X connect 148 0 143 1;
#X connect 149 0 148 0;
#X connect 150 0 149 0;
#X connect 151 0 153 0;
#X connect 152 0 144 0;
#X connect 153 0 152 0;
#X connect 154 0 138 0;
#X connect 155 0 152 0;
#X connect 156 0 148 0;
#X connect 157 0 134 0;
#X connect 160 0 48 0;
#X connect 161 0 160 2;
#X connect 162 0 199 0;
#X connect 162 0 660 0;
#X connect 163 0 375 0;
#X connect 164 0 163 0;
#X connect 165 0 164 1;
#X connect 166 0 164 2;
#X connect 167 0 198 0;
#X connect 167 0 200 0;
#X connect 168 0 376 0;
#X connect 169 0 168 0;
#X connect 170 0 169 1;
#X connect 171 0 169 2;
#X connect 172 0 197 0;
#X connect 172 0 201 0;
#X connect 173 0 377 0;
#X connect 174 0 173 0;
#X connect 175 0 174 1;
#X connect 176 0 174 2;
#X connect 177 0 196 0;
#X connect 177 0 202 0;
#X connect 178 0 186 0;
#X connect 179 0 178 0;
#X connect 180 0 182 0;
#X connect 181 0 180 0;
#X connect 182 0 183 0;
#X connect 183 0 184 0;
#X connect 184 0 179 0;
#X connect 185 0 182 0;
#X connect 187 0 190 0;
#X connect 188 0 189 0;
#X connect 189 0 187 0;
#X connect 190 0 194 0;
#X connect 191 0 192 0;
#X connect 192 0 195 1;
#X connect 193 0 195 0;
#X connect 195 0 188 0;
#X connect 196 0 175 0;
#X connect 197 0 170 0;
#X connect 198 0 165 0;
#X connect 199 0 161 0;
#X connect 200 0 166 0;
#X connect 201 0 171 0;
#X connect 202 0 176 0;
#X connect 203 0 207 0;
#X connect 204 0 214 1;
#X connect 205 0 219 0;
#X connect 206 0 214 0;
#X connect 207 0 210 0;
#X connect 208 0 203 0;
#X connect 208 0 205 1;
#X connect 209 0 208 0;
#X connect 210 0 211 0;
#X connect 211 0 204 1;
#X connect 212 0 213 0;
#X connect 213 0 206 0;
#X connect 214 0 290 0;
#X connect 214 0 284 0;
#X connect 215 0 222 0;
#X connect 216 0 223 0;
#X connect 217 0 208 0;
#X connect 218 0 217 0;
#X connect 219 0 220 0;
#X connect 220 0 212 0;
#X connect 221 0 204 0;
#X connect 222 0 221 1;
#X connect 223 0 221 1;
#X connect 224 0 228 0;
#X connect 225 0 234 1;
#X connect 226 0 238 0;
#X connect 227 0 234 0;
#X connect 228 0 230 0;
#X connect 229 0 224 0;
#X connect 229 0 226 1;
#X connect 230 0 231 0;
#X connect 231 0 225 1;
#X connect 232 0 233 0;
#X connect 233 0 227 0;
#X connect 234 0 307 0;
#X connect 234 0 432 0;
#X connect 235 0 242 0;
#X connect 236 0 229 0;
#X connect 237 0 236 0;
#X connect 238 0 239 0;
#X connect 239 0 232 0;
#X connect 240 0 225 0;
#X connect 241 0 240 1;
#X connect 242 0 240 1;
#X connect 243 0 247 0;
#X connect 244 0 253 1;
#X connect 245 0 257 0;
#X connect 246 0 253 0;
#X connect 247 0 249 0;
#X connect 248 0 243 0;
#X connect 248 0 245 1;
#X connect 249 0 250 0;
#X connect 250 0 244 1;
#X connect 251 0 252 0;
#X connect 252 0 246 0;
#X connect 253 0 323 0;
#X connect 253 0 433 0;
#X connect 254 0 261 0;
#X connect 255 0 248 0;
#X connect 256 0 255 0;
#X connect 257 0 258 0;
#X connect 258 0 251 0;
#X connect 259 0 244 0;
#X connect 260 0 259 1;
#X connect 261 0 259 1;
#X connect 262 0 266 0;
#X connect 263 0 272 1;
#X connect 264 0 276 0;
#X connect 265 0 272 0;
#X connect 266 0 268 0;
#X connect 267 0 262 0;
#X connect 267 0 264 1;
#X connect 268 0 269 0;
#X connect 269 0 263 1;
#X connect 270 0 271 0;
#X connect 271 0 265 0;
#X connect 272 0 337 0;
#X connect 272 0 434 0;
#X connect 273 0 280 0;
#X connect 274 0 267 0;
#X connect 275 0 274 0;
#X connect 276 0 277 0;
#X connect 277 0 270 0;
#X connect 278 0 263 0;
#X connect 279 0 278 1;
#X connect 280 0 278 1;
#X connect 281 0 284 1;
#X connect 282 0 283 1;
#X connect 283 0 302 1;
#X connect 284 0 302 0;
#X connect 285 0 282 0;
#X connect 285 0 281 1;
#X connect 285 1 286 0;
#X connect 286 0 282 0;
#X connect 286 0 281 1;
#X connect 287 0 285 0;
#X connect 288 0 299 0;
#X connect 289 0 301 0;
#X connect 290 0 283 0;
#X connect 291 0 299 0;
#X connect 292 0 229 0;
#X connect 293 0 241 0;
#X connect 294 0 260 0;
#X connect 295 0 248 0;
#X connect 296 0 267 0;
#X connect 297 0 279 0;
#X connect 298 0 301 0;
#X connect 299 0 287 0;
#X connect 299 0 290 1;
#X connect 300 0 289 0;
#X connect 301 0 290 2;
#X connect 302 0 598 0;
#X connect 302 0 411 0;
#X connect 303 0 288 0;
#X connect 304 0 307 1;
#X connect 305 0 306 1;
#X connect 306 0 316 1;
#X connect 307 0 316 0;
#X connect 308 0 305 0;
#X connect 308 0 304 1;
#X connect 308 1 309 0;
#X connect 309 0 305 0;
#X connect 309 0 304 1;
#X connect 310 0 308 0;
#X connect 311 0 313 0;
#X connect 312 0 315 0;
#X connect 313 0 310 0;
#X connect 313 0 432 1;
#X connect 314 0 312 0;
#X connect 315 0 432 2;
#X connect 316 0 611 0;
#X connect 316 0 468 0;
#X connect 317 0 311 0;
#X connect 318 0 313 0;
#X connect 319 0 315 0;
#X connect 320 0 323 1;
#X connect 321 0 322 1;
#X connect 322 0 332 1;
#X connect 323 0 332 0;
#X connect 324 0 321 0;
#X connect 324 0 320 1;
#X connect 324 1 325 0;
#X connect 325 0 321 0;
#X connect 325 0 320 1;
#X connect 326 0 324 0;
#X connect 327 0 329 0;
#X connect 328 0 331 0;
#X connect 329 0 326 0;
#X connect 329 0 433 1;
#X connect 330 0 328 0;
#X connect 331 0 433 2;
#X connect 332 0 624 0;
#X connect 332 0 522 0;
#X connect 333 0 327 0;
#X connect 334 0 337 1;
#X connect 335 0 336 1;
#X connect 336 0 346 1;
#X connect 337 0 346 0;
#X connect 338 0 335 0;
#X connect 338 0 334 1;
#X connect 338 1 339 0;
#X connect 339 0 335 0;
#X connect 339 0 334 1;
#X connect 340 0 338 0;
#X connect 341 0 343 0;
#X connect 342 0 345 0;
#X connect 343 0 340 0;
#X connect 343 0 434 1;
#X connect 344 0 342 0;
#X connect 345 0 434 2;
#X connect 346 0 637 0;
#X connect 346 0 576 0;
#X connect 347 0 341 0;
#X connect 348 0 345 0;
#X connect 349 0 343 0;
#X connect 350 0 331 0;
#X connect 351 0 329 0;
#X connect 355 0 221 0;
#X connect 355 0 206 1;
#X connect 356 0 359 0;
#X connect 357 0 358 0;
#X connect 358 0 355 1;
#X connect 359 0 357 0;
#X connect 360 0 54 0;
#X connect 360 0 49 0;
#X connect 361 0 362 0;
#X connect 362 0 375 1;
#X connect 363 0 361 0;
#X connect 364 0 363 0;
#X connect 365 0 65 0;
#X connect 365 0 60 0;
#X connect 366 0 367 0;
#X connect 367 0 376 1;
#X connect 368 0 366 0;
#X connect 369 0 368 0;
#X connect 370 0 68 0;
#X connect 370 0 73 0;
#X connect 371 0 372 0;
#X connect 372 0 377 1;
#X connect 373 0 371 0;
#X connect 374 0 373 0;
#X connect 375 0 240 0;
#X connect 375 0 227 1;
#X connect 376 0 259 0;
#X connect 376 0 246 1;
#X connect 377 0 278 0;
#X connect 377 0 265 1;
#X connect 378 0 413 0;
#X connect 379 0 430 0;
#X connect 380 0 395 1;
#X connect 381 0 395 0;
#X connect 382 0 384 0;
#X connect 383 0 386 0;
#X connect 384 0 393 0;
#X connect 385 0 420 0;
#X connect 386 0 394 0;
#X connect 387 0 385 0;
#X connect 388 0 389 0;
#X connect 388 0 390 0;
#X connect 389 0 418 0;
#X connect 390 0 416 2;
#X connect 391 0 380 1;
#X connect 392 0 381 1;
#X connect 393 0 391 0;
#X connect 394 0 392 0;
#X connect 395 0 396 0;
#X connect 395 0 409 0;
#X connect 396 0 424 0;
#X connect 397 0 399 0;
#X connect 398 0 407 0;
#X connect 399 0 404 0;
#X connect 400 0 422 0;
#X connect 401 0 400 0;
#X connect 402 0 396 1;
#X connect 403 0 409 1;
#X connect 404 0 402 0;
#X connect 405 0 403 0;
#X connect 406 0 410 1;
#X connect 407 0 408 0;
#X connect 408 0 405 0;
#X connect 409 0 410 0;
#X connect 410 0 1 0;
#X connect 411 0 597 0;
#X connect 412 0 413 0;
#X connect 413 0 411 2;
#X connect 414 0 430 0;
#X connect 415 0 378 0;
#X connect 415 0 379 0;
#X connect 416 0 380 0;
#X connect 417 0 418 0;
#X connect 418 0 416 1;
#X connect 419 0 420 0;
#X connect 420 0 382 0;
#X connect 420 0 383 1;
#X connect 421 0 422 0;
#X connect 422 0 397 0;
#X connect 422 0 398 1;
#X connect 423 0 426 0;
#X connect 424 0 406 0;
#X connect 425 0 424 2;
#X connect 426 0 424 1;
#X connect 427 0 425 0;
#X connect 427 0 426 0;
#X connect 428 0 427 0;
#X connect 429 0 425 0;
#X connect 430 0 411 1;
#X connect 431 0 416 2;
#X connect 432 0 306 0;
#X connect 433 0 322 0;
#X connect 434 0 336 0;
#X connect 435 0 469 0;
#X connect 436 0 480 0;
#X connect 437 0 452 1;
#X connect 438 0 452 0;
#X connect 439 0 441 0;
#X connect 440 0 443 0;
#X connect 441 0 450 0;
#X connect 442 0 473 0;
#X connect 443 0 451 0;
#X connect 444 0 442 0;
#X connect 445 0 446 0;
#X connect 445 0 447 0;
#X connect 446 0 472 0;
#X connect 447 0 471 2;
#X connect 448 0 437 1;
#X connect 449 0 438 1;
#X connect 450 0 448 0;
#X connect 451 0 449 0;
#X connect 452 0 453 0;
#X connect 452 0 466 0;
#X connect 453 0 475 0;
#X connect 454 0 456 0;
#X connect 455 0 464 0;
#X connect 456 0 461 0;
#X connect 457 0 474 0;
#X connect 458 0 457 0;
#X connect 459 0 453 1;
#X connect 460 0 466 1;
#X connect 461 0 459 0;
#X connect 462 0 460 0;
#X connect 463 0 467 1;
#X connect 464 0 465 0;
#X connect 465 0 462 0;
#X connect 466 0 467 0;
#X connect 467 0 352 0;
#X connect 468 0 610 0;
#X connect 469 0 468 2;
#X connect 470 0 435 0;
#X connect 470 0 436 0;
#X connect 471 0 437 0;
#X connect 472 0 471 1;
#X connect 473 0 439 0;
#X connect 473 0 440 1;
#X connect 474 0 454 0;
#X connect 474 0 455 1;
#X connect 475 0 463 0;
#X connect 476 0 475 2;
#X connect 477 0 475 1;
#X connect 478 0 476 0;
#X connect 478 0 477 0;
#X connect 479 0 478 0;
#X connect 480 0 468 0;
#X connect 481 0 469 0;
#X connect 482 0 480 0;
#X connect 483 0 472 0;
#X connect 484 0 471 2;
#X connect 485 0 473 0;
#X connect 486 0 474 0;
#X connect 487 0 476 0;
#X connect 488 0 477 0;
#X connect 489 0 523 0;
#X connect 490 0 534 0;
#X connect 491 0 506 1;
#X connect 492 0 506 0;
#X connect 493 0 495 0;
#X connect 494 0 497 0;
#X connect 495 0 504 0;
#X connect 496 0 527 0;
#X connect 497 0 505 0;
#X connect 498 0 496 0;
#X connect 499 0 500 0;
#X connect 499 0 501 0;
#X connect 500 0 526 0;
#X connect 501 0 525 2;
#X connect 502 0 491 1;
#X connect 503 0 492 1;
#X connect 504 0 502 0;
#X connect 505 0 503 0;
#X connect 506 0 507 0;
#X connect 506 0 520 0;
#X connect 507 0 529 0;
#X connect 508 0 510 0;
#X connect 509 0 518 0;
#X connect 510 0 515 0;
#X connect 511 0 528 0;
#X connect 512 0 511 0;
#X connect 513 0 507 1;
#X connect 514 0 520 1;
#X connect 515 0 513 0;
#X connect 516 0 514 0;
#X connect 517 0 521 1;
#X connect 518 0 519 0;
#X connect 519 0 516 0;
#X connect 520 0 521 0;
#X connect 521 0 353 0;
#X connect 522 0 623 0;
#X connect 523 0 522 2;
#X connect 524 0 489 0;
#X connect 524 0 490 0;
#X connect 525 0 491 0;
#X connect 526 0 525 1;
#X connect 527 0 493 0;
#X connect 527 0 494 1;
#X connect 528 0 508 0;
#X connect 528 0 509 1;
#X connect 529 0 517 0;
#X connect 530 0 529 2;
#X connect 531 0 529 1;
#X connect 532 0 530 0;
#X connect 532 0 531 0;
#X connect 533 0 532 0;
#X connect 534 0 522 0;
#X connect 535 0 534 0;
#X connect 536 0 523 0;
#X connect 537 0 526 0;
#X connect 538 0 525 2;
#X connect 539 0 527 0;
#X connect 540 0 528 0;
#X connect 541 0 530 0;
#X connect 542 0 531 0;
#X connect 543 0 577 0;
#X connect 544 0 588 0;
#X connect 545 0 560 1;
#X connect 546 0 560 0;
#X connect 547 0 549 0;
#X connect 548 0 551 0;
#X connect 549 0 558 0;
#X connect 550 0 581 0;
#X connect 551 0 559 0;
#X connect 552 0 550 0;
#X connect 553 0 554 0;
#X connect 553 0 555 0;
#X connect 554 0 580 0;
#X connect 555 0 579 2;
#X connect 556 0 545 1;
#X connect 557 0 546 1;
#X connect 558 0 556 0;
#X connect 559 0 557 0;
#X connect 560 0 561 0;
#X connect 560 0 574 0;
#X connect 561 0 583 0;
#X connect 562 0 564 0;
#X connect 563 0 572 0;
#X connect 564 0 569 0;
#X connect 565 0 582 0;
#X connect 566 0 565 0;
#X connect 567 0 561 1;
#X connect 568 0 574 1;
#X connect 569 0 567 0;
#X connect 570 0 568 0;
#X connect 571 0 575 1;
#X connect 572 0 573 0;
#X connect 573 0 570 0;
#X connect 574 0 575 0;
#X connect 575 0 354 0;
#X connect 576 0 636 0;
#X connect 577 0 576 2;
#X connect 578 0 543 0;
#X connect 578 0 544 0;
#X connect 579 0 545 0;
#X connect 580 0 579 1;
#X connect 581 0 547 0;
#X connect 581 0 548 1;
#X connect 582 0 562 0;
#X connect 582 0 563 1;
#X connect 583 0 571 0;
#X connect 584 0 583 2;
#X connect 585 0 583 1;
#X connect 586 0 584 0;
#X connect 586 0 585 0;
#X connect 587 0 586 0;
#X connect 588 0 576 0;
#X connect 589 0 584 0;
#X connect 590 0 585 0;
#X connect 591 0 582 0;
#X connect 592 0 581 0;
#X connect 593 0 579 2;
#X connect 594 0 580 0;
#X connect 595 0 577 0;
#X connect 596 0 588 0;
#X connect 597 0 649 1;
#X connect 598 0 649 0;
#X connect 599 0 601 0;
#X connect 600 0 603 0;
#X connect 601 0 607 0;
#X connect 602 0 609 0;
#X connect 603 0 608 0;
#X connect 604 0 602 0;
#X connect 605 0 597 1;
#X connect 606 0 598 1;
#X connect 607 0 605 0;
#X connect 608 0 606 0;
#X connect 609 0 599 0;
#X connect 609 0 600 1;
#X connect 610 0 650 1;
#X connect 611 0 650 0;
#X connect 612 0 614 0;
#X connect 613 0 616 0;
#X connect 614 0 620 0;
#X connect 615 0 622 0;
#X connect 616 0 621 0;
#X connect 617 0 615 0;
#X connect 618 0 610 1;
#X connect 619 0 611 1;
#X connect 620 0 618 0;
#X connect 621 0 619 0;
#X connect 622 0 612 0;
#X connect 622 0 613 1;
#X connect 623 0 651 1;
#X connect 624 0 651 0;
#X connect 625 0 627 0;
#X connect 626 0 629 0;
#X connect 627 0 633 0;
#X connect 628 0 635 0;
#X connect 629 0 634 0;
#X connect 630 0 628 0;
#X connect 631 0 623 1;
#X connect 632 0 624 1;
#X connect 633 0 631 0;
#X connect 634 0 632 0;
#X connect 635 0 625 0;
#X connect 635 0 626 1;
#X connect 636 0 652 1;
#X connect 637 0 652 0;
#X connect 638 0 640 0;
#X connect 639 0 642 0;
#X connect 640 0 646 0;
#X connect 641 0 648 0;
#X connect 642 0 647 0;
#X connect 643 0 641 0;
#X connect 644 0 636 1;
#X connect 645 0 637 1;
#X connect 646 0 644 0;
#X connect 647 0 645 0;
#X connect 648 0 638 0;
#X connect 648 0 639 1;
#X connect 649 0 381 0;
#X connect 649 0 416 0;
#X connect 650 0 471 0;
#X connect 650 0 438 0;
#X connect 651 0 525 0;
#X connect 651 0 492 0;
#X connect 652 0 579 0;
#X connect 652 0 546 0;
#X connect 653 0 609 0;
#X connect 654 0 622 0;
#X connect 655 0 635 0;
#X connect 656 0 648 0;
#X connect 657 0 29 0;
#X connect 659 0 160 1;
#X connect 660 0 659 0;
#X connect 661 0 11 0;
