#N canvas 0 47 1056 1153 10;
#X obj 60 12 moses 64;
#X obj 105 218 f;
#X obj 105 255 + 1;
#X obj 60 216 f;
#X obj 105 45 bang;
#X obj 60 44 bang;
#X obj 60 254 - 1;
#X obj 113 134 loadbang;
#X obj 265 150 timer;
#X obj 264 109 t b b;
#X msg 363 211 1;
#X floatatom 263 351 5 0 0 0 - - -, f 5;
#X floatatom 213 184 5 0 0 0 - - -, f 5;
#X obj 320 178 moses 125;
#X obj 283 210 moses 64;
#X obj 222 253 moses 32;
#X msg 119 163 0;
#X obj 105 86 t b b;
#X obj 58 88 t b b;
#X obj 379 668 moses 10;
#X symbolatom 410 823 10 0 0 0 - - -, f 10;
#X obj 424 696 moses 100;
#X obj 339 985 outlet;
#X obj 60 -50 inlet;
#X obj 71 417 f;
#X obj 166 373 bang;
#X obj 660 781 moses 16;
#X symbolatom 658 848 10 0 0 0 - - -, f 10;
#X obj 661 923 outlet;
#X obj 480 946 outlet;
#X obj 60 -21 spigot;
#X obj 115 -49 inlet;
#X obj 164 -16 select 1;
#X obj 179 119 \$1;
#X floatatom 178 143 5 0 0 0 - - -, f 5;
#X obj 181 82 loadbang;
#X obj 379 723 makefilename 00%d;
#X obj 425 751 makefilename 0%d;
#X obj 475 779 makefilename %d;
#X obj 582 814 makefilename 0%X;
#X obj 716 815 makefilename %X;
#X obj 116 288 moses 96;
#X msg 153 315 96;
#X obj 58 288 moses -16;
#X msg 59 315 -16;
#X obj 84 491 moses 0;
#X obj 84 547 * -1;
#X msg 97 520 0;
#X obj 147 806 moses 10;
#X obj 146 845 makefilename T0%d;
#X obj 195 879 makefilename T%d;
#X obj 101 575 moses 1;
#X floatatom 149 780 5 0 0 0 - - -, f 5;
#X msg 38 683 1;
#X msg 63 682 2;
#X msg 90 682 4;
#X msg 117 682 6;
#X msg 144 681 8;
#X msg 166 682 12;
#X msg 191 681 16;
#X msg 220 681 18;
#X msg 248 680 24;
#X msg 330 252 2;
#X msg 270 286 3;
#X msg 227 283 4;
#X msg 82 711 36;
#X msg 111 711 48;
#X msg 139 710 54;
#X msg 220 711 96;
#X msg 193 710 72;
#X obj 17 639 select 1 2 3 4 5 6 7 8 9 10 11 12 13 14 15 16;
#X msg 1 684 0;
#X obj 334 939 / 96;
#X obj 75 991 outlet;
#X msg 57 712 30;
#X msg 163 711 66;
#X connect 0 0 5 0;
#X connect 0 1 4 0;
#X connect 1 0 2 0;
#X connect 2 0 41 0;
#X connect 3 0 6 0;
#X connect 4 0 17 0;
#X connect 5 0 18 0;
#X connect 6 0 43 0;
#X connect 8 0 12 0;
#X connect 8 0 13 0;
#X connect 9 0 8 0;
#X connect 9 1 8 1;
#X connect 10 0 11 0;
#X connect 11 0 2 1;
#X connect 11 0 6 1;
#X connect 13 0 14 0;
#X connect 13 1 10 0;
#X connect 14 0 15 0;
#X connect 14 1 62 0;
#X connect 15 0 64 0;
#X connect 15 1 63 0;
#X connect 16 0 1 1;
#X connect 16 0 3 1;
#X connect 16 0 24 0;
#X connect 17 0 1 0;
#X connect 17 1 9 0;
#X connect 18 0 3 0;
#X connect 18 1 9 0;
#X connect 19 0 36 0;
#X connect 19 1 21 0;
#X connect 20 0 29 0;
#X connect 21 0 37 0;
#X connect 21 1 38 0;
#X connect 23 0 30 0;
#X connect 24 0 26 0;
#X connect 24 0 45 0;
#X connect 25 0 24 0;
#X connect 26 0 39 0;
#X connect 26 1 40 0;
#X connect 27 0 28 0;
#X connect 30 0 0 0;
#X connect 31 0 30 1;
#X connect 32 0 25 0;
#X connect 33 0 34 0;
#X connect 34 0 3 1;
#X connect 34 0 24 0;
#X connect 34 0 1 1;
#X connect 35 0 33 0;
#X connect 36 0 20 0;
#X connect 37 0 20 0;
#X connect 38 0 20 0;
#X connect 39 0 27 0;
#X connect 40 0 27 0;
#X connect 41 0 1 1;
#X connect 41 0 3 1;
#X connect 41 0 24 0;
#X connect 41 1 42 0;
#X connect 42 0 1 1;
#X connect 42 0 3 1;
#X connect 42 0 24 0;
#X connect 43 0 44 0;
#X connect 43 1 3 1;
#X connect 43 1 1 1;
#X connect 43 1 24 0;
#X connect 44 0 3 1;
#X connect 44 0 1 1;
#X connect 44 0 24 0;
#X connect 45 0 46 0;
#X connect 45 1 19 0;
#X connect 45 1 47 0;
#X connect 45 1 72 0;
#X connect 46 0 51 0;
#X connect 47 0 46 0;
#X connect 47 0 71 0;
#X connect 48 0 49 0;
#X connect 48 1 50 0;
#X connect 49 0 29 0;
#X connect 50 0 29 0;
#X connect 51 1 70 0;
#X connect 52 0 48 0;
#X connect 52 0 73 0;
#X connect 53 0 52 0;
#X connect 54 0 52 0;
#X connect 55 0 52 0;
#X connect 56 0 52 0;
#X connect 57 0 52 0;
#X connect 58 0 52 0;
#X connect 59 0 52 0;
#X connect 60 0 52 0;
#X connect 61 0 52 0;
#X connect 62 0 11 0;
#X connect 63 0 11 0;
#X connect 64 0 11 0;
#X connect 65 0 52 0;
#X connect 66 0 52 0;
#X connect 67 0 52 0;
#X connect 68 0 52 0;
#X connect 69 0 52 0;
#X connect 70 0 53 0;
#X connect 70 1 54 0;
#X connect 70 2 55 0;
#X connect 70 3 56 0;
#X connect 70 4 57 0;
#X connect 70 5 58 0;
#X connect 70 6 59 0;
#X connect 70 7 60 0;
#X connect 70 8 61 0;
#X connect 70 9 74 0;
#X connect 70 10 65 0;
#X connect 70 11 66 0;
#X connect 70 12 67 0;
#X connect 70 13 75 0;
#X connect 70 14 69 0;
#X connect 70 15 68 0;
#X connect 71 0 73 0;
#X connect 72 0 22 0;
#X connect 74 0 52 0;
#X connect 75 0 52 0;
