#N canvas 0 47 1360 715 10;
#X obj 156 269 exp;
#X obj 156 221 *;
#X obj 156 244 +;
#X obj 204 131 log;
#X obj 247 131 log;
#X obj 204 160 t b f;
#X obj 204 182 -;
#X obj 156 43 inlet;
#X obj 222 61 loadbang;
#X obj 156 408 outlet;
#X msg 172 97 1;
#X obj 79 114 * -1;
#X obj 79 144 + 1;
#X obj 79 46 inlet;
#X msg 245 94 1.5;
#X msg 203 96 0.5;
#X obj 156 303 t b f;
#X obj 156 366 -;
#X msg 156 333 1.5;
#X connect 0 0 16 0;
#X connect 1 0 2 0;
#X connect 2 0 0 0;
#X connect 3 0 2 1;
#X connect 3 0 5 0;
#X connect 4 0 6 0;
#X connect 5 0 6 0;
#X connect 5 1 6 1;
#X connect 6 0 1 1;
#X connect 7 0 1 0;
#X connect 8 0 10 0;
#X connect 8 0 15 0;
#X connect 8 0 14 0;
#X connect 10 0 1 0;
#X connect 11 0 12 0;
#X connect 12 0 1 0;
#X connect 13 0 11 0;
#X connect 14 0 4 0;
#X connect 15 0 3 0;
#X connect 16 0 18 0;
#X connect 16 1 17 1;
#X connect 17 0 9 0;
#X connect 18 0 17 0;
