#N canvas 0 47 1920 1153 12;
#X obj 357 258 line~;
#X obj 356 538 *~;
#X obj 656 641 line~ 0 10;
#X obj 377 318 r~ in;
#X obj 357 231 pack 0 2;
#X obj 501 136 loadbang;
#X msg 501 161 0;
#X obj 656 617 pack 0 10;
#X obj 501 191 s \$0-dub;
#X obj 398 587 pack 0 2;
#X obj 398 611 line~;
#X obj 378 644 *~;
#X msg 77 239 12;
#X obj 12 92 moses 1;
#X msg 58 119 1;
#X msg 12 120 0;
#X obj 77 304 pack 0 \$0;
#X obj 656 546 r \$1-gain;
#X obj 12 69 r \$1-active;
#X msg 77 329 \; \$2-activegui color \$1 \$1 \$1;
#X obj 113 69 r looprec;
#X obj 113 123 t b f;
#X obj 77 167 *;
#X obj 113 95 + 1;
#X obj 77 196 select 0 1 2;
#X obj 794 58 r step;
#X obj 839 87 r \$1-active;
#X obj 794 122 spigot;
#X obj 1100 162 hradio 16 1 0 7 empty \$1-step empty 7 -10 0 16 -228856
-1 -166441 4;
#X obj 1073 163 tgl 16 0 \$0-dkhakhdoiywdiwqu \$0-activegui empty 0
-6 0 10 -33289 -33289 -33289 0 1;
#X msg 110 240 13;
#X msg 145 239 14;
#X obj 357 205 r \$1-active;
#X msg 197 272 1;
#X msg 158 274 0;
#X obj 398 561 r \$0-rec;
#X obj 161 305 s \$0-rec;
#X obj 606 91 t b f;
#X obj 585 135 *;
#X obj 677 200 t b f;
#X obj 677 227 *;
#X obj 639 161 r \$0-rec;
#X obj 585 36 r \$1-active;
#X obj 606 66 r overDub;
#X obj 261 1272 +~, f 15;
#X obj 149 1341 s~ \$1-out;
#X obj 517 965 r~ audioClock;
#X obj 517 1029 *~;
#X obj 539 939 r smppertick;
#X msg 402 900 offset \$1;
#X obj 402 717 r smppertick;
#X msg 407 992 size \$1;
#X obj 407 968 r dublength;
#X obj 402 874 * 96;
#X obj 416 747 r \$0-step;
#X obj 191 658 *~, f 8;
#X obj 191 604 pack 0 2;
#X obj 191 628 line~;
#X obj 191 528 r \$0-rec;
#X obj 191 554 * -1;
#X obj 191 579 + 1;
#X obj 406 463 line~ 0 10;
#X obj 406 439 pack 0 10;
#X obj 406 362 r \$1-gain;
#X obj 378 498 *~, f 4;
#X text 557 470 to do: [roboloop] -smooth step change -insert / no
loop (overdub) [general] -pitch record pattern (no rec in loop), f
41;
#X obj 677 668 r \$0-step;
#X obj 675 830 line~;
#X msg 719 776 1;
#X msg 675 775 0;
#X obj 437 806 t b f;
#X obj 379 1064 roboloop~ \$1-loopbuf, f 35;
#X obj 677 308 s \$0-insert;
#X obj 585 307 s \$0-mute;
#X obj 718 928 tgl 15 0 empty empty empty 17 7 0 10 -262144 -1 -1 0
1;
#X obj 674 900 r \$0-insert;
#X obj 692 748 loadbang;
#X obj 585 282 *;
#X obj 596 250 t b f;
#X obj 596 226 + 1;
#X obj 597 200 * -1;
#X obj 674 925 * -1;
#X obj 675 950 + 1;
#X obj 655 1028 *~;
#X obj 675 999 line~;
#X obj 675 974 pack 0 2;
#X obj 397 1129 * -1;
#X obj 398 1154 + 1;
#X obj 378 1232 *~;
#X obj 398 1203 line~;
#X obj 398 1178 pack 0 2;
#X obj 397 1104 r \$0-mute;
#X text 739 926 overwrite loop;
#X text 479 1105 mute loop;
#X obj 952 560 r P-Bend;
#X obj 952 587 * 1.02;
#X obj 952 613 - 2.5;
#X obj 952 639 / 128;
#X obj 952 666 - 1;
#X obj 952 693 clip -1 1;
#X obj 1002 722 r phasorFreq;
#X obj 952 791 phasor~ 0;
#X obj 955 968 *~;
#X obj 976 943 r smppertick;
#X obj 954 911 *~ 768;
#X obj 952 721 t b f;
#X obj 952 765 *;
#X obj 1041 751 r~ audioClock;
#X obj 518 999 *~ 768;
#X obj 953 854 +~;
#X obj 953 880 wrap~;
#X obj 1040 827 snapshot~;
#X obj 1050 801 select 1;
#X obj 956 997 tabread4~ \$1-loopbuf;
#X obj 956 1064 *~;
#X obj 977 1035 r~ crossfader;
#X obj 955 1188 *~;
#X obj 977 1160 line~;
#X obj 977 1134 pack 0 2;
#X obj 977 1107 r \$0-Scratch;
#X obj 1050 777 r \$0-Scratch;
#X obj 386 91 t b f;
#X obj 365 135 *;
#X obj 365 36 r \$1-active;
#X obj 386 66 r Foot2;
#X obj 365 167 s \$0-Scratch;
#X obj 686 66 r Foot2;
#X obj 438 317 r~ \$0-scratchout;
#X obj 954 1218 s~ \$0-scratchout;
#X obj 440 1131 tgl 15 0 empty empty empty 17 7 0 10 -262144 -1 -1
0 1;
#X obj 794 160 s \$0-step;
#X obj 437 778 change 0;
#X obj 677 694 change 0;
#X obj 424 837 delay 4;
#X obj 697 720 delay 4;
#X obj 675 802 pack 0 3;
#X obj 655 854 *~ 1;
#X obj 656 591 / 125;
#X obj 406 413 / 125;
#X obj 407 387 min 125;
#X obj 657 569 min 125;
#X obj 291 757 tgl 15 0 empty empty empty 17 7 0 10 -262144 -1 -1 0
1;
#X obj 279 711 r \$0-insert;
#X obj 260 839 *~;
#X obj 280 810 line~;
#X obj 280 785 pack 0 2;
#X text 254 735 overwrite loop;
#X msg 1053 869 0;
#X connect 0 0 1 0;
#X connect 1 0 11 0;
#X connect 1 0 55 1;
#X connect 1 0 143 0;
#X connect 1 0 44 0;
#X connect 2 0 136 0;
#X connect 3 0 64 0;
#X connect 4 0 0 0;
#X connect 5 0 6 0;
#X connect 6 0 8 0;
#X connect 7 0 2 0;
#X connect 9 0 10 0;
#X connect 10 0 11 1;
#X connect 11 0 71 0;
#X connect 12 0 16 0;
#X connect 12 0 34 0;
#X connect 13 0 15 0;
#X connect 13 1 14 0;
#X connect 14 0 22 0;
#X connect 15 0 22 0;
#X connect 16 0 19 0;
#X connect 17 0 140 0;
#X connect 18 0 13 0;
#X connect 20 0 23 0;
#X connect 21 0 22 0;
#X connect 21 1 22 1;
#X connect 22 0 24 0;
#X connect 23 0 21 0;
#X connect 24 0 12 0;
#X connect 24 1 31 0;
#X connect 24 2 30 0;
#X connect 25 0 27 0;
#X connect 26 0 27 1;
#X connect 27 0 130 0;
#X connect 30 0 16 0;
#X connect 30 0 33 0;
#X connect 31 0 16 0;
#X connect 31 0 34 0;
#X connect 32 0 4 0;
#X connect 33 0 36 0;
#X connect 34 0 36 0;
#X connect 35 0 9 0;
#X connect 37 0 38 0;
#X connect 37 1 38 1;
#X connect 38 0 8 0;
#X connect 38 0 40 0;
#X connect 38 0 77 0;
#X connect 39 0 40 0;
#X connect 39 1 40 1;
#X connect 40 0 72 0;
#X connect 41 0 39 0;
#X connect 41 0 80 0;
#X connect 42 0 38 0;
#X connect 43 0 37 0;
#X connect 44 0 45 0;
#X connect 46 0 108 0;
#X connect 47 0 71 1;
#X connect 48 0 47 1;
#X connect 49 0 71 0;
#X connect 50 0 53 0;
#X connect 51 0 71 0;
#X connect 52 0 51 0;
#X connect 53 0 49 0;
#X connect 54 0 131 0;
#X connect 56 0 57 0;
#X connect 57 0 55 0;
#X connect 58 0 59 0;
#X connect 59 0 60 0;
#X connect 60 0 56 0;
#X connect 61 0 64 1;
#X connect 62 0 61 0;
#X connect 63 0 139 0;
#X connect 64 0 1 1;
#X connect 66 0 132 0;
#X connect 68 0 135 0;
#X connect 69 0 135 0;
#X connect 70 0 133 0;
#X connect 70 0 53 0;
#X connect 70 1 53 1;
#X connect 71 0 88 0;
#X connect 75 0 81 0;
#X connect 75 0 74 0;
#X connect 76 0 68 0;
#X connect 77 0 73 0;
#X connect 78 0 77 0;
#X connect 78 1 77 1;
#X connect 79 0 78 0;
#X connect 80 0 79 0;
#X connect 81 0 82 0;
#X connect 82 0 85 0;
#X connect 83 0 71 2;
#X connect 84 0 83 1;
#X connect 85 0 84 0;
#X connect 86 0 87 0;
#X connect 87 0 90 0;
#X connect 88 0 44 1;
#X connect 89 0 88 1;
#X connect 90 0 89 0;
#X connect 91 0 86 0;
#X connect 91 0 129 0;
#X connect 94 0 95 0;
#X connect 95 0 96 0;
#X connect 96 0 97 0;
#X connect 97 0 98 0;
#X connect 98 0 99 0;
#X connect 99 0 105 0;
#X connect 100 0 106 0;
#X connect 101 0 109 0;
#X connect 102 0 113 0;
#X connect 103 0 102 1;
#X connect 104 0 102 0;
#X connect 105 0 106 0;
#X connect 105 1 106 1;
#X connect 106 0 101 0;
#X connect 107 0 111 0;
#X connect 108 0 47 0;
#X connect 109 0 110 0;
#X connect 110 0 104 0;
#X connect 111 0 109 1;
#X connect 112 0 111 0;
#X connect 112 0 147 0;
#X connect 113 0 114 0;
#X connect 114 0 116 0;
#X connect 115 0 114 1;
#X connect 116 0 128 0;
#X connect 117 0 116 1;
#X connect 118 0 117 0;
#X connect 119 0 118 0;
#X connect 120 0 112 0;
#X connect 121 0 122 0;
#X connect 121 1 122 1;
#X connect 122 0 125 0;
#X connect 123 0 122 0;
#X connect 124 0 121 0;
#X connect 126 0 37 0;
#X connect 127 0 64 0;
#X connect 131 0 70 0;
#X connect 132 0 69 0;
#X connect 132 0 134 0;
#X connect 134 0 68 0;
#X connect 135 0 67 0;
#X connect 136 0 83 0;
#X connect 137 0 7 0;
#X connect 138 0 62 0;
#X connect 139 0 138 0;
#X connect 140 0 137 0;
#X connect 142 0 141 0;
#X connect 142 0 145 0;
#X connect 144 0 143 1;
#X connect 145 0 144 0;
#X connect 147 0 101 1;
#X coords 0 -1 1 1 170 55 1 0 0;
