#N canvas 0 47 1360 715 12;
#X obj 729 -112 bng 15 250 50 0 empty empty empty 0 -6 0 10 -262144
-1 -1;
#X obj 698 -135 loadbang;
#X obj 735 -27 snapshot~;
#X obj 722 57 s \$1-pointer;
#X obj 581 -76 r dublength;
#X obj 569 67 s \$0-length1;
#X obj 596 195 spigot;
#X obj 646 197 tgl 15 1 empty empty empty 0 -6 0 10 -262144 -1 -1 1
1;
#X obj 616 360 phasor~ 0;
#X obj 615 338 * 250;
#X obj 615 305 t b f;
#X msg 675 335 0;
#X msg 675 312 reset;
#X obj 569 275 / 100;
#X msg 569 248 100;
#X obj 445 587 phasor~ 0;
#X obj 321 512 * 250;
#X obj 349 475 t b f;
#X obj 577 416 snapshot~;
#X obj 596 170 r dubsync;
#X obj 605 -42 s \$0-length2;
#X obj -691 259 line~;
#X obj -710 295 *~;
#X obj -561 382 line~ 0 10;
#X obj -658 446 *~;
#X floatatom -724 131 5 0 0 0 - - -;
#X obj -726 22 tgl 20 0 eowieuywiue2 recording\$1 empty 0 -6 0 10 -258699
-258699 -258699 0 1;
#X obj -684 608 r dubsync;
#X obj -598 165 bng 15 250 50 0 empty empty empty 0 -6 0 10 -262144
-1 -1;
#X obj -543 165 bng 15 250 50 0 empty empty empty 0 -6 0 10 -262144
-1 -1;
#X obj -714 636 tabwrite~ \$1-buffer;
#X obj -634 105 tgl 15 0 empty empty empty 0 -6 0 10 -262144 -1 -1
0 1;
#X obj -598 140 spigot;
#X obj -525 -55 loadbang;
#X obj -657 576 s~ \$1-dubinsert;
#X text 589 146 buffer-sync:;
#X obj 735 -59 r~ \$0-point;
#X obj 807 -27 r dublength;
#X obj 349 451 r \$0-length1;
#X obj 615 275 r \$0-length1;
#X obj -739 258 r~ in;
#X obj 714 -90 metro 50;
#X obj 671 170 loadbang;
#X msg 47 245 1;
#X msg 160 216 0.5;
#X msg 69 216 0.125;
#X msg 85 244 2;
#X msg 122 245 4;
#X msg 117 216 0.25;
#X msg 12 216 0.0625;
#X msg 162 246 8;
#X obj 40 287 s \$0-step;
#X obj -858 321 *;
#X obj -830 256 t b f;
#X obj -858 292 f;
#X obj -871 256 * 1;
#X obj -857 349 spigot 0;
#X obj -844 145 r looptime;
#X obj -871 204 * 1000;
#X obj -838 228 r \$0-step;
#X obj 569 39 /;
#X msg 555 16 100;
#X obj 555 -10 t b f;
#X obj -694 26 hradio 20 1 0 9 empty empty empty 0 -6 0 10 -262130
-86853 -1 5;
#X obj -681 -58 moses 1;
#X msg -635 -31 1;
#X msg -681 -30 0;
#X text -559 2 step:;
#X obj 323 387 r scratchpointer;
#X obj 309 483 / 15;
#X obj 993 449 r~ in;
#X obj 993 518 *~;
#X obj 417 16 pack 0 2;
#X obj 417 41 line~;
#X obj -608 229 line~;
#X obj -529 230 line~;
#X obj -523 290 *~;
#X obj -601 293 *~;
#X obj 878 125 line~;
#X obj -640 258 r~ \$1-dubinsert;
#X msg 846 92 0 2;
#X msg -508 203 0 2;
#X msg -544 202 1 2;
#X msg -592 202 0 2;
#X msg -627 201 1 2;
#X msg 429 -12 1;
#X msg 417 -60 0;
#X obj -677 156 pack 0 2;
#X obj 923 209 *~;
#X obj 943 62 samphold~;
#X obj 943 124 *~;
#X obj 944 7 r \$0-length2;
#X obj 852 395 s~ \$0-point;
#X obj 944 34 sig~;
#X obj 615 390 s~ \$0-phase2;
#X obj 989 34 r~ \$0-phase2;
#X obj 961 87 r~ \$0-phase2;
#X obj 1145 392 *~;
#X obj 1164 181 samphold~;
#X obj 1164 243 *~;
#X obj 1165 126 r \$0-length2;
#X obj 1165 153 sig~;
#X obj 1210 153 r~ \$0-phase1;
#X obj 1182 206 r~ \$0-phase1;
#X obj 445 625 s~ \$0-phase1;
#X obj -502 127 s \$0-dub;
#X obj 417 -84 r \$0-dub;
#X obj -507 153 s \$0-insert;
#X obj 878 6 r \$0-dub;
#X obj -488 64 loadbang;
#X msg -463 94 0;
#X msg -498 93 1;
#X msg 671 195 1;
#X obj 860 209 *~;
#X obj 880 366 *~;
#X obj -589 77 select 1 2;
#X obj 1148 526 *~;
#X obj 1146 420 *~;
#X obj 1164 468 pack 0 5;
#X obj 1164 494 line~;
#X obj -561 358 pack 0 10;
#X text -758 25 rec:;
#X msg -502 -1 color 13 13 13;
#X obj -862 378 bng 15 250 50 0 empty empty empty 17 7 0 10 -262144
-1 -1;
#X obj -831 378 f;
#X obj -847 475 line~;
#X msg -499 27 color 5 5 5;
#X obj 941 184 r~ tabbuf\$1-in;
#X obj 942 154 s~ tabbuf\$1-out;
#X obj 1488 157 s~ tabbuf\$1-in;
#X obj 1352 20 *~;
#X obj 1779 92 line~;
#X floatatom 1791 18 0 0 0 0 - - -;
#X obj 1779 66 pack 0 200;
#X obj 1353 43 +~;
#X obj 1302 67 cos~;
#X obj 1334 99 *~;
#X obj 1488 133 +~;
#X obj 1496 -10 wrap~;
#X obj 1548 19 *~;
#X obj 1549 43 +~;
#X obj 1505 99 *~;
#X floatatom 1741 519 6 0 0 0 - - -;
#X obj 1694 598 phasor~;
#X obj 1779 44 max 1;
#X obj 1740 553 select 0;
#X msg 1740 574 0;
#X obj 1302 20 -~ 0.5;
#X obj 1302 44 *~ 0.5;
#X obj 1496 68 cos~;
#X obj 1496 19 -~ 0.5;
#X obj 1496 43 *~ 0.5;
#X obj 1495 -33 +~ 0.5;
#X obj 1791 -51 loadbang;
#X obj 1742 392 exp;
#X obj 1741 469 - 1;
#X floatatom 1830 282 5 0 0 0 - - -;
#X obj 1830 368 *;
#X floatatom 1830 391 5 0 0 0 - - -;
#X obj 1839 337 t b f;
#X obj 1830 417 t b f;
#X obj 1778 113 s~ \$1window;
#X obj 1822 43 s \$1wind;
#X obj 1565 -5 r~ \$1window;
#X obj 1496 -56 r~ \$1pphase;
#X obj 1353 -32 r~ \$1pphase;
#X obj 1370 -5 r~ \$1window;
#X obj 1550 66 tabread4~ \$1-buffer;
#X obj 1353 68 tabread4~ \$1-buffer;
#X obj 1380 20 r~ tabbuf\$1-out;
#X obj 1578 19 r~ tabbuf\$1-out;
#X obj 1694 621 s~ \$1pphase;
#X obj 1708 18 s \$1speed;
#X obj 1751 417 r \$1speed;
#X obj 1839 310 r \$1speed;
#X obj 1830 235 r \$1wind;
#X obj 596 220 delay 20;
#X obj 1156 296 tabread4~ \$1-buffer;
#X text 802 123 pitchhack;
#X msg 878 34 1 2;
#X floatatom 580 475 0 0 0 0 - - -;
#X obj 846 65 r \$0-insert2;
#X obj 520 338 r \$0-insert2;
#X obj 429 -36 r \$0-insert2;
#X obj -328 167 select 0 127;
#X obj -304 226 s \$0-insert2;
#X obj -328 198 s \$0-dub;
#X obj -308 140 spigot;
#X obj 1003 607 s~ \$1-dubrec;
#X obj -524 259 r~ \$1-dubrec;
#X obj -388 131 tgl 15 0 empty empty empty 17 7 0 10 -262144 -1 -1
0 1;
#X obj -407 201 spigot;
#X obj -423 257 spigot;
#X msg -346 232 1;
#X msg -379 232 0;
#X obj -409 157 select 1;
#X obj -659 473 delwrite~ \$0-del 33000;
#X obj 1109 608 s~ \$1-out;
#X floatatom -807 180 5 0 0 0 - - -;
#X obj 1162 267 -~;
#X floatatom 1234 242 5 0 0 0 - - -;
#X obj 350 425 bng 15 250 50 0 empty empty empty 17 7 0 10 -262144
-1 -1;
#X obj 462 295 stripnote;
#X floatatom 464 357 5 0 0 0 - - -;
#X obj 451 478 +;
#X obj 462 387 * 0.03125;
#X obj 466 409 / 2;
#X floatatom 477 444 0 0 0 0 - - -;
#X obj 579 447 * 1e+06;
#X floatatom 653 558 5 0 0 0 - - -;
#X obj 612 612 + 0.0001;
#X obj 462 329 - 60;
#X obj 609 534 int;
#X obj 611 558 + 1;
#X msg -54 214 0.03125;
#X obj -655 337 tgl 15 0 empty empty empty 17 7 0 10 -262144 -1 -1
0 1;
#X obj -636 337 pack 0 2;
#X obj -653 361 line~;
#X obj -670 395 *~;
#X obj 444 189 notein 1;
#X obj 445 218 notein 2;
#X obj 452 243 notein 3;
#X obj 452 266 notein 4;
#X obj -238 143 bng 15 250 50 0 empty empty empty 17 7 0 10 -262144
-1 -1;
#X obj 612 580 * 0.015625;
#X obj 609 508 / 15625;
#X obj -511 -81 r stage5;
#X msg -525 -31 5;
#X obj 1187 608 s~ \$1-mon-out;
#X obj 562 376 bng 15 250 50 0 empty empty empty 17 7 0 10 -262144
-1 -1;
#X obj 1170 336 *~;
#X obj 1209 337 line~;
#X obj 451 517 bng 15 250 50 0 empty empty empty 17 7 0 10 -262144
-1 -1;
#X msg 1361 288 0 1;
#X obj 1322 263 delay 2;
#X msg 1317 288 1 3;
#X msg 11 498 12;
#X obj -37 351 moses 1;
#X msg 9 378 1;
#X msg -37 379 0;
#X obj 11 563 pack 0 \$0;
#X obj -1 123 r \$0-guistep;
#X obj -561 333 r \$1-gain;
#X obj -37 328 r \$1-active;
#X msg 11 588 \; \$2-activegui color \$1 \$1 \$1;
#X obj 47 328 r looprec;
#X obj 47 382 t b f;
#X obj 11 426 *;
#X obj 47 354 + 1;
#X obj 11 455 select 0 1 2;
#X obj 245 143 r step;
#X obj 284 113 r \$1-active;
#X obj 245 176 spigot;
#X obj 245 214 s \$1-step;
#X obj 0 152 select 0 1 2 3 4 5 6;
#X obj -590 54 r inlet;
#X obj 0 0 cnv 15 370 65 empty empty empty 7 -10 0 16 -83269 -252505
1.04858e+06;
#X obj 12 36 hradio 16 1 0 7 \$0-guistep \$1-step empty 7 -10 0 16
-49933 -128992 -166441 0;
#X obj 363 4 cnv 2 2 2 empty empty empty 20 12 0 14 -1 -66577 0;
#X obj 304 33 cnv 1 48 1 empty empty empty 20 12 0 14 -33289 -66577
0;
#X obj 363 58 cnv 2 2 2 empty empty empty 20 12 0 14 -33289 -66577
0;
#X obj 4 4 cnv 2 2 2 empty empty empty 20 12 0 14 -1 -66577 0;
#X obj 4 58 cnv 2 2 2 empty empty empty 20 12 0 14 -1 -66577 0;
#X obj 292 8 cnv 15 20 20 empty empty L00P 13 12 1 21 -83269 -128992
0;
#X obj 12 11 tgl 16 0 \$0-dkhakhdoiywdiwqu \$0-activegui empty 0 -6
0 10 -258699 -258699 -258699 0 1;
#X obj 242 12 vsl 12 41 -50 0 0 0 wqwqepouwqprowqr\$1 \$1-VU empty
35 15 0 16 -33289 -99865 -166441 0 0;
#X obj 201 12 vsl 20 41 0 1 0 0 wqwqepouwqperowqr\$1 \$1-gain empty
35 15 0 16 -33289 -99865 -166441 0 0;
#X msg 44 499 13;
#X msg 79 498 14;
#X obj -682 -82 r \$1-active;
#X obj -263 100 r \$1-active;
#X msg 131 531 1;
#X msg 92 533 0;
#X obj -394 100 r \$0-rec;
#X obj -654 302 r \$0-rec;
#X obj 95 564 s \$0-rec;
#X obj -243 59 ctlin 18 1;
#X obj 1164 444 r \$1-gain;
#X obj 1335 235 r \$0-bufread;
#X obj 450 541 s \$0-bufread;
#X obj 417 73 s~ \$0-dubswitch;
#X obj 1010 478 r~ \$0-dubswitch;
#X obj 897 299 r~ \$0-dubswitch;
#X obj 1053 332 r~ \$0-dubswitch;
#X msg -821 447 0 3;
#X msg -857 446 1 3;
#X obj -862 411 delay 4;
#X obj 13 53 cnv 1 111 1 empty empty empty 7 -10 0 16 -99865 -252505
1.04858e+06;
#X obj 12 34 cnv 1 111 1 empty empty empty 7 -10 0 16 -33289 -252505
1.04858e+06;
#X msg 1713 -17 500;
#X obj 1741 493 / 0.02;
#X msg 1755 -15 1;
#X obj 1742 446 * 1;
#X floatatom 284 579 5 0 0 0 - - -;
#X obj 1742 321 r \$1-pitch;
#X msg 1884 -11 100;
#X obj 1742 359 * 0.0577621;
#X obj 1179 391 r~ crossfader;
#X obj 1310 340 r~ \$1-dubinsert;
#X obj 1289 388 r~ \$1-dubinsert;
#X msg 1790 -14 2028;
#X obj 286 46 cnv 10 10 10 empty empty ░░░░ 20 0 1 16 -83269
-1 0;
#X obj 1807 195 samplerate~;
#X obj 1807 168 loadbang;
#X obj 735 24 / 44100;
#X obj 1829 258 / 44100;
#X floatatom 740 102 0 0 0 0 - - -;
#X msg 1831 -13 1024;
#X obj 555 -42 / 441;
#X floatatom 1739 220 5 0 0 0 - - -;
#X obj 1730 149 bng 30 250 50 0 empty empty empty 35 15 0 16 -33289
-252505 -166441;
#X obj 259 12 vsl 12 41 -50 0 0 0 wqwqepouwqprowqr\$1 \$1-peak empty
35 15 0 16 -33289 -162280 -166441 0 0;
#X obj -322 58 ctlin 18 1;
#X msg 308 178 3;
#X obj 308 149 r stage3;
#X obj -658 496 delread~ \$0-del 2000;
#X obj -659 536 *~;
#X obj -796 409 r stage2;
#X connect 0 0 41 0;
#X connect 1 0 41 0;
#X connect 2 0 304 0;
#X connect 4 0 20 0;
#X connect 4 0 308 0;
#X connect 6 0 176 0;
#X connect 7 0 6 1;
#X connect 8 0 18 0;
#X connect 8 0 94 0;
#X connect 9 0 8 0;
#X connect 10 0 9 0;
#X connect 10 1 9 1;
#X connect 11 0 8 1;
#X connect 12 0 11 0;
#X connect 13 0 9 0;
#X connect 14 0 13 0;
#X connect 15 0 104 0;
#X connect 16 0 15 0;
#X connect 16 0 293 0;
#X connect 17 0 16 0;
#X connect 17 1 16 1;
#X connect 18 0 15 1;
#X connect 18 0 208 0;
#X connect 18 0 232 0;
#X connect 19 0 6 0;
#X connect 21 0 22 1;
#X connect 22 0 218 0;
#X connect 22 0 30 0;
#X connect 23 0 24 1;
#X connect 24 0 196 0;
#X connect 25 0 56 1;
#X connect 25 0 87 0;
#X connect 26 0 25 0;
#X connect 26 0 31 0;
#X connect 27 0 30 0;
#X connect 28 0 83 0;
#X connect 28 0 82 0;
#X connect 29 0 84 0;
#X connect 29 0 81 0;
#X connect 31 0 32 1;
#X connect 32 0 28 0;
#X connect 33 0 227 0;
#X connect 36 0 2 0;
#X connect 37 0 304 1;
#X connect 38 0 17 0;
#X connect 39 0 10 0;
#X connect 40 0 22 0;
#X connect 41 0 2 0;
#X connect 42 0 112 0;
#X connect 43 0 51 0;
#X connect 44 0 51 0;
#X connect 45 0 51 0;
#X connect 46 0 51 0;
#X connect 47 0 51 0;
#X connect 48 0 51 0;
#X connect 49 0 51 0;
#X connect 50 0 51 0;
#X connect 52 0 56 0;
#X connect 53 0 54 0;
#X connect 53 1 52 1;
#X connect 54 0 52 0;
#X connect 55 0 54 1;
#X connect 55 0 52 0;
#X connect 56 0 123 0;
#X connect 56 0 124 1;
#X connect 57 0 58 0;
#X connect 57 0 198 0;
#X connect 58 0 55 0;
#X connect 59 0 53 0;
#X connect 60 0 5 0;
#X connect 61 0 60 0;
#X connect 62 0 61 0;
#X connect 62 1 60 1;
#X connect 64 0 66 0;
#X connect 64 1 65 0;
#X connect 65 0 26 0;
#X connect 65 0 122 0;
#X connect 66 0 26 0;
#X connect 66 0 126 0;
#X connect 68 0 201 0;
#X connect 68 0 69 0;
#X connect 69 0 16 0;
#X connect 70 0 71 0;
#X connect 71 0 197 0;
#X connect 72 0 73 0;
#X connect 73 0 280 0;
#X connect 74 0 77 1;
#X connect 75 0 76 1;
#X connect 76 0 24 0;
#X connect 77 0 24 0;
#X connect 78 0 88 0;
#X connect 78 0 113 1;
#X connect 79 0 77 0;
#X connect 80 0 78 0;
#X connect 81 0 75 0;
#X connect 82 0 75 0;
#X connect 83 0 74 0;
#X connect 84 0 74 0;
#X connect 85 0 72 0;
#X connect 86 0 72 0;
#X connect 87 0 21 0;
#X connect 88 0 116 0;
#X connect 89 0 90 0;
#X connect 90 0 113 0;
#X connect 90 0 128 0;
#X connect 91 0 93 0;
#X connect 93 0 89 0;
#X connect 95 0 89 1;
#X connect 96 0 90 1;
#X connect 97 0 117 0;
#X connect 98 0 99 0;
#X connect 99 0 199 0;
#X connect 100 0 101 0;
#X connect 101 0 98 0;
#X connect 102 0 98 1;
#X connect 103 0 99 1;
#X connect 106 0 86 0;
#X connect 108 0 179 0;
#X connect 109 0 110 0;
#X connect 109 0 111 0;
#X connect 110 0 107 0;
#X connect 111 0 105 0;
#X connect 111 0 29 0;
#X connect 112 0 7 0;
#X connect 113 0 92 0;
#X connect 114 0 92 0;
#X connect 115 0 32 0;
#X connect 115 0 107 0;
#X connect 115 1 105 0;
#X connect 115 1 29 0;
#X connect 116 0 228 0;
#X connect 116 0 188 0;
#X connect 116 0 197 0;
#X connect 117 0 116 0;
#X connect 118 0 119 0;
#X connect 119 0 116 1;
#X connect 120 0 23 0;
#X connect 122 0 26 0;
#X connect 123 0 284 0;
#X connect 123 0 286 0;
#X connect 124 0 315 0;
#X connect 125 0 316 1;
#X connect 126 0 26 0;
#X connect 127 0 88 1;
#X connect 130 0 134 0;
#X connect 131 0 161 0;
#X connect 132 0 144 0;
#X connect 132 0 162 0;
#X connect 133 0 131 0;
#X connect 134 0 168 0;
#X connect 135 0 136 0;
#X connect 136 0 137 0;
#X connect 137 0 129 0;
#X connect 138 0 150 0;
#X connect 138 0 139 0;
#X connect 139 0 140 0;
#X connect 140 0 167 0;
#X connect 141 0 137 1;
#X connect 142 0 143 0;
#X connect 142 0 145 0;
#X connect 143 0 171 0;
#X connect 144 0 133 0;
#X connect 145 0 146 0;
#X connect 146 0 143 1;
#X connect 147 0 148 0;
#X connect 148 0 135 0;
#X connect 149 0 141 0;
#X connect 150 0 151 0;
#X connect 151 0 149 0;
#X connect 152 0 138 0;
#X connect 153 0 291 0;
#X connect 153 0 307 0;
#X connect 154 0 292 0;
#X connect 155 0 290 0;
#X connect 156 0 157 0;
#X connect 157 0 158 0;
#X connect 158 0 160 0;
#X connect 159 0 157 0;
#X connect 159 1 157 1;
#X connect 160 0 290 0;
#X connect 160 1 290 1;
#X connect 163 0 139 1;
#X connect 164 0 152 0;
#X connect 165 0 130 0;
#X connect 165 0 147 0;
#X connect 166 0 130 1;
#X connect 167 0 141 1;
#X connect 168 0 136 1;
#X connect 169 0 134 1;
#X connect 170 0 140 1;
#X connect 173 0 292 1;
#X connect 174 0 159 0;
#X connect 175 0 305 0;
#X connect 176 0 14 0;
#X connect 176 0 12 0;
#X connect 177 0 230 0;
#X connect 179 0 78 0;
#X connect 180 0 225 0;
#X connect 181 0 80 0;
#X connect 182 0 18 0;
#X connect 182 0 229 0;
#X connect 183 0 85 0;
#X connect 184 0 186 0;
#X connect 184 0 194 0;
#X connect 184 0 29 0;
#X connect 184 1 185 0;
#X connect 184 1 191 0;
#X connect 184 1 193 0;
#X connect 187 0 184 0;
#X connect 187 0 223 0;
#X connect 189 0 76 0;
#X connect 190 0 191 1;
#X connect 190 0 195 0;
#X connect 191 0 28 0;
#X connect 192 0 32 0;
#X connect 193 0 192 1;
#X connect 194 0 192 1;
#X connect 195 0 192 0;
#X connect 199 0 177 0;
#X connect 199 0 114 0;
#X connect 202 0 211 0;
#X connect 203 0 205 0;
#X connect 204 0 15 1;
#X connect 204 0 232 0;
#X connect 205 0 206 0;
#X connect 206 0 204 0;
#X connect 206 0 207 0;
#X connect 208 0 180 0;
#X connect 210 0 204 1;
#X connect 211 0 203 0;
#X connect 212 0 209 0;
#X connect 212 0 213 0;
#X connect 213 0 224 0;
#X connect 214 0 51 0;
#X connect 215 0 216 0;
#X connect 215 0 217 0;
#X connect 217 0 218 1;
#X connect 218 0 24 0;
#X connect 219 0 202 0;
#X connect 219 1 202 1;
#X connect 220 0 202 0;
#X connect 220 1 202 1;
#X connect 221 0 202 0;
#X connect 221 1 202 1;
#X connect 222 0 202 0;
#X connect 222 1 202 1;
#X connect 224 0 210 0;
#X connect 225 0 212 0;
#X connect 226 0 227 0;
#X connect 227 0 63 0;
#X connect 230 0 97 1;
#X connect 231 0 230 1;
#X connect 232 0 279 0;
#X connect 233 0 231 0;
#X connect 234 0 235 0;
#X connect 235 0 231 0;
#X connect 236 0 240 0;
#X connect 236 0 272 0;
#X connect 237 0 239 0;
#X connect 237 1 238 0;
#X connect 238 0 247 0;
#X connect 239 0 247 0;
#X connect 240 0 244 0;
#X connect 241 0 254 0;
#X connect 242 0 120 0;
#X connect 243 0 237 0;
#X connect 245 0 248 0;
#X connect 246 0 247 0;
#X connect 246 1 247 1;
#X connect 247 0 249 0;
#X connect 248 0 246 0;
#X connect 249 0 236 0;
#X connect 249 1 268 0;
#X connect 249 2 267 0;
#X connect 250 0 252 0;
#X connect 251 0 252 1;
#X connect 252 0 253 0;
#X connect 254 0 49 0;
#X connect 254 1 48 0;
#X connect 254 2 44 0;
#X connect 254 3 43 0;
#X connect 254 4 46 0;
#X connect 254 5 47 0;
#X connect 254 6 50 0;
#X connect 255 0 115 0;
#X connect 267 0 240 0;
#X connect 267 0 271 0;
#X connect 268 0 240 0;
#X connect 268 0 272 0;
#X connect 269 0 64 0;
#X connect 270 0 187 1;
#X connect 271 0 275 0;
#X connect 272 0 275 0;
#X connect 273 0 190 0;
#X connect 274 0 215 0;
#X connect 277 0 118 0;
#X connect 278 0 233 0;
#X connect 278 0 234 0;
#X connect 281 0 71 1;
#X connect 282 0 114 1;
#X connect 283 0 97 0;
#X connect 284 0 125 0;
#X connect 285 0 125 0;
#X connect 286 0 124 0;
#X connect 286 0 285 0;
#X connect 289 0 132 0;
#X connect 290 0 142 0;
#X connect 291 0 172 0;
#X connect 292 0 155 0;
#X connect 294 0 296 0;
#X connect 295 0 132 0;
#X connect 296 0 154 0;
#X connect 297 0 117 1;
#X connect 300 0 132 0;
#X connect 302 0 305 1;
#X connect 302 0 309 0;
#X connect 303 0 302 0;
#X connect 304 0 3 0;
#X connect 304 0 306 0;
#X connect 305 0 156 0;
#X connect 307 0 132 0;
#X connect 308 0 62 0;
#X connect 310 0 302 0;
#X connect 312 0 187 0;
#X connect 313 0 253 0;
#X connect 314 0 313 0;
#X connect 315 0 316 0;
#X connect 316 0 34 0;
#X connect 316 0 30 0;
#X connect 317 0 285 0;
#X coords 0 -1 1 1 370 65 1 0 0;
