#N canvas 0 47 1920 1153 12;
#X obj 654 -79 bng 15 250 50 0 empty empty empty 0 -6 0 10 -262144
-1 -1;
#X obj 639 -102 loadbang;
#X obj 715 -4 snapshot~;
#X obj 714 55 s \$1-pointer;
#X obj 219 -125 r dublength;
#X obj 219 99 s \$0-length1;
#X obj 454 26 phasor~ 0;
#X obj 414 -74 t b f;
#X msg 523 -7 0;
#X msg 523 -30 reset;
#X obj 302 639 phasor~ 0;
#X obj 247 463 * 250;
#X obj 275 414 t b f;
#X obj 554 318 snapshot~;
#X obj 523 -100 r dubsync;
#X obj 228 -70 s \$0-length2;
#X obj -704 166 line~;
#X obj -705 406 *~;
#X obj -405 509 line~ 0 10;
#X obj -1034 464 bng 15 250 50 0 empty empty empty 0 -6 0 10 -262144
-1 -1;
#X obj -1148 461 bng 15 250 50 0 empty empty empty 0 -6 0 10 -262144
-1 -1;
#X text 430 -128 buffer-sync:;
#X obj 714 -58 r~ \$0-point;
#X obj 767 -29 r dublength;
#X obj 275 390 r \$0-length1;
#X obj 414 -99 r \$0-length1;
#X obj -684 226 r~ in;
#X obj 639 -57 metro 50;
#X obj 219 71 /, f 5;
#X obj 219 19 t b f;
#X obj 232 319 r scratchpointer;
#X obj 232 414 / 15;
#X obj 839 767 r~ in;
#X obj 868 846 *~;
#X obj -1148 543 line~;
#X obj -1034 546 line~;
#X obj -1034 598 *~;
#X obj -1149 598 *~;
#X obj 917 234 line~;
#X msg -1034 514 1 2;
#X msg -1111 514 0 2;
#X msg -1148 514 1 2;
#X obj -704 139 pack 0 2;
#X obj 868 668 *~;
#X obj 770 182 samphold~;
#X obj 759 244 *~;
#X obj 760 127 r \$0-length2;
#X obj 760 154 sig~;
#X obj 453 56 s~ \$0-phase2;
#X obj 805 154 r~ \$0-phase2;
#X obj 779 214 r~ \$0-phase2;
#X obj 1046 626 *~;
#X obj 1086 182 samphold~;
#X obj 1070 245 *~;
#X obj 1071 128 r \$0-length2;
#X obj 1071 155 sig~;
#X obj 1132 154 r~ \$0-phase1;
#X obj 1090 218 r~ \$0-phase1;
#X obj 302 677 s~ \$0-phase1;
#X obj 917 130 r \$0-dub;
#X obj -560 4 loadbang;
#X msg -560 29 0;
#X obj 897 324 *~;
#X obj 996 325 *~;
#X obj 1048 824 *~;
#X obj 1047 684 *~;
#X obj 1069 769 pack 0 5;
#X obj 1069 795 line~;
#X obj -405 485 pack 0 10;
#X obj 889 640 r~ tabbuf\$1-in;
#X obj 759 422 s~ tabbuf\$1-out;
#X obj 1385 239 s~ tabbuf\$1-in;
#X obj 1280 -8 *~;
#X obj 1779 92 line~;
#X floatatom 1791 18 0 0 0 0 - - -;
#X obj 1779 66 pack 0 200;
#X obj 1280 37 +~;
#X obj 1212 60 cos~;
#X obj 1258 122 *~;
#X obj 1385 215 +~;
#X obj 1516 -62 wrap~;
#X obj 1517 -10 *~;
#X obj 1516 41 +~;
#X obj 1495 117 *~;
#X floatatom 1674 411 6 0 0 0 - - -, f 6;
#X obj 1620 498 phasor~;
#X obj 1779 44 max 1;
#X obj 1673 441 select 0;
#X msg 1673 466 0;
#X obj 1212 13 -~ 0.5;
#X obj 1212 37 *~ 0.5;
#X obj 1449 72 cos~;
#X obj 1449 7 -~ 0.5;
#X obj 1449 39 *~ 0.5;
#X obj 1515 -85 +~ 0.5;
#X obj 1791 -51 loadbang;
#X obj 1674 336 exp;
#X obj 1674 361 - 1;
#X obj 1775 311 t b f;
#X obj 1779 117 s~ \$1window;
#X obj 1833 44 s \$1wind;
#X obj 1538 -37 r~ \$1window;
#X obj 1516 -108 r~ \$1pphase;
#X obj 1281 -60 r~ \$1pphase;
#X obj 1300 -34 r~ \$1window;
#X obj 1517 72 tabread4~ \$1-buffer;
#X obj 1280 62 tabread4~ \$1-buffer;
#X obj 1316 2 r~ tabbuf\$1-out;
#X obj 1553 0 r~ tabbuf\$1-out;
#X obj 1620 521 s~ \$1pphase;
#X obj 1776 171 r \$1wind;
#X obj 1069 421 tabread4~ \$1-buffer;
#X floatatom 610 388 0 0 0 0 - - -;
#X obj -560 59 s \$0-dub;
#X obj 1085 938 s~ \$1-dubrec;
#X obj -1013 572 r~ \$1-dubrec;
#X obj 250 348 bng 15 250 50 0 empty empty empty 17 7 0 10 -262144
-1 -1;
#X obj 409 337 stripnote;
#X floatatom 422 403 5 0 0 0 - - -, f 5;
#X obj 480 576 +;
#X obj 409 429 * 0.03125;
#X obj 409 456 / 2;
#X floatatom 424 486 0 0 0 0 - - -;
#X obj 562 361 * 1e+06;
#X floatatom 604 469 5 0 0 0 - - -, f 5;
#X obj 562 530 + 0.0001;
#X obj 409 371 - 60;
#X obj 562 441 int;
#X obj 562 469 + 1;
#X obj -663 455 pack 0 2;
#X obj -663 479 line~;
#X obj -683 512 *~;
#X obj 391 231 notein 1;
#X obj 392 260 notein 2;
#X obj 399 285 notein 3;
#X obj 399 308 notein 4;
#X obj 562 498 * 0.015625;
#X obj 562 415 / 15625;
#X obj 547 247 bng 15 250 50 0 empty empty empty 17 7 0 10 -262144
-1 -1;
#X obj 1068 597 *~;
#X obj 1088 567 line~;
#X obj 507 614 bng 15 250 50 0 empty empty empty 17 7 0 10 -262144
-1 -1;
#X msg 1132 539 0 1;
#X msg 1088 539 1 3;
#X msg -984 107 12;
#X obj -1049 -40 moses 1;
#X msg -1003 -13 1;
#X msg -1049 -12 0;
#X obj -984 172 pack 0 \$0;
#X obj -405 434 r \$1-gain;
#X obj -1049 -63 r \$1-active;
#X msg -984 197 \; \$2-activegui color \$1 \$1 \$1;
#X obj -948 -63 r looprec;
#X obj -948 -9 t b f;
#X obj -984 35 *;
#X obj -948 -37 + 1;
#X obj -984 64 select 0 1 2;
#X obj -267 -74 r step;
#X obj -222 -45 r \$1-active;
#X obj -267 -10 spigot;
#X obj 39 30 hradio 16 1 0 7 empty \$1-step empty 7 -10 0 16 -228856
-1 -166441 4;
#X obj 12 31 tgl 16 0 \$0-dkhakhdoiywdiwqu \$0-activegui empty 0 -6
0 10 -33289 -33289 -33289 0 1;
#X msg -951 108 13;
#X msg -916 107 14;
#X obj -704 113 r \$1-active;
#X msg -864 140 1;
#X msg -903 142 0;
#X obj -663 429 r \$0-rec;
#X obj -900 173 s \$0-rec;
#X obj 1069 719 r \$1-gain;
#X obj 1088 484 r \$0-bufread;
#X obj 507 638 s \$0-bufread;
#X obj 1674 385 / 0.02;
#X floatatom 213 534 5 0 0 0 - - -, f 5;
#X obj 1674 287 r \$1-pitch;
#X msg 1884 -11 100;
#X obj 1080 655 r~ crossfader;
#X obj 1828 234 samplerate~;
#X obj 714 25 / 44100;
#X obj 1775 264 / 44100;
#X floatatom 632 59 0 0 0 0 - - -;
#X msg 1831 -13 1024;
#X floatatom 1843 320 5 0 0 0 - - -, f 5;
#X obj 917 208 pack 0 2;
#X obj 508 177 r \$0-dub;
#X obj 509 210 select 1;
#X obj 917 156 * -1;
#X obj 917 181 + 1;
#X msg -996 513 0 2;
#X obj -1100 653 +~;
#X obj -455 -41 t b f;
#X obj -476 3 *;
#X obj -384 68 t b f;
#X obj -384 95 *;
#X obj -422 29 r \$0-rec;
#X obj -476 -96 r \$1-active;
#X obj -455 -66 r overDub;
#X obj -1117 410 select 0 1;
#X obj -800 1140 +~, f 15;
#X obj 940 421 s~ \$0-point;
#X obj 995 154 pack 0 2;
#X obj 995 179 line~;
#X obj 995 129 r \$0-dub;
#X obj 990 544 pack 0 2;
#X obj 990 569 line~;
#X obj 990 519 r \$0-dub;
#X obj 889 792 pack 0 2;
#X obj 889 817 line~;
#X obj 889 767 r \$0-dub;
#X obj 553 277 r~ \$0-phase2;
#X obj 454 -7 f;
#X obj 1088 512 delay 4;
#X obj 867 610 line~;
#X obj 867 506 r \$0-dub;
#X obj 867 584 pack 0 2;
#X obj 867 532 * -1;
#X obj 867 557 + 1;
#X text 1129 249 scratchphasor;
#X msg 1713 -17 512;
#X obj 272 -41 samplerate~;
#X obj 219 -98 t f b;
#X obj 219 -7 / 44100;
#X msg 219 45 1;
#X obj 1776 197 t f b;
#X obj 1674 311 * 0.0577621;
#X msg 1790 -14 2000;
#X obj 523 -74 delay 20;
#X obj 1069 744 / 254;
#X obj 938 952 s~ \$1-outt;
#X obj -912 1209 s~ \$1-out;
#X obj -405 459 / 254;
#X obj -544 833 r~ audioClock;
#X obj -544 897 *~;
#X obj -522 807 r smppertick;
#X obj -636 800 print;
#X msg -659 768 offset \$1;
#X obj -659 537 r smppertick;
#X msg -654 860 size \$1;
#X obj -654 836 r dublength;
#X obj -659 742 * 96;
#X obj -645 615 r \$0-step;
#X obj -870 526 *~, f 8;
#X obj -870 472 pack 0 2;
#X obj -870 496 line~;
#X obj -870 396 r \$0-rec;
#X obj -870 422 * -1;
#X obj -870 447 + 1;
#X obj -655 331 line~ 0 10;
#X obj -655 307 pack 0 10;
#X obj -655 256 r \$1-gain;
#X obj -655 281 / 254;
#X obj -683 366 *~, f 4;
#X text -504 338 to do: [roboloop] -smooth step change -insert / no
loop (overdub) [general] -pitch record pattern (no rec in loop), f
41;
#X obj -384 536 r \$0-step;
#X obj -386 698 line~;
#X msg -342 644 1;
#X msg -386 643 0;
#X obj -624 674 t b f;
#X obj -682 932 roboloop~ \$1-loopbuf, f 35;
#X obj -384 176 s \$0-insert;
#X obj -476 175 s \$0-mute;
#X obj -343 796 tgl 15 0 empty empty empty 17 7 0 10 -262144 -1 -1
0 1;
#X obj -387 768 r \$0-insert;
#X obj -967 622 tgl 15 0 empty empty empty 17 7 0 10 -262144 -1 -1
0 1;
#X obj -1187 612 tgl 15 0 empty empty empty 17 7 0 10 -262144 -1 -1
0 1;
#X obj -369 616 loadbang;
#X obj -476 150 *;
#X obj -465 118 t b f;
#X obj -465 94 + 1;
#X obj -464 68 * -1;
#X obj -387 793 * -1;
#X obj -386 818 + 1;
#X obj -406 896 *~;
#X obj -386 867 line~;
#X obj -386 842 pack 0 2;
#X obj -664 997 * -1;
#X obj -663 1022 + 1;
#X obj -683 1100 *~;
#X obj -663 1071 line~;
#X obj -663 1046 pack 0 2;
#X obj -664 972 r \$0-mute;
#X text -322 794 overwrite loop;
#X text -582 973 mute loop;
#X obj -109 428 r P-Bend;
#X obj -109 455 * 1.02;
#X obj -109 481 - 2.5;
#X obj -109 507 / 128;
#X obj -109 534 - 1;
#X obj -109 561 clip -1 1;
#X obj -59 590 r phasorFreq;
#X obj -109 659 phasor~ 0;
#X obj -106 836 *~;
#X obj -85 811 r smppertick;
#X obj -107 779 *~ 768;
#X obj -109 589 t b f;
#X obj -109 633 *;
#X obj -20 619 r~ audioClock;
#X obj -543 867 *~ 768;
#X obj -108 722 +~;
#X obj -108 748 wrap~;
#X obj -21 695 snapshot~;
#X obj -11 669 select 1;
#X obj -105 865 tabread4~ \$1-loopbuf;
#X obj -105 932 *~;
#X obj -84 903 r~ crossfader;
#X obj -106 1056 *~;
#X obj -84 1028 line~;
#X obj -84 1002 pack 0 2;
#X obj -84 975 r \$0-Scratch;
#X obj -11 645 r \$0-Scratch;
#X obj -675 -41 t b f;
#X obj -696 3 *;
#X obj -696 -96 r \$1-active;
#X obj -675 -66 r Foot2;
#X obj -696 35 s \$0-Scratch;
#X obj -375 -66 r Foot2;
#X obj -623 225 r~ \$0-scratchout;
#X obj -107 1086 s~ \$0-scratchout;
#X obj -621 999 tgl 15 0 empty empty empty 17 7 0 10 -262144 -1 -1
0 1;
#X obj -267 28 s \$0-step;
#X obj -624 646 change 0;
#X obj -384 562 change 0;
#X obj -637 705 delay 4;
#X obj -364 588 delay 4;
#X obj -386 670 pack 0 3;
#X obj -406 722 *~ 1;
#X connect 0 0 27 0;
#X connect 1 0 27 0;
#X connect 2 0 178 0;
#X connect 4 0 220 0;
#X connect 6 0 48 0;
#X connect 7 0 210 0;
#X connect 7 1 210 1;
#X connect 8 0 6 1;
#X connect 9 0 8 0;
#X connect 10 0 58 0;
#X connect 11 0 10 0;
#X connect 11 0 173 0;
#X connect 12 0 11 0;
#X connect 12 1 11 1;
#X connect 13 0 10 1;
#X connect 13 0 123 0;
#X connect 13 0 141 0;
#X connect 14 0 226 0;
#X connect 16 0 17 0;
#X connect 17 0 131 0;
#X connect 17 0 241 1;
#X connect 17 0 198 0;
#X connect 18 0 325 0;
#X connect 19 0 40 0;
#X connect 19 0 39 0;
#X connect 20 0 41 0;
#X connect 20 0 188 0;
#X connect 22 0 2 0;
#X connect 23 0 178 1;
#X connect 24 0 12 0;
#X connect 25 0 7 0;
#X connect 26 0 251 0;
#X connect 27 0 2 0;
#X connect 28 0 5 0;
#X connect 29 0 222 0;
#X connect 29 1 28 1;
#X connect 30 0 116 0;
#X connect 30 0 31 0;
#X connect 31 0 11 0;
#X connect 32 0 33 0;
#X connect 33 0 228 0;
#X connect 34 0 37 0;
#X connect 35 0 36 0;
#X connect 36 0 189 1;
#X connect 37 0 189 0;
#X connect 38 0 62 1;
#X connect 39 0 35 0;
#X connect 39 0 263 0;
#X connect 40 0 34 0;
#X connect 40 0 264 0;
#X connect 41 0 34 0;
#X connect 41 0 264 0;
#X connect 42 0 16 0;
#X connect 43 0 64 0;
#X connect 45 0 70 0;
#X connect 45 0 62 0;
#X connect 46 0 47 0;
#X connect 47 0 44 0;
#X connect 47 0 45 0;
#X connect 49 0 44 1;
#X connect 50 0 45 1;
#X connect 51 0 65 0;
#X connect 53 0 111 0;
#X connect 53 0 63 1;
#X connect 54 0 55 0;
#X connect 55 0 52 0;
#X connect 55 0 53 0;
#X connect 56 0 52 1;
#X connect 57 0 53 1;
#X connect 59 0 186 0;
#X connect 60 0 61 0;
#X connect 61 0 113 0;
#X connect 62 0 199 0;
#X connect 63 0 199 0;
#X connect 64 0 114 0;
#X connect 64 0 228 0;
#X connect 65 0 64 0;
#X connect 66 0 67 0;
#X connect 67 0 64 1;
#X connect 68 0 18 0;
#X connect 69 0 43 1;
#X connect 72 0 76 0;
#X connect 73 0 99 0;
#X connect 74 0 86 0;
#X connect 74 0 100 0;
#X connect 75 0 73 0;
#X connect 76 0 106 0;
#X connect 77 0 78 0;
#X connect 78 0 79 0;
#X connect 79 0 71 0;
#X connect 80 0 92 0;
#X connect 80 0 81 0;
#X connect 81 0 82 0;
#X connect 82 0 105 0;
#X connect 83 0 79 1;
#X connect 84 0 85 0;
#X connect 84 0 87 0;
#X connect 85 0 109 0;
#X connect 86 0 75 0;
#X connect 87 0 88 0;
#X connect 88 0 85 1;
#X connect 89 0 90 0;
#X connect 90 0 77 0;
#X connect 91 0 83 0;
#X connect 92 0 93 0;
#X connect 93 0 91 0;
#X connect 94 0 80 0;
#X connect 95 0 225 0;
#X connect 96 0 97 0;
#X connect 97 0 172 0;
#X connect 98 0 172 0;
#X connect 98 1 172 1;
#X connect 101 0 81 1;
#X connect 102 0 94 0;
#X connect 103 0 72 0;
#X connect 103 0 89 0;
#X connect 104 0 72 1;
#X connect 105 0 83 1;
#X connect 106 0 78 1;
#X connect 107 0 76 1;
#X connect 108 0 82 1;
#X connect 110 0 223 0;
#X connect 111 0 139 0;
#X connect 115 0 36 1;
#X connect 117 0 126 0;
#X connect 119 0 10 1;
#X connect 119 0 141 0;
#X connect 120 0 121 0;
#X connect 121 0 119 0;
#X connect 121 0 122 0;
#X connect 123 0 112 0;
#X connect 123 0 137 0;
#X connect 125 0 119 1;
#X connect 126 0 118 0;
#X connect 126 0 120 0;
#X connect 127 0 124 0;
#X connect 127 0 128 0;
#X connect 128 0 136 0;
#X connect 129 0 130 0;
#X connect 130 0 131 1;
#X connect 131 0 258 0;
#X connect 132 0 117 0;
#X connect 132 1 117 1;
#X connect 133 0 117 0;
#X connect 133 1 117 1;
#X connect 134 0 117 0;
#X connect 134 1 117 1;
#X connect 135 0 117 0;
#X connect 135 1 117 1;
#X connect 136 0 125 0;
#X connect 137 0 127 0;
#X connect 139 0 51 1;
#X connect 140 0 139 1;
#X connect 141 0 171 0;
#X connect 142 0 140 0;
#X connect 143 0 140 0;
#X connect 144 0 148 0;
#X connect 144 0 166 0;
#X connect 145 0 147 0;
#X connect 145 1 146 0;
#X connect 146 0 154 0;
#X connect 147 0 154 0;
#X connect 148 0 151 0;
#X connect 149 0 230 0;
#X connect 150 0 145 0;
#X connect 152 0 155 0;
#X connect 153 0 154 0;
#X connect 153 1 154 1;
#X connect 154 0 156 0;
#X connect 155 0 153 0;
#X connect 156 0 144 0;
#X connect 156 1 163 0;
#X connect 156 2 162 0;
#X connect 157 0 159 0;
#X connect 158 0 159 1;
#X connect 159 0 319 0;
#X connect 162 0 148 0;
#X connect 162 0 165 0;
#X connect 163 0 148 0;
#X connect 163 0 166 0;
#X connect 164 0 42 0;
#X connect 165 0 168 0;
#X connect 166 0 168 0;
#X connect 167 0 129 0;
#X connect 169 0 227 0;
#X connect 170 0 142 0;
#X connect 170 0 211 0;
#X connect 172 0 84 0;
#X connect 174 0 224 0;
#X connect 175 0 74 0;
#X connect 176 0 65 1;
#X connect 177 0 179 1;
#X connect 178 0 3 0;
#X connect 178 0 180 0;
#X connect 179 0 98 0;
#X connect 179 0 182 0;
#X connect 181 0 74 0;
#X connect 183 0 38 0;
#X connect 184 0 185 0;
#X connect 185 0 13 0;
#X connect 185 0 138 0;
#X connect 186 0 187 0;
#X connect 187 0 183 0;
#X connect 188 0 35 0;
#X connect 188 0 263 0;
#X connect 190 0 191 0;
#X connect 190 1 191 1;
#X connect 191 0 113 0;
#X connect 191 0 193 0;
#X connect 191 0 266 0;
#X connect 192 0 193 0;
#X connect 192 1 193 1;
#X connect 193 0 259 0;
#X connect 194 0 192 0;
#X connect 194 0 269 0;
#X connect 195 0 191 0;
#X connect 196 0 190 0;
#X connect 197 0 20 0;
#X connect 197 1 19 0;
#X connect 198 0 229 0;
#X connect 200 0 201 0;
#X connect 201 0 63 0;
#X connect 202 0 200 0;
#X connect 203 0 204 0;
#X connect 204 0 51 0;
#X connect 205 0 203 0;
#X connect 206 0 207 0;
#X connect 207 0 33 1;
#X connect 208 0 206 0;
#X connect 209 0 13 0;
#X connect 210 0 6 0;
#X connect 211 0 143 0;
#X connect 212 0 43 0;
#X connect 213 0 215 0;
#X connect 214 0 212 0;
#X connect 215 0 216 0;
#X connect 216 0 214 0;
#X connect 218 0 74 0;
#X connect 219 0 221 1;
#X connect 220 0 15 0;
#X connect 220 0 221 0;
#X connect 220 1 219 0;
#X connect 221 0 29 0;
#X connect 222 0 28 0;
#X connect 223 0 179 0;
#X connect 223 1 177 0;
#X connect 224 0 96 0;
#X connect 225 0 74 0;
#X connect 226 0 9 0;
#X connect 226 0 210 0;
#X connect 227 0 66 0;
#X connect 230 0 68 0;
#X connect 231 0 297 0;
#X connect 232 0 258 1;
#X connect 233 0 232 1;
#X connect 235 0 234 0;
#X connect 235 0 258 0;
#X connect 236 0 239 0;
#X connect 237 0 258 0;
#X connect 238 0 237 0;
#X connect 239 0 235 0;
#X connect 240 0 320 0;
#X connect 242 0 243 0;
#X connect 243 0 241 0;
#X connect 244 0 245 0;
#X connect 245 0 246 0;
#X connect 246 0 242 0;
#X connect 247 0 251 1;
#X connect 248 0 247 0;
#X connect 249 0 250 0;
#X connect 250 0 248 0;
#X connect 251 0 17 1;
#X connect 253 0 321 0;
#X connect 255 0 324 0;
#X connect 256 0 324 0;
#X connect 257 0 322 0;
#X connect 257 0 239 0;
#X connect 257 1 239 1;
#X connect 258 0 277 0;
#X connect 262 0 270 0;
#X connect 262 0 261 0;
#X connect 265 0 255 0;
#X connect 266 0 260 0;
#X connect 267 0 266 0;
#X connect 267 1 266 1;
#X connect 268 0 267 0;
#X connect 269 0 268 0;
#X connect 270 0 271 0;
#X connect 271 0 274 0;
#X connect 272 0 258 2;
#X connect 273 0 272 1;
#X connect 274 0 273 0;
#X connect 275 0 276 0;
#X connect 276 0 279 0;
#X connect 277 0 198 1;
#X connect 278 0 277 1;
#X connect 279 0 278 0;
#X connect 280 0 275 0;
#X connect 280 0 318 0;
#X connect 283 0 284 0;
#X connect 284 0 285 0;
#X connect 285 0 286 0;
#X connect 286 0 287 0;
#X connect 287 0 288 0;
#X connect 288 0 294 0;
#X connect 289 0 295 0;
#X connect 290 0 298 0;
#X connect 291 0 302 0;
#X connect 292 0 291 1;
#X connect 293 0 291 0;
#X connect 294 0 295 0;
#X connect 294 1 295 1;
#X connect 295 0 290 0;
#X connect 296 0 300 0;
#X connect 297 0 232 0;
#X connect 298 0 299 0;
#X connect 299 0 293 0;
#X connect 300 0 298 1;
#X connect 301 0 300 0;
#X connect 302 0 303 0;
#X connect 303 0 305 0;
#X connect 304 0 303 1;
#X connect 305 0 317 0;
#X connect 306 0 305 1;
#X connect 307 0 306 0;
#X connect 308 0 307 0;
#X connect 309 0 301 0;
#X connect 310 0 311 0;
#X connect 310 1 311 1;
#X connect 311 0 314 0;
#X connect 312 0 311 0;
#X connect 313 0 310 0;
#X connect 315 0 190 0;
#X connect 316 0 251 0;
#X connect 320 0 257 0;
#X connect 321 0 256 0;
#X connect 321 0 323 0;
#X connect 323 0 255 0;
#X connect 324 0 254 0;
#X connect 325 0 272 0;
#X coords 0 -1 1 1 170 55 1 0 0;
