#N canvas 0 47 1056 1153 10;
#X obj 212 996 dac~ 3;
#X text 314 547 monitor out;
#X text 213 1026 main out;
#X obj 102 622 r volume1;
#X obj 317 624 r volume3;
#X obj 432 624 r volume4;
#X obj 102 665 pack 0 5;
#X obj 102 686 line~;
#X obj 214 665 pack 0 5;
#X obj 214 686 line~;
#X obj 317 665 pack 0 5;
#X obj 317 686 line~;
#X obj 432 665 pack 0 5;
#X obj 432 686 line~;
#X obj 414 714 *~;
#X obj 299 714 *~;
#X obj 84 712 *~;
#X obj 432 645 / 255;
#X obj 317 645 / 255;
#X obj 214 645 / 255;
#X obj 152 788 +~;
#X obj 252 822 +~, f 8;
#X obj 102 643 / 255;
#X obj 347 786 +~;
#X obj 413 240 inlet~;
#X obj 300 240 inlet~;
#X obj 197 240 inlet~;
#X obj 196 714 *~;
#X obj 85 240 inlet~;
#X obj 94 276 s~ renderCH1;
#X obj 451 305 r Que4;
#X obj 451 349 line~;
#X obj 434 378 *~;
#X obj 311 155 s Que4;
#X obj 132 155 s Que1;
#X obj 191 155 s Que2;
#X obj 252 155 s Que3;
#X msg 233 93 1;
#X obj 235 57 loadbang;
#X obj 336 349 line~;
#X obj 319 378 *~;
#X obj 336 305 r Que3;
#X obj 231 349 line~;
#X obj 214 378 *~;
#X obj 116 349 line~;
#X obj 99 378 *~;
#X obj 116 304 r Que1;
#X obj 231 305 r Que2;
#X obj 230 477 +~;
#X obj 282 479 +~;
#X obj 116 327 pack 0 10;
#X obj 231 327 pack 0 10;
#X obj 336 327 pack 0 10;
#X obj 451 327 pack 0 10;
#X obj 313 521 line~;
#X obj 313 499 pack 0 10;
#X obj 313 447 r volumeMonitor;
#X obj 313 478 / 255;
#X obj 431 155 s volumeMonitor;
#X obj 505 57 loadbang;
#X obj 551 155 s volumeMain;
#X obj 265 512 +~;
#X obj 282 550 *~;
#X obj 250 577 dac~ 1;
#X obj 306 578 dac~ 2;
#X obj 269 915 line~;
#X obj 269 893 pack 0 10;
#X obj 269 872 / 255;
#X obj 251 936 *~;
#X obj 269 851 r volumeMain;
#X obj 644 606 dbtorms;
#X obj 738 606 dbtorms;
#X obj 833 606 dbtorms;
#X obj 934 606 dbtorms;
#X obj 644 652 int;
#X obj 738 652 int;
#X obj 833 652 int;
#X obj 934 658 int;
#X obj 643 552 r~ renderCH1;
#X obj 738 552 r~ renderCH2;
#X obj 833 553 r~ renderCH3;
#X obj 934 552 r~ renderCH4;
#X obj 703 731 r midiClock;
#X obj 680 951 send cppLoopIndexer;
#X obj 833 582 env~ 128;
#X obj 935 581 env~ 128;
#X obj 645 679 max;
#X msg 675 651 0;
#X obj 642 583 env~ 128;
#X obj 646 703 f;
#X obj 738 584 env~ 128;
#X obj 645 679 max;
#X obj 646 703 f;
#X obj 735 679 max;
#X obj 736 703 f;
#X obj 835 679 max;
#X obj 836 703 f;
#X obj 835 679 max;
#X obj 836 703 f;
#X obj 935 682 max;
#X obj 936 706 f;
#X msg 775 651 0;
#X msg 865 651 0;
#X msg 965 651 0;
#X obj 696 151 s volume1;
#X obj 776 151 s volume2;
#X obj 856 151 s volume3;
#X obj 937 151 s volume4;
#X obj 732 78 loadbang;
#X obj 204 276 s~ renderCH2;
#X obj 314 276 s~ renderCH3;
#X obj 445 276 s~ renderCH4;
#X obj 214 624 r volume2;
#X obj 866 816 tabread L1-pitchbuf;
#X obj 680 928 pack 0 0 0 0 0 0 0 0 0;
#X obj 866 846 tabread L2-pitchbuf;
#X obj 866 877 tabread L3-pitchbuf;
#X obj 866 906 tabread L4-pitchbuf;
#X obj 703 757 t b f f;
#X floatatom 933 973 0 0 0 0 - - -;
#X obj 644 628 * 40;
#X obj 739 628 * 40;
#X obj 832 628 * 40;
#X obj 937 631 * 40;
#X obj 83 743 *~ 0.5;
#X obj 195 740 *~ 0.5;
#X obj 300 740 *~ 0.5;
#X obj 415 738 *~ 0.5;
#X msg 696 129 0;
#X msg 776 129 0;
#X msg 856 130 0;
#X msg 936 129 0;
#X obj 272 996 dac~ 4;
#X msg 503 93 0;
#X obj 435 399 *~ 1;
#X obj 320 401 *~ 1;
#X obj 216 401 *~ 1;
#X obj 103 402 *~ 1;
#X connect 3 0 22 0;
#X connect 4 0 18 0;
#X connect 5 0 17 0;
#X connect 6 0 7 0;
#X connect 7 0 16 1;
#X connect 8 0 9 0;
#X connect 9 0 27 1;
#X connect 10 0 11 0;
#X connect 11 0 15 1;
#X connect 12 0 13 0;
#X connect 13 0 14 1;
#X connect 14 0 127 0;
#X connect 15 0 126 0;
#X connect 16 0 124 0;
#X connect 17 0 12 0;
#X connect 18 0 10 0;
#X connect 19 0 8 0;
#X connect 20 0 21 0;
#X connect 21 0 68 0;
#X connect 22 0 6 0;
#X connect 23 0 21 1;
#X connect 24 0 14 0;
#X connect 24 0 32 0;
#X connect 24 0 111 0;
#X connect 25 0 15 0;
#X connect 25 0 40 0;
#X connect 25 0 110 0;
#X connect 26 0 27 0;
#X connect 26 0 43 0;
#X connect 26 0 109 0;
#X connect 27 0 125 0;
#X connect 28 0 16 0;
#X connect 28 0 29 0;
#X connect 28 0 45 0;
#X connect 30 0 53 0;
#X connect 31 0 32 1;
#X connect 32 0 134 0;
#X connect 37 0 34 0;
#X connect 37 0 35 0;
#X connect 37 0 36 0;
#X connect 37 0 33 0;
#X connect 38 0 37 0;
#X connect 39 0 40 1;
#X connect 40 0 135 0;
#X connect 41 0 52 0;
#X connect 42 0 43 1;
#X connect 43 0 136 0;
#X connect 44 0 45 1;
#X connect 45 0 137 0;
#X connect 46 0 50 0;
#X connect 47 0 51 0;
#X connect 48 0 61 0;
#X connect 49 0 61 1;
#X connect 50 0 44 0;
#X connect 51 0 42 0;
#X connect 52 0 39 0;
#X connect 53 0 31 0;
#X connect 54 0 62 1;
#X connect 55 0 54 0;
#X connect 56 0 57 0;
#X connect 57 0 55 0;
#X connect 59 0 133 0;
#X connect 61 0 62 0;
#X connect 62 0 63 0;
#X connect 62 0 64 0;
#X connect 65 0 68 1;
#X connect 66 0 65 0;
#X connect 67 0 66 0;
#X connect 68 0 132 0;
#X connect 68 0 0 0;
#X connect 69 0 67 0;
#X connect 70 0 120 0;
#X connect 71 0 121 0;
#X connect 72 0 122 0;
#X connect 73 0 123 0;
#X connect 74 0 86 0;
#X connect 75 0 93 0;
#X connect 76 0 95 0;
#X connect 77 0 99 0;
#X connect 78 0 88 0;
#X connect 79 0 90 0;
#X connect 80 0 84 0;
#X connect 81 0 85 0;
#X connect 82 0 118 0;
#X connect 84 0 72 0;
#X connect 85 0 73 0;
#X connect 86 0 89 0;
#X connect 87 0 86 1;
#X connect 87 0 101 0;
#X connect 88 0 70 0;
#X connect 89 0 86 1;
#X connect 89 0 114 1;
#X connect 90 0 71 0;
#X connect 91 0 92 0;
#X connect 92 0 91 1;
#X connect 93 0 94 0;
#X connect 94 0 93 1;
#X connect 94 0 114 2;
#X connect 95 0 96 0;
#X connect 96 0 95 1;
#X connect 96 0 114 3;
#X connect 97 0 98 0;
#X connect 98 0 97 1;
#X connect 99 0 100 0;
#X connect 100 0 99 1;
#X connect 100 0 114 4;
#X connect 101 0 93 1;
#X connect 101 0 102 0;
#X connect 102 0 95 1;
#X connect 102 0 103 0;
#X connect 103 0 99 1;
#X connect 108 0 128 0;
#X connect 108 0 129 0;
#X connect 108 0 130 0;
#X connect 108 0 131 0;
#X connect 112 0 19 0;
#X connect 113 0 114 5;
#X connect 114 0 83 0;
#X connect 115 0 114 6;
#X connect 116 0 114 7;
#X connect 117 0 114 8;
#X connect 117 0 119 0;
#X connect 118 0 87 0;
#X connect 118 1 114 0;
#X connect 118 2 113 0;
#X connect 118 2 115 0;
#X connect 118 2 116 0;
#X connect 118 2 117 0;
#X connect 120 0 74 0;
#X connect 121 0 75 0;
#X connect 122 0 76 0;
#X connect 123 0 77 0;
#X connect 124 0 20 0;
#X connect 125 0 20 1;
#X connect 126 0 23 0;
#X connect 127 0 23 1;
#X connect 128 0 104 0;
#X connect 129 0 105 0;
#X connect 130 0 106 0;
#X connect 131 0 107 0;
#X connect 133 0 60 0;
#X connect 133 0 58 0;
#X connect 134 0 49 1;
#X connect 135 0 49 0;
#X connect 136 0 48 1;
#X connect 137 0 48 0;
