#N canvas 0 47 1056 1153 10;
#X floatatom 29 97 0 0 0 0 - - -;
#X obj 95 540 *~;
#X obj 276 219 line~;
#X floatatom 276 136 0 0 0 0 - - -;
#X text 302 17 PITCH SHIFTER;
#X obj 276 193 pack 0 200;
#X obj 29 153 exp;
#X floatatom 29 179 6 0 0 0 - - -, f 6;
#X obj 29 269 /;
#X obj 156 199 * 0.001;
#X obj 32 592 cos~;
#X obj 32 619 *~;
#X obj 31 727 +~;
#X obj 186 531 wrap~;
#X obj 249 561 *~;
#X obj 186 621 cos~;
#X obj 186 650 *~;
#X obj 276 73 loadbang;
#X obj 156 222 t b f;
#X floatatom 29 295 6 0 0 0 - - -, f 6;
#X obj 32 540 -~ 0.5;
#X obj 186 560 -~ 0.5;
#X obj 29 206 - 1;
#X obj 29 232 * -1;
#X text 63 96 <-- transposition;
#X text 106 109 (halftones);
#X text 92 173 speed;
#X text 91 187 change;
#X text 320 135 <--window (msec);
#X text 64 262 tape head;
#X obj 29 326 phasor~;
#X obj 276 163 max 1;
#X text 65 275 rotation freq;
#X obj 248 597 vd~ \$0-del;
#X obj 29 40 delwrite~ \$0-del 5000;
#X obj 95 592 vd~ \$0-del;
#X obj 29 18 inlet~;
#X obj 247 22 inlet;
#X obj 33 783 outlet~;
#X text 6 904 from Pd's help browser \, audio examples G09.pitchshift.pd
;
#X obj 32 500 +~ 0;
#X obj 29 126 * 0.057763;
#X floatatom 181 286 5 0 0 0 - - -, f 5;
#X obj 186 504 +~ 0.5;
#X obj 186 593 *~ 0.5;
#X obj 32 566 *~ 0.5;
#X msg 276 110 50;
#X connect 0 0 41 0;
#X connect 1 0 35 0;
#X connect 2 0 1 1;
#X connect 2 0 14 1;
#X connect 3 0 31 0;
#X connect 5 0 2 0;
#X connect 6 0 7 0;
#X connect 7 0 22 0;
#X connect 8 0 19 0;
#X connect 9 0 18 0;
#X connect 10 0 11 0;
#X connect 11 0 12 0;
#X connect 12 0 38 0;
#X connect 13 0 14 0;
#X connect 13 0 21 0;
#X connect 14 0 33 0;
#X connect 15 0 16 0;
#X connect 16 0 12 1;
#X connect 17 0 46 0;
#X connect 18 0 8 0;
#X connect 18 1 8 1;
#X connect 18 1 42 0;
#X connect 19 0 30 0;
#X connect 20 0 45 0;
#X connect 21 0 44 0;
#X connect 22 0 23 0;
#X connect 23 0 8 0;
#X connect 30 0 40 0;
#X connect 30 0 43 0;
#X connect 31 0 9 0;
#X connect 31 0 5 0;
#X connect 33 0 16 1;
#X connect 35 0 11 1;
#X connect 36 0 34 0;
#X connect 37 0 7 0;
#X connect 40 0 1 0;
#X connect 40 0 20 0;
#X connect 41 0 6 0;
#X connect 43 0 13 0;
#X connect 44 0 15 0;
#X connect 45 0 10 0;
#X connect 46 0 3 0;
