#N canvas 0 47 1056 1153 10;
#X obj 86 168 abs~;
#X obj 19 171 *~ -2;
#X obj 21 197 +~ 1;
#X obj 31 230 *~;
#X obj 85 137 *~ 0.6;
#X obj 85 236 cos~;
#X obj 85 195 /~ 3.14;
#X obj 85 214 +~ 0.25;
#N canvas 0 50 466 316 rh_scalelog 0;
#X obj 20 155 exp;
#X obj 20 107 *;
#X obj 20 130 +;
#X obj 98 87 log;
#X obj 194 84 log;
#X obj 123 123 t b f;
#X obj 123 145 -;
#X obj 20 183 outlet;
#X obj 20 19 inlet;
#X obj 98 23 inlet;
#X obj 194 24 inlet;
#X connect 0 0 7 0;
#X connect 1 0 2 0;
#X connect 2 0 0 0;
#X connect 3 0 2 1;
#X connect 3 0 5 0;
#X connect 4 0 6 0;
#X connect 5 0 6 0;
#X connect 5 1 6 1;
#X connect 6 0 1 1;
#X connect 8 0 1 0;
#X connect 9 0 3 0;
#X connect 10 0 4 0;
#X restore 107 111 pd rh_scalelog;
#N canvas 0 50 745 715 rh_scalelog 0;
#X obj 20 155 exp;
#X obj 20 107 *;
#X obj 20 130 +;
#X obj 98 87 log;
#X obj 194 84 log;
#X obj 123 123 t b f;
#X obj 123 145 -;
#X obj 20 183 outlet;
#X obj 20 19 inlet;
#X obj 98 23 inlet;
#X obj 194 24 inlet;
#X connect 0 0 7 0;
#X connect 1 0 2 0;
#X connect 2 0 0 0;
#X connect 3 0 2 1;
#X connect 3 0 5 0;
#X connect 4 0 6 0;
#X connect 5 0 6 0;
#X connect 5 1 6 1;
#X connect 6 0 1 1;
#X connect 8 0 1 0;
#X connect 9 0 3 0;
#X connect 10 0 4 0;
#X restore 172 271 pd rh_scalelog;
#X msg 220 246 0.1;
#X msg 266 246 10;
#X obj 57 306 *~;
#X obj 8 145 expr~ $v1>0;
#X obj 54 110 +~;
#X floatatom 172 220 5 0 0 0 - - -, f 5;
#X msg 155 87 0.1;
#X msg 185 87 5;
#X obj 219 196 -;
#X msg 191 173 1;
#X obj 200 147 t b f;
#X obj 217 111 * 0.36;
#X msg 124 87 0;
#X obj 156 61 loadbang;
#X msg 187 246 1;
#X obj 220 217 loadbang;
#X text 141 311 bit smp;
#X obj 43 13 inlet~;
#X obj 43 352 outlet~;
#X obj 226 8 inlet;
#X floatatom 259 370 5 0 0 0 - - -, f 5;
#X floatatom 327 84 5 0 0 0 - - -, f 5;
#X obj 60 272 *~ 1;
#X connect 0 0 6 0;
#X connect 1 0 2 0;
#X connect 2 0 3 0;
#X connect 3 0 32 0;
#X connect 4 0 0 0;
#X connect 5 0 3 1;
#X connect 6 0 7 0;
#X connect 7 0 5 0;
#X connect 8 0 4 1;
#X connect 9 0 12 1;
#X connect 9 0 30 0;
#X connect 10 0 9 1;
#X connect 11 0 9 2;
#X connect 12 0 28 0;
#X connect 13 0 1 0;
#X connect 14 0 4 0;
#X connect 14 0 13 0;
#X connect 15 0 9 0;
#X connect 16 0 8 1;
#X connect 17 0 8 2;
#X connect 18 0 15 0;
#X connect 19 0 18 0;
#X connect 20 0 19 0;
#X connect 20 1 18 1;
#X connect 21 0 20 0;
#X connect 22 0 8 0;
#X connect 23 0 16 0;
#X connect 23 0 17 0;
#X connect 23 0 22 0;
#X connect 24 0 9 0;
#X connect 25 0 10 0;
#X connect 25 0 11 0;
#X connect 25 0 24 0;
#X connect 27 0 14 0;
#X connect 29 0 21 0;
#X connect 29 0 8 0;
#X connect 31 0 21 0;
#X connect 32 0 12 0;
