#N canvas 0 47 745 715 10;
#N canvas 62 200 315 389 wetdry 0;
#X obj 124 56 * -1;
#X obj 128 77 + 1;
#N canvas 0 22 462 312 rh_scalelog 0;
#X obj 20 155 exp;
#X obj 20 107 *;
#X obj 20 130 +;
#X obj 98 87 log;
#X obj 194 84 log;
#X obj 123 123 t b f;
#X obj 123 145 -;
#X obj 20 183 outlet;
#X obj 20 19 inlet;
#X obj 98 23 inlet;
#X obj 194 24 inlet;
#X connect 0 0 7 0;
#X connect 1 0 2 0;
#X connect 2 0 0 0;
#X connect 3 0 2 1;
#X connect 3 0 5 0;
#X connect 4 0 6 0;
#X connect 5 0 6 0;
#X connect 5 1 6 1;
#X connect 6 0 1 1;
#X connect 8 0 1 0;
#X connect 9 0 3 0;
#X connect 10 0 4 0;
#X restore 128 99 pd rh_scalelog;
#X msg 157 78 0.5;
#X msg 198 75 1.5;
#X obj 141 121 t b f;
#X msg 131 144 1.5;
#X obj 144 170 -;
#N canvas 0 22 462 312 rh_scalelog 0;
#X obj 20 155 exp;
#X obj 20 107 *;
#X obj 20 130 +;
#X obj 98 87 log;
#X obj 194 84 log;
#X obj 123 123 t b f;
#X obj 123 145 -;
#X obj 20 183 outlet;
#X obj 20 19 inlet;
#X obj 98 23 inlet;
#X obj 194 24 inlet;
#X connect 0 0 7 0;
#X connect 1 0 2 0;
#X connect 2 0 0 0;
#X connect 3 0 2 1;
#X connect 3 0 5 0;
#X connect 4 0 6 0;
#X connect 5 0 6 0;
#X connect 5 1 6 1;
#X connect 6 0 1 1;
#X connect 8 0 1 0;
#X connect 9 0 3 0;
#X connect 10 0 4 0;
#X restore 18 99 pd rh_scalelog;
#X msg 47 78 0.5;
#X msg 88 75 1.5;
#X obj 31 121 t b f;
#X msg 21 144 1.5;
#X obj 34 170 -;
#X obj 109 29 loadbang;
#X obj 52 23 inlet;
#X obj 130 191 pack 0 10;
#X obj 136 213 line~;
#X obj 20 191 pack 0 10;
#X obj 26 213 line~;
#X obj 154 287 outlet~;
#X obj 41 287 outlet~;
#X obj 216 31 inlet~;
#X obj 162 253 *~;
#X obj 49 254 *~;
#X msg 17 77 0;
#X msg 161 56 1;
#X connect 0 0 1 0;
#X connect 1 0 2 0;
#X connect 2 0 5 0;
#X connect 3 0 2 1;
#X connect 4 0 2 2;
#X connect 5 0 6 0;
#X connect 5 1 7 1;
#X connect 6 0 7 0;
#X connect 7 0 16 0;
#X connect 8 0 11 0;
#X connect 9 0 8 1;
#X connect 10 0 8 2;
#X connect 11 0 12 0;
#X connect 11 1 13 1;
#X connect 12 0 13 0;
#X connect 13 0 18 0;
#X connect 14 0 3 0;
#X connect 14 0 4 0;
#X connect 14 0 10 0;
#X connect 14 0 9 0;
#X connect 14 0 26 0;
#X connect 14 0 25 0;
#X connect 15 0 0 0;
#X connect 15 0 8 0;
#X connect 16 0 17 0;
#X connect 17 0 23 0;
#X connect 18 0 19 0;
#X connect 19 0 24 0;
#X connect 22 0 23 1;
#X connect 22 0 24 1;
#X connect 23 0 20 0;
#X connect 24 0 21 0;
#X connect 25 0 8 0;
#X connect 26 0 2 0;
#X restore 162 208 pd wetdry;
#X obj 164 429 +~;
#N canvas 0 22 458 308 rh_scalelog 0;
#X obj 20 155 exp;
#X obj 20 107 *;
#X obj 20 130 +;
#X obj 98 87 log;
#X obj 194 84 log;
#X obj 123 123 t b f;
#X obj 123 145 -;
#X obj 20 183 outlet;
#X obj 20 19 inlet;
#X obj 98 23 inlet;
#X obj 194 24 inlet;
#X connect 0 0 7 0;
#X connect 1 0 2 0;
#X connect 2 0 0 0;
#X connect 3 0 2 1;
#X connect 3 0 5 0;
#X connect 4 0 6 0;
#X connect 5 0 6 0;
#X connect 5 1 6 1;
#X connect 6 0 1 1;
#X connect 8 0 1 0;
#X connect 9 0 3 0;
#X connect 10 0 4 0;
#X restore 538 254 pd rh_scalelog;
#X obj 254 330 *~;
#X obj 217 386 *~ 1;
#X obj 243 302 vd~ \$0-fbbb 100;
#X msg 244 256 \$1 20;
#X obj 245 280 line~;
#X msg 253 386 1;
#X obj 215 279 +~;
#X obj 548 202 loadbang;
#X text 321 237 feedb;
#X text 551 153 time;
#X obj 284 330 * 0.98;
#X obj 428 632 s \$0-damping;
#X obj 324 611 * 0.28;
#X obj 325 634 + 0.7;
#X obj 325 655 s \$0-feedback;
#X obj 323 518 - 1;
#X obj 324 562 - 1;
#X obj 325 583 abs;
#X obj 429 611 * 44100;
#X obj 430 588 expr pow($f1 \, 4);
#X obj 435 541 * 0.9;
#X obj 434 565 + 0.1;
#X obj 323 540 expr pow($f1 \, 2);
#N canvas 0 125 784 590 verbRIGHT 0;
#N canvas 0 22 510 360 comb-1 0;
#X obj 220 172 r \$0-damping;
#X obj 158 206 lop~ 20000;
#X obj 158 229 *~ 0.5;
#X obj 76 97 inlet~;
#X obj 71 294 outlet~;
#X obj 237 207 r \$0-feedback;
#X obj 159 120 delread~ \$0-rev1a 25.3061;
#X obj 157 268 delwrite~ \$0-rev1a 30;
#X connect 0 0 1 1;
#X connect 1 0 2 0;
#X connect 2 0 4 0;
#X connect 2 0 7 0;
#X connect 3 0 7 0;
#X connect 5 0 2 1;
#X connect 6 0 1 0;
#X restore 235 246 pd comb-1;
#N canvas 549 236 506 356 comb-2 0;
#X obj 236 93 r \$0-damping;
#X obj 174 127 lop~ 20000;
#X obj 174 150 *~ 0.5;
#X obj 90 36 inlet~;
#X obj 88 231 outlet~;
#X obj 253 128 r \$0-feedback;
#X obj 169 63 delread~ \$0-rev2a 26.9388;
#X obj 170 201 delwrite~ \$0-rev2a 30;
#X connect 0 0 1 1;
#X connect 1 0 2 0;
#X connect 2 0 4 0;
#X connect 2 0 7 0;
#X connect 3 0 7 0;
#X connect 5 0 2 1;
#X connect 6 0 1 0;
#X restore 297 246 pd comb-2;
#N canvas 400 75 494 344 comb-3 0;
#X obj 203 102 r \$0-damping;
#X obj 141 136 lop~ 20000;
#X obj 139 165 *~ 0.5;
#X obj 57 43 inlet~;
#X obj 57 248 outlet~;
#X obj 220 137 r \$0-feedback;
#X obj 116 68 delread~ \$0-rev3a 28.9569;
#X obj 136 210 delwrite~ \$0-rev3a 32;
#X connect 0 0 1 1;
#X connect 1 0 2 0;
#X connect 2 0 4 0;
#X connect 2 0 7 0;
#X connect 3 0 7 0;
#X connect 5 0 2 1;
#X connect 6 0 1 0;
#X restore 358 246 pd comb-3;
#N canvas 746 118 498 348 comb-4 0;
#X obj 244 103 r \$0-damping;
#X obj 182 137 lop~ 20000;
#X obj 182 160 *~ 0.5;
#X obj 90 36 inlet~;
#X obj 88 231 outlet~;
#X obj 261 138 r \$0-feedback;
#X obj 175 73 delread~ \$0-rev4a 30.7483;
#X obj 171 206 delwrite~ \$0-rev4a 34;
#X connect 0 0 1 1;
#X connect 1 0 2 0;
#X connect 2 0 4 0;
#X connect 2 0 7 0;
#X connect 3 0 7 0;
#X connect 5 0 2 1;
#X connect 6 0 1 0;
#X restore 420 246 pd comb-4;
#N canvas 798 59 486 336 comb-5 0;
#X obj 196 95 r \$0-damping;
#X obj 134 129 lop~ 20000;
#X obj 134 152 *~ 0.5;
#X obj 90 36 inlet~;
#X obj 88 231 outlet~;
#X obj 213 130 r \$0-feedback;
#X obj 135 61 delread~ \$0-rev5a 34.2449;
#X obj 132 204 delwrite~ \$0-rev5a 37;
#X connect 0 0 1 1;
#X connect 1 0 2 0;
#X connect 2 0 4 0;
#X connect 2 0 7 0;
#X connect 3 0 7 0;
#X connect 5 0 2 1;
#X connect 6 0 1 0;
#X restore 482 246 pd comb-5;
#N canvas 702 107 482 332 comb-6 0;
#X obj 238 87 r \$0-damping;
#X obj 176 121 lop~ 20000;
#X obj 176 144 *~ 0.5;
#X obj 90 36 inlet~;
#X obj 88 231 outlet~;
#X obj 255 122 r \$0-feedback;
#X obj 238 53 delread~ \$0-rev6a 33.8095;
#X obj 178 197 delwrite~ \$0-rev6a 38;
#X connect 0 0 1 1;
#X connect 1 0 2 0;
#X connect 2 0 4 0;
#X connect 2 0 7 0;
#X connect 3 0 7 0;
#X connect 5 0 2 1;
#X connect 6 0 1 0;
#X restore 544 246 pd comb-6;
#N canvas 742 153 482 332 comb-7 0;
#X obj 193 101 r \$0-damping;
#X obj 131 135 lop~ 20000;
#X obj 131 158 *~ 0.5;
#X obj 80 50 inlet~;
#X obj 88 231 outlet~;
#X obj 210 136 r \$0-feedback;
#X obj 193 68 delread~ \$0-rev7a 35.7596;
#X obj 129 207 delwrite~ \$0-rev7a 38;
#X connect 0 0 1 1;
#X connect 1 0 2 0;
#X connect 2 0 4 0;
#X connect 2 0 7 0;
#X connect 3 0 7 0;
#X connect 5 0 2 1;
#X connect 6 0 1 0;
#X restore 605 246 pd comb-7;
#N canvas 731 107 486 336 comb-8 0;
#X obj 202 100 r \$0-damping;
#X obj 140 134 lop~ 20000;
#X obj 140 157 *~ 0.5;
#X obj 90 36 inlet~;
#X obj 88 231 outlet~;
#X obj 219 135 r \$0-feedback;
#X obj 204 67 delread~ \$0-rev8a 36.6667;
#X obj 140 205 delwrite~ \$0-rev8a 40;
#X connect 0 0 1 1;
#X connect 1 0 2 0;
#X connect 2 0 4 0;
#X connect 2 0 7 0;
#X connect 3 0 7 0;
#X connect 5 0 2 1;
#X connect 6 0 1 0;
#X restore 667 246 pd comb-8;
#N canvas 0 22 640 554 allpass-1 0;
#X obj 186 65 inlet~;
#X obj 245 422 *~ 0.5;
#X obj 175 490 outlet~;
#X obj 168 391 *~ -1;
#X obj 213 389 delread~ \$0-fbcf-1a 12.6077;
#X obj 215 341 r \$0-width;
#X obj 216 362 + 12.6077;
#X obj 437 474 delwrite~ \$0-fbcf-1a 15;
#X connect 0 0 3 0;
#X connect 0 0 7 0;
#X connect 1 0 7 0;
#X connect 3 0 2 0;
#X connect 4 0 1 0;
#X connect 4 0 2 0;
#X connect 5 0 6 0;
#X connect 6 0 4 0;
#X restore 240 381 pd allpass-1;
#N canvas 0 22 652 566 allpass-2 0;
#X obj 186 65 inlet~;
#X obj 245 422 *~ 0.5;
#X obj 175 490 outlet~;
#X obj 168 391 *~ -1;
#X obj 214 389 delread~ \$0-fbcf-2a 10;
#X obj 217 339 r \$0-width;
#X obj 217 361 + 10;
#X obj 439 474 delwrite~ \$0-fbcf-2a 12;
#X connect 0 0 3 0;
#X connect 0 0 7 0;
#X connect 1 0 7 0;
#X connect 3 0 2 0;
#X connect 4 0 1 0;
#X connect 4 0 2 0;
#X connect 5 0 6 0;
#X connect 6 0 4 0;
#X restore 240 401 pd allpass-2;
#N canvas 0 22 656 570 allpass-3 0;
#X obj 186 65 inlet~;
#X obj 245 422 *~ 0.5;
#X obj 175 490 outlet~;
#X obj 168 391 *~ -1;
#X obj 213 389 delread~ \$0-fbcf-3a 7.77324;
#X obj 214 344 r \$0-width;
#X obj 214 366 + 7.77324;
#X obj 438 473 delwrite~ \$0-fbcf-3a 9;
#X connect 0 0 3 0;
#X connect 0 0 7 0;
#X connect 1 0 7 0;
#X connect 3 0 2 0;
#X connect 4 0 1 0;
#X connect 4 0 2 0;
#X connect 5 0 6 0;
#X connect 6 0 4 0;
#X restore 239 422 pd allpass-3;
#N canvas 0 22 644 558 allpass-4 0;
#X obj 186 65 inlet~;
#X obj 245 422 *~ 0.5;
#X obj 175 490 outlet~;
#X obj 168 391 *~ -1;
#X obj 214 389 delread~ \$0-fbcf-4a 5.10204;
#X obj 212 338 r \$0-width;
#X obj 211 360 + 5.10204;
#X obj 437 474 delwrite~ \$0-fbcf-4a 7;
#X connect 0 0 3 0;
#X connect 0 0 7 0;
#X connect 1 0 7 0;
#X connect 3 0 2 0;
#X connect 4 0 1 0;
#X connect 4 0 2 0;
#X connect 5 0 6 0;
#X connect 6 0 4 0;
#X restore 241 443 pd allpass-4;
#X obj 233 147 *~ 0.05;
#X obj 254 534 outlet~;
#X obj 226 -7 inlet~;
#X obj 241 358 *~ 0.25;
#X connect 0 0 15 0;
#X connect 1 0 15 0;
#X connect 2 0 15 0;
#X connect 3 0 15 0;
#X connect 4 0 15 0;
#X connect 5 0 15 0;
#X connect 6 0 15 0;
#X connect 7 0 15 0;
#X connect 8 0 9 0;
#X connect 9 0 10 0;
#X connect 10 0 11 0;
#X connect 11 0 13 0;
#X connect 12 0 0 0;
#X connect 12 0 1 0;
#X connect 12 0 2 0;
#X connect 12 0 3 0;
#X connect 12 0 4 0;
#X connect 12 0 5 0;
#X connect 12 0 6 0;
#X connect 12 0 7 0;
#X connect 14 0 12 0;
#X connect 15 0 8 0;
#X restore 197 577 pd verbRIGHT;
#N canvas 12 122 838 538 verbLEFT 0;
#N canvas 0 22 522 372 comb-1 0;
#X obj 216 112 r \$0-damping;
#X obj 152 208 delwrite~ \$0-rev1 26;
#X obj 154 146 lop~ 20000;
#X obj 154 169 *~ 0.5;
#X obj 155 61 delread~ \$0-rev1 25.3061;
#X obj 72 37 inlet~;
#X obj 67 234 outlet~;
#X obj 233 147 r \$0-feedback;
#X connect 0 0 2 1;
#X connect 2 0 3 0;
#X connect 3 0 1 0;
#X connect 3 0 6 0;
#X connect 4 0 2 0;
#X connect 5 0 1 0;
#X connect 7 0 3 1;
#X restore 236 189 pd comb-1;
#N canvas 549 236 494 344 comb-2 0;
#X obj 236 93 r \$0-damping;
#X obj 174 127 lop~ 20000;
#X obj 174 150 *~ 0.5;
#X obj 90 36 inlet~;
#X obj 88 231 outlet~;
#X obj 253 128 r \$0-feedback;
#X obj 169 63 delread~ \$0-rev2 26.9388;
#X obj 171 202 delwrite~ \$0-rev2 27;
#X connect 0 0 1 1;
#X connect 1 0 2 0;
#X connect 2 0 7 0;
#X connect 2 0 4 0;
#X connect 3 0 7 0;
#X connect 5 0 2 1;
#X connect 6 0 1 0;
#X restore 298 189 pd comb-2;
#N canvas 400 75 490 340 comb-3 0;
#X obj 203 102 r \$0-damping;
#X obj 141 136 lop~ 20000;
#X obj 139 165 *~ 0.5;
#X obj 57 43 inlet~;
#X obj 57 248 outlet~;
#X obj 220 137 r \$0-feedback;
#X obj 117 67 delread~ \$0-rev3 28.9569;
#X obj 137 210 delwrite~ \$0-rev3 29;
#X connect 0 0 1 1;
#X connect 1 0 2 0;
#X connect 2 0 7 0;
#X connect 2 0 4 0;
#X connect 3 0 7 0;
#X connect 5 0 2 1;
#X connect 6 0 1 0;
#X restore 359 189 pd comb-3;
#N canvas 746 118 494 344 comb-4 0;
#X obj 244 103 r \$0-damping;
#X obj 182 137 lop~ 20000;
#X obj 182 160 *~ 0.5;
#X obj 90 36 inlet~;
#X obj 88 231 outlet~;
#X obj 261 138 r \$0-feedback;
#X obj 175 73 delread~ \$0-rev4 30.7483;
#X obj 171 206 delwrite~ \$0-rev4 31;
#X connect 0 0 1 1;
#X connect 1 0 2 0;
#X connect 2 0 7 0;
#X connect 2 0 4 0;
#X connect 3 0 7 0;
#X connect 5 0 2 1;
#X connect 6 0 1 0;
#X restore 421 189 pd comb-4;
#N canvas 805 59 474 324 comb-5 0;
#X obj 196 95 r \$0-damping;
#X obj 134 129 lop~ 20000;
#X obj 134 152 *~ 0.5;
#X obj 90 36 inlet~;
#X obj 88 231 outlet~;
#X obj 213 130 r \$0-feedback;
#X obj 135 61 delread~ \$0-rev5 34.2449;
#X obj 132 203 delwrite~ \$0-rev5 35;
#X connect 0 0 1 1;
#X connect 1 0 2 0;
#X connect 2 0 7 0;
#X connect 2 0 4 0;
#X connect 3 0 7 0;
#X connect 5 0 2 1;
#X connect 6 0 1 0;
#X restore 483 189 pd comb-5;
#N canvas 702 107 474 324 comb-6 0;
#X obj 238 87 r \$0-damping;
#X obj 176 121 lop~ 20000;
#X obj 176 144 *~ 0.5;
#X obj 90 36 inlet~;
#X obj 88 231 outlet~;
#X obj 255 122 r \$0-feedback;
#X obj 238 54 delread~ \$0-rev6 33.8095;
#X obj 177 197 delwrite~ \$0-rev6 34;
#X connect 0 0 1 1;
#X connect 1 0 2 0;
#X connect 2 0 4 0;
#X connect 2 0 7 0;
#X connect 3 0 7 0;
#X connect 5 0 2 1;
#X connect 6 0 1 0;
#X restore 545 189 pd comb-6;
#N canvas 742 153 474 324 comb-7 0;
#X obj 193 101 r \$0-damping;
#X obj 131 135 lop~ 20000;
#X obj 131 158 *~ 0.5;
#X obj 80 50 inlet~;
#X obj 88 231 outlet~;
#X obj 210 136 r \$0-feedback;
#X obj 194 70 delread~ \$0-rev7 35.7596;
#X obj 129 207 delwrite~ \$0-rev7 36;
#X connect 0 0 1 1;
#X connect 1 0 2 0;
#X connect 2 0 4 0;
#X connect 2 0 7 0;
#X connect 3 0 7 0;
#X connect 5 0 2 1;
#X connect 6 0 1 0;
#X restore 606 189 pd comb-7;
#N canvas 261 195 478 328 comb-8 0;
#X obj 202 100 r \$0-damping;
#X obj 140 134 lop~ 20000;
#X obj 140 157 *~ 0.5;
#X obj 90 36 inlet~;
#X obj 88 231 outlet~;
#X obj 219 135 r \$0-feedback;
#X obj 204 67 delread~ \$0-rev8 36.6667;
#X obj 140 205 delwrite~ \$0-rev8 26;
#X connect 0 0 1 1;
#X connect 1 0 2 0;
#X connect 2 0 4 0;
#X connect 2 0 7 0;
#X connect 3 0 7 0;
#X connect 5 0 2 1;
#X connect 6 0 1 0;
#X restore 668 189 pd comb-8;
#N canvas 588 127 648 562 allpass-1 0;
#X obj 186 65 inlet~;
#X obj 245 422 *~ 0.5;
#X obj 213 389 delread~ \$0-fbcf-1 12.6077;
#X obj 175 490 outlet~;
#X obj 437 474 delwrite~ \$0-fbcf-1 13;
#X obj 168 391 *~ -1;
#X connect 0 0 5 0;
#X connect 0 0 4 0;
#X connect 1 0 4 0;
#X connect 2 0 1 0;
#X connect 2 0 3 0;
#X connect 5 0 3 0;
#X restore 241 319 pd allpass-1;
#N canvas 0 22 640 554 allpass-2 0;
#X obj 186 65 inlet~;
#X obj 245 422 *~ 0.5;
#X obj 175 490 outlet~;
#X obj 168 391 *~ -1;
#X obj 213 389 delread~ \$0-fbcf-2 10;
#X obj 439 474 delwrite~ \$0-fbcf-2 11;
#X connect 0 0 3 0;
#X connect 0 0 5 0;
#X connect 1 0 5 0;
#X connect 3 0 2 0;
#X connect 4 0 1 0;
#X connect 4 0 2 0;
#X restore 241 339 pd allpass-2;
#N canvas 0 22 644 558 allpass-3 0;
#X obj 186 65 inlet~;
#X obj 245 422 *~ 0.5;
#X obj 175 490 outlet~;
#X obj 168 391 *~ -1;
#X obj 213 389 delread~ \$0-fbcf-3 7.77324;
#X obj 437 474 delwrite~ \$0-fbcf-3 8;
#X connect 0 0 3 0;
#X connect 0 0 5 0;
#X connect 1 0 5 0;
#X connect 3 0 2 0;
#X connect 4 0 1 0;
#X connect 4 0 2 0;
#X restore 240 360 pd allpass-3;
#N canvas 0 22 636 550 allpass-4 0;
#X obj 186 65 inlet~;
#X obj 245 422 *~ 0.5;
#X obj 175 490 outlet~;
#X obj 168 391 *~ -1;
#X obj 214 389 delread~ \$0-fbcf-4 5.10204;
#X obj 437 474 delwrite~ \$0-fbcf-4 6;
#X connect 0 0 3 0;
#X connect 0 0 5 0;
#X connect 1 0 5 0;
#X connect 3 0 2 0;
#X connect 4 0 1 0;
#X connect 4 0 2 0;
#X restore 242 381 pd allpass-4;
#X obj 234 90 *~ 0.05;
#X obj 244 469 outlet~;
#X obj 217 18 inlet~;
#X obj 241 299 *~ 0.25;
#X connect 0 0 15 0;
#X connect 1 0 15 0;
#X connect 2 0 15 0;
#X connect 3 0 15 0;
#X connect 4 0 15 0;
#X connect 5 0 15 0;
#X connect 6 0 15 0;
#X connect 7 0 15 0;
#X connect 8 0 9 0;
#X connect 9 0 10 0;
#X connect 10 0 11 0;
#X connect 11 0 13 0;
#X connect 12 0 0 0;
#X connect 12 0 1 0;
#X connect 12 0 2 0;
#X connect 12 0 3 0;
#X connect 12 0 4 0;
#X connect 12 0 5 0;
#X connect 12 0 6 0;
#X connect 12 0 7 0;
#X connect 14 0 12 0;
#X connect 15 0 8 0;
#X restore 113 575 pd verbLEFT;
#N canvas 53 175 315 389 wetdry 0;
#X obj 124 56 * -1;
#X obj 128 77 + 1;
#N canvas 0 22 462 312 rh_scalelog 0;
#X obj 20 155 exp;
#X obj 20 107 *;
#X obj 20 130 +;
#X obj 98 87 log;
#X obj 194 84 log;
#X obj 123 123 t b f;
#X obj 123 145 -;
#X obj 20 183 outlet;
#X obj 20 19 inlet;
#X obj 98 23 inlet;
#X obj 194 24 inlet;
#X connect 0 0 7 0;
#X connect 1 0 2 0;
#X connect 2 0 0 0;
#X connect 3 0 2 1;
#X connect 3 0 5 0;
#X connect 4 0 6 0;
#X connect 5 0 6 0;
#X connect 5 1 6 1;
#X connect 6 0 1 1;
#X connect 8 0 1 0;
#X connect 9 0 3 0;
#X connect 10 0 4 0;
#X restore 128 99 pd rh_scalelog;
#X msg 157 78 0.5;
#X msg 198 75 1.5;
#X obj 141 121 t b f;
#X msg 131 144 1.5;
#X obj 144 170 -;
#N canvas 0 22 462 312 rh_scalelog 0;
#X obj 20 155 exp;
#X obj 20 107 *;
#X obj 20 130 +;
#X obj 98 87 log;
#X obj 194 84 log;
#X obj 123 123 t b f;
#X obj 123 145 -;
#X obj 20 183 outlet;
#X obj 20 19 inlet;
#X obj 98 23 inlet;
#X obj 194 24 inlet;
#X connect 0 0 7 0;
#X connect 1 0 2 0;
#X connect 2 0 0 0;
#X connect 3 0 2 1;
#X connect 3 0 5 0;
#X connect 4 0 6 0;
#X connect 5 0 6 0;
#X connect 5 1 6 1;
#X connect 6 0 1 1;
#X connect 8 0 1 0;
#X connect 9 0 3 0;
#X connect 10 0 4 0;
#X restore 18 99 pd rh_scalelog;
#X msg 47 78 0.5;
#X msg 88 75 1.5;
#X obj 31 121 t b f;
#X msg 21 144 1.5;
#X obj 34 170 -;
#X obj 107 14 loadbang;
#X obj 52 23 inlet;
#X obj 130 191 pack 0 10;
#X obj 136 213 line~;
#X obj 20 191 pack 0 10;
#X obj 26 213 line~;
#X obj 154 287 outlet~;
#X obj 41 287 outlet~;
#X obj 216 31 inlet~;
#X obj 162 253 *~;
#X obj 49 254 *~;
#X msg 162 48 1;
#X msg 16 77 0;
#X connect 0 0 1 0;
#X connect 1 0 2 0;
#X connect 2 0 5 0;
#X connect 3 0 2 1;
#X connect 4 0 2 2;
#X connect 5 0 6 0;
#X connect 5 1 7 1;
#X connect 6 0 7 0;
#X connect 7 0 16 0;
#X connect 8 0 11 0;
#X connect 9 0 8 1;
#X connect 10 0 8 2;
#X connect 11 0 12 0;
#X connect 11 1 13 1;
#X connect 12 0 13 0;
#X connect 13 0 18 0;
#X connect 14 0 3 0;
#X connect 14 0 4 0;
#X connect 14 0 10 0;
#X connect 14 0 9 0;
#X connect 14 0 26 0;
#X connect 14 0 25 0;
#X connect 15 0 0 0;
#X connect 15 0 8 0;
#X connect 16 0 17 0;
#X connect 17 0 23 0;
#X connect 18 0 19 0;
#X connect 19 0 24 0;
#X connect 22 0 23 1;
#X connect 22 0 24 1;
#X connect 23 0 20 0;
#X connect 24 0 21 0;
#X connect 25 0 2 0;
#X connect 26 0 8 0;
#X restore 101 523 pd wetdry;
#X obj 102 622 +~;
#X obj 147 623 +~;
#X text 329 464 room;
#X text 433 474 bright;
#X obj 193 547 *~ 0.4;
#X msg 548 227 1;
#X obj 177 325 hip~ 240;
#X msg 608 204 2000;
#X obj 248 967 outlet~;
#X obj 29 969 outlet~;
#X obj 145 161 r ctl-\$1-2;
#X obj 84 483 r ctl-\$1-4;
#X obj 537 176 r ctl-\$1-6;
#X obj 305 257 r ctl-\$1-a;
#X obj 323 489 r ctl-\$1-8;
#X obj 434 500 r ctl-\$1-c;
#X obj 398 133 r looptime;
#X obj 398 177 / 96;
#X text 394 117 1 clockpuls;
#X obj 439 202 f;
#X obj 467 158 t b f;
#X obj 437 223 *;
#X obj 469 132 r ctl-\$1-e;
#X obj 504 334 spigot;
#X obj 437 253 select 0;
#X obj 515 312 f;
#X obj 537 277 t b f;
#X obj 436 305 t b f;
#X msg 436 276 1;
#X msg 473 278 0;
#X obj 376 254 loadbang;
#X obj 240 360 delwrite~ \$0-fbbb 3000;
#X obj 450 393 line 10;
#X obj 482 357 pack 0 200;
#X obj 397 155 * 1000;
#X obj 208 48 inlet~;
#X connect 0 0 1 0;
#X connect 0 1 9 0;
#X connect 1 0 28 1;
#X connect 2 0 55 0;
#X connect 3 0 60 0;
#X connect 4 0 1 1;
#X connect 5 0 3 0;
#X connect 5 0 4 0;
#X connect 6 0 7 0;
#X connect 7 0 5 0;
#X connect 8 0 4 1;
#X connect 9 0 4 0;
#X connect 9 0 35 0;
#X connect 10 0 34 0;
#X connect 10 0 36 0;
#X connect 13 0 3 1;
#X connect 15 0 16 0;
#X connect 16 0 17 0;
#X connect 18 0 25 0;
#X connect 19 0 20 0;
#X connect 20 0 15 0;
#X connect 21 0 14 0;
#X connect 22 0 21 0;
#X connect 23 0 24 0;
#X connect 24 0 22 0;
#X connect 25 0 19 0;
#X connect 26 0 30 1;
#X connect 27 0 29 1;
#X connect 28 0 29 0;
#X connect 28 0 30 0;
#X connect 28 1 26 0;
#X connect 28 1 27 0;
#X connect 28 1 33 0;
#X connect 29 0 38 0;
#X connect 30 0 37 0;
#X connect 33 0 30 1;
#X connect 33 0 29 1;
#X connect 34 0 2 1;
#X connect 35 0 60 0;
#X connect 36 0 2 2;
#X connect 39 0 0 0;
#X connect 40 0 28 0;
#X connect 41 0 2 0;
#X connect 42 0 13 0;
#X connect 43 0 18 0;
#X connect 44 0 23 0;
#X connect 45 0 63 0;
#X connect 46 0 48 1;
#X connect 48 0 50 0;
#X connect 49 0 48 0;
#X connect 49 1 50 1;
#X connect 50 0 53 0;
#X connect 51 0 49 0;
#X connect 52 0 62 0;
#X connect 53 0 57 0;
#X connect 53 1 58 0;
#X connect 53 1 62 0;
#X connect 54 0 52 0;
#X connect 55 0 54 0;
#X connect 55 1 54 1;
#X connect 56 0 54 0;
#X connect 56 1 52 1;
#X connect 57 0 52 0;
#X connect 57 0 56 0;
#X connect 58 0 52 1;
#X connect 59 0 57 0;
#X connect 61 0 6 0;
#X connect 62 0 61 0;
#X connect 63 0 46 0;
#X connect 64 0 0 1;
