#N canvas 0 47 1056 1153 10;
#X obj 643 193 *~;
#X obj 635 221 *~;
#X obj 619 292 -~;
#X obj 618 348 hip~ 5;
#X obj 618 368 hip~ 5;
#X obj 510 463 line~;
#X obj 511 436 pack 0 10;
#X obj 881 148 s \$0color;
#X obj 525 -294 inlet~;
#X obj 836 -121 inlet;
#X obj 838 -81 * 127;
#X obj 449 164 *~ 32;
#X obj 449 188 +~ 32;
#X obj 274 717 lp2_butt~ 200 200;
#X obj 279 749 lp2_butt~ 200 200;
#X obj 415 703 hp2_butt~ 200 200;
#X obj 416 724 hp2_butt~ 200 200;
#X obj 425 749 lp2_butt~ 1500 200;
#X obj 429 777 lp2_butt~ 1500 200;
#X obj 549 688 hp2_butt~ 1500 200;
#X obj 550 709 hp2_butt~ 1500 200;
#X obj 450 217 tabread4~ shape1;
#X obj 390 633 *~ 0.3;
#X obj 376 462 line~;
#X obj 377 435 pack 0 10;
#X obj 618 127 *~ 25;
#X obj 510 513 *~;
#X obj 377 329 logscale;
#X obj 290 330 logscale;
#X obj 356 250 r \$0color;
#X obj 359 283 / 127;
#X obj 436 514 *~;
#X obj 335 384 * -1;
#X obj 313 -193 env~ 256;
#X obj 311 -97 dbtorms;
#X obj 377 18 *~;
#X obj 311 -41 line~;
#X obj 311 -119 expr 100 + $f1;
#X obj 311 -67 pack 0 500;
#X obj 313 -168 moses 70;
#X obj 311 -141 expr (($f1 - 70) / 10) - $f1 + 70;
#X obj 396 -225 *~ 50;
#X obj 454 860 outlet~;
#X obj 598 630 *~ 0.3;
#X obj 619 92 *~ 1.5;
#X obj 449 89 *~ 3;
#X obj 619 391 lop~ 10000;
#X obj 444 640 *~ 0.35;
#X obj 635 261 /~ 0.02;
#X obj 692 -98 * 0.5;
#X obj 694 -251 inlet;
#X obj 688 90 delwrite~ \$0drivedel 100;
#X obj 689 127 delread~ \$0drivedel 4;
#X obj 732 -2 * -7;
#X floatatom 733 59 5 0 0 0 - - -, f 5;
#X obj 735 28 + 9;
#X obj 534 632 *~ 0.4;
#X obj 265 641 *~ 0.7;
#X obj 692 -210 logscale;
#X obj 285 784 expr~ tanh($v1);
#X obj 618 318 expr~ tanh($v1);
#X obj 618 152 expr~ tanh($v1);
#X obj 449 127 expr~ tanh($v1);
#X obj 693 -135 + 1.5;
#X obj 693 -169 * 2.5;
#X obj 322 642 *~ 0.4;
#X obj 454 822 *~ 0.4;
#X connect 0 0 1 1;
#X connect 1 0 48 0;
#X connect 2 0 60 0;
#X connect 3 0 4 0;
#X connect 4 0 46 0;
#X connect 5 0 26 0;
#X connect 6 0 5 0;
#X connect 8 0 41 0;
#X connect 9 0 10 0;
#X connect 9 0 53 0;
#X connect 10 0 7 0;
#X connect 11 0 12 0;
#X connect 12 0 21 0;
#X connect 13 0 14 0;
#X connect 14 0 59 0;
#X connect 15 0 16 0;
#X connect 16 0 17 0;
#X connect 17 0 18 0;
#X connect 18 0 66 0;
#X connect 19 0 20 0;
#X connect 20 0 66 0;
#X connect 21 0 31 1;
#X connect 22 0 15 0;
#X connect 23 0 31 0;
#X connect 24 0 23 0;
#X connect 25 0 61 0;
#X connect 26 0 43 0;
#X connect 26 0 47 0;
#X connect 26 0 65 0;
#X connect 27 0 6 0;
#X connect 28 0 32 0;
#X connect 29 0 30 0;
#X connect 30 0 28 1;
#X connect 30 0 27 0;
#X connect 31 0 22 0;
#X connect 31 0 56 0;
#X connect 31 0 57 0;
#X connect 32 0 24 0;
#X connect 33 0 39 0;
#X connect 34 0 38 0;
#X connect 35 0 44 0;
#X connect 35 0 45 0;
#X connect 35 0 51 0;
#X connect 36 0 35 1;
#X connect 37 0 34 0;
#X connect 38 0 36 0;
#X connect 39 1 40 0;
#X connect 40 0 37 0;
#X connect 41 0 33 0;
#X connect 41 0 35 0;
#X connect 43 0 19 0;
#X connect 44 0 25 0;
#X connect 45 0 62 0;
#X connect 46 0 26 1;
#X connect 47 0 15 0;
#X connect 48 0 2 1;
#X connect 49 0 44 1;
#X connect 50 0 58 0;
#X connect 52 0 44 0;
#X connect 53 0 55 0;
#X connect 54 0 52 0;
#X connect 55 0 54 0;
#X connect 56 0 19 0;
#X connect 57 0 13 0;
#X connect 58 0 64 0;
#X connect 59 0 66 0;
#X connect 60 0 3 0;
#X connect 61 0 0 1;
#X connect 61 0 0 0;
#X connect 61 0 1 0;
#X connect 61 0 2 0;
#X connect 62 0 11 0;
#X connect 63 0 49 0;
#X connect 63 0 45 1;
#X connect 64 0 63 0;
#X connect 65 0 13 0;
#X connect 66 0 42 0;
