#N canvas 0 47 1056 1153 10;
#N canvas 0 50 458 308 rh_scalelog 0;
#X obj 20 155 exp;
#X obj 20 107 *;
#X obj 20 130 +;
#X obj 98 87 log;
#X obj 194 84 log;
#X obj 123 123 t b f;
#X obj 123 145 -;
#X obj 20 183 outlet;
#X obj 20 19 inlet;
#X obj 98 23 inlet;
#X obj 194 24 inlet;
#X connect 0 0 7 0;
#X connect 1 0 2 0;
#X connect 2 0 0 0;
#X connect 3 0 2 1;
#X connect 3 0 5 0;
#X connect 4 0 6 0;
#X connect 5 0 6 0;
#X connect 5 1 6 1;
#X connect 6 0 1 1;
#X connect 8 0 1 0;
#X connect 9 0 3 0;
#X connect 10 0 4 0;
#X restore 428 724 pd rh_scalelog;
#X obj 144 800 *~;
#X obj 133 772 vd~ \$0-fbbb 100;
#X msg 134 726 \$1 20;
#X obj 135 750 line~;
#X obj 438 672 loadbang;
#X text 197 597 feedb;
#X text 441 623 time;
#X obj 174 800 * 0.98;
#X msg 438 697 1;
#X msg 502 673 2000;
#X obj 101 1018 outlet~;
#X text 277 552 1 clockpuls;
#X obj 130 830 delwrite~ \$0-fbbb 3000;
#X obj 366 843 line 10;
#X obj 398 807 pack 0 200;
#X obj 98 518 inlet~;
#X obj 190 561 inlet;
#X obj 67 795 hip~ 240;
#X obj 103 905 +~;
#X obj 280 519 r tickTime;
#X obj 380 397 moses 128;
#X obj 438 432 - 128;
#X obj 441 466 / 128;
#X obj 390 130 inlet;
#X obj 337 625 t b f;
#X obj 330 673 *;
#X connect 0 0 15 0;
#X connect 1 0 13 0;
#X connect 2 0 1 0;
#X connect 2 0 19 1;
#X connect 3 0 4 0;
#X connect 4 0 2 0;
#X connect 5 0 9 0;
#X connect 5 0 10 0;
#X connect 8 0 1 1;
#X connect 9 0 0 1;
#X connect 10 0 0 2;
#X connect 14 0 3 0;
#X connect 15 0 14 0;
#X connect 16 0 18 0;
#X connect 16 0 19 0;
#X connect 17 0 8 0;
#X connect 18 0 13 0;
#X connect 19 0 11 0;
#X connect 20 0 26 0;
#X connect 21 0 25 0;
#X connect 21 1 22 0;
#X connect 22 0 23 0;
#X connect 23 0 0 0;
#X connect 24 0 21 0;
#X connect 25 0 26 0;
#X connect 25 1 26 1;
#X connect 26 0 15 0;
