#N canvas 0 47 1056 1153 10;
#X obj 87 459 inlet~;
#X obj 87 514 biquad~ 1.86972 -0.872325 0.000650245 0.00130049 0.000650245
;
#X text 206 493 lo x3;
#X obj 87 534 biquad~ 1.86972 -0.872325 0.000650245 0.00130049 0.000650245
;
#X obj 87 554 biquad~ 1.86972 -0.872325 0.000650245 0.00130049 0.000650245
;
#X obj 215 606 biquad~ 1.36591 -0.385279 0.307361 0 -0.307361;
#X text 350 586 mid x3;
#X obj 215 626 biquad~ 1.36591 -0.385279 0.307361 0 -0.307361;
#X obj 215 646 biquad~ 1.36591 -0.385279 0.307361 0 -0.307361;
#X obj 357 697 biquad~ 1.63386 -0.729864 0.840931 -1.68186 0.840931
;
#X text 497 675 hi x2;
#X obj 357 717 biquad~ 1.63386 -0.729864 0.840931 -1.68186 0.840931
;
#X obj 140 906 outlet~;
#X obj 543 49 inlet;
#X obj 442 260 logscale;
#X obj 511 259 logscale;
#X obj 645 260 logscale;
#X obj 577 259 logscale;
#X obj 588 186 - 1;
#X obj 634 225 max 0;
#X obj 580 341 f;
#X obj 548 222 moses 1;
#X obj 530 341 f;
#X obj 548 291 bang, f 5;
#X obj 598 293 bang;
#X obj 442 341 max 0;
#X obj 548 78 * 2;
#X obj 645 381 * 2;
#X obj 645 403 pack 0 10;
#X obj 555 403 pack 0 10;
#X obj 445 403 pack 0 10;
#X obj 648 433 line~;
#X obj 555 433 line~;
#X obj 355 803 *~;
#X obj 224 803 *~;
#X obj 88 803 *~;
#X obj 445 433 line~;
#X obj 555 381 * 3;
#X obj 445 381 * 3;
#X connect 0 0 1 0;
#X connect 0 0 5 0;
#X connect 0 0 9 0;
#X connect 1 0 3 0;
#X connect 3 0 4 0;
#X connect 4 0 35 0;
#X connect 5 0 7 0;
#X connect 7 0 8 0;
#X connect 8 0 34 0;
#X connect 9 0 11 0;
#X connect 11 0 33 0;
#X connect 13 0 26 0;
#X connect 14 0 25 0;
#X connect 15 0 22 1;
#X connect 16 0 27 0;
#X connect 17 0 20 1;
#X connect 18 0 19 0;
#X connect 19 0 16 0;
#X connect 19 0 17 1;
#X connect 20 0 37 0;
#X connect 21 0 23 0;
#X connect 21 1 24 0;
#X connect 22 0 37 0;
#X connect 23 0 22 0;
#X connect 24 0 20 0;
#X connect 25 0 38 0;
#X connect 26 0 14 1;
#X connect 26 0 15 0;
#X connect 26 0 21 0;
#X connect 26 0 18 0;
#X connect 27 0 28 0;
#X connect 28 0 31 0;
#X connect 29 0 32 0;
#X connect 30 0 36 0;
#X connect 31 0 33 1;
#X connect 32 0 34 1;
#X connect 33 0 12 0;
#X connect 34 0 12 0;
#X connect 35 0 12 0;
#X connect 36 0 35 1;
#X connect 37 0 29 0;
#X connect 38 0 30 0;
#X coords 0 1153 1 1152 180 65 0;
