#N canvas 0 47 1056 1153 10;
#X obj 97 314 cpole~;
#X obj 95 368 czero~;
#X obj 364 253 *~ 0.01;
#X obj 419 253 *~ 0.01;
#X obj 382 214 cos~;
#X obj 419 215 cos~;
#X obj 418 193 -~ 0.25;
#X obj 399 110 samplerate~;
#X obj 383 132 /~;
#X obj 64 14 inlet~;
#X obj 285 639 outlet~;
#X obj 168 280 *~;
#X obj 196 281 *~;
#X obj 222 145 *~ -0.1;
#X obj 222 166 expr~ exp($v1);
#X obj 222 187 *~ -1;
#X obj 222 209 +~ 0.9999;
#X obj 221 123 clip~ 0.001 100;
#X text 279 497 taken from 3.audio.examples/H12.peaking.pd and modified
;
#X text 281 512 by Roman (net-pd);
#X obj 221 85 sig~;
#X obj 168 411 + 1;
#X obj 95 404 /~ 10;
#X obj 125 465 *~ 3;
#X obj 313 370 + 1;
#X obj 259 401 *;
#X obj 253 362 t b f;
#X obj 100 491 +~;
#X obj 204 62 + 20;
#X obj 170 385 / 4;
#X obj 100 533 /~ 5;
#X obj 390 65 + 20;
#X obj 193 38 * 20;
#X obj 258 337 * 1;
#X obj 603 37 / 127;
#X floatatom 819 145 5 0 0 0 - - -, f 5;
#N canvas 0 50 466 316 rh_scalelog 0;
#X obj 20 155 exp;
#X obj 20 107 *;
#X obj 20 130 +;
#X obj 98 87 log;
#X obj 194 84 log;
#X obj 123 123 t b f;
#X obj 123 145 -;
#X obj 20 183 outlet;
#X obj 20 19 inlet;
#X obj 98 23 inlet;
#X obj 194 24 inlet;
#X connect 0 0 7 0;
#X connect 1 0 2 0;
#X connect 2 0 0 0;
#X connect 3 0 2 1;
#X connect 3 0 5 0;
#X connect 4 0 6 0;
#X connect 5 0 6 0;
#X connect 5 1 6 1;
#X connect 6 0 1 1;
#X connect 8 0 1 0;
#X connect 9 0 3 0;
#X connect 10 0 4 0;
#X restore 733 442 pd rh_scalelog;
#X msg 805 409 0.1;
#X msg 851 409 10;
#X obj 734 146 * 0.8;
#X obj 544 338 delwrite~ \$0-clockbodyl 100;
#X obj 542 262 delread~ \$0-clockbodyl 50;
#X obj 542 283 bp~ 1200 3;
#N canvas 617 584 281 202 sizescale 0;
#X obj 102 42 * 10000;
#X obj 33 66 max 1e-07;
#X obj 33 92 min 100;
#X obj 69 15 inlet;
#X obj 33 121 outlet ms;
#X obj 102 66 outlet Hz;
#X obj 26 43 expr 1/$f1;
#X connect 0 0 5 0;
#X connect 1 0 2 0;
#X connect 2 0 4 0;
#X connect 3 0 0 0;
#X connect 3 0 6 0;
#X connect 6 0 1 0;
#X restore 542 239 pd sizescale;
#X obj 747 283 bp~ 1200 3;
#X obj 747 262 delread~ \$0-clockbodyw 50;
#X obj 749 338 delwrite~ \$0-clockbodyw 100;
#N canvas 617 584 281 202 sizescale 0;
#X obj 102 42 * 10000;
#X obj 30 95 max 1e-07;
#X obj 30 121 min 100;
#X obj 69 15 inlet;
#X obj 30 150 outlet ms;
#X obj 102 66 outlet Hz;
#X obj 27 58 expr 1/$f1;
#X connect 0 0 5 0;
#X connect 1 0 2 0;
#X connect 2 0 4 0;
#X connect 3 0 0 0;
#X connect 3 0 6 0;
#X connect 6 0 1 0;
#X restore 747 240 pd sizescale;
#X obj 747 218 + 0.02;
#X text 780 170 0-1 size = 10000Hz-10Hz;
#X text 643 306 damping;
#X obj 543 308 *~ 0.3;
#X obj 748 308 *~ 0.3;
#X text 596 151 body resonance;
#X obj 734 168 + 0.1;
#X obj 663 369 *~ 1;
#X obj 828 380 r \$0-loadbang;
#X obj 597 173 +~;
#X obj 658 0 inlet;
#X obj 168 2 loadbang;
#X msg 622 1 63;
#X text 256 2 resonance;
#X obj 564 1 loadbang;
#X text 696 -2 cutoff;
#X obj 399 89 loadbang;
#X obj 287 552 +~;
#X obj 810 101 * -0.5;
#X obj 817 124 + 0.8;
#X obj 383 22 pow 2;
#X obj 289 600 *~ 2;
#X obj 312 346 * 16;
#X obj 188 498 *~ 0.8;
#X msg 223 4 0.15;
#X obj 385 45 * 5000;
#X obj 197 574 hip~ 8000;
#X obj 422 386 *~ 0.6;
#X floatatom 546 532 5 0 0 0 - - -, f 5;
#X obj 610 538 mtof;
#X floatatom 528 555 5 0 0 0 - - -, f 5;
#X obj 482 600 lop~;
#X obj 515 621 hip~;
#X obj 600 446 *~ 0.2;
#X obj 511 579 + 600;
#X connect 0 0 1 0;
#X connect 0 1 1 1;
#X connect 1 0 22 0;
#X connect 2 0 1 2;
#X connect 3 0 1 3;
#X connect 4 0 2 0;
#X connect 4 0 11 0;
#X connect 5 0 3 0;
#X connect 5 0 12 0;
#X connect 6 0 5 0;
#X connect 7 0 8 1;
#X connect 8 0 6 0;
#X connect 8 0 4 0;
#X connect 9 0 0 0;
#X connect 11 0 0 2;
#X connect 12 0 0 3;
#X connect 13 0 14 0;
#X connect 14 0 15 0;
#X connect 15 0 16 0;
#X connect 16 0 11 1;
#X connect 16 0 12 1;
#X connect 17 0 13 0;
#X connect 20 0 17 0;
#X connect 21 0 22 1;
#X connect 22 0 27 0;
#X connect 22 0 23 0;
#X connect 23 0 27 1;
#X connect 24 0 26 0;
#X connect 25 0 23 1;
#X connect 26 0 25 0;
#X connect 26 1 25 1;
#X connect 27 0 30 0;
#X connect 28 0 20 0;
#X connect 29 0 21 0;
#X connect 30 0 71 0;
#X connect 31 0 8 0;
#X connect 32 0 28 0;
#X connect 32 0 29 0;
#X connect 33 0 25 0;
#X connect 34 0 39 0;
#X connect 34 0 66 0;
#X connect 34 0 68 0;
#X connect 35 0 36 0;
#X connect 36 0 55 1;
#X connect 37 0 36 1;
#X connect 38 0 36 2;
#X connect 39 0 54 0;
#X connect 41 0 42 0;
#X connect 42 0 51 0;
#X connect 42 0 55 0;
#X connect 43 0 41 0;
#X connect 43 1 42 1;
#X connect 44 0 52 0;
#X connect 44 0 55 0;
#X connect 45 0 44 0;
#X connect 47 0 45 0;
#X connect 47 1 44 1;
#X connect 48 0 47 0;
#X connect 51 0 40 0;
#X connect 51 0 44 0;
#X connect 52 0 46 0;
#X connect 54 0 43 0;
#X connect 54 0 48 0;
#X connect 55 0 81 0;
#X connect 56 0 37 0;
#X connect 56 0 38 0;
#X connect 57 0 40 0;
#X connect 57 0 46 0;
#X connect 58 0 34 0;
#X connect 58 0 76 0;
#X connect 59 0 72 0;
#X connect 60 0 34 0;
#X connect 62 0 60 0;
#X connect 64 0 7 0;
#X connect 65 0 69 0;
#X connect 65 0 74 0;
#X connect 66 0 67 0;
#X connect 67 0 35 0;
#X connect 68 0 70 0;
#X connect 68 0 73 0;
#X connect 69 0 79 0;
#X connect 70 0 24 0;
#X connect 71 0 65 0;
#X connect 71 0 75 0;
#X connect 72 0 32 0;
#X connect 72 0 33 0;
#X connect 73 0 31 0;
#X connect 74 0 69 0;
#X connect 75 0 57 0;
#X connect 76 0 77 0;
#X connect 77 0 78 0;
#X connect 78 0 80 1;
#X connect 78 0 82 0;
#X connect 79 0 80 0;
#X connect 80 0 10 0;
#X connect 81 0 65 1;
#X connect 82 0 79 1;
