#N canvas 0 47 1056 1153 10;
#X obj 117 618 cpole~;
#X obj 116 682 czero~;
#X obj 300 497 *~ 0.01;
#X obj 370 497 *~ 0.01;
#X obj 301 456 cos~;
#X obj 370 456 cos~;
#X obj 370 428 -~ 0.25;
#X obj 324 357 samplerate~;
#X obj 300 386 /~;
#X obj 117 132 inlet~;
#X obj 136 1344 outlet~;
#X obj 144 583 *~;
#X obj 181 583 *~;
#X obj 168 419 *~ -0.1;
#X obj 168 450 expr~ exp($v1);
#X obj 168 481 *~ -1;
#X obj 168 512 +~ 0.9999;
#X obj 167 387 clip~ 0.001 100;
#X obj 167 357 sig~;
#X obj 134 805 + 1;
#X obj 224 798 + 1;
#X obj 224 883 *;
#X obj 268 834 t b f;
#X obj 116 1035 +~;
#X obj 167 332 + 20;
#X obj 134 776 / 4;
#X obj 116 1062 /~ 5;
#X obj 299 255 + 20;
#X obj 134 744 * 20;
#X obj 268 806 * 1;
#X obj 362 60 loadbang;
#X text 402 88 resonance;
#X obj 324 336 loadbang;
#X obj 299 204 pow 2;
#X obj 136 1243 *~ 2;
#X obj 223 774 * 16;
#X obj 116 1091 *~ 0.8;
#X obj 299 230 * 5000;
#X obj 299 308 line~;
#X obj 134 833 pack 0 10;
#X obj 134 861 line~;
#X obj 115 888 /~;
#X obj 225 934 line~;
#X obj 134 1006 *~;
#X obj 519 33 inlet;
#X obj 593 133 s \$0-freq;
#X obj 299 177 r \$0-freq;
#X obj 362 118 s \$0-res;
#X obj 134 715 r \$0-res;
#X obj 167 307 * 20;
#X obj 167 178 r \$0-res;
#X obj 268 777 r \$0-res;
#X obj 223 746 pow 2;
#X obj 223 719 r \$0-freq;
#X obj 116 1143 +~ 1;
#X obj 299 281 pack 0 50;
#X obj 224 912 pack 0 50;
#X msg 362 87 0.15;
#X connect 0 0 1 0;
#X connect 0 1 1 1;
#X connect 1 0 41 0;
#X connect 2 0 1 2;
#X connect 3 0 1 3;
#X connect 4 0 2 0;
#X connect 4 0 11 0;
#X connect 5 0 3 0;
#X connect 5 0 12 0;
#X connect 6 0 5 0;
#X connect 7 0 8 1;
#X connect 8 0 6 0;
#X connect 8 0 4 0;
#X connect 9 0 0 0;
#X connect 11 0 0 2;
#X connect 12 0 0 3;
#X connect 13 0 14 0;
#X connect 14 0 15 0;
#X connect 15 0 16 0;
#X connect 16 0 11 1;
#X connect 16 0 12 1;
#X connect 17 0 13 0;
#X connect 18 0 17 0;
#X connect 19 0 39 0;
#X connect 20 0 21 0;
#X connect 21 0 56 0;
#X connect 22 0 21 0;
#X connect 22 1 21 1;
#X connect 23 0 26 0;
#X connect 24 0 18 0;
#X connect 25 0 19 0;
#X connect 26 0 36 0;
#X connect 27 0 55 0;
#X connect 28 0 25 0;
#X connect 29 0 22 0;
#X connect 30 0 57 0;
#X connect 32 0 7 0;
#X connect 33 0 37 0;
#X connect 34 0 10 0;
#X connect 35 0 20 0;
#X connect 36 0 54 0;
#X connect 37 0 27 0;
#X connect 38 0 8 0;
#X connect 39 0 40 0;
#X connect 40 0 41 1;
#X connect 41 0 23 0;
#X connect 41 0 43 0;
#X connect 42 0 43 1;
#X connect 43 0 23 1;
#X connect 44 0 45 0;
#X connect 46 0 33 0;
#X connect 48 0 28 0;
#X connect 49 0 24 0;
#X connect 50 0 49 0;
#X connect 51 0 29 0;
#X connect 52 0 35 0;
#X connect 53 0 52 0;
#X connect 54 0 34 0;
#X connect 55 0 38 0;
#X connect 56 0 42 0;
#X connect 57 0 47 0;
