#N canvas 0 47 1056 1153 10;
#X obj -1 -18 r octave;
#X obj 0 27 * 12;
#X obj 0 49 t b f;
#X obj -1 4 + 1;
#X obj -43 108 +;
#X obj -74 -41 r pitch1;
#X obj -153 714 +~;
#X obj -91 607 osc~ 5;
#X obj -91 630 *~, f 4;
#X obj -92 654 *~ 30, f 7;
#X obj -34 525 r Modulation;
#X obj -34 545 pack 0 5;
#X obj -34 568 line~;
#X obj 30 1778 *~;
#X obj 49 1753 line~, f 7;
#X obj -101 258 r bpm;
#X obj -101 282 / 120;
#X obj -101 306 t b f;
#X obj -116 331 * 1, f 5;
#X obj -89 389 r pitchbend;
#X obj -104 454 * 1, f 5;
#X obj -91 421 t b f;
#X obj 48 1396 r velocity;
#X obj 887 2142 s~ synth1-out;
#X obj -116 233 mtof;
#X obj 68 1781 r ChordMode;
#X obj -91 584 + 6;
#X obj 104 718 +~;
#X obj 161 622 osc~ 5;
#X obj 161 645 *~, f 4;
#X obj 160 669 *~ 30, f 7;
#X obj 222 539 r Modulation;
#X obj 222 559 pack 0 5;
#X obj 222 580 line~;
#X obj 109 284 r bpm;
#X obj 109 308 / 120;
#X obj 109 332 t b f;
#X obj 94 357 * 1, f 5;
#X obj 109 384 r pitchbend;
#X obj 94 427 * 1, f 5;
#X obj 109 406 t b f;
#X obj 161 599 + 6;
#X obj 70 283 mtof;
#X msg 48 1577 1;
#X obj 149 1670 pack 0 10;
#X msg 101 1578 0;
#X obj 189 1495 r arpNoteDecay;
#X obj 48 1552 select 1;
#X obj -80 827 pack 0 10;
#X obj -80 854 line~;
#X obj -57 1206 +~, f 4;
#X obj 32 1256 +~;
#X obj 181 456 t b f;
#X obj 178 483 +;
#X obj 161 578 / 500;
#X obj 221 616 / 200;
#X obj 214 645 + 5;
#X obj -91 563 / 500;
#X obj -31 600 / 200;
#X obj -32 624 + 5;
#X obj 189 1520 + 10;
#X obj 304 1494 r Decay;
#X obj 301 1522 * 10;
#X obj 300 1552 + 10;
#X obj 299 1581 spigot;
#X obj 282 1546 f;
#X obj 279 1372 r ArpMode;
#X msg 336 1454 0;
#X msg 300 1452 1;
#X msg 221 1452 0;
#X msg 185 1450 1;
#X obj 260 1451 bang;
#X obj 282 1395 select 0 1;
#X obj 206 1549 spigot;
#X obj 184 1589 f, f 4;
#X obj -80 754 r Macro00-1;
#X obj 181 410 r Macro00-2;
#X obj -73 -9 moses 0;
#X obj 871 2092 +~;
#X obj 713 1501 r ChordMode;
#X obj 678 1734 *~;
#X obj 701 1342 r velocity;
#X obj 701 1476 *;
#X obj 734 1448 t b f;
#X obj 702 1560 *, f 4;
#X obj 712 1529 t b f;
#X obj 711 1396 select -1;
#X msg 712 1425 0;
#X msg 759 1428 1;
#X obj 712 1368 r pitch2;
#X obj 695 1707 line~;
#X msg 698 1625 1;
#X obj 783 1653 pack 0 10;
#X msg 782 1627 0;
#X obj 804 1474 r arpNoteDecay;
#X obj 702 1602 select 1;
#X obj 804 1499 + 10;
#X obj 913 1470 r Decay;
#X obj 910 1498 * 10;
#X obj 909 1528 + 10;
#X obj 908 1557 spigot;
#X obj 900 1591 f;
#X obj 879 1344 r ArpMode;
#X msg 967 1430 0;
#X msg 931 1428 1;
#X msg 846 1428 0;
#X msg 810 1426 1;
#X obj 885 1428 bang;
#X obj 882 1367 select 0 1;
#X obj 821 1528 spigot;
#X obj 820 1559 f;
#X obj 345 1965 +~;
#X obj 87 1435 r ChordMode;
#X obj 128 1273 r velocity;
#X obj 128 1396 *;
#X obj 148 1368 t b f;
#X obj 135 1320 select -1;
#X msg 135 1341 0;
#X msg 195 1341 1;
#X obj 128 1503 spigot;
#X obj 48 1504 spigot;
#X obj 87 1459 * -1;
#X obj 87 1481 + 1;
#X obj 135 1298 r pitch1;
#X obj -139 1667 pack 0 10;
#X obj -153 1514 + 10;
#X obj -36 1517 * 10;
#X obj -37 1547 + 10;
#X obj -38 1576 spigot;
#X obj -79 1614 f;
#X obj -67 1380 r ArpMode;
#X msg 8 1454 0;
#X msg -24 1454 1;
#X msg -122 1454 0;
#X msg -158 1452 1;
#X obj -83 1454 bang;
#X obj -67 1403 select 0 1;
#X obj -136 1543 spigot;
#X obj -158 1583 f;
#X obj -33 1489 r Attack;
#X obj -153 1489 r arpNoteAttack;
#X obj -82 1036 r ChordMode;
#X obj -119 1116 pack 0 10;
#X obj -119 1138 line~;
#X obj -146 1160 *~;
#X obj 519 1657 pack 0 10;
#X obj 505 1504 + 10;
#X obj 622 1507 * 10;
#X obj 621 1537 + 10;
#X obj 620 1566 spigot;
#X obj 579 1604 f;
#X obj 591 1370 r ArpMode;
#X msg 666 1444 0;
#X msg 634 1444 1;
#X msg 536 1444 0;
#X msg 500 1442 1;
#X obj 575 1444 bang;
#X obj 591 1393 select 0 1;
#X obj 522 1533 spigot;
#X obj 500 1573 f;
#X obj 625 1479 r Attack;
#X obj 505 1479 r arpNoteAttack;
#X obj 66 1852 pack 0 10;
#X obj 66 1871 line~;
#X obj 29 1906 *~;
#X obj 1265 1491 r ChordMode;
#X obj 1230 1724 *~;
#X obj 1253 1332 r velocity;
#X obj 1253 1466 *;
#X obj 1286 1438 t b f;
#X obj 1254 1550 *, f 4;
#X obj 1264 1519 t b f;
#X obj 1263 1386 select -1;
#X msg 1264 1415 0;
#X msg 1311 1418 1;
#X obj 1247 1697 line~;
#X msg 1250 1615 1;
#X obj 1335 1643 pack 0 10;
#X msg 1334 1617 0;
#X obj 1356 1464 r arpNoteDecay;
#X obj 1254 1592 select 1;
#X obj 1356 1489 + 10;
#X obj 1465 1460 r Decay;
#X obj 1462 1488 * 10;
#X obj 1461 1518 + 10;
#X obj 1460 1547 spigot;
#X obj 1452 1581 f;
#X obj 1431 1334 r ArpMode;
#X msg 1519 1420 0;
#X msg 1483 1418 1;
#X msg 1398 1418 0;
#X msg 1362 1416 1;
#X obj 1437 1418 bang;
#X obj 1434 1357 select 0 1;
#X obj 1373 1518 spigot;
#X obj 1372 1549 f;
#X obj 1071 1647 pack 0 10;
#X obj 1057 1494 + 10;
#X obj 1174 1497 * 10;
#X obj 1173 1527 + 10;
#X obj 1172 1556 spigot;
#X obj 1131 1594 f;
#X obj 1143 1360 r ArpMode;
#X msg 1218 1434 0;
#X msg 1186 1434 1;
#X msg 1088 1434 0;
#X msg 1052 1432 1;
#X obj 1127 1434 bang;
#X obj 1143 1383 select 0 1;
#X obj 1074 1523 spigot;
#X obj 1052 1563 f;
#X obj 1177 1469 r Attack;
#X obj 1057 1469 r arpNoteAttack;
#X obj 1790 1480 r ChordMode;
#X obj 1755 1713 *~;
#X obj 1778 1321 r velocity;
#X obj 1778 1455 *;
#X obj 1811 1427 t b f;
#X obj 1779 1539 *, f 4;
#X obj 1789 1508 t b f;
#X obj 1788 1375 select -1;
#X msg 1789 1404 0;
#X msg 1836 1407 1;
#X obj 1772 1686 line~;
#X msg 1775 1604 1;
#X obj 1860 1632 pack 0 10;
#X msg 1859 1606 0;
#X obj 1881 1453 r arpNoteDecay;
#X obj 1779 1581 select 1;
#X obj 1881 1478 + 10;
#X obj 1990 1449 r Decay;
#X obj 1987 1477 * 10;
#X obj 1986 1507 + 10;
#X obj 1985 1536 spigot;
#X obj 1977 1570 f;
#X obj 1956 1323 r ArpMode;
#X msg 2046 1408 0;
#X msg 2008 1407 1;
#X msg 1923 1407 0;
#X msg 1887 1405 1;
#X obj 1962 1407 bang;
#X obj 1959 1346 select 0 1;
#X obj 1898 1507 spigot;
#X obj 1897 1538 f;
#X obj 1596 1636 pack 0 10;
#X obj 1582 1483 + 10;
#X obj 1699 1486 * 10;
#X obj 1698 1516 + 10;
#X obj 1697 1545 spigot;
#X obj 1656 1583 f;
#X obj 1668 1349 r ArpMode;
#X msg 1743 1423 0;
#X msg 1711 1423 1;
#X msg 1613 1423 0;
#X msg 1577 1421 1;
#X obj 1652 1423 bang;
#X obj 1668 1372 select 0 1;
#X obj 1599 1512 spigot;
#X obj 1577 1552 f;
#X obj 1702 1458 r Attack;
#X obj 1582 1458 r arpNoteAttack;
#X obj 1602 1854 +~;
#X obj 1789 1347 r pitch4;
#X obj 1264 1358 r pitch3;
#X obj 80 674 line~;
#X obj -174 657 line~;
#X obj 181 433 / 32;
#X obj -78 944 flame2~;
#X obj -80 778 / 255;
#X obj 26 840 pack 0 10;
#X obj 26 862 line~;
#X obj 26 775 / 255;
#X obj 26 753 r Macro00-3;
#X msg 116 884 hardsync 1;
#X msg 96 858 hardsync 0;
#X obj 69 498 r Macro00-4;
#X obj 176 165 t b f;
#X obj 176 120 r Macro00-2;
#X obj 176 143 / 32;
#X obj 129 833 s hardsync;
#X msg 167 807 1;
#X msg 129 806 0;
#X obj 94 164 r hardsync;
#X obj 94 191 *;
#X obj 70 256 + 0;
#X obj 94 215 t b f;
#X obj -2 688 loadbang;
#X msg 27 715 0.1;
#X obj 80 651 pack 0 150;
#X obj -174 632 pack 0 150;
#X obj 69 522 * 0.5;
#X obj 69 544 + 5;
#X obj 57 451 loadbang;
#X msg 57 473 0;
#X obj 26 817 + 0.005;
#X obj -80 803 + 0.005;
#X obj -137 1008 r MacroButton00-1;
#X obj 129 751 r MacroButton00-2;
#X obj 70 62 r MacroButton00-3;
#X obj 217 -39 r MacroButton00-4;
#X obj 213 -7 print b4;
#X obj 129 775 select 0 1;
#X obj 70 87 * 12;
#X obj 70 139 +;
#X obj 70 110 t b f;
#X obj -22 1102 *~ 0.45;
#X obj 56 1100 *~ 0.45;
#X obj -119 1071 * -1;
#X obj -119 1094 + 1;
#X msg 34 931 0;
#X obj -178 1068 *~ 0.3;
#X obj -139 1034 * 0.3;
#X obj 641 -33 r octave;
#X obj 642 12 * 12;
#X obj 642 34 t b f;
#X obj 641 -11 + 1;
#X obj 599 93 +;
#X obj 489 699 +~;
#X obj 551 592 osc~ 5;
#X obj 551 615 *~, f 4;
#X obj 550 639 *~ 30, f 7;
#X obj 608 510 r Modulation;
#X obj 608 530 pack 0 5;
#X obj 608 553 line~;
#X obj 541 243 r bpm;
#X obj 541 267 / 120;
#X obj 541 291 t b f;
#X obj 526 316 * 1, f 5;
#X obj 553 374 r pitchbend;
#X obj 538 439 * 1, f 5;
#X obj 551 406 t b f;
#X obj 526 218 mtof;
#X obj 551 569 + 6;
#X obj 746 703 +~;
#X obj 803 607 osc~ 5;
#X obj 803 630 *~, f 4;
#X obj 802 654 *~ 30, f 7;
#X obj 864 524 r Modulation;
#X obj 864 544 pack 0 5;
#X obj 864 565 line~;
#X obj 751 269 r bpm;
#X obj 751 293 / 120;
#X obj 751 317 t b f;
#X obj 736 342 * 1, f 5;
#X obj 751 369 r pitchbend;
#X obj 736 412 * 1, f 5;
#X obj 751 391 t b f;
#X obj 803 584 + 6;
#X obj 712 268 mtof;
#X obj 562 812 pack 0 10;
#X obj 562 839 line~;
#X obj 585 1191 +~, f 4;
#X obj 674 1241 +~;
#X obj 823 441 t b f;
#X obj 820 468 +;
#X obj 803 563 / 500;
#X obj 863 601 / 200;
#X obj 856 630 + 5;
#X obj 551 548 / 500;
#X obj 611 585 / 200;
#X obj 610 609 + 5;
#X obj 562 739 r Macro00-1;
#X obj 823 395 r Macro00-2;
#X obj 569 -24 moses 0;
#X obj 560 1021 r ChordMode;
#X obj 523 1101 pack 0 10;
#X obj 523 1123 line~;
#X obj 496 1145 *~;
#X obj 722 659 line~;
#X obj 468 642 line~;
#X obj 823 418 / 32;
#X obj 564 929 flame2~;
#X obj 562 763 / 255;
#X obj 668 825 pack 0 10;
#X obj 668 847 line~;
#X obj 668 760 / 255;
#X obj 668 738 r Macro00-3;
#X msg 758 869 hardsync 1;
#X msg 738 843 hardsync 0;
#X obj 711 483 r Macro00-4;
#X obj 818 150 t b f;
#X obj 818 105 r Macro00-2;
#X obj 818 128 / 32;
#X obj 771 818 s hardsync;
#X msg 809 792 1;
#X msg 771 791 0;
#X obj 736 149 r hardsync;
#X obj 736 176 *;
#X obj 712 241 + 0;
#X obj 736 200 t b f;
#X obj 640 673 loadbang;
#X msg 669 700 0.1;
#X obj 722 636 pack 0 150;
#X obj 468 617 pack 0 150;
#X obj 711 507 * 0.5;
#X obj 711 529 + 5;
#X obj 699 436 loadbang;
#X msg 699 458 0;
#X obj 668 802 + 0.005;
#X obj 562 788 + 0.005;
#X obj 505 993 r MacroButton00-1;
#X obj 771 736 r MacroButton00-2;
#X obj 712 47 r MacroButton00-3;
#X obj 771 760 select 0 1;
#X obj 712 72 * 12;
#X obj 712 124 +;
#X obj 712 95 t b f;
#X obj 620 1087 *~ 0.45;
#X obj 698 1085 *~ 0.45;
#X obj 523 1056 * -1;
#X obj 523 1079 + 1;
#X msg 676 916 0;
#X obj 464 1053 *~ 0.3;
#X obj 503 1019 * 0.3;
#X obj 568 -56 r pitch2;
#X obj 1186 -23 r octave;
#X obj 1187 22 * 12;
#X obj 1187 44 t b f;
#X obj 1186 -1 + 1;
#X obj 1144 103 +;
#X obj 1034 709 +~;
#X obj 1096 602 osc~ 5;
#X obj 1096 625 *~, f 4;
#X obj 1095 649 *~ 30, f 7;
#X obj 1153 520 r Modulation;
#X obj 1153 540 pack 0 5;
#X obj 1153 563 line~;
#X obj 1086 253 r bpm;
#X obj 1086 277 / 120;
#X obj 1086 301 t b f;
#X obj 1071 326 * 1, f 5;
#X obj 1098 384 r pitchbend;
#X obj 1083 449 * 1, f 5;
#X obj 1096 416 t b f;
#X obj 1071 228 mtof;
#X obj 1096 579 + 6;
#X obj 1291 713 +~;
#X obj 1348 617 osc~ 5;
#X obj 1348 640 *~, f 4;
#X obj 1347 664 *~ 30, f 7;
#X obj 1409 534 r Modulation;
#X obj 1409 554 pack 0 5;
#X obj 1409 575 line~;
#X obj 1296 279 r bpm;
#X obj 1296 303 / 120;
#X obj 1296 327 t b f;
#X obj 1281 352 * 1, f 5;
#X obj 1296 379 r pitchbend;
#X obj 1281 422 * 1, f 5;
#X obj 1296 401 t b f;
#X obj 1348 594 + 6;
#X obj 1257 278 mtof;
#X obj 1107 822 pack 0 10;
#X obj 1107 849 line~;
#X obj 1130 1201 +~, f 4;
#X obj 1219 1251 +~;
#X obj 1368 451 t b f;
#X obj 1365 478 +;
#X obj 1348 573 / 500;
#X obj 1408 611 / 200;
#X obj 1401 640 + 5;
#X obj 1096 558 / 500;
#X obj 1156 595 / 200;
#X obj 1155 619 + 5;
#X obj 1107 749 r Macro00-1;
#X obj 1368 405 r Macro00-2;
#X obj 1114 -14 moses 0;
#X obj 1105 1031 r ChordMode;
#X obj 1068 1111 pack 0 10;
#X obj 1068 1133 line~;
#X obj 1041 1155 *~;
#X obj 1267 669 line~;
#X obj 1013 652 line~;
#X obj 1368 428 / 32;
#X obj 1109 939 flame2~;
#X obj 1107 773 / 255;
#X obj 1213 835 pack 0 10;
#X obj 1213 857 line~;
#X obj 1213 770 / 255;
#X obj 1213 748 r Macro00-3;
#X msg 1303 879 hardsync 1;
#X msg 1283 853 hardsync 0;
#X obj 1256 493 r Macro00-4;
#X obj 1363 160 t b f;
#X obj 1363 115 r Macro00-2;
#X obj 1363 138 / 32;
#X obj 1316 828 s hardsync;
#X msg 1354 802 1;
#X msg 1316 801 0;
#X obj 1281 159 r hardsync;
#X obj 1281 186 *;
#X obj 1257 251 + 0;
#X obj 1281 210 t b f;
#X obj 1185 683 loadbang;
#X msg 1214 710 0.1;
#X obj 1267 646 pack 0 150;
#X obj 1013 627 pack 0 150;
#X obj 1256 517 * 0.5;
#X obj 1256 539 + 5;
#X obj 1244 446 loadbang;
#X msg 1244 468 0;
#X obj 1213 812 + 0.005;
#X obj 1107 798 + 0.005;
#X obj 1050 1003 r MacroButton00-1;
#X obj 1316 746 r MacroButton00-2;
#X obj 1257 57 r MacroButton00-3;
#X obj 1316 770 select 0 1;
#X obj 1257 82 * 12;
#X obj 1257 134 +;
#X obj 1257 105 t b f;
#X obj 1165 1097 *~ 0.45;
#X obj 1243 1095 *~ 0.45;
#X obj 1068 1066 * -1;
#X obj 1068 1089 + 1;
#X msg 1221 926 0;
#X obj 1009 1063 *~ 0.3;
#X obj 1048 1029 * 0.3;
#X obj 1113 -46 r pitch3;
#X obj 1709 -11 r octave;
#X obj 1710 34 * 12;
#X obj 1710 56 t b f;
#X obj 1709 11 + 1;
#X obj 1667 115 +;
#X obj 1557 721 +~;
#X obj 1619 614 osc~ 5;
#X obj 1619 637 *~, f 4;
#X obj 1618 661 *~ 30, f 7;
#X obj 1676 532 r Modulation;
#X obj 1676 552 pack 0 5;
#X obj 1676 575 line~;
#X obj 1609 265 r bpm;
#X obj 1609 289 / 120;
#X obj 1609 313 t b f;
#X obj 1594 338 * 1, f 5;
#X obj 1621 396 r pitchbend;
#X obj 1606 461 * 1, f 5;
#X obj 1619 428 t b f;
#X obj 1594 240 mtof;
#X obj 1619 591 + 6;
#X obj 1814 725 +~;
#X obj 1871 629 osc~ 5;
#X obj 1871 652 *~, f 4;
#X obj 1870 676 *~ 30, f 7;
#X obj 1932 546 r Modulation;
#X obj 1932 566 pack 0 5;
#X obj 1932 587 line~;
#X obj 1819 291 r bpm;
#X obj 1819 315 / 120;
#X obj 1819 339 t b f;
#X obj 1804 364 * 1, f 5;
#X obj 1819 391 r pitchbend;
#X obj 1804 434 * 1, f 5;
#X obj 1819 413 t b f;
#X obj 1871 606 + 6;
#X obj 1780 290 mtof;
#X obj 1630 834 pack 0 10;
#X obj 1630 861 line~;
#X obj 1653 1213 +~, f 4;
#X obj 1742 1263 +~;
#X obj 1891 463 t b f;
#X obj 1888 490 +;
#X obj 1871 585 / 500;
#X obj 1931 623 / 200;
#X obj 1924 652 + 5;
#X obj 1619 570 / 500;
#X obj 1679 607 / 200;
#X obj 1678 631 + 5;
#X obj 1630 761 r Macro00-1;
#X obj 1891 417 r Macro00-2;
#X obj 1637 -2 moses 0;
#X obj 1628 1043 r ChordMode;
#X obj 1591 1123 pack 0 10;
#X obj 1591 1145 line~;
#X obj 1564 1167 *~;
#X obj 1790 681 line~;
#X obj 1536 664 line~;
#X obj 1891 440 / 32;
#X obj 1632 951 flame2~;
#X obj 1630 785 / 255;
#X obj 1736 847 pack 0 10;
#X obj 1736 869 line~;
#X obj 1736 782 / 255;
#X obj 1736 760 r Macro00-3;
#X msg 1826 891 hardsync 1;
#X msg 1806 865 hardsync 0;
#X obj 1779 505 r Macro00-4;
#X obj 1886 172 t b f;
#X obj 1886 127 r Macro00-2;
#X obj 1886 150 / 32;
#X obj 1839 840 s hardsync;
#X msg 1877 814 1;
#X msg 1839 813 0;
#X obj 1804 171 r hardsync;
#X obj 1804 198 *;
#X obj 1780 263 + 0;
#X obj 1804 222 t b f;
#X obj 1708 695 loadbang;
#X msg 1737 722 0.1;
#X obj 1790 658 pack 0 150;
#X obj 1536 639 pack 0 150;
#X obj 1779 529 * 0.5;
#X obj 1779 551 + 5;
#X obj 1767 458 loadbang;
#X msg 1767 480 0;
#X obj 1736 824 + 0.005;
#X obj 1630 810 + 0.005;
#X obj 1573 1015 r MacroButton00-1;
#X obj 1839 758 r MacroButton00-2;
#X obj 1780 69 r MacroButton00-3;
#X obj 1839 782 select 0 1;
#X obj 1780 94 * 12;
#X obj 1780 146 +;
#X obj 1780 117 t b f;
#X obj 1688 1109 *~ 0.45;
#X obj 1766 1107 *~ 0.45;
#X obj 1591 1078 * -1;
#X obj 1591 1101 + 1;
#X msg 1744 938 0;
#X obj 1532 1075 *~ 0.3;
#X obj 1571 1041 * 0.3;
#X obj 1636 -34 r pitch4;
#X obj 1756 1760 *~ 0.25;
#X obj 1229 1763 *~ 0.25;
#X obj 677 1773 *~ 0.25;
#X obj 67 1805 * -0.25;
#X obj 66 1831 + 0.5;
#X connect 0 0 3 0;
#X connect 1 0 2 0;
#X connect 2 0 4 0;
#X connect 2 1 4 1;
#X connect 3 0 1 0;
#X connect 4 0 24 0;
#X connect 4 0 303 0;
#X connect 5 0 77 0;
#X connect 6 0 267 0;
#X connect 7 0 8 0;
#X connect 8 0 9 0;
#X connect 9 0 6 1;
#X connect 10 0 11 0;
#X connect 11 0 12 0;
#X connect 12 0 8 1;
#X connect 13 0 164 0;
#X connect 14 0 13 1;
#X connect 15 0 16 0;
#X connect 16 0 17 0;
#X connect 17 0 18 0;
#X connect 17 1 18 1;
#X connect 18 0 20 0;
#X connect 19 0 21 0;
#X connect 20 0 57 0;
#X connect 20 0 58 0;
#X connect 20 0 289 0;
#X connect 21 0 20 0;
#X connect 21 1 20 1;
#X connect 22 0 120 0;
#X connect 24 0 18 0;
#X connect 25 0 624 0;
#X connect 26 0 7 0;
#X connect 27 0 267 1;
#X connect 28 0 29 0;
#X connect 29 0 30 0;
#X connect 30 0 27 1;
#X connect 31 0 32 0;
#X connect 32 0 33 0;
#X connect 33 0 29 1;
#X connect 34 0 35 0;
#X connect 35 0 36 0;
#X connect 36 0 37 0;
#X connect 36 1 37 1;
#X connect 37 0 39 0;
#X connect 38 0 40 0;
#X connect 39 0 53 0;
#X connect 40 0 39 0;
#X connect 40 1 39 1;
#X connect 41 0 28 0;
#X connect 42 0 37 0;
#X connect 43 0 124 0;
#X connect 44 0 14 0;
#X connect 45 0 44 0;
#X connect 46 0 60 0;
#X connect 47 0 43 0;
#X connect 47 1 45 0;
#X connect 48 0 49 0;
#X connect 49 0 267 2;
#X connect 50 0 51 0;
#X connect 51 0 13 0;
#X connect 52 0 53 0;
#X connect 52 1 53 1;
#X connect 53 0 55 0;
#X connect 53 0 54 0;
#X connect 53 0 288 0;
#X connect 54 0 41 0;
#X connect 55 0 56 0;
#X connect 56 0 30 1;
#X connect 57 0 26 0;
#X connect 58 0 59 0;
#X connect 59 0 9 1;
#X connect 60 0 73 0;
#X connect 60 0 74 1;
#X connect 61 0 62 0;
#X connect 62 0 63 0;
#X connect 63 0 64 0;
#X connect 63 0 65 1;
#X connect 64 0 65 0;
#X connect 65 0 44 1;
#X connect 66 0 72 0;
#X connect 67 0 64 1;
#X connect 68 0 64 1;
#X connect 69 0 73 1;
#X connect 70 0 73 1;
#X connect 71 0 74 0;
#X connect 72 0 68 0;
#X connect 72 0 65 0;
#X connect 72 0 69 0;
#X connect 72 1 67 0;
#X connect 72 1 71 0;
#X connect 72 1 70 0;
#X connect 73 0 74 0;
#X connect 74 0 44 1;
#X connect 75 0 268 0;
#X connect 76 0 266 0;
#X connect 77 1 4 0;
#X connect 78 0 23 0;
#X connect 79 0 85 0;
#X connect 80 0 623 0;
#X connect 81 0 82 0;
#X connect 82 0 84 0;
#X connect 83 0 82 0;
#X connect 83 1 82 1;
#X connect 84 0 95 0;
#X connect 85 0 84 0;
#X connect 85 1 84 1;
#X connect 86 0 87 0;
#X connect 86 1 88 0;
#X connect 87 0 83 0;
#X connect 88 0 83 0;
#X connect 89 0 86 0;
#X connect 90 0 80 1;
#X connect 91 0 145 0;
#X connect 92 0 90 0;
#X connect 93 0 92 0;
#X connect 94 0 96 0;
#X connect 95 0 91 0;
#X connect 95 1 93 0;
#X connect 96 0 109 0;
#X connect 96 0 110 1;
#X connect 97 0 98 0;
#X connect 98 0 99 0;
#X connect 99 0 100 0;
#X connect 99 0 101 1;
#X connect 100 0 101 0;
#X connect 101 0 92 1;
#X connect 102 0 108 0;
#X connect 103 0 100 1;
#X connect 104 0 100 1;
#X connect 105 0 109 1;
#X connect 106 0 109 1;
#X connect 107 0 110 0;
#X connect 108 0 104 0;
#X connect 108 0 101 0;
#X connect 108 0 105 0;
#X connect 108 1 103 0;
#X connect 108 1 107 0;
#X connect 108 1 106 0;
#X connect 109 0 110 0;
#X connect 110 0 92 1;
#X connect 111 0 78 0;
#X connect 112 0 119 1;
#X connect 112 0 121 0;
#X connect 113 0 114 0;
#X connect 114 0 119 0;
#X connect 115 0 114 0;
#X connect 115 1 114 1;
#X connect 116 0 117 0;
#X connect 116 1 118 0;
#X connect 117 0 115 0;
#X connect 118 0 115 0;
#X connect 119 0 47 0;
#X connect 120 0 47 0;
#X connect 121 0 122 0;
#X connect 122 0 120 1;
#X connect 123 0 116 0;
#X connect 124 0 14 0;
#X connect 125 0 137 0;
#X connect 125 0 138 1;
#X connect 126 0 127 0;
#X connect 127 0 128 0;
#X connect 127 0 129 1;
#X connect 128 0 129 0;
#X connect 129 0 124 1;
#X connect 130 0 136 0;
#X connect 131 0 128 1;
#X connect 132 0 128 1;
#X connect 133 0 137 1;
#X connect 134 0 137 1;
#X connect 135 0 138 0;
#X connect 136 0 132 0;
#X connect 136 0 129 0;
#X connect 136 0 133 0;
#X connect 136 1 131 0;
#X connect 136 1 135 0;
#X connect 136 1 134 0;
#X connect 137 0 138 0;
#X connect 138 0 124 1;
#X connect 139 0 126 0;
#X connect 140 0 125 0;
#X connect 141 0 307 0;
#X connect 142 0 143 0;
#X connect 143 0 144 1;
#X connect 144 0 50 0;
#X connect 145 0 90 0;
#X connect 146 0 158 0;
#X connect 146 0 159 1;
#X connect 147 0 148 0;
#X connect 148 0 149 0;
#X connect 148 0 150 1;
#X connect 149 0 150 0;
#X connect 150 0 145 1;
#X connect 151 0 157 0;
#X connect 152 0 149 1;
#X connect 153 0 149 1;
#X connect 154 0 158 1;
#X connect 155 0 158 1;
#X connect 156 0 159 0;
#X connect 157 0 153 0;
#X connect 157 0 150 0;
#X connect 157 0 154 0;
#X connect 157 1 152 0;
#X connect 157 1 156 0;
#X connect 157 1 155 0;
#X connect 158 0 159 0;
#X connect 159 0 145 1;
#X connect 160 0 147 0;
#X connect 161 0 146 0;
#X connect 162 0 163 0;
#X connect 163 0 164 1;
#X connect 164 0 111 0;
#X connect 165 0 171 0;
#X connect 166 0 622 0;
#X connect 167 0 168 0;
#X connect 168 0 170 0;
#X connect 169 0 168 0;
#X connect 169 1 168 1;
#X connect 170 0 180 0;
#X connect 171 0 170 0;
#X connect 171 1 170 1;
#X connect 172 0 173 0;
#X connect 172 1 174 0;
#X connect 173 0 169 0;
#X connect 174 0 169 0;
#X connect 175 0 166 1;
#X connect 176 0 196 0;
#X connect 177 0 175 0;
#X connect 178 0 177 0;
#X connect 179 0 181 0;
#X connect 180 0 176 0;
#X connect 180 1 178 0;
#X connect 181 0 194 0;
#X connect 181 0 195 1;
#X connect 182 0 183 0;
#X connect 183 0 184 0;
#X connect 184 0 185 0;
#X connect 184 0 186 1;
#X connect 185 0 186 0;
#X connect 186 0 177 1;
#X connect 187 0 193 0;
#X connect 188 0 185 1;
#X connect 189 0 185 1;
#X connect 190 0 194 1;
#X connect 191 0 194 1;
#X connect 192 0 195 0;
#X connect 193 0 189 0;
#X connect 193 0 186 0;
#X connect 193 0 190 0;
#X connect 193 1 188 0;
#X connect 193 1 192 0;
#X connect 193 1 191 0;
#X connect 194 0 195 0;
#X connect 195 0 177 1;
#X connect 196 0 175 0;
#X connect 197 0 209 0;
#X connect 197 0 210 1;
#X connect 198 0 199 0;
#X connect 199 0 200 0;
#X connect 199 0 201 1;
#X connect 200 0 201 0;
#X connect 201 0 196 1;
#X connect 202 0 208 0;
#X connect 203 0 200 1;
#X connect 204 0 200 1;
#X connect 205 0 209 1;
#X connect 206 0 209 1;
#X connect 207 0 210 0;
#X connect 208 0 204 0;
#X connect 208 0 201 0;
#X connect 208 0 205 0;
#X connect 208 1 203 0;
#X connect 208 1 207 0;
#X connect 208 1 206 0;
#X connect 209 0 210 0;
#X connect 210 0 196 1;
#X connect 211 0 198 0;
#X connect 212 0 197 0;
#X connect 213 0 219 0;
#X connect 214 0 621 0;
#X connect 215 0 216 0;
#X connect 216 0 218 0;
#X connect 217 0 216 0;
#X connect 217 1 216 1;
#X connect 218 0 228 0;
#X connect 219 0 218 0;
#X connect 219 1 218 1;
#X connect 220 0 221 0;
#X connect 220 1 222 0;
#X connect 221 0 217 0;
#X connect 222 0 217 0;
#X connect 223 0 214 1;
#X connect 224 0 244 0;
#X connect 225 0 223 0;
#X connect 226 0 225 0;
#X connect 227 0 229 0;
#X connect 228 0 224 0;
#X connect 228 1 226 0;
#X connect 229 0 242 0;
#X connect 229 0 243 1;
#X connect 230 0 231 0;
#X connect 231 0 232 0;
#X connect 232 0 233 0;
#X connect 232 0 234 1;
#X connect 233 0 234 0;
#X connect 234 0 225 1;
#X connect 235 0 241 0;
#X connect 236 0 233 1;
#X connect 237 0 233 1;
#X connect 238 0 242 1;
#X connect 239 0 242 1;
#X connect 240 0 243 0;
#X connect 241 0 237 0;
#X connect 241 0 234 0;
#X connect 241 0 238 0;
#X connect 241 1 236 0;
#X connect 241 1 240 0;
#X connect 241 1 239 0;
#X connect 242 0 243 0;
#X connect 243 0 225 1;
#X connect 244 0 223 0;
#X connect 245 0 257 0;
#X connect 245 0 258 1;
#X connect 246 0 247 0;
#X connect 247 0 248 0;
#X connect 247 0 249 1;
#X connect 248 0 249 0;
#X connect 249 0 244 1;
#X connect 250 0 256 0;
#X connect 251 0 248 1;
#X connect 252 0 248 1;
#X connect 253 0 257 1;
#X connect 254 0 257 1;
#X connect 255 0 258 0;
#X connect 256 0 252 0;
#X connect 256 0 249 0;
#X connect 256 0 253 0;
#X connect 256 1 251 0;
#X connect 256 1 255 0;
#X connect 256 1 254 0;
#X connect 257 0 258 0;
#X connect 258 0 244 1;
#X connect 259 0 246 0;
#X connect 260 0 245 0;
#X connect 261 0 78 1;
#X connect 262 0 220 0;
#X connect 263 0 172 0;
#X connect 264 0 27 0;
#X connect 265 0 6 0;
#X connect 266 0 52 0;
#X connect 267 0 310 0;
#X connect 267 1 305 0;
#X connect 267 2 306 0;
#X connect 268 0 295 0;
#X connect 269 0 270 0;
#X connect 270 0 267 3;
#X connect 271 0 294 0;
#X connect 272 0 271 0;
#X connect 273 0 267 0;
#X connect 274 0 267 0;
#X connect 275 0 290 0;
#X connect 276 0 283 0;
#X connect 276 1 283 1;
#X connect 277 0 278 0;
#X connect 278 0 276 0;
#X connect 280 0 279 0;
#X connect 281 0 279 0;
#X connect 282 0 283 0;
#X connect 283 0 285 0;
#X connect 284 0 42 0;
#X connect 285 0 284 0;
#X connect 285 1 284 1;
#X connect 286 0 287 0;
#X connect 286 0 309 0;
#X connect 287 0 294 0;
#X connect 287 0 295 0;
#X connect 287 0 274 0;
#X connect 287 0 281 0;
#X connect 288 0 264 0;
#X connect 289 0 265 0;
#X connect 290 0 291 0;
#X connect 291 0 288 1;
#X connect 291 0 289 1;
#X connect 292 0 293 0;
#X connect 293 0 290 0;
#X connect 294 0 269 0;
#X connect 295 0 48 0;
#X connect 296 0 311 0;
#X connect 297 0 301 0;
#X connect 298 0 302 0;
#X connect 299 0 300 0;
#X connect 301 0 281 0;
#X connect 301 0 274 0;
#X connect 301 1 280 0;
#X connect 301 1 273 0;
#X connect 302 0 304 0;
#X connect 303 0 284 0;
#X connect 304 0 303 0;
#X connect 304 1 303 1;
#X connect 305 0 50 1;
#X connect 306 0 51 1;
#X connect 307 0 308 0;
#X connect 308 0 142 0;
#X connect 309 0 307 0;
#X connect 309 0 311 0;
#X connect 310 0 144 0;
#X connect 311 0 310 1;
#X connect 312 0 315 0;
#X connect 313 0 314 0;
#X connect 314 0 316 0;
#X connect 314 1 316 1;
#X connect 315 0 313 0;
#X connect 316 0 331 0;
#X connect 316 0 405 0;
#X connect 317 0 371 0;
#X connect 318 0 319 0;
#X connect 319 0 320 0;
#X connect 320 0 317 1;
#X connect 321 0 322 0;
#X connect 322 0 323 0;
#X connect 323 0 319 1;
#X connect 324 0 325 0;
#X connect 325 0 326 0;
#X connect 326 0 327 0;
#X connect 326 1 327 1;
#X connect 327 0 329 0;
#X connect 328 0 330 0;
#X connect 329 0 358 0;
#X connect 329 0 359 0;
#X connect 329 0 393 0;
#X connect 330 0 329 0;
#X connect 330 1 329 1;
#X connect 331 0 327 0;
#X connect 332 0 318 0;
#X connect 333 0 371 1;
#X connect 334 0 335 0;
#X connect 335 0 336 0;
#X connect 336 0 333 1;
#X connect 337 0 338 0;
#X connect 338 0 339 0;
#X connect 339 0 335 1;
#X connect 340 0 341 0;
#X connect 341 0 342 0;
#X connect 342 0 343 0;
#X connect 342 1 343 1;
#X connect 343 0 345 0;
#X connect 344 0 346 0;
#X connect 345 0 354 0;
#X connect 346 0 345 0;
#X connect 346 1 345 1;
#X connect 347 0 334 0;
#X connect 348 0 343 0;
#X connect 349 0 350 0;
#X connect 350 0 371 2;
#X connect 351 0 352 0;
#X connect 352 0 80 0;
#X connect 353 0 354 0;
#X connect 353 1 354 1;
#X connect 354 0 356 0;
#X connect 354 0 355 0;
#X connect 354 0 392 0;
#X connect 355 0 347 0;
#X connect 356 0 357 0;
#X connect 357 0 336 1;
#X connect 358 0 332 0;
#X connect 359 0 360 0;
#X connect 360 0 320 1;
#X connect 361 0 372 0;
#X connect 362 0 370 0;
#X connect 363 1 316 0;
#X connect 364 0 409 0;
#X connect 365 0 366 0;
#X connect 366 0 367 1;
#X connect 367 0 351 0;
#X connect 368 0 333 0;
#X connect 369 0 317 0;
#X connect 370 0 353 0;
#X connect 371 0 412 0;
#X connect 371 1 407 0;
#X connect 371 2 408 0;
#X connect 372 0 399 0;
#X connect 373 0 374 0;
#X connect 374 0 371 3;
#X connect 375 0 398 0;
#X connect 376 0 375 0;
#X connect 377 0 371 0;
#X connect 378 0 371 0;
#X connect 379 0 394 0;
#X connect 380 0 387 0;
#X connect 380 1 387 1;
#X connect 381 0 382 0;
#X connect 382 0 380 0;
#X connect 384 0 383 0;
#X connect 385 0 383 0;
#X connect 386 0 387 0;
#X connect 387 0 389 0;
#X connect 388 0 348 0;
#X connect 389 0 388 0;
#X connect 389 1 388 1;
#X connect 390 0 391 0;
#X connect 390 0 411 0;
#X connect 391 0 398 0;
#X connect 391 0 399 0;
#X connect 391 0 378 0;
#X connect 391 0 385 0;
#X connect 392 0 368 0;
#X connect 393 0 369 0;
#X connect 394 0 395 0;
#X connect 395 0 392 1;
#X connect 395 0 393 1;
#X connect 396 0 397 0;
#X connect 397 0 394 0;
#X connect 398 0 373 0;
#X connect 399 0 349 0;
#X connect 400 0 413 0;
#X connect 401 0 403 0;
#X connect 402 0 404 0;
#X connect 403 0 385 0;
#X connect 403 0 378 0;
#X connect 403 1 384 0;
#X connect 403 1 377 0;
#X connect 404 0 406 0;
#X connect 405 0 388 0;
#X connect 406 0 405 0;
#X connect 406 1 405 1;
#X connect 407 0 351 1;
#X connect 408 0 352 1;
#X connect 409 0 410 0;
#X connect 410 0 365 0;
#X connect 411 0 409 0;
#X connect 411 0 413 0;
#X connect 412 0 367 0;
#X connect 413 0 412 1;
#X connect 414 0 363 0;
#X connect 415 0 418 0;
#X connect 416 0 417 0;
#X connect 417 0 419 0;
#X connect 417 1 419 1;
#X connect 418 0 416 0;
#X connect 419 0 434 0;
#X connect 419 0 508 0;
#X connect 420 0 474 0;
#X connect 421 0 422 0;
#X connect 422 0 423 0;
#X connect 423 0 420 1;
#X connect 424 0 425 0;
#X connect 425 0 426 0;
#X connect 426 0 422 1;
#X connect 427 0 428 0;
#X connect 428 0 429 0;
#X connect 429 0 430 0;
#X connect 429 1 430 1;
#X connect 430 0 432 0;
#X connect 431 0 433 0;
#X connect 432 0 461 0;
#X connect 432 0 462 0;
#X connect 432 0 496 0;
#X connect 433 0 432 0;
#X connect 433 1 432 1;
#X connect 434 0 430 0;
#X connect 435 0 421 0;
#X connect 436 0 474 1;
#X connect 437 0 438 0;
#X connect 438 0 439 0;
#X connect 439 0 436 1;
#X connect 440 0 441 0;
#X connect 441 0 442 0;
#X connect 442 0 438 1;
#X connect 443 0 444 0;
#X connect 444 0 445 0;
#X connect 445 0 446 0;
#X connect 445 1 446 1;
#X connect 446 0 448 0;
#X connect 447 0 449 0;
#X connect 448 0 457 0;
#X connect 449 0 448 0;
#X connect 449 1 448 1;
#X connect 450 0 437 0;
#X connect 451 0 446 0;
#X connect 452 0 453 0;
#X connect 453 0 474 2;
#X connect 454 0 455 0;
#X connect 455 0 166 0;
#X connect 456 0 457 0;
#X connect 456 1 457 1;
#X connect 457 0 459 0;
#X connect 457 0 458 0;
#X connect 457 0 495 0;
#X connect 458 0 450 0;
#X connect 459 0 460 0;
#X connect 460 0 439 1;
#X connect 461 0 435 0;
#X connect 462 0 463 0;
#X connect 463 0 423 1;
#X connect 464 0 475 0;
#X connect 465 0 473 0;
#X connect 466 1 419 0;
#X connect 467 0 512 0;
#X connect 468 0 469 0;
#X connect 469 0 470 1;
#X connect 470 0 454 0;
#X connect 471 0 436 0;
#X connect 472 0 420 0;
#X connect 473 0 456 0;
#X connect 474 0 515 0;
#X connect 474 1 510 0;
#X connect 474 2 511 0;
#X connect 475 0 502 0;
#X connect 476 0 477 0;
#X connect 477 0 474 3;
#X connect 478 0 501 0;
#X connect 479 0 478 0;
#X connect 480 0 474 0;
#X connect 481 0 474 0;
#X connect 482 0 497 0;
#X connect 483 0 490 0;
#X connect 483 1 490 1;
#X connect 484 0 485 0;
#X connect 485 0 483 0;
#X connect 487 0 486 0;
#X connect 488 0 486 0;
#X connect 489 0 490 0;
#X connect 490 0 492 0;
#X connect 491 0 451 0;
#X connect 492 0 491 0;
#X connect 492 1 491 1;
#X connect 493 0 494 0;
#X connect 493 0 514 0;
#X connect 494 0 501 0;
#X connect 494 0 502 0;
#X connect 494 0 481 0;
#X connect 494 0 488 0;
#X connect 495 0 471 0;
#X connect 496 0 472 0;
#X connect 497 0 498 0;
#X connect 498 0 495 1;
#X connect 498 0 496 1;
#X connect 499 0 500 0;
#X connect 500 0 497 0;
#X connect 501 0 476 0;
#X connect 502 0 452 0;
#X connect 503 0 516 0;
#X connect 504 0 506 0;
#X connect 505 0 507 0;
#X connect 506 0 488 0;
#X connect 506 0 481 0;
#X connect 506 1 487 0;
#X connect 506 1 480 0;
#X connect 507 0 509 0;
#X connect 508 0 491 0;
#X connect 509 0 508 0;
#X connect 509 1 508 1;
#X connect 510 0 454 1;
#X connect 511 0 455 1;
#X connect 512 0 513 0;
#X connect 513 0 468 0;
#X connect 514 0 512 0;
#X connect 514 0 516 0;
#X connect 515 0 470 0;
#X connect 516 0 515 1;
#X connect 517 0 466 0;
#X connect 518 0 521 0;
#X connect 519 0 520 0;
#X connect 520 0 522 0;
#X connect 520 1 522 1;
#X connect 521 0 519 0;
#X connect 522 0 537 0;
#X connect 522 0 611 0;
#X connect 523 0 577 0;
#X connect 524 0 525 0;
#X connect 525 0 526 0;
#X connect 526 0 523 1;
#X connect 527 0 528 0;
#X connect 528 0 529 0;
#X connect 529 0 525 1;
#X connect 530 0 531 0;
#X connect 531 0 532 0;
#X connect 532 0 533 0;
#X connect 532 1 533 1;
#X connect 533 0 535 0;
#X connect 534 0 536 0;
#X connect 535 0 564 0;
#X connect 535 0 565 0;
#X connect 535 0 599 0;
#X connect 536 0 535 0;
#X connect 536 1 535 1;
#X connect 537 0 533 0;
#X connect 538 0 524 0;
#X connect 539 0 577 1;
#X connect 540 0 541 0;
#X connect 541 0 542 0;
#X connect 542 0 539 1;
#X connect 543 0 544 0;
#X connect 544 0 545 0;
#X connect 545 0 541 1;
#X connect 546 0 547 0;
#X connect 547 0 548 0;
#X connect 548 0 549 0;
#X connect 548 1 549 1;
#X connect 549 0 551 0;
#X connect 550 0 552 0;
#X connect 551 0 560 0;
#X connect 552 0 551 0;
#X connect 552 1 551 1;
#X connect 553 0 540 0;
#X connect 554 0 549 0;
#X connect 555 0 556 0;
#X connect 556 0 577 2;
#X connect 557 0 558 0;
#X connect 558 0 214 0;
#X connect 559 0 560 0;
#X connect 559 1 560 1;
#X connect 560 0 562 0;
#X connect 560 0 561 0;
#X connect 560 0 598 0;
#X connect 561 0 553 0;
#X connect 562 0 563 0;
#X connect 563 0 542 1;
#X connect 564 0 538 0;
#X connect 565 0 566 0;
#X connect 566 0 526 1;
#X connect 567 0 578 0;
#X connect 568 0 576 0;
#X connect 569 1 522 0;
#X connect 570 0 615 0;
#X connect 571 0 572 0;
#X connect 572 0 573 1;
#X connect 573 0 557 0;
#X connect 574 0 539 0;
#X connect 575 0 523 0;
#X connect 576 0 559 0;
#X connect 577 0 618 0;
#X connect 577 1 613 0;
#X connect 577 2 614 0;
#X connect 578 0 605 0;
#X connect 579 0 580 0;
#X connect 580 0 577 3;
#X connect 581 0 604 0;
#X connect 582 0 581 0;
#X connect 583 0 577 0;
#X connect 584 0 577 0;
#X connect 585 0 600 0;
#X connect 586 0 593 0;
#X connect 586 1 593 1;
#X connect 587 0 588 0;
#X connect 588 0 586 0;
#X connect 590 0 589 0;
#X connect 591 0 589 0;
#X connect 592 0 593 0;
#X connect 593 0 595 0;
#X connect 594 0 554 0;
#X connect 595 0 594 0;
#X connect 595 1 594 1;
#X connect 596 0 597 0;
#X connect 596 0 617 0;
#X connect 597 0 604 0;
#X connect 597 0 605 0;
#X connect 597 0 584 0;
#X connect 597 0 591 0;
#X connect 598 0 574 0;
#X connect 599 0 575 0;
#X connect 600 0 601 0;
#X connect 601 0 598 1;
#X connect 601 0 599 1;
#X connect 602 0 603 0;
#X connect 603 0 600 0;
#X connect 604 0 579 0;
#X connect 605 0 555 0;
#X connect 606 0 619 0;
#X connect 607 0 609 0;
#X connect 608 0 610 0;
#X connect 609 0 591 0;
#X connect 609 0 584 0;
#X connect 609 1 590 0;
#X connect 609 1 583 0;
#X connect 610 0 612 0;
#X connect 611 0 594 0;
#X connect 612 0 611 0;
#X connect 612 1 611 1;
#X connect 613 0 557 1;
#X connect 614 0 558 1;
#X connect 615 0 616 0;
#X connect 616 0 571 0;
#X connect 617 0 615 0;
#X connect 617 0 619 0;
#X connect 618 0 573 0;
#X connect 619 0 618 1;
#X connect 620 0 569 0;
#X connect 621 0 261 1;
#X connect 622 0 261 0;
#X connect 623 0 111 1;
#X connect 624 0 625 0;
#X connect 625 0 162 0;
