#N canvas 0 47 1920 1153 10;
#X obj 43 62 r octave;
#X obj 44 107 * 12;
#X obj 44 129 t b f;
#X obj 43 84 + 1;
#X obj 1 188 +;
#X obj -47 -157 r arpPitch;
#X obj 42 -156 r pitch1;
#X obj -142 -157 r monoPitch;
#X obj -30 -70 r ChordMode;
#X obj -30 -47 * -1;
#X obj -30 -26 + 1;
#X obj -69 7 spigot;
#X obj 80 -70 r ChordMode;
#X obj 41 5 spigot;
#X obj -126 -93 * -1;
#X obj -126 -72 + 1;
#X obj -165 -39 spigot;
#X obj -94 -37 spigot;
#X obj -126 -116 r ArpMode;
#X obj -152 662 sig~;
#X obj -153 714 +~;
#X obj -91 607 osc~ 5;
#X obj -91 630 *~, f 4;
#X obj -92 654 *~ 30, f 7;
#X obj -34 525 r Modulation;
#X obj -34 545 pack 0 5;
#X obj -34 568 line~;
#X obj 30 1718 *~;
#X obj 49 1693 line~, f 7;
#X obj -90 284 r bpm;
#X obj -90 308 / 120;
#X obj -90 332 t b f;
#X obj -105 357 * 1, f 5;
#X obj -89 389 r pitchbend;
#X obj -104 454 * 1, f 5;
#X obj -91 421 t b f;
#X obj 48 1336 r velocity;
#X obj 887 2142 s~ synth1-out;
#X obj -105 259 mtof;
#X obj 68 1721 r ChordMode;
#X obj -91 584 + 6;
#X obj 89 660 sig~;
#X obj 93 701 +~;
#X obj 150 605 osc~ 5;
#X obj 150 628 *~, f 4;
#X obj 149 652 *~ 30, f 7;
#X obj 211 522 r Modulation;
#X obj 211 542 pack 0 5;
#X obj 211 563 line~;
#X obj 112 321 r bpm;
#X obj 112 345 / 120;
#X obj 112 369 t b f;
#X obj 97 394 * 1, f 5;
#X obj 111 421 r pitchbend;
#X obj 96 486 * 1, f 5;
#X obj 109 453 t b f;
#X obj 150 582 + 6;
#X obj 73 320 mtof;
#X msg 48 1517 1;
#X obj 149 1610 pack 0 10;
#X msg 101 1518 0;
#X obj 189 1435 r arpNoteDecay;
#X obj 48 1492 select 1;
#X obj 149 822 logscale;
#X obj 72 822 logscale;
#X obj 142 774 / 512;
#X obj 90 965 flame~;
#X obj -78 944 flame~;
#X obj 128 998 *~;
#X obj 149 847 pack 0 10;
#X obj 69 847 pack 0 10;
#X obj 68 874 line~;
#X obj 149 875 line~;
#X obj -27 820 / 254;
#X obj -25 849 pack 0 10;
#X obj -24 876 line~;
#X obj -64 1226 +~;
#X obj 36 1261 +~;
#X obj -39 1160 *~ 0.75;
#X obj 130 1168 *~ 0.75;
#X obj -125 986 *~ 0.15;
#X obj -17 989 *~;
#X obj 109 239 t b f;
#X obj 106 279 +;
#X obj 127 201 / 512;
#X obj 150 561 / 500;
#X obj 210 599 / 200;
#X obj 203 628 + 5;
#X obj -91 563 / 500;
#X obj -31 600 / 200;
#X obj -32 624 + 5;
#X obj 189 1460 + 10;
#X obj 304 1434 r Decay;
#X obj 301 1462 * 10;
#X obj 300 1492 + 10;
#X obj 299 1521 spigot;
#X obj 282 1546 f;
#X obj 279 1312 r ArpMode;
#X msg 336 1394 0;
#X msg 300 1392 1;
#X msg 221 1392 0;
#X msg 185 1390 1;
#X obj 260 1391 bang;
#X obj 282 1335 select 0 1;
#X obj 206 1489 spigot;
#X obj 184 1529 f, f 4;
#X obj -27 796 r Macro00-1;
#X obj 142 751 r Macro00-2;
#X obj 133 169 r Macro00-2;
#X obj 85 -120 moses 0;
#X obj 871 2092 +~;
#X obj 666 18 r octave;
#X obj 667 63 * 12;
#X obj 667 85 t b f;
#X obj 666 40 + 1;
#X obj 658 134 +;
#X obj 502 672 sig~;
#X obj 501 724 +~;
#X obj 563 617 osc~ 5;
#X obj 563 640 *~, f 4;
#X obj 562 664 *~ 30, f 7;
#X obj 620 535 r Modulation;
#X obj 620 555 pack 0 5;
#X obj 620 578 line~;
#X obj 588 294 r bpm;
#X obj 588 318 / 120;
#X obj 588 342 t b f;
#X obj 573 367 * 1, f 5;
#X obj 575 405 r pitchbend;
#X obj 560 470 * 1, f 5;
#X obj 573 437 t b f;
#X obj 548 290 mtof;
#X obj 563 594 + 6;
#X obj 725 674 sig~;
#X obj 729 715 +~;
#X obj 786 619 osc~ 5;
#X obj 786 642 *~, f 4;
#X obj 785 666 *~ 30, f 7;
#X obj 847 536 r Modulation;
#X obj 847 556 pack 0 5;
#X obj 847 577 line~;
#X obj 768 292 r bpm;
#X obj 768 316 / 120;
#X obj 768 340 t b f;
#X obj 753 365 * 1, f 5;
#X obj 726 399 r pitchbend;
#X obj 711 464 * 1, f 5;
#X obj 724 431 t b f;
#X obj 786 596 + 6;
#X obj 729 291 mtof;
#X obj 745 833 logscale;
#X obj 668 833 logscale;
#X obj 738 785 / 512;
#X obj 698 964 flame~;
#X obj 524 961 flame~;
#X obj 749 1019 *~;
#X obj 745 858 pack 0 10;
#X obj 665 858 pack 0 10;
#X obj 664 885 line~;
#X obj 745 886 line~;
#X obj 569 831 / 254;
#X obj 571 860 pack 0 10;
#X obj 572 887 line~;
#X obj 561 1059 *~ 0.75;
#X obj 749 1058 *~ 0.75;
#X obj 585 1006 *~;
#X obj 724 217 t b f;
#X obj 721 257 +;
#X obj 742 179 / 512;
#X obj 786 575 / 500;
#X obj 846 613 / 200;
#X obj 839 642 + 5;
#X obj 563 573 / 500;
#X obj 623 610 / 200;
#X obj 622 634 + 5;
#X obj 569 807 r Macro00-1;
#X obj 738 762 r Macro00-2;
#X obj 748 147 r Macro00-2;
#X obj 594 -43 r pitch2;
#X obj 713 1321 r ChordMode;
#X obj 678 1554 *~;
#X obj 701 1162 r velocity;
#X obj 701 1296 *;
#X obj 734 1268 t b f;
#X obj 702 1380 *, f 4;
#X obj 712 1349 t b f;
#X obj 711 1216 select -1;
#X msg 712 1245 0;
#X msg 759 1248 1;
#X obj 712 1188 r pitch2;
#X obj 594 -19 moses 0;
#X obj 695 1527 line~;
#X msg 698 1445 1;
#X obj 783 1473 pack 0 10;
#X msg 782 1447 0;
#X obj 804 1294 r arpNoteDecay;
#X obj 702 1422 select 1;
#X obj 804 1319 + 10;
#X obj 913 1290 r Decay;
#X obj 910 1318 * 10;
#X obj 909 1348 + 10;
#X obj 908 1377 spigot;
#X obj 900 1411 f;
#X obj 879 1164 r ArpMode;
#X msg 967 1250 0;
#X msg 931 1248 1;
#X msg 846 1248 0;
#X msg 810 1246 1;
#X obj 885 1248 bang;
#X obj 882 1187 select 0 1;
#X obj 821 1348 spigot;
#X obj 820 1379 f;
#X obj 345 1965 +~;
#X obj 677 1593 *~ 0.4;
#X obj 67 1745 * -0.3;
#X obj 66 1771 + 0.7;
#X obj 87 1375 r ChordMode;
#X obj 128 1213 r velocity;
#X obj 128 1336 *;
#X obj 148 1308 t b f;
#X obj 135 1260 select -1;
#X msg 135 1281 0;
#X msg 195 1281 1;
#X obj 128 1443 spigot;
#X obj 48 1444 spigot;
#X obj 87 1399 * -1;
#X obj 87 1421 + 1;
#X obj 135 1238 r pitch1;
#X obj -139 1607 pack 0 10;
#X obj -153 1454 + 10;
#X obj -36 1457 * 10;
#X obj -37 1487 + 10;
#X obj -38 1516 spigot;
#X obj -79 1554 f;
#X obj -67 1320 r ArpMode;
#X msg 8 1394 0;
#X msg -24 1394 1;
#X msg -122 1394 0;
#X msg -158 1392 1;
#X obj -83 1394 bang;
#X obj -67 1343 select 0 1;
#X obj -136 1483 spigot;
#X obj -158 1523 f;
#X obj -33 1429 r Attack;
#X obj -153 1429 r arpNoteAttack;
#X obj 668 1112 +~;
#X obj -118 1066 r ChordMode;
#X obj -119 1098 pack 0 10;
#X obj -118 1125 line~;
#X obj -146 1160 *~;
#X obj 519 1477 pack 0 10;
#X obj 505 1324 + 10;
#X obj 622 1327 * 10;
#X obj 621 1357 + 10;
#X obj 620 1386 spigot;
#X obj 579 1424 f;
#X obj 591 1190 r ArpMode;
#X msg 666 1264 0;
#X msg 634 1264 1;
#X msg 536 1264 0;
#X msg 500 1262 1;
#X obj 575 1264 bang;
#X obj 591 1213 select 0 1;
#X obj 522 1353 spigot;
#X obj 500 1393 f;
#X obj 625 1299 r Attack;
#X obj 505 1299 r arpNoteAttack;
#X obj 66 1792 pack 0 10;
#X obj 66 1811 line~;
#X obj 29 1846 *~;
#X obj 1218 8 r octave;
#X obj 1219 53 * 12;
#X obj 1219 75 t b f;
#X obj 1218 30 + 1;
#X obj 1210 124 +;
#X obj 1054 662 sig~;
#X obj 1053 714 +~;
#X obj 1115 607 osc~ 5;
#X obj 1115 630 *~, f 4;
#X obj 1114 654 *~ 30, f 7;
#X obj 1172 525 r Modulation;
#X obj 1172 545 pack 0 5;
#X obj 1172 568 line~;
#X obj 1140 284 r bpm;
#X obj 1140 308 / 120;
#X obj 1140 332 t b f;
#X obj 1125 357 * 1, f 5;
#X obj 1127 395 r pitchbend;
#X obj 1112 460 * 1, f 5;
#X obj 1125 427 t b f;
#X obj 1100 280 mtof;
#X obj 1115 584 + 6;
#X obj 1277 664 sig~;
#X obj 1281 705 +~;
#X obj 1338 609 osc~ 5;
#X obj 1338 632 *~, f 4;
#X obj 1337 656 *~ 30, f 7;
#X obj 1399 526 r Modulation;
#X obj 1399 546 pack 0 5;
#X obj 1399 567 line~;
#X obj 1320 282 r bpm;
#X obj 1320 306 / 120;
#X obj 1320 330 t b f;
#X obj 1305 355 * 1, f 5;
#X obj 1278 389 r pitchbend;
#X obj 1263 454 * 1, f 5;
#X obj 1276 421 t b f;
#X obj 1338 586 + 6;
#X obj 1281 281 mtof;
#X obj 1297 823 logscale;
#X obj 1220 823 logscale;
#X obj 1290 775 / 512;
#X obj 1250 954 flame~;
#X obj 1076 951 flame~;
#X obj 1301 1009 *~;
#X obj 1297 848 pack 0 10;
#X obj 1217 848 pack 0 10;
#X obj 1216 875 line~;
#X obj 1297 876 line~;
#X obj 1121 821 / 254;
#X obj 1123 850 pack 0 10;
#X obj 1124 877 line~;
#X obj 1113 1049 *~ 0.75;
#X obj 1301 1048 *~ 0.75;
#X obj 1137 996 *~;
#X obj 1276 207 t b f;
#X obj 1273 247 +;
#X obj 1294 169 / 512;
#X obj 1338 565 / 500;
#X obj 1398 603 / 200;
#X obj 1391 632 + 5;
#X obj 1115 563 / 500;
#X obj 1175 600 / 200;
#X obj 1174 624 + 5;
#X obj 1121 797 r Macro00-1;
#X obj 1290 752 r Macro00-2;
#X obj 1300 137 r Macro00-2;
#X obj 1265 1311 r ChordMode;
#X obj 1230 1544 *~;
#X obj 1253 1152 r velocity;
#X obj 1253 1286 *;
#X obj 1286 1258 t b f;
#X obj 1254 1370 *, f 4;
#X obj 1264 1339 t b f;
#X obj 1263 1206 select -1;
#X msg 1264 1235 0;
#X msg 1311 1238 1;
#X obj 1145 -20 moses 0;
#X obj 1247 1517 line~;
#X msg 1250 1435 1;
#X obj 1335 1463 pack 0 10;
#X msg 1334 1437 0;
#X obj 1356 1284 r arpNoteDecay;
#X obj 1254 1412 select 1;
#X obj 1356 1309 + 10;
#X obj 1465 1280 r Decay;
#X obj 1462 1308 * 10;
#X obj 1461 1338 + 10;
#X obj 1460 1367 spigot;
#X obj 1452 1401 f;
#X obj 1431 1154 r ArpMode;
#X msg 1519 1240 0;
#X msg 1483 1238 1;
#X msg 1398 1238 0;
#X msg 1362 1236 1;
#X obj 1437 1238 bang;
#X obj 1434 1177 select 0 1;
#X obj 1373 1338 spigot;
#X obj 1372 1369 f;
#X obj 1229 1583 *~ 0.4;
#X obj 1220 1102 +~;
#X obj 1071 1467 pack 0 10;
#X obj 1057 1314 + 10;
#X obj 1174 1317 * 10;
#X obj 1173 1347 + 10;
#X obj 1172 1376 spigot;
#X obj 1131 1414 f;
#X obj 1143 1180 r ArpMode;
#X msg 1218 1254 0;
#X msg 1186 1254 1;
#X msg 1088 1254 0;
#X msg 1052 1252 1;
#X obj 1127 1254 bang;
#X obj 1143 1203 select 0 1;
#X obj 1074 1343 spigot;
#X obj 1052 1383 f;
#X obj 1177 1289 r Attack;
#X obj 1057 1289 r arpNoteAttack;
#X obj 1743 -3 r octave;
#X obj 1744 42 * 12;
#X obj 1744 64 t b f;
#X obj 1743 19 + 1;
#X obj 1735 113 +;
#X obj 1579 651 sig~;
#X obj 1578 703 +~;
#X obj 1640 596 osc~ 5;
#X obj 1640 619 *~, f 4;
#X obj 1639 643 *~ 30, f 7;
#X obj 1697 514 r Modulation;
#X obj 1697 534 pack 0 5;
#X obj 1697 557 line~;
#X obj 1665 273 r bpm;
#X obj 1665 297 / 120;
#X obj 1665 321 t b f;
#X obj 1650 346 * 1, f 5;
#X obj 1652 384 r pitchbend;
#X obj 1637 449 * 1, f 5;
#X obj 1650 416 t b f;
#X obj 1625 269 mtof;
#X obj 1640 573 + 6;
#X obj 1802 653 sig~;
#X obj 1806 694 +~;
#X obj 1863 598 osc~ 5;
#X obj 1863 621 *~, f 4;
#X obj 1862 645 *~ 30, f 7;
#X obj 1924 515 r Modulation;
#X obj 1924 535 pack 0 5;
#X obj 1924 556 line~;
#X obj 1845 271 r bpm;
#X obj 1845 295 / 120;
#X obj 1845 319 t b f;
#X obj 1830 344 * 1, f 5;
#X obj 1803 378 r pitchbend;
#X obj 1788 443 * 1, f 5;
#X obj 1801 410 t b f;
#X obj 1863 575 + 6;
#X obj 1806 270 mtof;
#X obj 1822 812 logscale;
#X obj 1745 812 logscale;
#X obj 1815 764 / 512;
#X obj 1775 943 flame~;
#X obj 1601 940 flame~;
#X obj 1826 998 *~;
#X obj 1822 837 pack 0 10;
#X obj 1742 837 pack 0 10;
#X obj 1741 864 line~;
#X obj 1822 865 line~;
#X obj 1646 810 / 254;
#X obj 1648 839 pack 0 10;
#X obj 1649 866 line~;
#X obj 1638 1038 *~ 0.75;
#X obj 1826 1037 *~ 0.75;
#X obj 1662 985 *~;
#X obj 1801 196 t b f;
#X obj 1798 236 +;
#X obj 1819 158 / 512;
#X obj 1863 554 / 500;
#X obj 1923 592 / 200;
#X obj 1916 621 + 5;
#X obj 1640 552 / 500;
#X obj 1700 589 / 200;
#X obj 1699 613 + 5;
#X obj 1646 786 r Macro00-1;
#X obj 1815 741 r Macro00-2;
#X obj 1825 126 r Macro00-2;
#X obj 1790 1300 r ChordMode;
#X obj 1755 1533 *~;
#X obj 1778 1141 r velocity;
#X obj 1778 1275 *;
#X obj 1811 1247 t b f;
#X obj 1779 1359 *, f 4;
#X obj 1789 1328 t b f;
#X obj 1788 1195 select -1;
#X msg 1789 1224 0;
#X msg 1836 1227 1;
#X obj 1681 -37 moses 0;
#X obj 1772 1506 line~;
#X msg 1775 1424 1;
#X obj 1860 1452 pack 0 10;
#X msg 1859 1426 0;
#X obj 1881 1273 r arpNoteDecay;
#X obj 1779 1401 select 1;
#X obj 1881 1298 + 10;
#X obj 1990 1269 r Decay;
#X obj 1987 1297 * 10;
#X obj 1986 1327 + 10;
#X obj 1985 1356 spigot;
#X obj 1977 1390 f;
#X obj 1956 1143 r ArpMode;
#X msg 2050 1224 0;
#X msg 2008 1227 1;
#X msg 1923 1227 0;
#X msg 1887 1225 1;
#X obj 1962 1227 bang;
#X obj 1959 1166 select 0 1;
#X obj 1898 1327 spigot;
#X obj 1897 1358 f;
#X obj 1755 1580 *~ 0.4;
#X obj 1745 1091 +~;
#X obj 1596 1456 pack 0 10;
#X obj 1582 1303 + 10;
#X obj 1699 1306 * 10;
#X obj 1698 1336 + 10;
#X obj 1697 1365 spigot;
#X obj 1656 1403 f;
#X obj 1668 1169 r ArpMode;
#X msg 1743 1243 0;
#X msg 1711 1243 1;
#X msg 1613 1243 0;
#X msg 1577 1241 1;
#X obj 1652 1243 bang;
#X obj 1668 1192 select 0 1;
#X obj 1599 1332 spigot;
#X obj 1577 1372 f;
#X obj 1702 1278 r Attack;
#X obj 1582 1278 r arpNoteAttack;
#X obj 1602 1854 +~;
#X obj 1789 1167 r pitch4;
#X obj 1264 1178 r pitch3;
#X obj 1144 -39 r pitch3;
#X obj 1682 -57 r pitch4;
#X connect 0 0 3 0;
#X connect 1 0 2 0;
#X connect 2 0 4 0;
#X connect 2 1 4 1;
#X connect 3 0 1 0;
#X connect 4 0 38 0;
#X connect 4 0 83 0;
#X connect 5 0 17 0;
#X connect 6 0 109 0;
#X connect 7 0 16 0;
#X connect 8 0 9 0;
#X connect 8 0 13 1;
#X connect 9 0 10 0;
#X connect 10 0 11 1;
#X connect 11 0 4 0;
#X connect 12 0 13 1;
#X connect 13 0 4 0;
#X connect 14 0 15 0;
#X connect 15 0 16 1;
#X connect 16 0 11 0;
#X connect 17 0 11 0;
#X connect 18 0 14 0;
#X connect 18 0 17 1;
#X connect 19 0 20 0;
#X connect 20 0 67 0;
#X connect 21 0 22 0;
#X connect 22 0 23 0;
#X connect 23 0 20 1;
#X connect 24 0 25 0;
#X connect 25 0 26 0;
#X connect 26 0 22 1;
#X connect 27 0 269 0;
#X connect 28 0 27 1;
#X connect 29 0 30 0;
#X connect 30 0 31 0;
#X connect 31 0 32 0;
#X connect 31 1 32 1;
#X connect 32 0 34 0;
#X connect 33 0 35 0;
#X connect 34 0 19 0;
#X connect 34 0 88 0;
#X connect 34 0 89 0;
#X connect 35 0 34 0;
#X connect 35 1 34 1;
#X connect 36 0 224 0;
#X connect 38 0 32 0;
#X connect 39 0 214 0;
#X connect 40 0 21 0;
#X connect 41 0 42 0;
#X connect 42 0 66 0;
#X connect 43 0 44 0;
#X connect 44 0 45 0;
#X connect 45 0 42 1;
#X connect 46 0 47 0;
#X connect 47 0 48 0;
#X connect 48 0 44 1;
#X connect 49 0 50 0;
#X connect 50 0 51 0;
#X connect 51 0 52 0;
#X connect 51 1 52 1;
#X connect 52 0 54 0;
#X connect 53 0 55 0;
#X connect 54 0 41 0;
#X connect 54 0 85 0;
#X connect 54 0 86 0;
#X connect 55 0 54 0;
#X connect 55 1 54 1;
#X connect 56 0 43 0;
#X connect 57 0 52 0;
#X connect 58 0 228 0;
#X connect 59 0 28 0;
#X connect 60 0 59 0;
#X connect 61 0 91 0;
#X connect 62 0 58 0;
#X connect 62 1 60 0;
#X connect 63 0 69 0;
#X connect 64 0 70 0;
#X connect 65 0 63 0;
#X connect 65 0 64 1;
#X connect 66 1 68 0;
#X connect 67 0 80 0;
#X connect 67 1 81 0;
#X connect 68 0 79 0;
#X connect 69 0 72 0;
#X connect 70 0 71 0;
#X connect 71 0 81 1;
#X connect 72 0 68 1;
#X connect 73 0 74 0;
#X connect 74 0 75 0;
#X connect 75 0 66 1;
#X connect 75 0 67 1;
#X connect 76 0 77 0;
#X connect 77 0 27 0;
#X connect 78 0 76 1;
#X connect 79 0 77 1;
#X connect 80 0 249 0;
#X connect 81 0 78 0;
#X connect 82 0 83 0;
#X connect 82 1 83 1;
#X connect 83 0 57 0;
#X connect 84 0 82 0;
#X connect 85 0 56 0;
#X connect 86 0 87 0;
#X connect 87 0 45 1;
#X connect 88 0 40 0;
#X connect 89 0 90 0;
#X connect 90 0 23 1;
#X connect 91 0 104 0;
#X connect 91 0 105 1;
#X connect 92 0 93 0;
#X connect 93 0 94 0;
#X connect 94 0 95 0;
#X connect 94 0 96 1;
#X connect 95 0 96 0;
#X connect 96 0 59 1;
#X connect 97 0 103 0;
#X connect 98 0 95 1;
#X connect 99 0 95 1;
#X connect 100 0 104 1;
#X connect 101 0 104 1;
#X connect 102 0 105 0;
#X connect 103 0 99 0;
#X connect 103 0 96 0;
#X connect 103 0 100 0;
#X connect 103 1 98 0;
#X connect 103 1 102 0;
#X connect 103 1 101 0;
#X connect 104 0 105 0;
#X connect 105 0 59 1;
#X connect 106 0 73 0;
#X connect 107 0 65 0;
#X connect 108 0 84 0;
#X connect 109 1 13 0;
#X connect 110 0 37 0;
#X connect 111 0 114 0;
#X connect 112 0 113 0;
#X connect 113 0 115 0;
#X connect 113 1 115 1;
#X connect 114 0 112 0;
#X connect 115 0 131 0;
#X connect 115 0 167 0;
#X connect 116 0 117 0;
#X connect 117 0 154 0;
#X connect 118 0 119 0;
#X connect 119 0 120 0;
#X connect 120 0 117 1;
#X connect 121 0 122 0;
#X connect 122 0 123 0;
#X connect 123 0 119 1;
#X connect 124 0 125 0;
#X connect 125 0 126 0;
#X connect 126 0 127 0;
#X connect 126 1 127 1;
#X connect 127 0 129 0;
#X connect 128 0 130 0;
#X connect 129 0 116 0;
#X connect 129 0 172 0;
#X connect 129 0 173 0;
#X connect 130 0 129 0;
#X connect 130 1 129 1;
#X connect 131 0 127 0;
#X connect 132 0 118 0;
#X connect 133 0 134 0;
#X connect 134 0 153 0;
#X connect 135 0 136 0;
#X connect 136 0 137 0;
#X connect 137 0 134 1;
#X connect 138 0 139 0;
#X connect 139 0 140 0;
#X connect 140 0 136 1;
#X connect 141 0 142 0;
#X connect 142 0 143 0;
#X connect 143 0 144 0;
#X connect 143 1 144 1;
#X connect 144 0 146 0;
#X connect 145 0 147 0;
#X connect 146 0 133 0;
#X connect 146 0 169 0;
#X connect 146 0 170 0;
#X connect 147 0 146 0;
#X connect 147 1 146 1;
#X connect 148 0 135 0;
#X connect 149 0 144 0;
#X connect 150 0 156 0;
#X connect 151 0 157 0;
#X connect 152 0 150 0;
#X connect 152 0 151 1;
#X connect 153 1 155 0;
#X connect 154 1 165 0;
#X connect 155 0 164 0;
#X connect 156 0 159 0;
#X connect 157 0 158 0;
#X connect 158 0 165 1;
#X connect 159 0 155 1;
#X connect 160 0 161 0;
#X connect 161 0 162 0;
#X connect 162 0 153 1;
#X connect 162 0 154 1;
#X connect 163 0 245 0;
#X connect 164 0 245 1;
#X connect 165 0 163 0;
#X connect 166 0 167 0;
#X connect 166 1 167 1;
#X connect 167 0 149 0;
#X connect 168 0 166 0;
#X connect 169 0 148 0;
#X connect 170 0 171 0;
#X connect 171 0 137 1;
#X connect 172 0 132 0;
#X connect 173 0 174 0;
#X connect 174 0 120 1;
#X connect 175 0 160 0;
#X connect 176 0 152 0;
#X connect 177 0 168 0;
#X connect 178 0 190 0;
#X connect 179 0 185 0;
#X connect 180 0 213 0;
#X connect 181 0 182 0;
#X connect 182 0 184 0;
#X connect 183 0 182 0;
#X connect 183 1 182 1;
#X connect 184 0 196 0;
#X connect 185 0 184 0;
#X connect 185 1 184 1;
#X connect 186 0 187 0;
#X connect 186 1 188 0;
#X connect 187 0 183 0;
#X connect 188 0 183 0;
#X connect 189 0 186 0;
#X connect 190 1 115 0;
#X connect 191 0 180 1;
#X connect 192 0 250 0;
#X connect 193 0 191 0;
#X connect 194 0 193 0;
#X connect 195 0 197 0;
#X connect 196 0 192 0;
#X connect 196 1 194 0;
#X connect 197 0 210 0;
#X connect 197 0 211 1;
#X connect 198 0 199 0;
#X connect 199 0 200 0;
#X connect 200 0 201 0;
#X connect 200 0 202 1;
#X connect 201 0 202 0;
#X connect 202 0 193 1;
#X connect 203 0 209 0;
#X connect 204 0 201 1;
#X connect 205 0 201 1;
#X connect 206 0 210 1;
#X connect 207 0 210 1;
#X connect 208 0 211 0;
#X connect 209 0 205 0;
#X connect 209 0 202 0;
#X connect 209 0 206 0;
#X connect 209 1 204 0;
#X connect 209 1 208 0;
#X connect 209 1 207 0;
#X connect 210 0 211 0;
#X connect 211 0 193 1;
#X connect 212 0 110 0;
#X connect 213 0 212 1;
#X connect 214 0 215 0;
#X connect 215 0 267 0;
#X connect 216 0 223 1;
#X connect 216 0 225 0;
#X connect 217 0 218 0;
#X connect 218 0 223 0;
#X connect 219 0 218 0;
#X connect 219 1 218 1;
#X connect 220 0 221 0;
#X connect 220 1 222 0;
#X connect 221 0 219 0;
#X connect 222 0 219 0;
#X connect 223 0 62 0;
#X connect 224 0 62 0;
#X connect 225 0 226 0;
#X connect 226 0 224 1;
#X connect 227 0 220 0;
#X connect 228 0 28 0;
#X connect 229 0 241 0;
#X connect 229 0 242 1;
#X connect 230 0 231 0;
#X connect 231 0 232 0;
#X connect 231 0 233 1;
#X connect 232 0 233 0;
#X connect 233 0 228 1;
#X connect 234 0 240 0;
#X connect 235 0 232 1;
#X connect 236 0 232 1;
#X connect 237 0 241 1;
#X connect 238 0 241 1;
#X connect 239 0 242 0;
#X connect 240 0 236 0;
#X connect 240 0 233 0;
#X connect 240 0 237 0;
#X connect 240 1 235 0;
#X connect 240 1 239 0;
#X connect 240 1 238 0;
#X connect 241 0 242 0;
#X connect 242 0 228 1;
#X connect 243 0 230 0;
#X connect 244 0 229 0;
#X connect 245 0 180 0;
#X connect 246 0 247 0;
#X connect 247 0 248 0;
#X connect 248 0 249 1;
#X connect 249 0 76 0;
#X connect 250 0 191 0;
#X connect 251 0 263 0;
#X connect 251 0 264 1;
#X connect 252 0 253 0;
#X connect 253 0 254 0;
#X connect 253 0 255 1;
#X connect 254 0 255 0;
#X connect 255 0 250 1;
#X connect 256 0 262 0;
#X connect 257 0 254 1;
#X connect 258 0 254 1;
#X connect 259 0 263 1;
#X connect 260 0 263 1;
#X connect 261 0 264 0;
#X connect 262 0 258 0;
#X connect 262 0 255 0;
#X connect 262 0 259 0;
#X connect 262 1 257 0;
#X connect 262 1 261 0;
#X connect 262 1 260 0;
#X connect 263 0 264 0;
#X connect 264 0 250 1;
#X connect 265 0 252 0;
#X connect 266 0 251 0;
#X connect 267 0 268 0;
#X connect 268 0 269 1;
#X connect 269 0 212 0;
#X connect 270 0 273 0;
#X connect 271 0 272 0;
#X connect 272 0 274 0;
#X connect 272 1 274 1;
#X connect 273 0 271 0;
#X connect 274 0 290 0;
#X connect 274 0 326 0;
#X connect 275 0 276 0;
#X connect 276 0 313 0;
#X connect 277 0 278 0;
#X connect 278 0 279 0;
#X connect 279 0 276 1;
#X connect 280 0 281 0;
#X connect 281 0 282 0;
#X connect 282 0 278 1;
#X connect 283 0 284 0;
#X connect 284 0 285 0;
#X connect 285 0 286 0;
#X connect 285 1 286 1;
#X connect 286 0 288 0;
#X connect 287 0 289 0;
#X connect 288 0 275 0;
#X connect 288 0 331 0;
#X connect 288 0 332 0;
#X connect 289 0 288 0;
#X connect 289 1 288 1;
#X connect 290 0 286 0;
#X connect 291 0 277 0;
#X connect 292 0 293 0;
#X connect 293 0 312 0;
#X connect 294 0 295 0;
#X connect 295 0 296 0;
#X connect 296 0 293 1;
#X connect 297 0 298 0;
#X connect 298 0 299 0;
#X connect 299 0 295 1;
#X connect 300 0 301 0;
#X connect 301 0 302 0;
#X connect 302 0 303 0;
#X connect 302 1 303 1;
#X connect 303 0 305 0;
#X connect 304 0 306 0;
#X connect 305 0 292 0;
#X connect 305 0 328 0;
#X connect 305 0 329 0;
#X connect 306 0 305 0;
#X connect 306 1 305 1;
#X connect 307 0 294 0;
#X connect 308 0 303 0;
#X connect 309 0 315 0;
#X connect 310 0 316 0;
#X connect 311 0 309 0;
#X connect 311 0 310 1;
#X connect 312 1 314 0;
#X connect 313 1 324 0;
#X connect 314 0 323 0;
#X connect 315 0 318 0;
#X connect 316 0 317 0;
#X connect 317 0 324 1;
#X connect 318 0 314 1;
#X connect 319 0 320 0;
#X connect 320 0 321 0;
#X connect 321 0 312 1;
#X connect 321 0 313 1;
#X connect 322 0 370 0;
#X connect 323 0 370 1;
#X connect 324 0 322 0;
#X connect 325 0 326 0;
#X connect 325 1 326 1;
#X connect 326 0 308 0;
#X connect 327 0 325 0;
#X connect 328 0 307 0;
#X connect 329 0 330 0;
#X connect 330 0 296 1;
#X connect 331 0 291 0;
#X connect 332 0 333 0;
#X connect 333 0 279 1;
#X connect 334 0 319 0;
#X connect 335 0 311 0;
#X connect 336 0 327 0;
#X connect 337 0 343 0;
#X connect 338 0 369 0;
#X connect 339 0 340 0;
#X connect 340 0 342 0;
#X connect 341 0 340 0;
#X connect 341 1 340 1;
#X connect 342 0 353 0;
#X connect 343 0 342 0;
#X connect 343 1 342 1;
#X connect 344 0 345 0;
#X connect 344 1 346 0;
#X connect 345 0 341 0;
#X connect 346 0 341 0;
#X connect 347 1 274 0;
#X connect 348 0 338 1;
#X connect 349 0 371 0;
#X connect 350 0 348 0;
#X connect 351 0 350 0;
#X connect 352 0 354 0;
#X connect 353 0 349 0;
#X connect 353 1 351 0;
#X connect 354 0 367 0;
#X connect 354 0 368 1;
#X connect 355 0 356 0;
#X connect 356 0 357 0;
#X connect 357 0 358 0;
#X connect 357 0 359 1;
#X connect 358 0 359 0;
#X connect 359 0 350 1;
#X connect 360 0 366 0;
#X connect 361 0 358 1;
#X connect 362 0 358 1;
#X connect 363 0 367 1;
#X connect 364 0 367 1;
#X connect 365 0 368 0;
#X connect 366 0 362 0;
#X connect 366 0 359 0;
#X connect 366 0 363 0;
#X connect 366 1 361 0;
#X connect 366 1 365 0;
#X connect 366 1 364 0;
#X connect 367 0 368 0;
#X connect 368 0 350 1;
#X connect 369 0 506 0;
#X connect 370 0 338 0;
#X connect 371 0 348 0;
#X connect 372 0 384 0;
#X connect 372 0 385 1;
#X connect 373 0 374 0;
#X connect 374 0 375 0;
#X connect 374 0 376 1;
#X connect 375 0 376 0;
#X connect 376 0 371 1;
#X connect 377 0 383 0;
#X connect 378 0 375 1;
#X connect 379 0 375 1;
#X connect 380 0 384 1;
#X connect 381 0 384 1;
#X connect 382 0 385 0;
#X connect 383 0 379 0;
#X connect 383 0 376 0;
#X connect 383 0 380 0;
#X connect 383 1 378 0;
#X connect 383 1 382 0;
#X connect 383 1 381 0;
#X connect 384 0 385 0;
#X connect 385 0 371 1;
#X connect 386 0 373 0;
#X connect 387 0 372 0;
#X connect 388 0 391 0;
#X connect 389 0 390 0;
#X connect 390 0 392 0;
#X connect 390 1 392 1;
#X connect 391 0 389 0;
#X connect 392 0 408 0;
#X connect 392 0 444 0;
#X connect 393 0 394 0;
#X connect 394 0 431 0;
#X connect 395 0 396 0;
#X connect 396 0 397 0;
#X connect 397 0 394 1;
#X connect 398 0 399 0;
#X connect 399 0 400 0;
#X connect 400 0 396 1;
#X connect 401 0 402 0;
#X connect 402 0 403 0;
#X connect 403 0 404 0;
#X connect 403 1 404 1;
#X connect 404 0 406 0;
#X connect 405 0 407 0;
#X connect 406 0 393 0;
#X connect 406 0 449 0;
#X connect 406 0 450 0;
#X connect 407 0 406 0;
#X connect 407 1 406 1;
#X connect 408 0 404 0;
#X connect 409 0 395 0;
#X connect 410 0 411 0;
#X connect 411 0 430 0;
#X connect 412 0 413 0;
#X connect 413 0 414 0;
#X connect 414 0 411 1;
#X connect 415 0 416 0;
#X connect 416 0 417 0;
#X connect 417 0 413 1;
#X connect 418 0 419 0;
#X connect 419 0 420 0;
#X connect 420 0 421 0;
#X connect 420 1 421 1;
#X connect 421 0 423 0;
#X connect 422 0 424 0;
#X connect 423 0 410 0;
#X connect 423 0 446 0;
#X connect 423 0 447 0;
#X connect 424 0 423 0;
#X connect 424 1 423 1;
#X connect 425 0 412 0;
#X connect 426 0 421 0;
#X connect 427 0 433 0;
#X connect 428 0 434 0;
#X connect 429 0 427 0;
#X connect 429 0 428 1;
#X connect 430 1 432 0;
#X connect 431 1 442 0;
#X connect 432 0 441 0;
#X connect 433 0 436 0;
#X connect 434 0 435 0;
#X connect 435 0 442 1;
#X connect 436 0 432 1;
#X connect 437 0 438 0;
#X connect 438 0 439 0;
#X connect 439 0 430 1;
#X connect 439 0 431 1;
#X connect 440 0 488 0;
#X connect 441 0 488 1;
#X connect 442 0 440 0;
#X connect 443 0 444 0;
#X connect 443 1 444 1;
#X connect 444 0 426 0;
#X connect 445 0 443 0;
#X connect 446 0 425 0;
#X connect 447 0 448 0;
#X connect 448 0 414 1;
#X connect 449 0 409 0;
#X connect 450 0 451 0;
#X connect 451 0 397 1;
#X connect 452 0 437 0;
#X connect 453 0 429 0;
#X connect 454 0 445 0;
#X connect 455 0 461 0;
#X connect 456 0 487 0;
#X connect 457 0 458 0;
#X connect 458 0 460 0;
#X connect 459 0 458 0;
#X connect 459 1 458 1;
#X connect 460 0 471 0;
#X connect 461 0 460 0;
#X connect 461 1 460 1;
#X connect 462 0 463 0;
#X connect 462 1 464 0;
#X connect 463 0 459 0;
#X connect 464 0 459 0;
#X connect 465 1 392 0;
#X connect 466 0 456 1;
#X connect 467 0 489 0;
#X connect 468 0 466 0;
#X connect 469 0 468 0;
#X connect 470 0 472 0;
#X connect 471 0 467 0;
#X connect 471 1 469 0;
#X connect 472 0 485 0;
#X connect 472 0 486 1;
#X connect 473 0 474 0;
#X connect 474 0 475 0;
#X connect 475 0 476 0;
#X connect 475 0 477 1;
#X connect 476 0 477 0;
#X connect 477 0 468 1;
#X connect 478 0 484 0;
#X connect 479 0 476 1;
#X connect 480 0 476 1;
#X connect 481 0 485 1;
#X connect 482 0 485 1;
#X connect 483 0 486 0;
#X connect 484 0 480 0;
#X connect 484 0 477 0;
#X connect 484 0 481 0;
#X connect 484 1 479 0;
#X connect 484 1 483 0;
#X connect 484 1 482 0;
#X connect 485 0 486 0;
#X connect 486 0 468 1;
#X connect 487 0 506 1;
#X connect 488 0 456 0;
#X connect 489 0 466 0;
#X connect 490 0 502 0;
#X connect 490 0 503 1;
#X connect 491 0 492 0;
#X connect 492 0 493 0;
#X connect 492 0 494 1;
#X connect 493 0 494 0;
#X connect 494 0 489 1;
#X connect 495 0 501 0;
#X connect 496 0 493 1;
#X connect 497 0 493 1;
#X connect 498 0 502 1;
#X connect 499 0 502 1;
#X connect 500 0 503 0;
#X connect 501 0 497 0;
#X connect 501 0 494 0;
#X connect 501 0 498 0;
#X connect 501 1 496 0;
#X connect 501 1 500 0;
#X connect 501 1 499 0;
#X connect 502 0 503 0;
#X connect 503 0 489 1;
#X connect 504 0 491 0;
#X connect 505 0 490 0;
#X connect 506 0 110 1;
#X connect 507 0 462 0;
#X connect 508 0 344 0;
#X connect 509 0 347 0;
#X connect 510 0 465 0;
