#N canvas 0 47 1056 1153 10;
#X obj 118 755 *~;
#X obj 118 244 mtof;
#X obj 136 707 pack 0 10;
#X obj 136 731 line~;
#X obj 118 189 r pitch;
#X obj 136 684 r velocity;
#X obj 151 89 r octave;
#X obj 152 134 * 12;
#X obj 152 156 t b f;
#X obj 118 658 phasor~ 440;
#X obj 117 876 bob~;
#X obj 188 819 loadbang;
#X obj 133 793 osc~ 0.1;
#X msg 188 844 3;
#X obj 132 818 *~ 100;
#X obj 133 843 +~ 700;
#X obj 151 111 + 1;
#X msg 165 219 60;
#X msg 205 219 50;
#X obj 133 266 r bpm;
#X obj 133 290 / 120;
#X obj 133 314 t b f;
#X obj 118 339 * 1, f 5;
#X obj 118 217 + 48;
#X obj 134 367 r pitchbend;
#X obj 118 428 * 1, f 5;
#X obj 131 396 t b f;
#X obj 118 576 sig~;
#X obj 117 627 +~;
#X obj 169 527 osc~ 5;
#X obj 169 550 *~, f 4;
#X obj 168 574 *~ 30, f 7;
#X obj 236 445 r Modulation;
#X obj 236 465 pack 0 5;
#X obj 236 488 line~;
#X obj 169 474 / 500;
#X obj 239 520 / 100;
#X obj 169 501 + 4;
#X obj 238 544 + 10;
#X obj 117 974 s~ synth2-out;
#X connect 0 0 12 0;
#X connect 0 0 10 0;
#X connect 1 0 22 0;
#X connect 2 0 3 0;
#X connect 3 0 0 1;
#X connect 4 0 23 0;
#X connect 5 0 2 0;
#X connect 6 0 16 0;
#X connect 7 0 8 0;
#X connect 8 0 23 0;
#X connect 8 1 23 1;
#X connect 9 0 0 0;
#X connect 10 0 39 0;
#X connect 11 0 13 0;
#X connect 12 0 14 0;
#X connect 13 0 10 2;
#X connect 14 0 15 0;
#X connect 15 0 10 1;
#X connect 16 0 7 0;
#X connect 17 0 1 0;
#X connect 18 0 1 0;
#X connect 19 0 20 0;
#X connect 20 0 21 0;
#X connect 21 0 22 0;
#X connect 21 1 22 1;
#X connect 22 0 25 0;
#X connect 23 0 1 0;
#X connect 24 0 26 0;
#X connect 25 0 27 0;
#X connect 25 0 35 0;
#X connect 25 0 36 0;
#X connect 26 0 25 0;
#X connect 26 1 25 1;
#X connect 27 0 28 0;
#X connect 28 0 9 0;
#X connect 29 0 30 0;
#X connect 30 0 31 0;
#X connect 31 0 28 1;
#X connect 32 0 33 0;
#X connect 33 0 34 0;
#X connect 34 0 30 1;
#X connect 35 0 37 0;
#X connect 36 0 38 0;
#X connect 37 0 29 0;
#X connect 38 0 31 1;
