#N canvas 0 47 1056 1153 10;
#X obj 560 85 r pitch2;
#X obj 770 213 r octave;
#X obj 771 258 * 12;
#X obj 771 280 t b f;
#X obj 770 235 + 1;
#X obj 762 329 +;
#X obj 9 202 r octave;
#X obj 10 247 * 12;
#X obj 10 269 t b f;
#X obj 9 224 + 1;
#X obj 1 318 +;
#X obj -47 -27 r arpPitch;
#X obj 605 1430 r ChordMode;
#X obj 532 983 phasor~ 440;
#X obj 532 901 sig~;
#X obj 531 952 +~;
#X obj 593 845 osc~ 5;
#X obj 593 868 *~, f 4;
#X obj 592 892 *~ 30, f 7;
#X obj 660 763 r Modulation;
#X obj 660 783 pack 0 5;
#X obj 660 806 line~;
#X obj 663 838 / 100;
#X obj 662 862 + 10;
#X obj 533 1583 *~;
#X obj 551 1515 pack 0 10;
#X obj 551 1539 line~;
#X obj 547 663 r bpm;
#X obj 547 687 / 120;
#X obj 547 711 t b f;
#X obj 532 736 * 1, f 5;
#X obj 542 765 r pitchbend;
#X obj 532 826 * 1, f 5;
#X obj 539 794 t b f;
#X obj 42 -26 r pitch1;
#X obj -142 -27 r monoPitch;
#X obj -30 60 r ChordMode;
#X obj -30 83 * -1;
#X obj -30 104 + 1;
#X obj -69 137 spigot;
#X obj 80 60 r ChordMode;
#X obj 41 135 spigot;
#X obj -126 37 * -1;
#X obj -126 58 + 1;
#X obj -165 91 spigot;
#X obj -94 93 spigot;
#X obj -126 14 r ArpMode;
#X obj -168 985 phasor~ 440;
#X obj -168 900 sig~;
#X obj -169 952 +~;
#X obj -107 845 osc~ 5;
#X obj -107 868 *~, f 4;
#X obj -108 892 *~ 30, f 7;
#X obj -50 763 r Modulation;
#X obj -50 783 pack 0 5;
#X obj -50 806 line~;
#X obj -47 838 / 100;
#X obj -48 862 + 10;
#X obj -57 1523 *~;
#X obj -39 1475 pack 0 10;
#X obj -39 1499 line~;
#X obj -153 663 r bpm;
#X obj -153 687 / 120;
#X obj -153 711 t b f;
#X obj -168 736 * 1, f 5;
#X obj -153 761 r pitchbend;
#X obj -168 826 * 1, f 5;
#X obj -155 793 t b f;
#X obj -35 1401 r velocity;
#X obj -59 1780 s~ synth1-out;
#X obj 843 1428 r ChordMode;
#X obj 762 989 phasor~ 440;
#X obj 762 901 sig~;
#X obj 761 952 +~;
#X obj 823 845 osc~ 5;
#X obj 823 868 *~, f 4;
#X obj 822 892 *~ 30, f 7;
#X obj 890 763 r Modulation;
#X obj 890 783 pack 0 5;
#X obj 890 806 line~;
#X obj 893 838 / 100;
#X obj 892 862 + 10;
#X obj 763 1563 *~;
#X obj 781 1515 pack 0 10;
#X obj 781 1539 line~;
#X obj 777 663 r bpm;
#X obj 777 687 / 120;
#X obj 777 711 t b f;
#X obj 762 736 * 1, f 5;
#X obj 778 764 r pitchbend;
#X obj 762 826 * 1, f 5;
#X obj 775 793 t b f;
#X obj 790 85 r pitch3;
#X obj 540 213 r octave;
#X obj 541 258 * 12;
#X obj 541 280 t b f;
#X obj 540 235 + 1;
#X obj 532 329 +;
#X obj 762 360 mtof;
#X obj 532 358 mtof;
#X obj -1 345 mtof;
#X obj 571 1379 r velocity;
#X obj 790 1397 r velocity;
#X obj 809 1426 *;
#X obj 580 1408 *;
#X obj 871 1395 t b f;
#X obj 652 1378 t b f;
#X obj 581 1486 *, f 4;
#X obj 805 1480 *;
#X obj 840 1455 t b f;
#X obj 604 1458 t b f;
#X obj 1010 213 r octave;
#X obj 1011 258 * 12;
#X obj 1011 280 t b f;
#X obj 1010 235 + 1;
#X obj 1002 329 +;
#X obj 1083 1428 r ChordMode;
#X obj 1002 983 phasor~ 440;
#X obj 1002 901 sig~;
#X obj 1001 952 +~;
#X obj 1063 845 osc~ 5;
#X obj 1063 868 *~, f 4;
#X obj 1062 892 *~ 30, f 7;
#X obj 1130 763 r Modulation;
#X obj 1130 783 pack 0 5;
#X obj 1130 806 line~;
#X obj 1133 838 / 100;
#X obj 1132 862 + 10;
#X obj 1003 1563 *~;
#X obj 1021 1515 pack 0 10;
#X obj 1021 1539 line~;
#X obj 1017 663 r bpm;
#X obj 1017 687 / 120;
#X obj 1017 711 t b f;
#X obj 1002 736 * 1, f 5;
#X obj 1018 764 r pitchbend;
#X obj 1002 826 * 1, f 5;
#X obj 1015 793 t b f;
#X obj 1002 360 mtof;
#X obj 1026 1383 r velocity;
#X obj 1049 1426 *;
#X obj 1111 1395 t b f;
#X obj 1045 1480 *;
#X obj 1080 1455 t b f;
#X obj 1030 85 r pitch4;
#X obj 1120 1298 r pitch4;
#X obj 1119 1326 select -1;
#X msg 1120 1355 0;
#X msg 1167 1358 1;
#X obj 899 1326 select -1;
#X msg 900 1355 0;
#X msg 947 1358 1;
#X obj 629 1326 select -1;
#X msg 630 1355 0;
#X msg 677 1358 1;
#X obj 900 1298 r pitch3;
#X obj 630 1298 r pitch2;
#X obj -90 436 t b f;
#X obj -86 467 /;
#X obj -41 443 samplerate~;
#X obj -38 412 bng 15 250 50 0 empty empty empty 17 7 0 10 -262144
-1 -1;
#X obj -87 496 int;
#X floatatom -91 526 5 0 0 0 - - -, f 5;
#X obj -82 586 /;
#X obj -87 555 t b f;
#X floatatom -74 616 0 0 0 0 - - -;
#X obj -13 409 loadbang;
#X obj 1041 1266 *~ 2;
#X obj 1040 1292 -~ 1;
#X obj 1041 1237 *~;
#X obj 1058 1203 expr~ if($v1 > 0.5 \, if($v1 < $f2+0.5 \, 0 \, $v1)
\, if($v1 < $f2 \, 0 \, $v1));
#X obj 544 433 t b f;
#X obj 548 464 /;
#X obj 593 440 samplerate~;
#X obj 596 409 bng 15 250 50 0 empty empty empty 17 7 0 10 -262144
-1 -1;
#X obj 547 493 int;
#X floatatom 543 523 5 0 0 0 - - -, f 5;
#X obj 552 583 /;
#X obj 547 552 t b f;
#X floatatom 560 613 0 0 0 0 - - -;
#X obj 621 406 loadbang;
#X obj 754 433 t b f;
#X obj 758 464 /;
#X obj 803 440 samplerate~;
#X obj 806 409 bng 15 250 50 0 empty empty empty 17 7 0 10 -262144
-1 -1;
#X obj 757 493 int;
#X floatatom 753 523 5 0 0 0 - - -, f 5;
#X obj 762 583 /;
#X obj 757 552 t b f;
#X floatatom 770 613 0 0 0 0 - - -;
#X obj 831 406 loadbang;
#X obj 1034 433 t b f;
#X obj 1038 464 /;
#X obj 1083 440 samplerate~;
#X obj 1086 409 bng 15 250 50 0 empty empty empty 17 7 0 10 -262144
-1 -1;
#X obj 1037 493 int;
#X floatatom 1033 523 5 0 0 0 - - -, f 5;
#X obj 1042 583 /;
#X obj 1037 552 t b f;
#X floatatom 1050 613 0 0 0 0 - - -;
#X obj 1111 406 loadbang;
#X obj 801 1216 *~ 2;
#X obj 800 1242 -~ 1;
#X obj 801 1187 *~;
#X obj 818 1153 expr~ if($v1 > 0.5 \, if($v1 < $f2+0.5 \, 0 \, $v1)
\, if($v1 < $f2 \, 0 \, $v1));
#X obj 571 1176 *~ 2;
#X obj 570 1202 -~ 1;
#X obj 571 1147 *~;
#X obj 588 1113 expr~ if($v1 > 0.5 \, if($v1 < $f2+0.5 \, 0 \, $v1)
\, if($v1 < $f2 \, 0 \, $v1));
#X obj -169 1090 *~ 2;
#X obj -170 1116 -~ 1;
#X obj 1433 1165 / 512;
#X obj 1437 1137 r pwmMod;
#X obj 1245 1117 / 512;
#X obj 1249 1089 r pwmMod;
#X obj 1005 1077 / 512;
#X obj 1009 1049 r pwmMod;
#X obj 221 1159 r pwmMod;
#X obj 1309 1049 s pwmMod;
#X obj 1318 994 loadbang;
#X msg 1323 1015 128;
#X obj -9 1535 r ChordMode;
#X obj 1002 1623 *~ 0.2;
#X obj 765 1624 *~ 0.2;
#X obj 532 1622 *~ 0.2;
#X obj -58 1622 *~ 0.2;
#X obj -10 1559 * -0.15;
#X obj -11 1585 + 0.35;
#X obj -107 801 / 300;
#X obj 593 792 / 300;
#X obj 822 791 / 300;
#X obj 1061 791 / 300;
#X obj -107 822 + 6;
#X obj 593 819 + 6;
#X obj 823 819 + 6;
#X obj 1063 819 + 6;
#X obj -29 1180 expr~ if($v1 > 0 \, -$v1 \, $v1);
#X obj -29 1214 *~ 2;
#X obj -28 1245 +~ 1;
#X obj -180 1366 +~;
#X obj -24 1099 *~ 2;
#X obj -25 1125 -~ 1;
#X obj 50 436 t b f;
#X obj 54 467 /;
#X obj 99 443 samplerate~;
#X obj 102 412 bng 15 250 50 0 empty empty empty 17 7 0 10 -262144
-1 -1;
#X obj 53 496 int;
#X floatatom 49 526 5 0 0 0 - - -, f 5;
#X obj 58 586 /;
#X obj 53 555 t b f;
#X floatatom 66 616 0 0 0 0 - - -;
#X obj 127 409 loadbang;
#X obj 62 985 phasor~ 440;
#X obj 62 900 sig~;
#X obj 61 952 +~;
#X obj 123 845 osc~ 5;
#X obj 123 868 *~, f 4;
#X obj 122 892 *~ 30, f 7;
#X obj 184 762 r Modulation;
#X obj 184 782 pack 0 5;
#X obj 184 803 line~;
#X obj 183 838 / 100;
#X obj 177 869 + 10;
#X obj 77 663 r bpm;
#X obj 77 687 / 120;
#X obj 77 711 t b f;
#X obj 62 736 * 1, f 5;
#X obj 77 761 r pitchbend;
#X obj 62 826 * 1, f 5;
#X obj 75 793 t b f;
#X obj 123 801 / 300;
#X obj 123 822 + 6;
#X msg -42 949 0;
#X obj -34 1019 loadbang;
#X obj 51 386 * 1;
#X obj 196 1099 *~ 2;
#X obj 195 1125 -~ 1;
#X obj 270 436 t b f;
#X obj 274 467 /;
#X obj 319 443 samplerate~;
#X obj 322 412 bng 15 250 50 0 empty empty empty 17 7 0 10 -262144
-1 -1;
#X obj 273 496 int;
#X floatatom 269 526 5 0 0 0 - - -, f 5;
#X obj 278 586 /;
#X obj 273 555 t b f;
#X obj 347 409 loadbang;
#X obj 282 985 phasor~ 440;
#X obj 282 900 sig~;
#X obj 281 952 +~;
#X obj 343 845 osc~ 5;
#X obj 343 868 *~, f 4;
#X obj 342 892 *~ 30, f 7;
#X obj 404 762 r Modulation;
#X obj 404 782 pack 0 5;
#X obj 404 803 line~;
#X obj 403 838 / 100;
#X obj 397 869 + 10;
#X obj 297 663 r bpm;
#X obj 297 687 / 120;
#X obj 297 711 t b f;
#X obj 282 736 * 1, f 5;
#X obj 297 761 r pitchbend;
#X obj 282 826 * 1, f 5;
#X obj 295 793 t b f;
#X obj 343 801 / 300;
#X obj 343 822 + 6;
#X obj 68 1379 +~;
#X obj 221 1183 / 256;
#X obj 259 355 mtof;
#X obj 260 328 + 0.25;
#X obj 220 1206 logscale;
#X obj 220 1228 * 0.15;
#X obj 220 1254 pack 0 10;
#X obj 221 1276 line~;
#X obj 187 1309 *~;
#X msg 285 1224 0;
#X obj 285 1204 loadbang;
#X obj -126 1104 r pwmMod;
#X obj -126 1128 / 256;
#X obj -127 1151 logscale;
#X obj -129 1219 pack 0 10;
#X obj -130 1241 line~;
#X msg -62 1169 0;
#X obj -62 1149 loadbang;
#X obj -127 1173 * 0.15;
#X obj -183 1309 *~;
#X obj -129 1198 + 0.2;
#X obj -36 1424 select 1 0;
#X msg -38 1449 1;
#X obj 45 1475 pack 0 10;
#X msg 44 1449 0;
#X obj 106 1418 r arpNoteDecay;
#X obj 110 1443 + 1;
#X connect 0 0 97 0;
#X connect 1 0 4 0;
#X connect 2 0 3 0;
#X connect 3 0 5 0;
#X connect 3 1 5 1;
#X connect 4 0 2 0;
#X connect 5 0 98 0;
#X connect 6 0 9 0;
#X connect 7 0 8 0;
#X connect 8 0 10 0;
#X connect 8 1 10 1;
#X connect 9 0 7 0;
#X connect 10 0 100 0;
#X connect 10 0 309 0;
#X connect 11 0 45 0;
#X connect 12 0 110 0;
#X connect 13 0 24 0;
#X connect 14 0 15 0;
#X connect 15 0 13 0;
#X connect 16 0 17 0;
#X connect 17 0 18 0;
#X connect 18 0 15 1;
#X connect 19 0 20 0;
#X connect 20 0 21 0;
#X connect 21 0 17 1;
#X connect 22 0 23 0;
#X connect 23 0 18 1;
#X connect 24 0 224 0;
#X connect 25 0 26 0;
#X connect 26 0 24 1;
#X connect 27 0 28 0;
#X connect 28 0 29 0;
#X connect 29 0 30 0;
#X connect 29 1 30 1;
#X connect 30 0 32 0;
#X connect 30 0 22 0;
#X connect 30 0 229 0;
#X connect 31 0 33 0;
#X connect 32 0 14 0;
#X connect 33 0 32 0;
#X connect 33 1 32 1;
#X connect 34 0 41 0;
#X connect 35 0 44 0;
#X connect 36 0 37 0;
#X connect 36 0 41 1;
#X connect 37 0 38 0;
#X connect 38 0 39 1;
#X connect 39 0 10 0;
#X connect 40 0 41 1;
#X connect 41 0 10 0;
#X connect 42 0 43 0;
#X connect 43 0 44 1;
#X connect 44 0 39 0;
#X connect 45 0 39 0;
#X connect 46 0 42 0;
#X connect 46 0 45 1;
#X connect 47 0 209 0;
#X connect 48 0 49 0;
#X connect 49 0 47 0;
#X connect 50 0 51 0;
#X connect 51 0 52 0;
#X connect 52 0 49 1;
#X connect 53 0 54 0;
#X connect 54 0 55 0;
#X connect 55 0 51 1;
#X connect 56 0 57 0;
#X connect 57 0 52 1;
#X connect 58 0 225 0;
#X connect 59 0 60 0;
#X connect 60 0 58 1;
#X connect 61 0 62 0;
#X connect 62 0 63 0;
#X connect 63 0 64 0;
#X connect 63 1 64 1;
#X connect 64 0 66 0;
#X connect 64 0 56 0;
#X connect 64 0 228 0;
#X connect 65 0 67 0;
#X connect 66 0 48 0;
#X connect 67 0 66 0;
#X connect 67 1 66 1;
#X connect 68 0 327 0;
#X connect 70 0 109 0;
#X connect 71 0 82 0;
#X connect 72 0 73 0;
#X connect 73 0 71 0;
#X connect 74 0 75 0;
#X connect 75 0 76 0;
#X connect 76 0 73 1;
#X connect 77 0 78 0;
#X connect 78 0 79 0;
#X connect 79 0 75 1;
#X connect 80 0 81 0;
#X connect 81 0 76 1;
#X connect 82 0 223 0;
#X connect 83 0 84 0;
#X connect 84 0 82 1;
#X connect 85 0 86 0;
#X connect 86 0 87 0;
#X connect 87 0 88 0;
#X connect 87 1 88 1;
#X connect 88 0 90 0;
#X connect 88 0 80 0;
#X connect 88 0 230 0;
#X connect 89 0 91 0;
#X connect 90 0 72 0;
#X connect 91 0 90 0;
#X connect 91 1 90 1;
#X connect 92 0 5 0;
#X connect 93 0 96 0;
#X connect 94 0 95 0;
#X connect 95 0 97 0;
#X connect 95 1 97 1;
#X connect 96 0 94 0;
#X connect 97 0 99 0;
#X connect 98 0 181 0;
#X connect 99 0 171 0;
#X connect 100 0 157 0;
#X connect 100 0 274 0;
#X connect 101 0 104 0;
#X connect 102 0 103 0;
#X connect 103 0 108 0;
#X connect 104 0 107 0;
#X connect 105 0 103 0;
#X connect 105 1 103 1;
#X connect 106 0 104 0;
#X connect 106 1 104 1;
#X connect 107 0 25 0;
#X connect 108 0 83 0;
#X connect 109 0 108 0;
#X connect 109 1 108 1;
#X connect 110 0 107 0;
#X connect 110 1 107 1;
#X connect 111 0 114 0;
#X connect 112 0 113 0;
#X connect 113 0 115 0;
#X connect 113 1 115 1;
#X connect 114 0 112 0;
#X connect 115 0 138 0;
#X connect 116 0 143 0;
#X connect 117 0 128 0;
#X connect 118 0 119 0;
#X connect 119 0 117 0;
#X connect 120 0 121 0;
#X connect 121 0 122 0;
#X connect 122 0 119 1;
#X connect 123 0 124 0;
#X connect 124 0 125 0;
#X connect 125 0 121 1;
#X connect 126 0 127 0;
#X connect 127 0 122 1;
#X connect 128 0 222 0;
#X connect 129 0 130 0;
#X connect 130 0 128 1;
#X connect 131 0 132 0;
#X connect 132 0 133 0;
#X connect 133 0 134 0;
#X connect 133 1 134 1;
#X connect 134 0 136 0;
#X connect 134 0 126 0;
#X connect 134 0 231 0;
#X connect 135 0 137 0;
#X connect 136 0 118 0;
#X connect 137 0 136 0;
#X connect 137 1 136 1;
#X connect 138 0 191 0;
#X connect 139 0 140 0;
#X connect 140 0 142 0;
#X connect 141 0 140 0;
#X connect 141 1 140 1;
#X connect 142 0 129 0;
#X connect 143 0 142 0;
#X connect 143 1 142 1;
#X connect 144 0 115 0;
#X connect 145 0 146 0;
#X connect 146 0 147 0;
#X connect 146 1 148 0;
#X connect 147 0 141 0;
#X connect 148 0 141 0;
#X connect 149 0 150 0;
#X connect 149 1 151 0;
#X connect 150 0 105 0;
#X connect 151 0 105 0;
#X connect 152 0 153 0;
#X connect 152 1 154 0;
#X connect 153 0 106 0;
#X connect 154 0 106 0;
#X connect 155 0 149 0;
#X connect 156 0 152 0;
#X connect 157 0 158 0;
#X connect 157 1 158 1;
#X connect 158 0 161 0;
#X connect 159 0 158 0;
#X connect 159 0 163 0;
#X connect 160 0 159 0;
#X connect 161 0 162 0;
#X connect 161 0 164 0;
#X connect 163 0 165 0;
#X connect 163 0 64 0;
#X connect 164 0 163 0;
#X connect 164 1 163 1;
#X connect 166 0 159 0;
#X connect 167 0 168 0;
#X connect 169 0 167 0;
#X connect 170 0 169 1;
#X connect 171 0 172 0;
#X connect 171 1 172 1;
#X connect 172 0 175 0;
#X connect 173 0 172 0;
#X connect 173 0 177 0;
#X connect 174 0 173 0;
#X connect 175 0 176 0;
#X connect 175 0 178 0;
#X connect 177 0 179 0;
#X connect 177 0 30 0;
#X connect 178 0 177 0;
#X connect 178 1 177 1;
#X connect 180 0 173 0;
#X connect 181 0 182 0;
#X connect 181 1 182 1;
#X connect 182 0 185 0;
#X connect 183 0 182 0;
#X connect 183 0 187 0;
#X connect 184 0 183 0;
#X connect 185 0 186 0;
#X connect 185 0 188 0;
#X connect 187 0 189 0;
#X connect 187 0 88 0;
#X connect 188 0 187 0;
#X connect 188 1 187 1;
#X connect 190 0 183 0;
#X connect 191 0 192 0;
#X connect 191 1 192 1;
#X connect 192 0 195 0;
#X connect 193 0 192 0;
#X connect 193 0 197 0;
#X connect 194 0 193 0;
#X connect 195 0 196 0;
#X connect 195 0 198 0;
#X connect 197 0 199 0;
#X connect 197 0 134 0;
#X connect 198 0 197 0;
#X connect 198 1 197 1;
#X connect 200 0 193 0;
#X connect 201 0 202 0;
#X connect 203 0 201 0;
#X connect 204 0 203 1;
#X connect 205 0 206 0;
#X connect 207 0 205 0;
#X connect 208 0 207 1;
#X connect 209 0 210 0;
#X connect 210 0 325 0;
#X connect 211 0 170 1;
#X connect 212 0 211 0;
#X connect 213 0 204 1;
#X connect 214 0 213 0;
#X connect 215 0 208 1;
#X connect 216 0 215 0;
#X connect 217 0 307 0;
#X connect 219 0 220 0;
#X connect 220 0 218 0;
#X connect 221 0 226 0;
#X connect 225 0 69 0;
#X connect 226 0 227 0;
#X connect 227 0 225 1;
#X connect 228 0 232 0;
#X connect 229 0 233 0;
#X connect 230 0 234 0;
#X connect 231 0 235 0;
#X connect 232 0 50 0;
#X connect 233 0 16 0;
#X connect 234 0 74 0;
#X connect 235 0 120 0;
#X connect 236 0 237 0;
#X connect 237 0 238 0;
#X connect 238 0 239 1;
#X connect 239 0 306 0;
#X connect 240 0 241 0;
#X connect 241 0 236 0;
#X connect 242 0 243 0;
#X connect 242 1 243 1;
#X connect 243 0 246 0;
#X connect 244 0 243 0;
#X connect 244 0 248 0;
#X connect 245 0 244 0;
#X connect 246 0 247 0;
#X connect 246 0 249 0;
#X connect 248 0 250 0;
#X connect 249 0 248 0;
#X connect 249 1 248 1;
#X connect 250 0 266 0;
#X connect 251 0 244 0;
#X connect 252 0 240 0;
#X connect 253 0 254 0;
#X connect 254 0 252 0;
#X connect 255 0 256 0;
#X connect 256 0 257 0;
#X connect 257 0 254 1;
#X connect 258 0 259 0;
#X connect 259 0 260 0;
#X connect 260 0 256 1;
#X connect 261 0 262 0;
#X connect 262 0 257 1;
#X connect 263 0 264 0;
#X connect 264 0 265 0;
#X connect 265 0 266 0;
#X connect 265 1 266 1;
#X connect 266 0 268 0;
#X connect 266 0 261 0;
#X connect 266 0 270 0;
#X connect 267 0 269 0;
#X connect 268 0 253 0;
#X connect 269 0 268 0;
#X connect 269 1 268 1;
#X connect 270 0 271 0;
#X connect 271 0 255 0;
#X connect 272 0 47 1;
#X connect 272 0 252 1;
#X connect 273 0 272 0;
#X connect 274 0 242 0;
#X connect 275 0 276 0;
#X connect 276 0 314 0;
#X connect 277 0 278 0;
#X connect 277 1 278 1;
#X connect 278 0 281 0;
#X connect 279 0 278 0;
#X connect 279 0 283 0;
#X connect 280 0 279 0;
#X connect 281 0 282 0;
#X connect 281 0 284 0;
#X connect 283 0 300 0;
#X connect 284 0 283 0;
#X connect 284 1 283 1;
#X connect 285 0 279 0;
#X connect 286 0 275 0;
#X connect 287 0 288 0;
#X connect 288 0 286 0;
#X connect 289 0 290 0;
#X connect 290 0 291 0;
#X connect 291 0 288 1;
#X connect 292 0 293 0;
#X connect 293 0 294 0;
#X connect 294 0 290 1;
#X connect 295 0 296 0;
#X connect 296 0 291 1;
#X connect 297 0 298 0;
#X connect 298 0 299 0;
#X connect 299 0 300 0;
#X connect 299 1 300 1;
#X connect 300 0 302 0;
#X connect 300 0 295 0;
#X connect 300 0 304 0;
#X connect 301 0 303 0;
#X connect 302 0 287 0;
#X connect 303 0 302 0;
#X connect 303 1 302 1;
#X connect 304 0 305 0;
#X connect 305 0 289 0;
#X connect 306 0 58 0;
#X connect 307 0 310 0;
#X connect 308 0 277 0;
#X connect 309 0 308 0;
#X connect 310 0 311 0;
#X connect 311 0 312 0;
#X connect 312 0 313 0;
#X connect 313 0 314 1;
#X connect 314 0 306 1;
#X connect 315 0 312 0;
#X connect 316 0 315 0;
#X connect 317 0 318 0;
#X connect 318 0 319 1;
#X connect 319 0 324 0;
#X connect 320 0 321 0;
#X connect 321 0 325 1;
#X connect 322 0 326 0;
#X connect 323 0 322 0;
#X connect 324 0 326 0;
#X connect 325 0 239 0;
#X connect 326 0 320 0;
#X connect 327 0 328 0;
#X connect 327 1 330 0;
#X connect 328 0 59 0;
#X connect 329 0 60 0;
#X connect 330 0 329 0;
#X connect 331 0 332 0;
#X connect 332 0 329 1;
