#N canvas 0 47 1056 1153 10;
#X msg 539 1045 print;
#X msg 475 1043 clear;
#X floatatom 200 993 5 0 999 0 - - -, f 5;
#X msg 200 1039 saturation \$1;
#X obj 200 943 loadbang;
#X obj 200 1015 / 100;
#X text 474 999 clear or print;
#X text 478 1018 filter state;
#X floatatom 337 1013 5 1 10 0 - - -, f 5;
#X text 333 938 oversampling;
#X msg 337 1040 oversample \$1;
#X obj 337 961 loadbang;
#X text 488 977 debugging:;
#X msg 200 968 300;
#X msg 337 986 0;
#X obj 327 21 lib/arp;
#X obj 1261 78 r arpNoteOn;
#X obj 1301 158 r arpNoteOff;
#X msg 1262 187 1;
#X msg 1302 185 0;
#X msg 1134 192 1;
#X msg 1069 238 0;
#X obj 1083 212 loadbang;
#X obj 1069 81 r NotesPoly;
#X obj 1069 143 unpack 0 0 0;
#X obj 1069 167 select 0;
#X obj 1165 78 r ArpMode;
#X obj 1166 106 * -1;
#X obj 1167 131 + 1;
#X obj 1079 115 spigot;
#X obj 1302 214 r ArpMode;
#X obj 1276 251 spigot;
#X obj 1883 701 r ArpMode;
#X obj 1857 733 spigot;
#X obj 1854 884 s pitch;
#X obj 1838 662 r arpPitch;
#X obj 1299 105 r noteCount;
#X obj 1262 134 spigot;
#X obj 1413 72 r arpPitch;
#X obj 1445 95 r velocity;
#X obj 1445 117 t b f;
#X obj 1418 161 *;
#X obj 1414 227 send noteLeds;
#X obj 1413 118 + 1;
#X obj 1431 194 - 1;
#X obj 156 889 lib/mixer, f 19;
#N canvas 0 50 1056 1153 (subpatch) 0;
#X array L1-buffer 3.072e+06 float 0;
#X coords 0 1153 1 1152 256 30 0;
#X restore -178 58 graph;
#N canvas 0 50 1028 701 (subpatch) 0;
#X array L2-buffer 3.072e+06 float 2;
#X coords 0 0 3.072e+06 1 256 30 0;
#X restore -178 83 graph;
#N canvas 0 50 1056 1153 (subpatch) 0;
#X array L3-buffer 3.072e+06 float 2;
#X coords 0 0 3.072e+06 1 256 30 0;
#X restore -178 109 graph;
#N canvas 0 50 1028 697 (subpatch) 0;
#X array L4-buffer 3.072e+06 float 2;
#X coords 0 0 3.072e+06 1 256 30 0;
#X restore -179 130 graph;
#N canvas 0 50 1056 1153 hanning 0;
#X obj 162 88 samplerate~;
#X obj 160 143 osc~;
#X msg 246 89 0;
#X obj 146 26 bng 30 250 50 0 empty empty empty 35 15 0 16 -33289 -252505
-166441;
#X obj 160 174 *~ -0.5;
#X obj 161 206 +~ 0.5;
#X obj 146 238 tabwrite~ hanning;
#X obj 146 357 cnv 15 220 160 empty empty empty 7 -10 0 16 -128992
-252505 1.04858e+06;
#N canvas 0 50 450 300 (subpatch) 0;
#X array hanning 256 float 1;
#A 0 0 0.000150591 0.000602275 0.00135478 0.00240764 0.00376022 0.00541174
0.00736117 0.00960734 0.0121489 0.0149843 0.0181119 0.0215298 0.0252359
0.0292279 0.0335035 0.0380601 0.042895 0.0480052 0.0533877 0.0590392
0.0649563 0.0711355 0.077573 0.0842649 0.0912073 0.0983959 0.105826
0.113494 0.121395 0.129524 0.137876 0.146446 0.155229 0.16422 0.173413
0.182803 0.192384 0.20215 0.212095 0.222214 0.2325 0.242948 0.25355
0.264301 0.275194 0.286222 0.297379 0.308658 0.320052 0.331555 0.343159
0.354857 0.366643 0.37851 0.390449 0.402455 0.414519 0.426635 0.438794
0.450991 0.463218 0.475466 0.487729 0.5 0.512271 0.524534 0.536782
0.549009 0.561205 0.573365 0.585481 0.597545 0.609551 0.62149 0.633357
0.645143 0.656841 0.668445 0.679948 0.691342 0.702621 0.713778 0.724806
0.735699 0.74645 0.757052 0.767499 0.777786 0.787905 0.79785 0.807616
0.817197 0.826587 0.83578 0.844771 0.853554 0.862124 0.870476 0.878605
0.886506 0.894174 0.901605 0.908793 0.915736 0.922428 0.928865 0.935044
0.940961 0.946613 0.951995 0.957106 0.96194 0.966497 0.970773 0.974765
0.978471 0.981889 0.985016 0.987852 0.990393 0.992639 0.994589 0.99624
0.997593 0.998645 0.999398 0.999849 1 0.999849 0.999398 0.998645 0.997592
0.996239 0.994588 0.992638 0.990392 0.987851 0.985015 0.981887 0.978469
0.974763 0.970771 0.966495 0.961939 0.957104 0.951993 0.946611 0.940959
0.935042 0.928863 0.922425 0.915733 0.908791 0.901602 0.894171 0.886503
0.878602 0.870473 0.862121 0.853551 0.844768 0.835777 0.826584 0.817194
0.807613 0.797847 0.787901 0.777782 0.767496 0.757048 0.746446 0.735695
0.724802 0.713774 0.702617 0.691338 0.679944 0.668441 0.656837 0.645139
0.633353 0.621486 0.609547 0.597541 0.585477 0.573361 0.561201 0.549004
0.536778 0.52453 0.512266 0.499996 0.487725 0.475462 0.463213 0.450987
0.43879 0.42663 0.414515 0.40245 0.390445 0.378505 0.366639 0.354853
0.343155 0.331551 0.320048 0.308654 0.297375 0.286218 0.27519 0.264297
0.253547 0.242944 0.232497 0.222211 0.212092 0.202146 0.19238 0.182799
0.17341 0.164217 0.155226 0.146443 0.137873 0.129521 0.121392 0.113491
0.105823 0.0983929 0.0912043 0.084262 0.0775701 0.0711327 0.0649537
0.0590366 0.0533852 0.0480028 0.0428927 0.038058 0.0335014 0.0292259
0.025234 0.0215281 0.0181103 0.0149829 0.0121476 0.00960615 0.0073601
0.00541082 0.00375944 0.00240701 0.00135431 0.000601947 0.000150442
;
#X coords 0 1 255 0 200 140 1 0 0;
#X restore 154 369 graph;
#X obj 205 24 loadbang;
#X obj 163 112 / 256;
#X connect 0 0 10 0;
#X connect 1 0 4 0;
#X connect 2 0 1 1;
#X connect 3 0 0 0;
#X connect 3 0 2 0;
#X connect 3 0 6 0;
#X connect 4 0 5 0;
#X connect 5 0 6 0;
#X connect 9 0 3 0;
#X connect 10 0 1 0;
#X restore 30 22 pd hanning;
#X obj 702 847 s looprec;
#X obj 702 820 tgl 15 0 empty empty empty 17 7 0 10 -262144 -1 -1 0
1;
#X obj 702 878 tgl 15 0 empty empty empty 17 7 0 10 -262144 -1 -1 0
1;
#X obj 702 905 s L1-active;
#X obj 792 878 tgl 15 0 empty empty empty 17 7 0 10 -262144 -1 -1 0
1;
#X obj 792 905 s L2-active;
#X obj 882 878 tgl 15 0 empty empty empty 17 7 0 10 -262144 -1 -1 0
1;
#X obj 972 878 tgl 15 0 empty empty empty 17 7 0 10 -262144 -1 -1 0
1;
#X obj 882 905 s L3-active;
#X obj 972 905 s L4-active;
#X obj 1086 905 s step;
#X obj 792 820 tgl 15 0 empty empty empty 17 7 0 10 -262144 -1 -1 0
1;
#X obj 792 848 s overDub;
#X obj 711 1007 s L1-gain;
#X floatatom 711 965 5 0 255 0 - - -, f 5;
#X obj 791 985 / 255;
#X floatatom 791 965 5 0 255 0 - - -, f 5;
#X text 791 1014 needs line~;
#X obj 83 606 r~ L1-out;
#X obj 989 1006 s scratchpointer;
#X obj 81 486 s~ crossfader;
#X floatatom 901 962 5 0 0 0 - - -, f 5;
#X obj 899 1005 s L1-pitch;
#X obj 80 438 pack 0 2;
#X obj 80 462 line~;
#X obj 163 606 r~ L2-out;
#X obj 243 606 r~ L3-out;
#X obj 323 606 r~ L4-out;
#N canvas 0 50 1056 1153 (subpatch) 0;
#X array L1-loopbuf 3.2e+06 float 0;
#X coords 0 1153 3.2e+06 1152 256 30 0;
#X restore -127 58 graph;
#N canvas 0 50 1028 701 (subpatch) 0;
#X array L2-loopbuf 3.2e+06 float 2;
#X coords 0 0 3.2e+06 1 256 30 0;
#X restore -127 83 graph;
#N canvas 0 50 1056 1153 (subpatch) 0;
#X array L3-loopbuf 3.2e+06 float 2;
#X coords 0 0 3.2e+06 1 256 30 0;
#X restore -127 109 graph;
#N canvas 0 50 1028 697 (subpatch) 0;
#X array L4-loopbuf 3.2e+06 float 2;
#X coords 0 0 3.2e+06 1 256 30 0;
#X restore -128 130 graph;
#X msg 635 955 254;
#X obj 399 21 lib/clock3;
#X obj 1077 612 lib/looper L1;
#X obj 254 135 moses 129;
#X obj 255 204 / 254;
#X obj 255 250 * 24;
#X obj 255 227 - 0.5;
#X obj 255 306 + 69;
#X obj 255 327 mtof, f 7;
#X obj 255 349 / 440;
#X floatatom 256 185 5 0 0 0 - - -, f 5;
#X obj 194 113 moses 126;
#X msg 254 158 127;
#X obj 255 432 s pitchbend;
#X msg 140 382 0;
#X obj 38 326 moses 128;
#X msg 80 380 128;
#X obj 80 353 moses 252;
#X obj 80 415 / 128;
#X obj 38 302 r X-Fader;
#X obj 194 50 r P-Bend;
#X obj 792 783 r Foot1;
#X obj 255 280 int;
#X obj 255 408 line;
#X obj 194 72 * 1.02;
#X obj 194 93 - 2.5;
#X obj 255 376 pack 0 75;
#X msg 823 636 96;
#X msg 861 635 192;
#X msg 906 634 384;
#X msg 951 635 768;
#X msg 778 636 48;
#X msg 733 636 24;
#X msg 688 636 6;
#X obj 719 702 s step;
#X obj -605 347 r Pshift1;
#X obj -545 435 moses 129;
#X obj -544 504 / 254;
#X obj -544 550 * 24;
#X obj -544 527 - 0.5;
#X obj -574 726 + 69;
#X obj -574 747 mtof, f 7;
#X obj -574 769 / 440;
#X floatatom -543 485 5 0 0 0 - - -, f 5;
#X obj -605 413 moses 126;
#X msg -545 458 127;
#X obj -544 580 int;
#X obj -574 828 line;
#X obj -605 372 * 1.02;
#X obj -605 393 - 2.5;
#X obj -405 435 moses 129;
#X obj -404 504 / 254;
#X obj -404 550 * 24;
#X obj -404 527 - 0.5;
#X obj -414 726 + 69;
#X obj -414 747 mtof, f 7;
#X obj -414 769 / 440;
#X floatatom -403 485 5 0 0 0 - - -, f 5;
#X obj -465 413 moses 126;
#X msg -405 458 127;
#X obj -404 580 int;
#X obj -414 828 line;
#X obj -465 372 * 1.02;
#X obj -465 393 - 2.5;
#X obj -465 347 r Pshift2;
#X obj -245 435 moses 129;
#X obj -244 504 / 254;
#X obj -244 550 * 24;
#X obj -244 527 - 0.5;
#X obj -244 726 + 69;
#X obj -244 747 mtof, f 7;
#X obj -244 769 / 440;
#X floatatom -243 485 5 0 0 0 - - -, f 5;
#X obj -305 413 moses 126;
#X msg -245 458 127;
#X obj -244 580 int;
#X obj -244 828 line;
#X obj -305 372 * 1.02;
#X obj -305 393 - 2.5;
#X obj -105 435 moses 129;
#X obj -104 504 / 254;
#X obj -104 550 * 24;
#X obj -104 527 - 0.5;
#X obj -84 726 + 69;
#X obj -84 747 mtof, f 7;
#X obj -84 769 / 440;
#X floatatom -103 485 5 0 0 0 - - -, f 5;
#X obj -165 413 moses 126;
#X msg -105 458 127;
#X obj -104 580 int;
#X obj -84 828 line;
#X obj -165 372 * 1.02;
#X obj -165 393 - 2.5;
#X obj -305 347 r Pshift3;
#X obj -165 347 r Pshift4;
#X obj -574 855 s pshift1;
#X obj -414 852 s pshift2;
#X obj -244 852 s pshift3;
#X obj -84 852 s pshift4;
#X obj 82 545 r pshift1;
#X obj 161 545 r pshift2;
#X obj 242 546 r pshift3;
#X obj 322 546 r pshift4;
#X obj 324 655 lib/pitch~;
#X obj 325 53 lib/pitchrec;
#N canvas 0 50 1028 701 (subpatch) 0;
#X array L2-pitchbuf 768 float 0;
#X coords 0 701 1 700 256 30 0;
#X restore -77 93 graph;
#N canvas 0 50 1056 1153 (subpatch) 0;
#X array L3-pitchbuf 768 float 0;
#X coords 0 1153 1 1152 256 30 0;
#X restore -77 129 graph;
#N canvas 0 50 1028 697 (subpatch) 0;
#X array L4-pitchbuf 768 float 0;
#X coords 0 697 1 696 256 30 0;
#X restore -78 170 graph;
#N canvas 0 50 1056 1153 (subpatch) 0;
#X array L1-pitchbuf 768 float 0;
#X coords 0 1153 1 1152 256 30 0;
#X restore -77 57 graph;
#X obj 164 655 lib/pitch~;
#X obj 244 657 lib/pitch~;
#X obj 84 655 lib/pitch~;
#X obj -587 1262 tabwrite L1-pitchbuf;
#X obj -565 677 loadbang;
#X msg -565 700 0;
#X obj -405 677 loadbang;
#X msg -405 700 0;
#X obj -235 677 loadbang;
#X msg -235 700 0;
#X obj -75 677 loadbang;
#X msg -75 700 0;
#X obj -587 1238 f;
#X obj -483 1212 + 1;
#X obj -483 1236 % 768;
#X obj -543 1186 t b f;
#X obj -543 929 r midiClock;
#X obj -569 896 r Pshift1;
#X obj -427 1238 f;
#X obj -323 1212 + 1;
#X obj -323 1236 % 768;
#X obj -383 1186 t b f;
#X obj -383 929 r midiClock;
#X obj -409 896 r Pshift2;
#X obj -427 1262 tabwrite L2-pitchbuf;
#X obj -267 1238 f;
#X obj -163 1212 + 1;
#X obj -163 1236 % 768;
#X obj -223 1186 t b f;
#X obj -223 929 r midiClock;
#X obj -107 1238 f;
#X obj -3 1212 + 1;
#X obj -3 1236 % 768;
#X obj -63 1186 t b f;
#X obj -63 929 r midiClock;
#X obj -249 896 r Pshift3;
#X obj -89 896 r Pshift4;
#X obj -107 1262 tabwrite L4-pitchbuf;
#X obj -267 1262 tabwrite L3-pitchbuf;
#X obj -574 650 tabread L1-pitchbuf;
#X obj -574 621 r midiClock;
#X obj -414 650 tabread L2-pitchbuf;
#X obj -244 651 tabread L3-pitchbuf;
#X obj -84 651 tabread L4-pitchbuf;
#X obj -414 621 r midiClock;
#X obj -244 621 r midiClock;
#X obj -84 621 r midiClock;
#X obj -543 1163 spigot;
#X obj -383 1163 spigot;
#X obj -223 1163 spigot;
#X obj -63 1163 spigot;
#X text 281 1171 write array;
#X obj -40 1090 +;
#X obj -40 1067 t b f;
#X obj -35 1111 select 0;
#X msg 18 1133 1;
#X msg -37 1134 0;
#X obj -101 1016 r L4-pitchFollow;
#X obj -78 1044 * -1;
#X obj -78 1067 + 1;
#X msg -45 989 0;
#X obj -66 969 loadbang;
#X obj -200 1090 +;
#X obj -200 1067 t b f;
#X obj -195 1111 select 0;
#X msg -142 1133 1;
#X msg -197 1134 0;
#X obj -238 1044 * -1;
#X obj -238 1067 + 1;
#X msg -205 989 0;
#X obj -226 969 loadbang;
#X obj -261 1016 r L3-pitchFollow;
#X obj -360 1090 +;
#X obj -360 1067 t b f;
#X obj -355 1111 select 0;
#X msg -302 1133 1;
#X msg -357 1134 0;
#X obj -398 1044 * -1;
#X obj -398 1067 + 1;
#X msg -365 989 0;
#X obj -386 969 loadbang;
#X obj -520 1090 +;
#X obj -520 1067 t b f;
#X obj -515 1111 select 0;
#X msg -462 1133 1;
#X msg -517 1134 0;
#X obj -558 1044 * -1;
#X obj -558 1067 + 1;
#X msg -525 989 0;
#X obj -546 969 loadbang;
#X obj -581 1016 r L1-pitchFollow;
#X obj -421 1016 r L2-pitchFollow;
#X obj 203 1108 s pitchWrite;
#X obj 205 1071 tgl 15 0 empty empty empty 17 7 0 10 -262144 -1 -1
0 1;
#X floatatom 205 1091 5 0 0 0 - - -, f 5;
#X obj -33 1039 r pitchWrite4;
#X obj -200 1044 r pitchWrite3;
#X obj -360 1044 r pitchWrite2;
#X obj -520 1044 r pitchWrite1;
#X obj -84 796 pack 0 25;
#X obj -244 796 pack 0 25;
#X obj -414 796 pack 0 25;
#X obj -574 796 pack 0 25;
#X obj 667 499 lib/drBeat;
#X obj 1455 1085 s~ in;
#X obj 1376 820 r~ drum-out;
#X obj 1394 849 r source;
#X msg 1434 900 0;
#X msg 1394 900 1;
#X obj 1377 975 *~;
#X obj 1394 926 pack 0 5;
#X obj 1394 952 line~;
#X obj 1394 874 select 1;
#X obj 1494 849 r source;
#X msg 1534 900 0;
#X msg 1494 900 1;
#X obj 1477 975 *~;
#X obj 1494 926 pack 0 5;
#X obj 1494 952 line~;
#X obj 1494 874 select 2;
#X obj 439 180 select 1;
#X obj 439 203 f;
#X obj 1321 678 s source;
#X msg 1321 652 1;
#X obj 1320 622 loadbang;
#X obj 665 61 r NotesPoly;
#X obj 644 265 f;
#X obj 646 211 >;
#X obj 641 167 t f f f;
#X obj 659 416 f;
#X obj 699 416 f;
#X obj 739 414 f;
#X obj 779 416 f;
#X obj 727 215 r ArpMode;
#X obj 728 243 * -1;
#X obj 729 268 + 1;
#X obj 651 295 spigot;
#X obj 648 239 select 1;
#X obj 705 164 loadbang;
#X msg 703 189 0;
#X obj 522 246 r ChordMode;
#X obj 452 223 r ArpMode;
#X obj 439 253 spigot;
#X obj 501 319 spigot;
#X obj 436 322 spigot;
#X obj 490 273 * -1;
#X obj 489 297 + 1;
#X obj 1395 677 s ChordMode;
#X obj 1485 677 s ArpMode;
#X obj 669 128 unpack 0 0 0 0 0 0 0 0 0 0;
#X obj 779 416 f;
#X obj 819 416 f;
#X obj 859 416 f;
#X obj 899 416 f;
#X obj 500 372 f;
#X obj 651 320 select 1 2 3 4 5 6 7 8;
#X obj 939 416 f;
#X obj 501 344 bang;
#X obj 517 439 until;
#X obj 501 394 t f b;
#X obj 550 471 f;
#X obj 583 470 + 1;
#X msg 560 406 1;
#X obj 1455 1047 *~;
#X obj 1473 1018 r~ crossfader;
#X obj 152 796 lib/effects, f 20;
#X obj 85 724 *~ 0.5;
#X obj 165 719 *~ 0.5;
#X obj 245 724 *~ 0.5;
#X obj 325 724 *~ 0.5;
#X obj -414 45 loadbang;
#N canvas 0 50 1056 1153 (subpatch) 0;
#X array shape1 64 float 1;
#A 0 -0.995 -0.869999 -0.819999 -0.744999 -0.719999 -0.707499 -0.694999
-0.694999 -0.619999 -0.619999 -0.569999 -0.569999 -0.544999 -0.594999
-0.644999 -0.694999 -0.644999 -0.594999 -0.569999 -0.569999 -0.594999
-0.669999 -0.694999 -0.719999 -0.719999 -0.719999 -0.732499 -0.744999
-0.728332 -0.711666 -0.694999 -0.694999 -0.669999 -0.469999 -0.269999
0.3175 0.8175 1.2175 1.1425 0.8425 1.1675 1.2175 1.08 0.9425 0.8175
0.8675 1.0425 1.1175 1.1175 1.005 0.8925 0.7675 0.8925 0.9675 0.9175
0.8925 0.8675 0.5425 0.1925 -0.0575001 0.0425 0.9675 0.9925 1.0175
;
#X coords 0 1153 1 1152 100 40 0;
#X restore -416 120 graph;
#X obj 1476 820 r~ synth1-out;
#X floatatom 597 324 5 0 0 0 - - -, f 5;
#X msg 728 95 3 1 1 2 3 4;
#X obj 519 157 r arpPitch;
#X obj 1893 763 r ChordMode;
#X obj 1852 835 spigot;
#X obj 1892 787 * -1;
#X obj 1891 811 + 1;
#X obj 979 110 r ArpMode;
#X obj 940 134 spigot;
#X obj 1265 285 s arpVelocity;
#X obj 940 80 r arpVelocity;
#X obj 940 167 s velocity;
#X obj 439 127 r arpVelocity;
#X obj 1064 272 s monoPitch;
#X msg 1491 650 0;
#X msg 1396 653 0;
#X obj 1154 272 s velocity;
#X obj 1558 677 s octave;
#X msg 1559 650 3;
#X obj 1078 792 lib/looper L4;
#X obj 1077 672 lib/looper L2;
#X obj 1077 732 lib/looper L3;
#X obj 405 432 select 0;
#X msg -413 72 \; shape1 read lib/shape1.txt;
#X obj 759 500 lib/bbCut;
#X obj 1304 849 r source;
#X msg 1304 900 1;
#X obj 1287 975 *~;
#X obj 1304 926 pack 0 5;
#X obj 1304 952 line~;
#X obj 1304 874 select 1;
#X obj 1286 820 r~ bb-out;
#X obj 1750 48 r listPoly;
#X obj 1808 177 s pitch2;
#X obj 1876 176 s pitch3;
#X obj 1943 175 s pitch4;
#X obj 1753 100 unpack 0 0 0 0 0;
#X obj 1659 130 r arpPitch;
#X obj 1564 130 r monoPitch;
#X obj 1676 217 r ChordMode;
#X obj 1676 240 * -1;
#X obj 1676 261 + 1;
#X obj 1637 294 spigot;
#X obj 1786 217 r ChordMode;
#X obj 1747 292 spigot;
#X obj 1580 194 * -1;
#X obj 1580 215 + 1;
#X obj 1541 248 spigot;
#X obj 1612 250 spigot;
#X obj 1580 171 r ArpMode;
#X obj 1668 347 s pitch1;
#X obj 320 87 lib/synth3;
#X connect 2 0 5 0;
#X connect 4 0 13 0;
#X connect 5 0 3 0;
#X connect 8 0 10 0;
#X connect 11 0 14 0;
#X connect 13 0 2 0;
#X connect 14 0 8 0;
#X connect 16 0 37 0;
#X connect 17 0 19 0;
#X connect 18 0 31 0;
#X connect 19 0 31 0;
#X connect 20 0 381 0;
#X connect 21 0 381 0;
#X connect 22 0 21 0;
#X connect 23 0 29 0;
#X connect 24 0 25 0;
#X connect 24 1 378 0;
#X connect 25 0 21 0;
#X connect 25 1 20 0;
#X connect 26 0 27 0;
#X connect 27 0 28 0;
#X connect 28 0 29 1;
#X connect 29 0 24 0;
#X connect 30 0 31 1;
#X connect 31 0 374 0;
#X connect 32 0 33 1;
#X connect 33 0 369 0;
#X connect 35 0 33 0;
#X connect 36 0 37 1;
#X connect 37 0 18 0;
#X connect 38 0 43 0;
#X connect 39 0 40 0;
#X connect 40 0 41 0;
#X connect 40 1 41 1;
#X connect 41 0 44 0;
#X connect 43 0 41 0;
#X connect 44 0 42 0;
#X connect 52 0 51 0;
#X connect 53 0 54 0;
#X connect 55 0 56 0;
#X connect 57 0 59 0;
#X connect 58 0 60 0;
#X connect 62 0 63 0;
#X connect 65 0 64 0;
#X connect 67 0 66 0;
#X connect 69 0 194 0;
#X connect 72 0 73 0;
#X connect 74 0 75 0;
#X connect 75 0 71 0;
#X connect 76 0 192 0;
#X connect 77 0 193 0;
#X connect 78 0 186 0;
#X connect 83 0 65 0;
#X connect 86 0 95 0;
#X connect 86 1 93 0;
#X connect 87 0 89 0;
#X connect 88 0 105 0;
#X connect 89 0 88 0;
#X connect 90 0 91 0;
#X connect 91 0 92 0;
#X connect 92 0 109 0;
#X connect 93 0 87 0;
#X connect 94 0 93 0;
#X connect 94 1 86 0;
#X connect 95 0 93 0;
#X connect 97 0 101 0;
#X connect 98 0 101 0;
#X connect 98 1 100 0;
#X connect 99 0 101 0;
#X connect 100 0 99 0;
#X connect 100 1 97 0;
#X connect 101 0 74 0;
#X connect 102 0 98 0;
#X connect 103 0 107 0;
#X connect 104 0 62 0;
#X connect 105 0 90 0;
#X connect 106 0 96 0;
#X connect 107 0 108 0;
#X connect 108 0 94 0;
#X connect 109 0 106 0;
#X connect 110 0 117 0;
#X connect 111 0 117 0;
#X connect 112 0 117 0;
#X connect 113 0 117 0;
#X connect 114 0 117 0;
#X connect 115 0 117 0;
#X connect 116 0 117 0;
#X connect 118 0 131 0;
#X connect 119 0 128 0;
#X connect 119 1 126 0;
#X connect 120 0 122 0;
#X connect 121 0 129 0;
#X connect 122 0 121 0;
#X connect 123 0 124 0;
#X connect 124 0 125 0;
#X connect 125 0 294 0;
#X connect 126 0 120 0;
#X connect 127 0 126 0;
#X connect 127 1 119 0;
#X connect 128 0 126 0;
#X connect 130 0 178 0;
#X connect 131 0 132 0;
#X connect 132 0 127 0;
#X connect 133 0 142 0;
#X connect 133 1 140 0;
#X connect 134 0 136 0;
#X connect 135 0 143 0;
#X connect 136 0 135 0;
#X connect 137 0 138 0;
#X connect 138 0 139 0;
#X connect 139 0 293 0;
#X connect 140 0 134 0;
#X connect 141 0 140 0;
#X connect 141 1 133 0;
#X connect 142 0 140 0;
#X connect 144 0 179 0;
#X connect 145 0 146 0;
#X connect 146 0 141 0;
#X connect 147 0 145 0;
#X connect 148 0 157 0;
#X connect 148 1 155 0;
#X connect 149 0 151 0;
#X connect 150 0 158 0;
#X connect 151 0 150 0;
#X connect 152 0 153 0;
#X connect 153 0 154 0;
#X connect 154 0 292 0;
#X connect 155 0 149 0;
#X connect 156 0 155 0;
#X connect 156 1 148 0;
#X connect 157 0 155 0;
#X connect 159 0 180 0;
#X connect 160 0 161 0;
#X connect 161 0 156 0;
#X connect 162 0 171 0;
#X connect 162 1 169 0;
#X connect 163 0 165 0;
#X connect 164 0 172 0;
#X connect 165 0 164 0;
#X connect 166 0 167 0;
#X connect 167 0 168 0;
#X connect 168 0 291 0;
#X connect 169 0 163 0;
#X connect 170 0 169 0;
#X connect 170 1 162 0;
#X connect 171 0 169 0;
#X connect 173 0 181 0;
#X connect 174 0 175 0;
#X connect 175 0 170 0;
#X connect 176 0 160 0;
#X connect 177 0 174 0;
#X connect 182 0 194 1;
#X connect 183 0 192 1;
#X connect 184 0 193 1;
#X connect 185 0 186 1;
#X connect 186 0 361 0;
#X connect 192 0 359 0;
#X connect 193 0 360 0;
#X connect 194 0 358 0;
#X connect 196 0 197 0;
#X connect 197 0 123 0;
#X connect 198 0 199 0;
#X connect 199 0 137 0;
#X connect 200 0 201 0;
#X connect 201 0 152 0;
#X connect 202 0 203 0;
#X connect 203 0 166 0;
#X connect 204 0 195 0;
#X connect 205 0 206 0;
#X connect 206 0 195 1;
#X connect 207 0 204 0;
#X connect 207 1 205 0;
#X connect 208 0 239 0;
#X connect 209 0 204 1;
#X connect 210 0 216 0;
#X connect 211 0 212 0;
#X connect 212 0 216 1;
#X connect 213 0 210 0;
#X connect 213 1 211 0;
#X connect 214 0 240 0;
#X connect 215 0 210 1;
#X connect 217 0 230 0;
#X connect 218 0 219 0;
#X connect 219 0 230 1;
#X connect 220 0 217 0;
#X connect 220 1 218 0;
#X connect 221 0 241 0;
#X connect 222 0 229 0;
#X connect 223 0 224 0;
#X connect 224 0 229 1;
#X connect 225 0 222 0;
#X connect 225 1 223 0;
#X connect 226 0 242 0;
#X connect 227 0 217 1;
#X connect 228 0 222 1;
#X connect 231 0 123 0;
#X connect 232 0 231 0;
#X connect 233 0 137 0;
#X connect 234 0 152 0;
#X connect 235 0 166 0;
#X connect 236 0 233 0;
#X connect 237 0 234 0;
#X connect 238 0 235 0;
#X connect 239 0 207 0;
#X connect 240 0 213 0;
#X connect 241 0 220 0;
#X connect 242 0 225 0;
#X connect 244 0 246 0;
#X connect 245 0 244 0;
#X connect 245 1 244 1;
#X connect 246 0 248 0;
#X connect 246 1 247 0;
#X connect 247 0 242 1;
#X connect 248 0 242 1;
#X connect 249 0 250 0;
#X connect 250 0 251 0;
#X connect 251 0 244 0;
#X connect 252 0 250 0;
#X connect 252 0 245 0;
#X connect 253 0 252 0;
#X connect 254 0 256 0;
#X connect 255 0 254 0;
#X connect 255 1 254 1;
#X connect 256 0 258 0;
#X connect 256 1 257 0;
#X connect 257 0 241 1;
#X connect 258 0 241 1;
#X connect 259 0 260 0;
#X connect 260 0 254 0;
#X connect 261 0 259 0;
#X connect 261 0 255 0;
#X connect 262 0 261 0;
#X connect 263 0 259 0;
#X connect 264 0 266 0;
#X connect 265 0 264 0;
#X connect 265 1 264 1;
#X connect 266 0 268 0;
#X connect 266 1 267 0;
#X connect 267 0 240 1;
#X connect 268 0 240 1;
#X connect 269 0 270 0;
#X connect 270 0 264 0;
#X connect 271 0 269 0;
#X connect 271 0 265 0;
#X connect 272 0 271 0;
#X connect 273 0 275 0;
#X connect 274 0 273 0;
#X connect 274 1 273 1;
#X connect 275 0 277 0;
#X connect 275 1 276 0;
#X connect 276 0 239 1;
#X connect 277 0 239 1;
#X connect 278 0 279 0;
#X connect 279 0 273 0;
#X connect 280 0 278 0;
#X connect 280 0 274 0;
#X connect 281 0 280 0;
#X connect 282 0 278 0;
#X connect 283 0 269 0;
#X connect 285 0 284 0;
#X connect 285 0 286 0;
#X connect 287 0 245 0;
#X connect 288 0 255 0;
#X connect 289 0 265 0;
#X connect 290 0 274 0;
#X connect 291 0 173 0;
#X connect 292 0 159 0;
#X connect 293 0 144 0;
#X connect 294 0 130 0;
#X connect 297 0 301 0;
#X connect 298 0 304 0;
#X connect 299 0 302 0;
#X connect 300 0 302 0;
#X connect 301 0 355 0;
#X connect 302 0 303 0;
#X connect 303 0 301 1;
#X connect 304 0 300 0;
#X connect 304 1 299 0;
#X connect 305 0 311 0;
#X connect 306 0 309 0;
#X connect 307 0 309 0;
#X connect 308 0 355 0;
#X connect 309 0 310 0;
#X connect 310 0 308 1;
#X connect 311 0 307 0;
#X connect 311 1 306 0;
#X connect 312 0 313 0;
#X connect 313 0 334 0;
#X connect 315 0 314 0;
#X connect 316 0 315 0;
#X connect 316 0 380 0;
#X connect 316 0 379 0;
#X connect 316 0 383 0;
#X connect 317 0 341 0;
#X connect 318 0 328 0;
#X connect 319 0 329 0;
#X connect 319 0 365 0;
#X connect 320 0 319 1;
#X connect 320 1 319 0;
#X connect 320 2 318 1;
#X connect 321 0 295 0;
#X connect 321 0 389 0;
#X connect 322 0 295 0;
#X connect 322 0 389 0;
#X connect 323 0 295 0;
#X connect 323 0 389 0;
#X connect 324 0 295 0;
#X connect 324 0 389 0;
#X connect 325 0 326 0;
#X connect 326 0 327 0;
#X connect 327 0 328 1;
#X connect 328 0 347 0;
#X connect 329 0 318 0;
#X connect 330 0 331 0;
#X connect 331 0 319 1;
#X connect 332 0 335 1;
#X connect 332 0 337 0;
#X connect 333 0 334 1;
#X connect 334 0 335 0;
#X connect 334 0 336 0;
#X connect 335 0 349 0;
#X connect 336 0 295 0;
#X connect 336 0 389 0;
#X connect 337 0 338 0;
#X connect 338 0 336 1;
#X connect 341 0 320 0;
#X connect 341 0 346 1;
#X connect 341 2 321 1;
#X connect 341 3 322 1;
#X connect 341 4 323 1;
#X connect 341 5 324 1;
#X connect 341 6 343 1;
#X connect 341 7 344 1;
#X connect 341 8 345 1;
#X connect 343 0 295 0;
#X connect 343 0 389 0;
#X connect 344 0 295 0;
#X connect 344 0 389 0;
#X connect 345 0 295 0;
#X connect 345 0 389 0;
#X connect 346 0 351 0;
#X connect 347 0 321 0;
#X connect 347 1 322 0;
#X connect 347 2 323 0;
#X connect 347 3 324 0;
#X connect 347 4 343 0;
#X connect 347 5 344 0;
#X connect 347 6 345 0;
#X connect 347 7 348 0;
#X connect 348 0 295 0;
#X connect 348 0 389 0;
#X connect 349 0 346 0;
#X connect 350 0 352 0;
#X connect 351 0 387 0;
#X connect 351 1 354 0;
#X connect 352 0 353 0;
#X connect 352 0 347 0;
#X connect 353 0 352 1;
#X connect 354 0 352 1;
#X connect 355 0 296 0;
#X connect 356 0 355 1;
#X connect 357 0 45 0;
#X connect 357 1 45 1;
#X connect 357 2 45 2;
#X connect 357 3 45 3;
#X connect 358 0 357 0;
#X connect 359 0 357 1;
#X connect 360 0 357 2;
#X connect 361 0 357 3;
#X connect 362 0 388 0;
#X connect 364 0 308 0;
#X connect 366 0 341 0;
#X connect 367 0 313 1;
#X connect 368 0 370 0;
#X connect 369 0 34 0;
#X connect 370 0 371 0;
#X connect 371 0 369 1;
#X connect 372 0 373 1;
#X connect 373 0 376 0;
#X connect 375 0 373 0;
#X connect 377 0 312 0;
#X connect 379 0 340 0;
#X connect 380 0 339 0;
#X connect 383 0 382 0;
#X connect 387 1 350 0;
#X connect 390 0 395 0;
#X connect 391 0 393 0;
#X connect 392 0 355 0;
#X connect 393 0 394 0;
#X connect 394 0 392 1;
#X connect 395 0 391 0;
#X connect 396 0 392 0;
#X connect 397 0 401 0;
#X connect 401 1 409 0;
#X connect 401 2 398 0;
#X connect 401 3 399 0;
#X connect 401 4 400 0;
#X connect 402 0 413 0;
#X connect 403 0 412 0;
#X connect 404 0 405 0;
#X connect 404 0 409 1;
#X connect 405 0 406 0;
#X connect 406 0 407 1;
#X connect 407 0 415 0;
#X connect 408 0 409 1;
#X connect 409 0 415 0;
#X connect 410 0 411 0;
#X connect 411 0 412 1;
#X connect 412 0 407 0;
#X connect 413 0 407 0;
#X connect 414 0 410 0;
#X connect 414 0 413 1;
#X coords 0 1153 1 1152 85 60 0;
