#N canvas 0 47 1920 1153 10;
#N canvas 0 50 450 250 (subpatch) 0;
#X array array1 100 float 3;
#A 0 4.2039e-45 4.2039e-45 4.2039e-45 4.2039e-45 4.2039e-45 4.2039e-45
4.2039e-45 4.2039e-45 4.2039e-45 4.2039e-45 4.2039e-45 4.2039e-45 4.2039e-45
4.2039e-45 4.2039e-45 4.2039e-45 4.2039e-45 4.2039e-45 4.2039e-45 4.2039e-45
4.2039e-45 4.2039e-45 4.2039e-45 4.2039e-45 4.2039e-45 4.2039e-45 4.2039e-45
4.2039e-45 4.2039e-45 4.2039e-45 4.2039e-45 4.2039e-45 4.2039e-45 4.2039e-45
4.2039e-45 4.2039e-45 4.2039e-45 4.2039e-45 4.2039e-45 4.2039e-45 4.2039e-45
4.2039e-45 4.2039e-45 4.2039e-45 4.2039e-45 4.2039e-45 4.2039e-45 4.2039e-45
4.2039e-45 4.2039e-45 4.2039e-45 4.2039e-45 4.2039e-45 4.2039e-45 4.2039e-45
4.2039e-45 4.2039e-45 4.2039e-45 4.2039e-45 4.2039e-45 4.2039e-45 4.2039e-45
4.2039e-45 4.2039e-45 4.2039e-45 4.2039e-45 4.2039e-45 4.2039e-45 4.2039e-45
4.2039e-45 4.2039e-45 4.2039e-45 4.2039e-45 4.2039e-45 4.2039e-45 4.2039e-45
4.2039e-45 4.2039e-45 4.2039e-45 4.2039e-45 4.2039e-45 4.2039e-45 4.2039e-45
4.2039e-45 4.2039e-45 4.2039e-45 4.2039e-45 4.2039e-45 4.2039e-45 4.2039e-45
4.2039e-45 4.2039e-45 4.2039e-45 4.2039e-45 4.2039e-45 4.2039e-45 4.2039e-45
4.2039e-45 4.2039e-45 4.2039e-45;
#X coords 0 1 100 -1 500 140 1 0 0;
#X restore 1279 163 graph;
#X obj 965 329 vsl 15 128 0 1 0 0 empty empty empty 0 -9 0 10 -262144
-1 -1 12700 1;
#X floatatom 954 481 5 0 0 0 - - -, f 5;
#X obj 1017 499 line~;
#X obj 1022 472 pack 0 5;
#X obj 98 137 r bpm;
#X obj 98 181 / 60;
#X obj 98 159 * 24;
#X obj 98 247 /;
#X msg 98 226 1000;
#X obj 98 202 t b f;
#X obj 99 110 s bpm;
#X text -2 80 repeatDecay;
#X obj 97 47 loadbang;
#X floatatom 49 58 5 0 0 0 - - -, f 5;
#X obj 175 50 delay 20;
#X floatatom 161 84 5 0 0 0 - - -, f 5;
#X obj 156 364 s 8loopTime;
#X floatatom 142 415 0 0 0 0 - - -;
#X obj 97 452 t b f;
#X obj 97 479 samplerate~;
#X obj 97 503 / 1000;
#X obj 97 533 *;
#X obj 144 580 s dublength;
#X floatatom 78 630 0 0 0 0 - - -;
#X text 132 607 totalsamples;
#X obj 232 463 t b f;
#X obj 233 517 /;
#X msg 234 490 1;
#X floatatom 237 548 0 0 0 0 - - -;
#X text 254 570 phasorfreq;
#X obj 397 553 phasor~;
#X obj 208 742 t b f;
#X obj 209 797 /;
#X obj 207 771 samplerate~;
#X obj 208 872 t b f;
#X obj 218 931 /;
#X obj 207 901 samplerate~;
#X obj 219 831 int;
#X floatatom 210 975 0 0 0 0 - - -;
#X obj 521 873 s midiClock;
#X obj 345 722 s dubsync;
#X obj 345 697 threshold~ 0.9 0 0.1 0;
#X obj 345 670 expr~ $v1 < 0.5;
#X obj 521 753 threshold~ 0.9 0 0.1 0;
#X obj 521 726 expr~ $v1 < 0.5;
#X obj 521 778 f;
#X obj 555 779 + 1;
#X msg 567 823 0;
#X obj 521 823 f;
#X obj 521 801 moses 768;
#X obj 522 700 expr~ $v1 % 2;
#X floatatom 533 918 5 0 0 0 - - -, f 5;
#X floatatom 153 278 5 0 0 0 - - -, f 5;
#X obj 456 611 s~ audioClock;
#X obj 788 495 r~ audioClock;
#N canvas 0 50 450 250 (subpatch) 0;
#X array array2 1.5e+06 float 0;
#X coords 0 1 1.5e+06 -1 500 140 1 0 0;
#X restore 1276 389 graph;
#X obj 141 310 s tickTime, f 11;
#X obj 503 504 print;
#X obj 717 579 lib/roboloop~ array2;
#X msg 502 425 offset \$1;
#X obj 103 723 s smppertick;
#X obj 508 326 r smppertick;
#X obj 492 361 *;
#X obj 498 285 t b f;
#X floatatom 78 769 5 0 0 0 - - -, f 5;
#X obj 365 765 bng 15 250 50 0 empty empty empty 17 7 0 10 -262144
-1 -1;
#X obj 231 430 * 0.001;
#X msg 592 425 size \$1;
#X obj 592 382 r dublength;
#X obj 98 343 * 768;
#X obj 85 681 / 768;
#X obj 523 672 *~ 1536;
#X msg 450 215 96;
#X obj 742 942 dac~ 3;
#X obj 802 942 dac~ 4;
#X msg 490 215 48;
#X msg 530 215 24;
#X obj 789 441 bng 15 250 50 0 empty empty empty 17 7 0 10 -262144
-1 -1;
#X obj 419 415 s loffset;
#X obj 455 588 *~ 768;
#X obj 789 529 *~;
#X obj 818 456 r smppertick;
#X obj 929 663 % 48;
#X obj 930 700 select 0 24;
#X obj 913 917 *~;
#X obj 902 773 tgl 15 0 empty empty empty 17 7 0 10 -262144 -1 -1 0
1;
#X obj 906 809 pack 0 10;
#X obj 894 846 line~;
#X obj 915 948 *~ 0.4;
#X msg 931 731 1;
#X msg 978 733 0;
#X obj 928 633 r midiClock;
#X obj 988 770 bng 15 250 50 0 empty empty empty 17 7 0 10 -262144
-1 -1;
#X obj 772 334 r~ src;
#X obj 1003 951 tgl 15 0 empty empty empty 17 7 0 10 -262144 -1 -1
0 1;
#X obj 999 989 pack 0 10;
#X obj 987 1026 line~;
#X obj 965 1069 *~;
#X obj 956 1103 s~ src;
#X obj 775 874 *~ 0.6;
#X msg 99 77 100;
#X floatatom 525 392 0 0 0 0 - - -;
#X obj 964 860 osc~ 200;
#X connect 1 0 2 0;
#X connect 1 0 4 0;
#X connect 3 0 59 2;
#X connect 4 0 3 0;
#X connect 5 0 7 0;
#X connect 6 0 10 0;
#X connect 7 0 6 0;
#X connect 8 0 53 0;
#X connect 8 0 57 0;
#X connect 8 0 70 0;
#X connect 9 0 8 0;
#X connect 10 0 9 0;
#X connect 10 1 8 1;
#X connect 13 0 15 0;
#X connect 14 0 11 0;
#X connect 16 0 11 0;
#X connect 19 0 20 0;
#X connect 19 1 22 1;
#X connect 20 0 21 0;
#X connect 21 0 22 0;
#X connect 22 0 24 0;
#X connect 22 0 23 0;
#X connect 24 0 71 0;
#X connect 26 0 28 0;
#X connect 26 1 27 1;
#X connect 27 0 29 0;
#X connect 27 0 31 0;
#X connect 28 0 27 0;
#X connect 29 0 32 0;
#X connect 31 0 43 0;
#X connect 31 0 72 0;
#X connect 31 0 80 0;
#X connect 32 0 34 0;
#X connect 32 1 33 1;
#X connect 33 0 38 0;
#X connect 34 0 33 0;
#X connect 35 0 37 0;
#X connect 35 1 36 1;
#X connect 36 0 39 0;
#X connect 37 0 36 0;
#X connect 38 0 35 0;
#X connect 42 0 41 0;
#X connect 42 0 66 0;
#X connect 43 0 42 0;
#X connect 44 0 46 0;
#X connect 45 0 44 0;
#X connect 46 0 50 0;
#X connect 47 0 46 1;
#X connect 48 0 47 0;
#X connect 48 0 40 0;
#X connect 48 0 52 0;
#X connect 49 0 47 0;
#X connect 49 0 40 0;
#X connect 49 0 52 0;
#X connect 50 0 49 0;
#X connect 50 1 48 0;
#X connect 51 0 45 0;
#X connect 55 0 81 0;
#X connect 59 0 100 0;
#X connect 60 0 58 0;
#X connect 60 0 59 0;
#X connect 62 0 63 0;
#X connect 63 0 60 0;
#X connect 63 0 102 0;
#X connect 64 0 63 0;
#X connect 64 1 63 1;
#X connect 64 1 79 0;
#X connect 67 0 26 0;
#X connect 68 0 59 0;
#X connect 69 0 68 0;
#X connect 70 0 17 0;
#X connect 70 0 18 0;
#X connect 70 0 19 0;
#X connect 70 0 67 0;
#X connect 71 0 61 0;
#X connect 71 0 65 0;
#X connect 72 0 51 0;
#X connect 73 0 64 0;
#X connect 76 0 64 0;
#X connect 77 0 64 0;
#X connect 78 0 59 0;
#X connect 80 0 54 0;
#X connect 81 0 59 1;
#X connect 82 0 81 1;
#X connect 83 0 84 0;
#X connect 84 0 90 0;
#X connect 84 1 91 0;
#X connect 85 0 89 0;
#X connect 86 0 87 0;
#X connect 87 0 88 0;
#X connect 88 0 85 0;
#X connect 89 0 98 0;
#X connect 89 0 100 0;
#X connect 90 0 86 0;
#X connect 91 0 86 0;
#X connect 91 0 93 0;
#X connect 92 0 83 0;
#X connect 94 0 59 0;
#X connect 95 0 96 0;
#X connect 96 0 97 0;
#X connect 97 0 98 1;
#X connect 98 0 99 0;
#X connect 100 0 75 0;
#X connect 100 0 74 0;
#X connect 101 0 11 0;
#X connect 103 0 85 1;
